%TF.GenerationSoftware,KiCad,Pcbnew,7.0.1-3b83917a11~172~ubuntu20.04.1*%
%TF.CreationDate,2023-04-20T14:28:58+02:00*%
%TF.ProjectId,alarmclock,616c6172-6d63-46c6-9f63-6b2e6b696361,rev?*%
%TF.SameCoordinates,Original*%
%TF.FileFunction,Paste,Top*%
%TF.FilePolarity,Positive*%
%FSLAX46Y46*%
G04 Gerber Fmt 4.6, Leading zero omitted, Abs format (unit mm)*
G04 Created by KiCad (PCBNEW 7.0.1-3b83917a11~172~ubuntu20.04.1) date 2023-04-20 14:28:58*
%MOMM*%
%LPD*%
G01*
G04 APERTURE LIST*
G04 Aperture macros list*
%AMRoundRect*
0 Rectangle with rounded corners*
0 $1 Rounding radius*
0 $2 $3 $4 $5 $6 $7 $8 $9 X,Y pos of 4 corners*
0 Add a 4 corners polygon primitive as box body*
4,1,4,$2,$3,$4,$5,$6,$7,$8,$9,$2,$3,0*
0 Add four circle primitives for the rounded corners*
1,1,$1+$1,$2,$3*
1,1,$1+$1,$4,$5*
1,1,$1+$1,$6,$7*
1,1,$1+$1,$8,$9*
0 Add four rect primitives between the rounded corners*
20,1,$1+$1,$2,$3,$4,$5,0*
20,1,$1+$1,$4,$5,$6,$7,0*
20,1,$1+$1,$6,$7,$8,$9,0*
20,1,$1+$1,$8,$9,$2,$3,0*%
G04 Aperture macros list end*
%ADD10RoundRect,0.250000X-0.650000X0.325000X-0.650000X-0.325000X0.650000X-0.325000X0.650000X0.325000X0*%
%ADD11RoundRect,0.250000X0.650000X-0.325000X0.650000X0.325000X-0.650000X0.325000X-0.650000X-0.325000X0*%
%ADD12R,0.600000X2.100000*%
%ADD13R,0.450000X1.500000*%
%ADD14R,1.500000X2.000000*%
%ADD15R,3.800000X2.000000*%
%ADD16RoundRect,0.250000X-0.475000X0.250000X-0.475000X-0.250000X0.475000X-0.250000X0.475000X0.250000X0*%
%ADD17RoundRect,0.250000X0.325000X0.650000X-0.325000X0.650000X-0.325000X-0.650000X0.325000X-0.650000X0*%
%ADD18RoundRect,0.250000X0.475000X-0.250000X0.475000X0.250000X-0.475000X0.250000X-0.475000X-0.250000X0*%
%ADD19RoundRect,0.250000X0.625000X-0.312500X0.625000X0.312500X-0.625000X0.312500X-0.625000X-0.312500X0*%
%ADD20RoundRect,0.250001X-0.624999X0.462499X-0.624999X-0.462499X0.624999X-0.462499X0.624999X0.462499X0*%
%ADD21RoundRect,0.100000X0.100000X-0.637500X0.100000X0.637500X-0.100000X0.637500X-0.100000X-0.637500X0*%
G04 APERTURE END LIST*
D10*
%TO.C,C5*%
X76200000Y-92755000D03*
X76200000Y-95705000D03*
%TD*%
%TO.C,C11*%
X63210000Y-132395000D03*
X63210000Y-135345000D03*
%TD*%
D11*
%TO.C,C1*%
X83185000Y-39370000D03*
X83185000Y-42320000D03*
%TD*%
D12*
%TO.C,Y1*%
X64400000Y-96535000D03*
X64400000Y-103735000D03*
X63500000Y-103735000D03*
X63500000Y-96535000D03*
%TD*%
D13*
%TO.C,Q1*%
X77560000Y-128705000D03*
X78860000Y-128705000D03*
X78210000Y-126045000D03*
%TD*%
D11*
%TO.C,C6*%
X70970000Y-86345000D03*
X70970000Y-83395000D03*
%TD*%
D14*
%TO.C,U4*%
X67020000Y-134935000D03*
X69320000Y-134935000D03*
D15*
X69320000Y-128635000D03*
D14*
X71620000Y-134935000D03*
%TD*%
D16*
%TO.C,C7*%
X66940000Y-99075000D03*
X66940000Y-97175000D03*
%TD*%
D17*
%TO.C,C4*%
X75565000Y-118745000D03*
X78515000Y-118745000D03*
%TD*%
D18*
%TO.C,C8*%
X66940000Y-100985000D03*
X66940000Y-102885000D03*
%TD*%
D10*
%TO.C,C9*%
X59840000Y-107540000D03*
X59840000Y-110490000D03*
%TD*%
D19*
%TO.C,R1*%
X83290000Y-128970000D03*
X83290000Y-126045000D03*
%TD*%
D17*
%TO.C,C10*%
X70830000Y-138745000D03*
X67880000Y-138745000D03*
%TD*%
D20*
%TO.C,D1*%
X88265000Y-129740000D03*
X88265000Y-132715000D03*
%TD*%
D21*
%TO.C,U1*%
X68045000Y-89422500D03*
X68695000Y-89422500D03*
X69345000Y-89422500D03*
X69995000Y-89422500D03*
X70645000Y-89422500D03*
X71295000Y-89422500D03*
X71945000Y-89422500D03*
X72595000Y-89422500D03*
X73245000Y-89422500D03*
X73895000Y-89422500D03*
X73895000Y-95147500D03*
X73245000Y-95147500D03*
X72595000Y-95147500D03*
X71945000Y-95147500D03*
X71295000Y-95147500D03*
X70645000Y-95147500D03*
X69995000Y-95147500D03*
X69345000Y-95147500D03*
X68695000Y-95147500D03*
X68045000Y-95147500D03*
%TD*%
M02*
