%TF.GenerationSoftware,KiCad,Pcbnew,7.0.8-7.0.8~ubuntu20.04.1*%
%TF.CreationDate,2023-10-10T13:21:00+02:00*%
%TF.ProjectId,alarmclock,616c6172-6d63-46c6-9f63-6b2e6b696361,rev?*%
%TF.SameCoordinates,Original*%
%TF.FileFunction,Legend,Bot*%
%TF.FilePolarity,Positive*%
%FSLAX46Y46*%
G04 Gerber Fmt 4.6, Leading zero omitted, Abs format (unit mm)*
G04 Created by KiCad (PCBNEW 7.0.8-7.0.8~ubuntu20.04.1) date 2023-10-10 13:21:00*
%MOMM*%
%LPD*%
G01*
G04 APERTURE LIST*
%ADD10C,0.150000*%
%ADD11C,0.120000*%
G04 APERTURE END LIST*
D10*
X111929819Y-91956666D02*
X112644104Y-91956666D01*
X112644104Y-91956666D02*
X112786961Y-91909047D01*
X112786961Y-91909047D02*
X112882200Y-91813809D01*
X112882200Y-91813809D02*
X112929819Y-91670952D01*
X112929819Y-91670952D02*
X112929819Y-91575714D01*
X111929819Y-92337619D02*
X111929819Y-92956666D01*
X111929819Y-92956666D02*
X112310771Y-92623333D01*
X112310771Y-92623333D02*
X112310771Y-92766190D01*
X112310771Y-92766190D02*
X112358390Y-92861428D01*
X112358390Y-92861428D02*
X112406009Y-92909047D01*
X112406009Y-92909047D02*
X112501247Y-92956666D01*
X112501247Y-92956666D02*
X112739342Y-92956666D01*
X112739342Y-92956666D02*
X112834580Y-92909047D01*
X112834580Y-92909047D02*
X112882200Y-92861428D01*
X112882200Y-92861428D02*
X112929819Y-92766190D01*
X112929819Y-92766190D02*
X112929819Y-92480476D01*
X112929819Y-92480476D02*
X112882200Y-92385238D01*
X112882200Y-92385238D02*
X112834580Y-92337619D01*
X129119819Y-87029642D02*
X128643628Y-86696309D01*
X129119819Y-86458214D02*
X128119819Y-86458214D01*
X128119819Y-86458214D02*
X128119819Y-86839166D01*
X128119819Y-86839166D02*
X128167438Y-86934404D01*
X128167438Y-86934404D02*
X128215057Y-86982023D01*
X128215057Y-86982023D02*
X128310295Y-87029642D01*
X128310295Y-87029642D02*
X128453152Y-87029642D01*
X128453152Y-87029642D02*
X128548390Y-86982023D01*
X128548390Y-86982023D02*
X128596009Y-86934404D01*
X128596009Y-86934404D02*
X128643628Y-86839166D01*
X128643628Y-86839166D02*
X128643628Y-86458214D01*
X129119819Y-87982023D02*
X129119819Y-87410595D01*
X129119819Y-87696309D02*
X128119819Y-87696309D01*
X128119819Y-87696309D02*
X128262676Y-87601071D01*
X128262676Y-87601071D02*
X128357914Y-87505833D01*
X128357914Y-87505833D02*
X128405533Y-87410595D01*
X128119819Y-88601071D02*
X128119819Y-88696309D01*
X128119819Y-88696309D02*
X128167438Y-88791547D01*
X128167438Y-88791547D02*
X128215057Y-88839166D01*
X128215057Y-88839166D02*
X128310295Y-88886785D01*
X128310295Y-88886785D02*
X128500771Y-88934404D01*
X128500771Y-88934404D02*
X128738866Y-88934404D01*
X128738866Y-88934404D02*
X128929342Y-88886785D01*
X128929342Y-88886785D02*
X129024580Y-88839166D01*
X129024580Y-88839166D02*
X129072200Y-88791547D01*
X129072200Y-88791547D02*
X129119819Y-88696309D01*
X129119819Y-88696309D02*
X129119819Y-88601071D01*
X129119819Y-88601071D02*
X129072200Y-88505833D01*
X129072200Y-88505833D02*
X129024580Y-88458214D01*
X129024580Y-88458214D02*
X128929342Y-88410595D01*
X128929342Y-88410595D02*
X128738866Y-88362976D01*
X128738866Y-88362976D02*
X128500771Y-88362976D01*
X128500771Y-88362976D02*
X128310295Y-88410595D01*
X128310295Y-88410595D02*
X128215057Y-88458214D01*
X128215057Y-88458214D02*
X128167438Y-88505833D01*
X128167438Y-88505833D02*
X128119819Y-88601071D01*
X103151666Y-88419580D02*
X103199285Y-88467200D01*
X103199285Y-88467200D02*
X103342142Y-88514819D01*
X103342142Y-88514819D02*
X103437380Y-88514819D01*
X103437380Y-88514819D02*
X103580237Y-88467200D01*
X103580237Y-88467200D02*
X103675475Y-88371961D01*
X103675475Y-88371961D02*
X103723094Y-88276723D01*
X103723094Y-88276723D02*
X103770713Y-88086247D01*
X103770713Y-88086247D02*
X103770713Y-87943390D01*
X103770713Y-87943390D02*
X103723094Y-87752914D01*
X103723094Y-87752914D02*
X103675475Y-87657676D01*
X103675475Y-87657676D02*
X103580237Y-87562438D01*
X103580237Y-87562438D02*
X103437380Y-87514819D01*
X103437380Y-87514819D02*
X103342142Y-87514819D01*
X103342142Y-87514819D02*
X103199285Y-87562438D01*
X103199285Y-87562438D02*
X103151666Y-87610057D01*
X102818332Y-87514819D02*
X102199285Y-87514819D01*
X102199285Y-87514819D02*
X102532618Y-87895771D01*
X102532618Y-87895771D02*
X102389761Y-87895771D01*
X102389761Y-87895771D02*
X102294523Y-87943390D01*
X102294523Y-87943390D02*
X102246904Y-87991009D01*
X102246904Y-87991009D02*
X102199285Y-88086247D01*
X102199285Y-88086247D02*
X102199285Y-88324342D01*
X102199285Y-88324342D02*
X102246904Y-88419580D01*
X102246904Y-88419580D02*
X102294523Y-88467200D01*
X102294523Y-88467200D02*
X102389761Y-88514819D01*
X102389761Y-88514819D02*
X102675475Y-88514819D01*
X102675475Y-88514819D02*
X102770713Y-88467200D01*
X102770713Y-88467200D02*
X102818332Y-88419580D01*
X104899404Y-86349819D02*
X104899404Y-87159342D01*
X104899404Y-87159342D02*
X104851785Y-87254580D01*
X104851785Y-87254580D02*
X104804166Y-87302200D01*
X104804166Y-87302200D02*
X104708928Y-87349819D01*
X104708928Y-87349819D02*
X104518452Y-87349819D01*
X104518452Y-87349819D02*
X104423214Y-87302200D01*
X104423214Y-87302200D02*
X104375595Y-87254580D01*
X104375595Y-87254580D02*
X104327976Y-87159342D01*
X104327976Y-87159342D02*
X104327976Y-86349819D01*
X103899404Y-86445057D02*
X103851785Y-86397438D01*
X103851785Y-86397438D02*
X103756547Y-86349819D01*
X103756547Y-86349819D02*
X103518452Y-86349819D01*
X103518452Y-86349819D02*
X103423214Y-86397438D01*
X103423214Y-86397438D02*
X103375595Y-86445057D01*
X103375595Y-86445057D02*
X103327976Y-86540295D01*
X103327976Y-86540295D02*
X103327976Y-86635533D01*
X103327976Y-86635533D02*
X103375595Y-86778390D01*
X103375595Y-86778390D02*
X103947023Y-87349819D01*
X103947023Y-87349819D02*
X103327976Y-87349819D01*
X129244819Y-99729642D02*
X128768628Y-99396309D01*
X129244819Y-99158214D02*
X128244819Y-99158214D01*
X128244819Y-99158214D02*
X128244819Y-99539166D01*
X128244819Y-99539166D02*
X128292438Y-99634404D01*
X128292438Y-99634404D02*
X128340057Y-99682023D01*
X128340057Y-99682023D02*
X128435295Y-99729642D01*
X128435295Y-99729642D02*
X128578152Y-99729642D01*
X128578152Y-99729642D02*
X128673390Y-99682023D01*
X128673390Y-99682023D02*
X128721009Y-99634404D01*
X128721009Y-99634404D02*
X128768628Y-99539166D01*
X128768628Y-99539166D02*
X128768628Y-99158214D01*
X129244819Y-100682023D02*
X129244819Y-100110595D01*
X129244819Y-100396309D02*
X128244819Y-100396309D01*
X128244819Y-100396309D02*
X128387676Y-100301071D01*
X128387676Y-100301071D02*
X128482914Y-100205833D01*
X128482914Y-100205833D02*
X128530533Y-100110595D01*
X128673390Y-101253452D02*
X128625771Y-101158214D01*
X128625771Y-101158214D02*
X128578152Y-101110595D01*
X128578152Y-101110595D02*
X128482914Y-101062976D01*
X128482914Y-101062976D02*
X128435295Y-101062976D01*
X128435295Y-101062976D02*
X128340057Y-101110595D01*
X128340057Y-101110595D02*
X128292438Y-101158214D01*
X128292438Y-101158214D02*
X128244819Y-101253452D01*
X128244819Y-101253452D02*
X128244819Y-101443928D01*
X128244819Y-101443928D02*
X128292438Y-101539166D01*
X128292438Y-101539166D02*
X128340057Y-101586785D01*
X128340057Y-101586785D02*
X128435295Y-101634404D01*
X128435295Y-101634404D02*
X128482914Y-101634404D01*
X128482914Y-101634404D02*
X128578152Y-101586785D01*
X128578152Y-101586785D02*
X128625771Y-101539166D01*
X128625771Y-101539166D02*
X128673390Y-101443928D01*
X128673390Y-101443928D02*
X128673390Y-101253452D01*
X128673390Y-101253452D02*
X128721009Y-101158214D01*
X128721009Y-101158214D02*
X128768628Y-101110595D01*
X128768628Y-101110595D02*
X128863866Y-101062976D01*
X128863866Y-101062976D02*
X129054342Y-101062976D01*
X129054342Y-101062976D02*
X129149580Y-101110595D01*
X129149580Y-101110595D02*
X129197200Y-101158214D01*
X129197200Y-101158214D02*
X129244819Y-101253452D01*
X129244819Y-101253452D02*
X129244819Y-101443928D01*
X129244819Y-101443928D02*
X129197200Y-101539166D01*
X129197200Y-101539166D02*
X129149580Y-101586785D01*
X129149580Y-101586785D02*
X129054342Y-101634404D01*
X129054342Y-101634404D02*
X128863866Y-101634404D01*
X128863866Y-101634404D02*
X128768628Y-101586785D01*
X128768628Y-101586785D02*
X128721009Y-101539166D01*
X128721009Y-101539166D02*
X128673390Y-101443928D01*
X114524819Y-98459642D02*
X114048628Y-98126309D01*
X114524819Y-97888214D02*
X113524819Y-97888214D01*
X113524819Y-97888214D02*
X113524819Y-98269166D01*
X113524819Y-98269166D02*
X113572438Y-98364404D01*
X113572438Y-98364404D02*
X113620057Y-98412023D01*
X113620057Y-98412023D02*
X113715295Y-98459642D01*
X113715295Y-98459642D02*
X113858152Y-98459642D01*
X113858152Y-98459642D02*
X113953390Y-98412023D01*
X113953390Y-98412023D02*
X114001009Y-98364404D01*
X114001009Y-98364404D02*
X114048628Y-98269166D01*
X114048628Y-98269166D02*
X114048628Y-97888214D01*
X114524819Y-99412023D02*
X114524819Y-98840595D01*
X114524819Y-99126309D02*
X113524819Y-99126309D01*
X113524819Y-99126309D02*
X113667676Y-99031071D01*
X113667676Y-99031071D02*
X113762914Y-98935833D01*
X113762914Y-98935833D02*
X113810533Y-98840595D01*
X113620057Y-99792976D02*
X113572438Y-99840595D01*
X113572438Y-99840595D02*
X113524819Y-99935833D01*
X113524819Y-99935833D02*
X113524819Y-100173928D01*
X113524819Y-100173928D02*
X113572438Y-100269166D01*
X113572438Y-100269166D02*
X113620057Y-100316785D01*
X113620057Y-100316785D02*
X113715295Y-100364404D01*
X113715295Y-100364404D02*
X113810533Y-100364404D01*
X113810533Y-100364404D02*
X113953390Y-100316785D01*
X113953390Y-100316785D02*
X114524819Y-99745357D01*
X114524819Y-99745357D02*
X114524819Y-100364404D01*
X98729580Y-86623333D02*
X98777200Y-86575714D01*
X98777200Y-86575714D02*
X98824819Y-86432857D01*
X98824819Y-86432857D02*
X98824819Y-86337619D01*
X98824819Y-86337619D02*
X98777200Y-86194762D01*
X98777200Y-86194762D02*
X98681961Y-86099524D01*
X98681961Y-86099524D02*
X98586723Y-86051905D01*
X98586723Y-86051905D02*
X98396247Y-86004286D01*
X98396247Y-86004286D02*
X98253390Y-86004286D01*
X98253390Y-86004286D02*
X98062914Y-86051905D01*
X98062914Y-86051905D02*
X97967676Y-86099524D01*
X97967676Y-86099524D02*
X97872438Y-86194762D01*
X97872438Y-86194762D02*
X97824819Y-86337619D01*
X97824819Y-86337619D02*
X97824819Y-86432857D01*
X97824819Y-86432857D02*
X97872438Y-86575714D01*
X97872438Y-86575714D02*
X97920057Y-86623333D01*
X98824819Y-87575714D02*
X98824819Y-87004286D01*
X98824819Y-87290000D02*
X97824819Y-87290000D01*
X97824819Y-87290000D02*
X97967676Y-87194762D01*
X97967676Y-87194762D02*
X98062914Y-87099524D01*
X98062914Y-87099524D02*
X98110533Y-87004286D01*
X125954819Y-99729642D02*
X125478628Y-99396309D01*
X125954819Y-99158214D02*
X124954819Y-99158214D01*
X124954819Y-99158214D02*
X124954819Y-99539166D01*
X124954819Y-99539166D02*
X125002438Y-99634404D01*
X125002438Y-99634404D02*
X125050057Y-99682023D01*
X125050057Y-99682023D02*
X125145295Y-99729642D01*
X125145295Y-99729642D02*
X125288152Y-99729642D01*
X125288152Y-99729642D02*
X125383390Y-99682023D01*
X125383390Y-99682023D02*
X125431009Y-99634404D01*
X125431009Y-99634404D02*
X125478628Y-99539166D01*
X125478628Y-99539166D02*
X125478628Y-99158214D01*
X125954819Y-100682023D02*
X125954819Y-100110595D01*
X125954819Y-100396309D02*
X124954819Y-100396309D01*
X124954819Y-100396309D02*
X125097676Y-100301071D01*
X125097676Y-100301071D02*
X125192914Y-100205833D01*
X125192914Y-100205833D02*
X125240533Y-100110595D01*
X124954819Y-101015357D02*
X124954819Y-101682023D01*
X124954819Y-101682023D02*
X125954819Y-101253452D01*
X111984819Y-98935833D02*
X111508628Y-98602500D01*
X111984819Y-98364405D02*
X110984819Y-98364405D01*
X110984819Y-98364405D02*
X110984819Y-98745357D01*
X110984819Y-98745357D02*
X111032438Y-98840595D01*
X111032438Y-98840595D02*
X111080057Y-98888214D01*
X111080057Y-98888214D02*
X111175295Y-98935833D01*
X111175295Y-98935833D02*
X111318152Y-98935833D01*
X111318152Y-98935833D02*
X111413390Y-98888214D01*
X111413390Y-98888214D02*
X111461009Y-98840595D01*
X111461009Y-98840595D02*
X111508628Y-98745357D01*
X111508628Y-98745357D02*
X111508628Y-98364405D01*
X111984819Y-99412024D02*
X111984819Y-99602500D01*
X111984819Y-99602500D02*
X111937200Y-99697738D01*
X111937200Y-99697738D02*
X111889580Y-99745357D01*
X111889580Y-99745357D02*
X111746723Y-99840595D01*
X111746723Y-99840595D02*
X111556247Y-99888214D01*
X111556247Y-99888214D02*
X111175295Y-99888214D01*
X111175295Y-99888214D02*
X111080057Y-99840595D01*
X111080057Y-99840595D02*
X111032438Y-99792976D01*
X111032438Y-99792976D02*
X110984819Y-99697738D01*
X110984819Y-99697738D02*
X110984819Y-99507262D01*
X110984819Y-99507262D02*
X111032438Y-99412024D01*
X111032438Y-99412024D02*
X111080057Y-99364405D01*
X111080057Y-99364405D02*
X111175295Y-99316786D01*
X111175295Y-99316786D02*
X111413390Y-99316786D01*
X111413390Y-99316786D02*
X111508628Y-99364405D01*
X111508628Y-99364405D02*
X111556247Y-99412024D01*
X111556247Y-99412024D02*
X111603866Y-99507262D01*
X111603866Y-99507262D02*
X111603866Y-99697738D01*
X111603866Y-99697738D02*
X111556247Y-99792976D01*
X111556247Y-99792976D02*
X111508628Y-99840595D01*
X111508628Y-99840595D02*
X111413390Y-99888214D01*
X126579819Y-87565833D02*
X126103628Y-87232500D01*
X126579819Y-86994405D02*
X125579819Y-86994405D01*
X125579819Y-86994405D02*
X125579819Y-87375357D01*
X125579819Y-87375357D02*
X125627438Y-87470595D01*
X125627438Y-87470595D02*
X125675057Y-87518214D01*
X125675057Y-87518214D02*
X125770295Y-87565833D01*
X125770295Y-87565833D02*
X125913152Y-87565833D01*
X125913152Y-87565833D02*
X126008390Y-87518214D01*
X126008390Y-87518214D02*
X126056009Y-87470595D01*
X126056009Y-87470595D02*
X126103628Y-87375357D01*
X126103628Y-87375357D02*
X126103628Y-86994405D01*
X126008390Y-88137262D02*
X125960771Y-88042024D01*
X125960771Y-88042024D02*
X125913152Y-87994405D01*
X125913152Y-87994405D02*
X125817914Y-87946786D01*
X125817914Y-87946786D02*
X125770295Y-87946786D01*
X125770295Y-87946786D02*
X125675057Y-87994405D01*
X125675057Y-87994405D02*
X125627438Y-88042024D01*
X125627438Y-88042024D02*
X125579819Y-88137262D01*
X125579819Y-88137262D02*
X125579819Y-88327738D01*
X125579819Y-88327738D02*
X125627438Y-88422976D01*
X125627438Y-88422976D02*
X125675057Y-88470595D01*
X125675057Y-88470595D02*
X125770295Y-88518214D01*
X125770295Y-88518214D02*
X125817914Y-88518214D01*
X125817914Y-88518214D02*
X125913152Y-88470595D01*
X125913152Y-88470595D02*
X125960771Y-88422976D01*
X125960771Y-88422976D02*
X126008390Y-88327738D01*
X126008390Y-88327738D02*
X126008390Y-88137262D01*
X126008390Y-88137262D02*
X126056009Y-88042024D01*
X126056009Y-88042024D02*
X126103628Y-87994405D01*
X126103628Y-87994405D02*
X126198866Y-87946786D01*
X126198866Y-87946786D02*
X126389342Y-87946786D01*
X126389342Y-87946786D02*
X126484580Y-87994405D01*
X126484580Y-87994405D02*
X126532200Y-88042024D01*
X126532200Y-88042024D02*
X126579819Y-88137262D01*
X126579819Y-88137262D02*
X126579819Y-88327738D01*
X126579819Y-88327738D02*
X126532200Y-88422976D01*
X126532200Y-88422976D02*
X126484580Y-88470595D01*
X126484580Y-88470595D02*
X126389342Y-88518214D01*
X126389342Y-88518214D02*
X126198866Y-88518214D01*
X126198866Y-88518214D02*
X126103628Y-88470595D01*
X126103628Y-88470595D02*
X126056009Y-88422976D01*
X126056009Y-88422976D02*
X126008390Y-88327738D01*
X92093333Y-100694819D02*
X92093333Y-101409104D01*
X92093333Y-101409104D02*
X92140952Y-101551961D01*
X92140952Y-101551961D02*
X92236190Y-101647200D01*
X92236190Y-101647200D02*
X92379047Y-101694819D01*
X92379047Y-101694819D02*
X92474285Y-101694819D01*
X91188571Y-100694819D02*
X91379047Y-100694819D01*
X91379047Y-100694819D02*
X91474285Y-100742438D01*
X91474285Y-100742438D02*
X91521904Y-100790057D01*
X91521904Y-100790057D02*
X91617142Y-100932914D01*
X91617142Y-100932914D02*
X91664761Y-101123390D01*
X91664761Y-101123390D02*
X91664761Y-101504342D01*
X91664761Y-101504342D02*
X91617142Y-101599580D01*
X91617142Y-101599580D02*
X91569523Y-101647200D01*
X91569523Y-101647200D02*
X91474285Y-101694819D01*
X91474285Y-101694819D02*
X91283809Y-101694819D01*
X91283809Y-101694819D02*
X91188571Y-101647200D01*
X91188571Y-101647200D02*
X91140952Y-101599580D01*
X91140952Y-101599580D02*
X91093333Y-101504342D01*
X91093333Y-101504342D02*
X91093333Y-101266247D01*
X91093333Y-101266247D02*
X91140952Y-101171009D01*
X91140952Y-101171009D02*
X91188571Y-101123390D01*
X91188571Y-101123390D02*
X91283809Y-101075771D01*
X91283809Y-101075771D02*
X91474285Y-101075771D01*
X91474285Y-101075771D02*
X91569523Y-101123390D01*
X91569523Y-101123390D02*
X91617142Y-101171009D01*
X91617142Y-101171009D02*
X91664761Y-101266247D01*
X94593580Y-88971904D02*
X94641200Y-88924285D01*
X94641200Y-88924285D02*
X94688819Y-88781428D01*
X94688819Y-88781428D02*
X94688819Y-88686190D01*
X94688819Y-88686190D02*
X94641200Y-88543333D01*
X94641200Y-88543333D02*
X94545961Y-88448095D01*
X94545961Y-88448095D02*
X94450723Y-88400476D01*
X94450723Y-88400476D02*
X94260247Y-88352857D01*
X94260247Y-88352857D02*
X94117390Y-88352857D01*
X94117390Y-88352857D02*
X93926914Y-88400476D01*
X93926914Y-88400476D02*
X93831676Y-88448095D01*
X93831676Y-88448095D02*
X93736438Y-88543333D01*
X93736438Y-88543333D02*
X93688819Y-88686190D01*
X93688819Y-88686190D02*
X93688819Y-88781428D01*
X93688819Y-88781428D02*
X93736438Y-88924285D01*
X93736438Y-88924285D02*
X93784057Y-88971904D01*
X94688819Y-89543333D02*
X94641200Y-89448095D01*
X94641200Y-89448095D02*
X94593580Y-89400476D01*
X94593580Y-89400476D02*
X94498342Y-89352857D01*
X94498342Y-89352857D02*
X94212628Y-89352857D01*
X94212628Y-89352857D02*
X94117390Y-89400476D01*
X94117390Y-89400476D02*
X94069771Y-89448095D01*
X94069771Y-89448095D02*
X94022152Y-89543333D01*
X94022152Y-89543333D02*
X94022152Y-89686190D01*
X94022152Y-89686190D02*
X94069771Y-89781428D01*
X94069771Y-89781428D02*
X94117390Y-89829047D01*
X94117390Y-89829047D02*
X94212628Y-89876666D01*
X94212628Y-89876666D02*
X94498342Y-89876666D01*
X94498342Y-89876666D02*
X94593580Y-89829047D01*
X94593580Y-89829047D02*
X94641200Y-89781428D01*
X94641200Y-89781428D02*
X94688819Y-89686190D01*
X94688819Y-89686190D02*
X94688819Y-89543333D01*
X94022152Y-90305238D02*
X94688819Y-90305238D01*
X94117390Y-90305238D02*
X94069771Y-90352857D01*
X94069771Y-90352857D02*
X94022152Y-90448095D01*
X94022152Y-90448095D02*
X94022152Y-90590952D01*
X94022152Y-90590952D02*
X94069771Y-90686190D01*
X94069771Y-90686190D02*
X94165009Y-90733809D01*
X94165009Y-90733809D02*
X94688819Y-90733809D01*
X94022152Y-91210000D02*
X94688819Y-91210000D01*
X94117390Y-91210000D02*
X94069771Y-91257619D01*
X94069771Y-91257619D02*
X94022152Y-91352857D01*
X94022152Y-91352857D02*
X94022152Y-91495714D01*
X94022152Y-91495714D02*
X94069771Y-91590952D01*
X94069771Y-91590952D02*
X94165009Y-91638571D01*
X94165009Y-91638571D02*
X94688819Y-91638571D01*
X94784057Y-91876667D02*
X94784057Y-92638571D01*
X93688819Y-93067143D02*
X93688819Y-93162381D01*
X93688819Y-93162381D02*
X93736438Y-93257619D01*
X93736438Y-93257619D02*
X93784057Y-93305238D01*
X93784057Y-93305238D02*
X93879295Y-93352857D01*
X93879295Y-93352857D02*
X94069771Y-93400476D01*
X94069771Y-93400476D02*
X94307866Y-93400476D01*
X94307866Y-93400476D02*
X94498342Y-93352857D01*
X94498342Y-93352857D02*
X94593580Y-93305238D01*
X94593580Y-93305238D02*
X94641200Y-93257619D01*
X94641200Y-93257619D02*
X94688819Y-93162381D01*
X94688819Y-93162381D02*
X94688819Y-93067143D01*
X94688819Y-93067143D02*
X94641200Y-92971905D01*
X94641200Y-92971905D02*
X94593580Y-92924286D01*
X94593580Y-92924286D02*
X94498342Y-92876667D01*
X94498342Y-92876667D02*
X94307866Y-92829048D01*
X94307866Y-92829048D02*
X94069771Y-92829048D01*
X94069771Y-92829048D02*
X93879295Y-92876667D01*
X93879295Y-92876667D02*
X93784057Y-92924286D01*
X93784057Y-92924286D02*
X93736438Y-92971905D01*
X93736438Y-92971905D02*
X93688819Y-93067143D01*
X94688819Y-94352857D02*
X94688819Y-93781429D01*
X94688819Y-94067143D02*
X93688819Y-94067143D01*
X93688819Y-94067143D02*
X93831676Y-93971905D01*
X93831676Y-93971905D02*
X93926914Y-93876667D01*
X93926914Y-93876667D02*
X93974533Y-93781429D01*
X94688819Y-94686191D02*
X94022152Y-95210000D01*
X94022152Y-94686191D02*
X94688819Y-95210000D01*
X93688819Y-95781429D02*
X93688819Y-95876667D01*
X93688819Y-95876667D02*
X93736438Y-95971905D01*
X93736438Y-95971905D02*
X93784057Y-96019524D01*
X93784057Y-96019524D02*
X93879295Y-96067143D01*
X93879295Y-96067143D02*
X94069771Y-96114762D01*
X94069771Y-96114762D02*
X94307866Y-96114762D01*
X94307866Y-96114762D02*
X94498342Y-96067143D01*
X94498342Y-96067143D02*
X94593580Y-96019524D01*
X94593580Y-96019524D02*
X94641200Y-95971905D01*
X94641200Y-95971905D02*
X94688819Y-95876667D01*
X94688819Y-95876667D02*
X94688819Y-95781429D01*
X94688819Y-95781429D02*
X94641200Y-95686191D01*
X94641200Y-95686191D02*
X94593580Y-95638572D01*
X94593580Y-95638572D02*
X94498342Y-95590953D01*
X94498342Y-95590953D02*
X94307866Y-95543334D01*
X94307866Y-95543334D02*
X94069771Y-95543334D01*
X94069771Y-95543334D02*
X93879295Y-95590953D01*
X93879295Y-95590953D02*
X93784057Y-95638572D01*
X93784057Y-95638572D02*
X93736438Y-95686191D01*
X93736438Y-95686191D02*
X93688819Y-95781429D01*
X93688819Y-97019524D02*
X93688819Y-96543334D01*
X93688819Y-96543334D02*
X94165009Y-96495715D01*
X94165009Y-96495715D02*
X94117390Y-96543334D01*
X94117390Y-96543334D02*
X94069771Y-96638572D01*
X94069771Y-96638572D02*
X94069771Y-96876667D01*
X94069771Y-96876667D02*
X94117390Y-96971905D01*
X94117390Y-96971905D02*
X94165009Y-97019524D01*
X94165009Y-97019524D02*
X94260247Y-97067143D01*
X94260247Y-97067143D02*
X94498342Y-97067143D01*
X94498342Y-97067143D02*
X94593580Y-97019524D01*
X94593580Y-97019524D02*
X94641200Y-96971905D01*
X94641200Y-96971905D02*
X94688819Y-96876667D01*
X94688819Y-96876667D02*
X94688819Y-96638572D01*
X94688819Y-96638572D02*
X94641200Y-96543334D01*
X94641200Y-96543334D02*
X94593580Y-96495715D01*
X131659819Y-87029642D02*
X131183628Y-86696309D01*
X131659819Y-86458214D02*
X130659819Y-86458214D01*
X130659819Y-86458214D02*
X130659819Y-86839166D01*
X130659819Y-86839166D02*
X130707438Y-86934404D01*
X130707438Y-86934404D02*
X130755057Y-86982023D01*
X130755057Y-86982023D02*
X130850295Y-87029642D01*
X130850295Y-87029642D02*
X130993152Y-87029642D01*
X130993152Y-87029642D02*
X131088390Y-86982023D01*
X131088390Y-86982023D02*
X131136009Y-86934404D01*
X131136009Y-86934404D02*
X131183628Y-86839166D01*
X131183628Y-86839166D02*
X131183628Y-86458214D01*
X131659819Y-87982023D02*
X131659819Y-87410595D01*
X131659819Y-87696309D02*
X130659819Y-87696309D01*
X130659819Y-87696309D02*
X130802676Y-87601071D01*
X130802676Y-87601071D02*
X130897914Y-87505833D01*
X130897914Y-87505833D02*
X130945533Y-87410595D01*
X131659819Y-88934404D02*
X131659819Y-88362976D01*
X131659819Y-88648690D02*
X130659819Y-88648690D01*
X130659819Y-88648690D02*
X130802676Y-88553452D01*
X130802676Y-88553452D02*
X130897914Y-88458214D01*
X130897914Y-88458214D02*
X130945533Y-88362976D01*
D11*
%TO.C,R10*%
X131395000Y-86945436D02*
X131395000Y-88399564D01*
X129575000Y-86945436D02*
X129575000Y-88399564D01*
%TO.C,C3*%
X102273748Y-85300000D02*
X103696252Y-85300000D01*
X102273748Y-87120000D02*
X103696252Y-87120000D01*
%TO.C,U2*%
X104137500Y-93080000D02*
X106337500Y-93080000D01*
X104137500Y-93080000D02*
X101937500Y-93080000D01*
X104137500Y-87610000D02*
X107737500Y-87610000D01*
X104137500Y-87610000D02*
X101937500Y-87610000D01*
%TO.C,R4*%
X116800000Y-86752936D02*
X116800000Y-88207064D01*
X114980000Y-86752936D02*
X114980000Y-88207064D01*
%TO.C,R18*%
X131520000Y-99645436D02*
X131520000Y-101099564D01*
X129700000Y-99645436D02*
X129700000Y-101099564D01*
%TO.C,R12*%
X116800000Y-98375436D02*
X116800000Y-99829564D01*
X114980000Y-98375436D02*
X114980000Y-99829564D01*
%TO.C,C1*%
X95610000Y-87501252D02*
X95610000Y-86078748D01*
X97430000Y-87501252D02*
X97430000Y-86078748D01*
%TO.C,R17*%
X128230000Y-99645436D02*
X128230000Y-101099564D01*
X126410000Y-99645436D02*
X126410000Y-101099564D01*
%TO.C,U3*%
X103512500Y-104540000D02*
X105712500Y-104540000D01*
X103512500Y-104540000D02*
X101312500Y-104540000D01*
X103512500Y-99070000D02*
X107112500Y-99070000D01*
X103512500Y-99070000D02*
X101312500Y-99070000D01*
%TO.C,R9*%
X114260000Y-98375436D02*
X114260000Y-99829564D01*
X112440000Y-98375436D02*
X112440000Y-99829564D01*
%TO.C,R8*%
X128855000Y-87005436D02*
X128855000Y-88459564D01*
X127035000Y-87005436D02*
X127035000Y-88459564D01*
%TO.C,J6*%
X90430000Y-87420000D02*
X93090000Y-87420000D01*
X90430000Y-97640000D02*
X90430000Y-87420000D01*
X90430000Y-97640000D02*
X93090000Y-97640000D01*
X90430000Y-98910000D02*
X90430000Y-100240000D01*
X90430000Y-100240000D02*
X91760000Y-100240000D01*
X93090000Y-97640000D02*
X93090000Y-87420000D01*
%TO.C,C2*%
X101413748Y-96730000D02*
X102836252Y-96730000D01*
X101413748Y-98550000D02*
X102836252Y-98550000D01*
%TO.C,C9*%
X63775000Y-89028748D02*
X63775000Y-90451252D01*
X61955000Y-89028748D02*
X61955000Y-90451252D01*
%TO.C,R3*%
X114260000Y-86752936D02*
X114260000Y-88207064D01*
X112440000Y-86752936D02*
X112440000Y-88207064D01*
%TO.C,R11*%
X133935000Y-86945436D02*
X133935000Y-88399564D01*
X132115000Y-86945436D02*
X132115000Y-88399564D01*
%TD*%
M02*
