%TF.GenerationSoftware,KiCad,Pcbnew,7.0.1-3b83917a11~172~ubuntu20.04.1*%
%TF.CreationDate,2023-04-20T14:28:58+02:00*%
%TF.ProjectId,alarmclock,616c6172-6d63-46c6-9f63-6b2e6b696361,rev?*%
%TF.SameCoordinates,Original*%
%TF.FileFunction,Copper,L2,Bot*%
%TF.FilePolarity,Positive*%
%FSLAX46Y46*%
G04 Gerber Fmt 4.6, Leading zero omitted, Abs format (unit mm)*
G04 Created by KiCad (PCBNEW 7.0.1-3b83917a11~172~ubuntu20.04.1) date 2023-04-20 14:28:58*
%MOMM*%
%LPD*%
G01*
G04 APERTURE LIST*
G04 Aperture macros list*
%AMRoundRect*
0 Rectangle with rounded corners*
0 $1 Rounding radius*
0 $2 $3 $4 $5 $6 $7 $8 $9 X,Y pos of 4 corners*
0 Add a 4 corners polygon primitive as box body*
4,1,4,$2,$3,$4,$5,$6,$7,$8,$9,$2,$3,0*
0 Add four circle primitives for the rounded corners*
1,1,$1+$1,$2,$3*
1,1,$1+$1,$4,$5*
1,1,$1+$1,$6,$7*
1,1,$1+$1,$8,$9*
0 Add four rect primitives between the rounded corners*
20,1,$1+$1,$2,$3,$4,$5,0*
20,1,$1+$1,$4,$5,$6,$7,0*
20,1,$1+$1,$6,$7,$8,$9,0*
20,1,$1+$1,$8,$9,$2,$3,0*%
G04 Aperture macros list end*
%TA.AperFunction,ComponentPad*%
%ADD10R,2.100000X2.100000*%
%TD*%
%TA.AperFunction,ComponentPad*%
%ADD11C,2.100000*%
%TD*%
%TA.AperFunction,ComponentPad*%
%ADD12O,1.700000X1.700000*%
%TD*%
%TA.AperFunction,ComponentPad*%
%ADD13R,1.700000X1.700000*%
%TD*%
%TA.AperFunction,ComponentPad*%
%ADD14R,0.850000X0.850000*%
%TD*%
%TA.AperFunction,ComponentPad*%
%ADD15O,0.850000X0.850000*%
%TD*%
%TA.AperFunction,SMDPad,CuDef*%
%ADD16RoundRect,0.250000X-0.625000X0.312500X-0.625000X-0.312500X0.625000X-0.312500X0.625000X0.312500X0*%
%TD*%
%TA.AperFunction,SMDPad,CuDef*%
%ADD17RoundRect,0.250000X-0.325000X-0.650000X0.325000X-0.650000X0.325000X0.650000X-0.325000X0.650000X0*%
%TD*%
%TA.AperFunction,SMDPad,CuDef*%
%ADD18RoundRect,0.100000X0.637500X0.100000X-0.637500X0.100000X-0.637500X-0.100000X0.637500X-0.100000X0*%
%TD*%
%TA.AperFunction,ViaPad*%
%ADD19C,0.800000*%
%TD*%
%TA.AperFunction,Conductor*%
%ADD20C,0.250000*%
%TD*%
G04 APERTURE END LIST*
D10*
%TO.P,BT1,1,+*%
%TO.N,Net-(BT1-+)*%
X92755914Y-132715000D03*
D11*
%TO.P,BT1,2,-*%
%TO.N,GND*%
X112755914Y-132715000D03*
%TD*%
D12*
%TO.P,J4,8,Pin_8*%
%TO.N,Net-(J4-Pin_8)*%
X117475000Y-49310000D03*
%TO.P,J4,7,Pin_7*%
%TO.N,Net-(J4-Pin_7)*%
X114935000Y-49310000D03*
%TO.P,J4,6,Pin_6*%
%TO.N,Net-(J4-Pin_6)*%
X112395000Y-49310000D03*
%TO.P,J4,5,Pin_5*%
%TO.N,Net-(J4-Pin_5)*%
X109855000Y-49310000D03*
%TO.P,J4,4,Pin_4*%
%TO.N,Net-(J4-Pin_4)*%
X107315000Y-49310000D03*
%TO.P,J4,3,Pin_3*%
%TO.N,Net-(J4-Pin_3)*%
X104775000Y-49310000D03*
%TO.P,J4,2,Pin_2*%
%TO.N,Net-(J4-Pin_2)*%
X102235000Y-49310000D03*
D13*
%TO.P,J4,1,Pin_1*%
%TO.N,Net-(J4-Pin_1)*%
X99695000Y-49310000D03*
%TD*%
%TO.P,BZ1,1,-*%
%TO.N,GND*%
X68580000Y-110490000D03*
D12*
%TO.P,BZ1,2,+*%
%TO.N,Alarm*%
X68580000Y-107950000D03*
%TD*%
%TO.P,J7,5,Pin_5*%
%TO.N,+5V*%
X77470000Y-99105000D03*
%TO.P,J7,4,Pin_4*%
%TO.N,SHIFT_IN*%
X77470000Y-101645000D03*
%TO.P,J7,3,Pin_3*%
%TO.N,RCLK*%
X77470000Y-104185000D03*
%TO.P,J7,2,Pin_2*%
%TO.N,SRCLK*%
X77470000Y-106725000D03*
D13*
%TO.P,J7,1,Pin_1*%
%TO.N,GND*%
X77470000Y-109265000D03*
%TD*%
D14*
%TO.P,J2,1,Pin_1*%
%TO.N,+3V3*%
X68430000Y-84935000D03*
D15*
%TO.P,J2,2,Pin_2*%
%TO.N,SWDIO*%
X68430000Y-85935000D03*
%TO.P,J2,3,Pin_3*%
%TO.N,GND*%
X67430000Y-84935000D03*
%TO.P,J2,4,Pin_4*%
%TO.N,SWCLK*%
X67430000Y-85935000D03*
%TO.P,J2,5,Pin_5*%
%TO.N,GND*%
X66430000Y-84935000D03*
%TO.P,J2,6,Pin_6*%
%TO.N,unconnected-(J2-Pin_6-Pad6)*%
X66430000Y-85935000D03*
%TO.P,J2,7,Pin_7*%
%TO.N,unconnected-(J2-Pin_7-Pad7)*%
X65430000Y-84935000D03*
%TO.P,J2,8,Pin_8*%
%TO.N,unconnected-(J2-Pin_8-Pad8)*%
X65430000Y-85935000D03*
%TO.P,J2,9,Pin_9*%
%TO.N,GND*%
X64430000Y-84935000D03*
%TO.P,J2,10,Pin_10*%
%TO.N,NRST*%
X64430000Y-85935000D03*
%TD*%
D12*
%TO.P,J3,8,Pin_8*%
%TO.N,Net-(J3-Pin_8)*%
X117475000Y-37160000D03*
%TO.P,J3,7,Pin_7*%
%TO.N,Net-(J3-Pin_7)*%
X114935000Y-37160000D03*
%TO.P,J3,6,Pin_6*%
%TO.N,Net-(J3-Pin_6)*%
X112395000Y-37160000D03*
%TO.P,J3,5,Pin_5*%
%TO.N,Net-(J3-Pin_5)*%
X109855000Y-37160000D03*
%TO.P,J3,4,Pin_4*%
%TO.N,Net-(J3-Pin_4)*%
X107315000Y-37160000D03*
%TO.P,J3,3,Pin_3*%
%TO.N,Net-(J3-Pin_3)*%
X104775000Y-37160000D03*
%TO.P,J3,2,Pin_2*%
%TO.N,Net-(J3-Pin_2)*%
X102235000Y-37160000D03*
D13*
%TO.P,J3,1,Pin_1*%
%TO.N,Net-(J3-Pin_1)*%
X99695000Y-37160000D03*
%TD*%
%TO.P,J1,1,Pin_1*%
%TO.N,GND*%
X68290000Y-142555000D03*
D12*
%TO.P,J1,2,Pin_2*%
%TO.N,+5V*%
X70830000Y-142555000D03*
%TD*%
D13*
%TO.P,J5,1,Pin_1*%
%TO.N,GND*%
X68580000Y-118110000D03*
D12*
%TO.P,J5,2,Pin_2*%
%TO.N,Mute_button*%
X68580000Y-115570000D03*
%TD*%
D13*
%TO.P,SW2,1,1*%
%TO.N,GND*%
X63500000Y-110490000D03*
D12*
%TO.P,SW2,2,2*%
%TO.N,NRST*%
X63500000Y-107950000D03*
%TD*%
D16*
%TO.P,R10,2*%
%TO.N,Net-(U2-QG)*%
X116830000Y-43565000D03*
%TO.P,R10,1*%
%TO.N,Net-(J3-Pin_7)*%
X116830000Y-40640000D03*
%TD*%
D17*
%TO.P,C3,2*%
%TO.N,GND*%
X90805000Y-40640000D03*
%TO.P,C3,1*%
%TO.N,+5V*%
X87855000Y-40640000D03*
%TD*%
D18*
%TO.P,U2,16,VCC*%
%TO.N,+5V*%
X87620000Y-42500000D03*
%TO.P,U2,15,QA*%
%TO.N,Net-(U2-QA)*%
X87620000Y-43150000D03*
%TO.P,U2,14,SER*%
%TO.N,SHIFT_IN_DIS*%
X87620000Y-43800000D03*
%TO.P,U2,13,~{OE}*%
%TO.N,GND*%
X87620000Y-44450000D03*
%TO.P,U2,12,RCLK*%
%TO.N,RCLK_DIS*%
X87620000Y-45100000D03*
%TO.P,U2,11,SRCLK*%
%TO.N,SRCLK_DIS*%
X87620000Y-45750000D03*
%TO.P,U2,10,~{SRCLR}*%
%TO.N,+5V*%
X87620000Y-46400000D03*
%TO.P,U2,9,QH'*%
%TO.N,SR_OVERFLOW*%
X87620000Y-47050000D03*
%TO.P,U2,8,GND*%
%TO.N,GND*%
X93345000Y-47050000D03*
%TO.P,U2,7,QH*%
%TO.N,Net-(U2-QH)*%
X93345000Y-46400000D03*
%TO.P,U2,6,QG*%
%TO.N,Net-(U2-QG)*%
X93345000Y-45750000D03*
%TO.P,U2,5,QF*%
%TO.N,Net-(U2-QF)*%
X93345000Y-45100000D03*
%TO.P,U2,4,QE*%
%TO.N,Net-(J3-Pin_5)*%
X93345000Y-44450000D03*
%TO.P,U2,3,QD*%
%TO.N,Net-(J3-Pin_4)*%
X93345000Y-43800000D03*
%TO.P,U2,2,QC*%
%TO.N,Net-(J3-Pin_3)*%
X93345000Y-43150000D03*
%TO.P,U2,1,QB*%
%TO.N,Net-(U2-QB)*%
X93345000Y-42500000D03*
%TD*%
D16*
%TO.P,R4,2*%
%TO.N,Net-(U2-QB)*%
X102235000Y-43372500D03*
%TO.P,R4,1*%
%TO.N,Net-(J3-Pin_2)*%
X102235000Y-40447500D03*
%TD*%
%TO.P,R18,2*%
%TO.N,Net-(U3-QH)*%
X116955000Y-56265000D03*
%TO.P,R18,1*%
%TO.N,Net-(J4-Pin_8)*%
X116955000Y-53340000D03*
%TD*%
%TO.P,R12,2*%
%TO.N,Net-(U3-QB)*%
X102235000Y-54995000D03*
%TO.P,R12,1*%
%TO.N,Net-(J4-Pin_2)*%
X102235000Y-52070000D03*
%TD*%
%TO.P,R17,2*%
%TO.N,Net-(U3-QG)*%
X113665000Y-56265000D03*
%TO.P,R17,1*%
%TO.N,Net-(J4-Pin_7)*%
X113665000Y-53340000D03*
%TD*%
D18*
%TO.P,U3,16,VCC*%
%TO.N,+5V*%
X86995000Y-53960000D03*
%TO.P,U3,15,QA*%
%TO.N,Net-(U3-QA)*%
X86995000Y-54610000D03*
%TO.P,U3,14,SER*%
%TO.N,SR_OVERFLOW*%
X86995000Y-55260000D03*
%TO.P,U3,13,~{OE}*%
%TO.N,GND*%
X86995000Y-55910000D03*
%TO.P,U3,12,RCLK*%
%TO.N,RCLK_DIS*%
X86995000Y-56560000D03*
%TO.P,U3,11,SRCLK*%
%TO.N,SRCLK_DIS*%
X86995000Y-57210000D03*
%TO.P,U3,10,~{SRCLR}*%
%TO.N,+5V*%
X86995000Y-57860000D03*
%TO.P,U3,9,QH'*%
%TO.N,unconnected-(U3-QH'-Pad9)*%
X86995000Y-58510000D03*
%TO.P,U3,8,GND*%
%TO.N,GND*%
X92720000Y-58510000D03*
%TO.P,U3,7,QH*%
%TO.N,Net-(U3-QH)*%
X92720000Y-57860000D03*
%TO.P,U3,6,QG*%
%TO.N,Net-(U3-QG)*%
X92720000Y-57210000D03*
%TO.P,U3,5,QF*%
%TO.N,Net-(J4-Pin_6)*%
X92720000Y-56560000D03*
%TO.P,U3,4,QE*%
%TO.N,Net-(J4-Pin_5)*%
X92720000Y-55910000D03*
%TO.P,U3,3,QD*%
%TO.N,Net-(J4-Pin_4)*%
X92720000Y-55260000D03*
%TO.P,U3,2,QC*%
%TO.N,Net-(J4-Pin_3)*%
X92720000Y-54610000D03*
%TO.P,U3,1,QB*%
%TO.N,Net-(U3-QB)*%
X92720000Y-53960000D03*
%TD*%
D16*
%TO.P,R9,2*%
%TO.N,Net-(U3-QA)*%
X99695000Y-54995000D03*
%TO.P,R9,1*%
%TO.N,Net-(J4-Pin_1)*%
X99695000Y-52070000D03*
%TD*%
%TO.P,R8,2*%
%TO.N,Net-(U2-QF)*%
X114290000Y-43625000D03*
%TO.P,R8,1*%
%TO.N,Net-(J3-Pin_6)*%
X114290000Y-40700000D03*
%TD*%
D12*
%TO.P,J6,5,Pin_5*%
%TO.N,+5V*%
X78105000Y-43180000D03*
%TO.P,J6,4,Pin_4*%
%TO.N,SHIFT_IN_DIS*%
X78105000Y-45720000D03*
%TO.P,J6,3,Pin_3*%
%TO.N,RCLK_DIS*%
X78105000Y-48260000D03*
%TO.P,J6,2,Pin_2*%
%TO.N,SRCLK_DIS*%
X78105000Y-50800000D03*
D13*
%TO.P,J6,1,Pin_1*%
%TO.N,GND*%
X78105000Y-53340000D03*
%TD*%
D17*
%TO.P,C2,2*%
%TO.N,GND*%
X89945000Y-52070000D03*
%TO.P,C2,1*%
%TO.N,+5V*%
X86995000Y-52070000D03*
%TD*%
D16*
%TO.P,R3,2*%
%TO.N,Net-(U2-QA)*%
X99695000Y-43372500D03*
%TO.P,R3,1*%
%TO.N,Net-(J3-Pin_1)*%
X99695000Y-40447500D03*
%TD*%
%TO.P,R11,2*%
%TO.N,Net-(U2-QH)*%
X119370000Y-43565000D03*
%TO.P,R11,1*%
%TO.N,Net-(J3-Pin_8)*%
X119370000Y-40640000D03*
%TD*%
D19*
%TO.N,GND*%
X75565000Y-120650000D03*
%TO.N,+BATT*%
X78105000Y-122555000D03*
X86360000Y-123190000D03*
%TO.N,Vbat_enable*%
X81915000Y-121920000D03*
X69850000Y-90805000D03*
%TO.N,GND*%
X78105000Y-95885000D03*
%TO.N,+BATT*%
X70485000Y-87630000D03*
X64770000Y-89535000D03*
%TO.N,GND*%
X81915000Y-39370000D03*
X65670000Y-95265000D03*
X68210000Y-102885000D03*
X71369500Y-88218894D03*
X61860000Y-104155000D03*
%TO.N,+5V*%
X85090000Y-57785000D03*
X85725000Y-52070000D03*
X85725000Y-46990000D03*
X85725000Y-40640000D03*
%TO.N,Net-(U2-QA)*%
X98425000Y-44375500D03*
X89535000Y-43180000D03*
%TO.N,Net-(U2-QB)*%
X94682000Y-42425500D03*
X102235000Y-44375500D03*
%TO.N,Net-(U3-QA)*%
X88265000Y-54610000D03*
X99695000Y-55880000D03*
%TO.N,Net-(U3-QB)*%
X102235000Y-55880000D03*
X94615000Y-53340000D03*
%TO.N,RCLK_DIS*%
X84455000Y-55880000D03*
X80645000Y-45720000D03*
%TD*%
D20*
%TO.N,Net-(U3-QH)*%
X116955000Y-56265000D02*
X115235000Y-57985000D01*
X115235000Y-57985000D02*
X92845000Y-57985000D01*
X92845000Y-57985000D02*
X92720000Y-57860000D01*
%TO.N,+5V*%
X86995000Y-57860000D02*
X85015000Y-57860000D01*
%TO.N,+BATT*%
X78195000Y-122645000D02*
X78105000Y-122555000D01*
X85815000Y-122645000D02*
X78195000Y-122645000D01*
X86360000Y-123190000D02*
X85815000Y-122645000D01*
%TO.N,Vbat_enable*%
X71755000Y-92710000D02*
X69850000Y-90805000D01*
X71755000Y-109220000D02*
X71755000Y-92710000D01*
X81915000Y-121920000D02*
X81915000Y-119380000D01*
X81915000Y-119380000D02*
X71755000Y-109220000D01*
%TO.N,+BATT*%
X68580000Y-89535000D02*
X70485000Y-87630000D01*
X64770000Y-89535000D02*
X68580000Y-89535000D01*
%TO.N,+5V*%
X87855000Y-40640000D02*
X87855000Y-42265000D01*
X85725000Y-40640000D02*
X87855000Y-40640000D01*
X85725000Y-52070000D02*
X86995000Y-52070000D01*
X87620000Y-46400000D02*
X86315000Y-46400000D01*
X86315000Y-46400000D02*
X85725000Y-46990000D01*
X87855000Y-42265000D02*
X87620000Y-42500000D01*
X86995000Y-53960000D02*
X86995000Y-52070000D01*
%TO.N,Net-(J3-Pin_1)*%
X99695000Y-37160000D02*
X99695000Y-40447500D01*
%TO.N,Net-(J3-Pin_2)*%
X102235000Y-37160000D02*
X102235000Y-40447500D01*
%TO.N,Net-(J3-Pin_3)*%
X97730000Y-41335000D02*
X103098173Y-41335000D01*
X103098173Y-41335000D02*
X104775000Y-39658173D01*
X95915000Y-43150000D02*
X97730000Y-41335000D01*
X93345000Y-43150000D02*
X95915000Y-43150000D01*
X104775000Y-39658173D02*
X104775000Y-37160000D01*
%TO.N,Net-(J3-Pin_4)*%
X107315000Y-38100000D02*
X107315000Y-37160000D01*
X95901396Y-43800000D02*
X97791396Y-41910000D01*
X93345000Y-43800000D02*
X95901396Y-43800000D01*
X97791396Y-41910000D02*
X103505000Y-41910000D01*
X103505000Y-41910000D02*
X107315000Y-38100000D01*
%TO.N,Net-(J3-Pin_5)*%
X96335000Y-44450000D02*
X98425000Y-42360000D01*
X98425000Y-42360000D02*
X104325000Y-42360000D01*
X93345000Y-44450000D02*
X95885000Y-44450000D01*
X104655000Y-42360000D02*
X104325000Y-42360000D01*
X95885000Y-44450000D02*
X96335000Y-44450000D01*
X109855000Y-37160000D02*
X104655000Y-42360000D01*
%TO.N,Net-(J3-Pin_6)*%
X114290000Y-40700000D02*
X114290000Y-39055000D01*
X114290000Y-39055000D02*
X112395000Y-37160000D01*
%TO.N,Net-(J3-Pin_7)*%
X114935000Y-38420000D02*
X116830000Y-40315000D01*
X114935000Y-37160000D02*
X114935000Y-38420000D01*
%TO.N,Net-(J3-Pin_8)*%
X119370000Y-39055000D02*
X119370000Y-40640000D01*
X117475000Y-37160000D02*
X119370000Y-39055000D01*
%TO.N,Net-(J4-Pin_1)*%
X99695000Y-49310000D02*
X99695000Y-52070000D01*
%TO.N,Net-(J4-Pin_2)*%
X102235000Y-49310000D02*
X102235000Y-52070000D01*
%TO.N,Net-(J4-Pin_3)*%
X92720000Y-54610000D02*
X97155000Y-54610000D01*
X103098173Y-52957500D02*
X104775000Y-51280673D01*
X104775000Y-51280673D02*
X104775000Y-49310000D01*
X98807500Y-52957500D02*
X103098173Y-52957500D01*
X97155000Y-54610000D02*
X98807500Y-52957500D01*
%TO.N,Net-(J4-Pin_4)*%
X104168883Y-53658198D02*
X98743198Y-53658198D01*
X107315000Y-50512081D02*
X104168883Y-53658198D01*
X98743198Y-53658198D02*
X97141396Y-55260000D01*
X107315000Y-49310000D02*
X107315000Y-50512081D01*
X97141396Y-55260000D02*
X92720000Y-55260000D01*
%TO.N,Net-(J4-Pin_5)*%
X97527792Y-55910000D02*
X98222792Y-56605000D01*
X92720000Y-55910000D02*
X97527792Y-55910000D01*
X98222792Y-56605000D02*
X102560000Y-56605000D01*
X102560000Y-56605000D02*
X109855000Y-49310000D01*
%TO.N,Net-(J4-Pin_6)*%
X95310000Y-57055000D02*
X94815000Y-56560000D01*
X104650000Y-57055000D02*
X95310000Y-57055000D01*
X94815000Y-56560000D02*
X92720000Y-56560000D01*
X112395000Y-49310000D02*
X104650000Y-57055000D01*
%TO.N,Net-(J4-Pin_7)*%
X113665000Y-53340000D02*
X113665000Y-50580000D01*
X113665000Y-50580000D02*
X114935000Y-49310000D01*
%TO.N,Net-(J4-Pin_8)*%
X117475000Y-52820000D02*
X117475000Y-49310000D01*
X116955000Y-53340000D02*
X117475000Y-52820000D01*
%TO.N,Net-(U2-QA)*%
X99695000Y-43372500D02*
X99428000Y-43372500D01*
X99428000Y-43372500D02*
X98425000Y-44375500D01*
X89505000Y-43150000D02*
X89535000Y-43180000D01*
X87620000Y-43150000D02*
X89505000Y-43150000D01*
%TO.N,Net-(U2-QB)*%
X94607500Y-42500000D02*
X94682000Y-42425500D01*
X93345000Y-42500000D02*
X94607500Y-42500000D01*
X102235000Y-44375500D02*
X102235000Y-43372500D01*
%TO.N,Net-(U2-QF)*%
X112815000Y-45100000D02*
X93345000Y-45100000D01*
X114290000Y-43625000D02*
X112815000Y-45100000D01*
%TO.N,Net-(U3-QA)*%
X99695000Y-54995000D02*
X99695000Y-55880000D01*
X88265000Y-54610000D02*
X86995000Y-54610000D01*
%TO.N,Net-(U2-QG)*%
X114675000Y-45720000D02*
X93345000Y-45720000D01*
X116830000Y-43565000D02*
X114675000Y-45720000D01*
%TO.N,Net-(U2-QH)*%
X93345000Y-46400000D02*
X116535000Y-46400000D01*
X116535000Y-46400000D02*
X119370000Y-43565000D01*
%TO.N,Net-(U3-QB)*%
X102235000Y-54995000D02*
X102235000Y-55880000D01*
X92720000Y-53960000D02*
X93995000Y-53960000D01*
X93995000Y-53960000D02*
X94615000Y-53340000D01*
%TO.N,Net-(U3-QG)*%
X94828604Y-57210000D02*
X95123604Y-57505000D01*
X95123604Y-57505000D02*
X112425000Y-57505000D01*
X112425000Y-57505000D02*
X113665000Y-56265000D01*
X92720000Y-57210000D02*
X94828604Y-57210000D01*
%TO.N,SR_OVERFLOW*%
X86995000Y-55385000D02*
X86995000Y-55260000D01*
X85000000Y-53953541D02*
X85000000Y-49670000D01*
X86995000Y-55260000D02*
X86306459Y-55260000D01*
X85000000Y-49670000D02*
X87620000Y-47050000D01*
X86306459Y-55260000D02*
X85000000Y-53953541D01*
%TO.N,SRCLK_DIS*%
X84515000Y-57210000D02*
X78105000Y-50800000D01*
X86995000Y-57210000D02*
X84515000Y-57210000D01*
X83155000Y-45750000D02*
X87620000Y-45750000D01*
X78105000Y-50800000D02*
X83155000Y-45750000D01*
%TO.N,RCLK_DIS*%
X78105000Y-48260000D02*
X81265000Y-45100000D01*
X84455000Y-55880000D02*
X85135000Y-56560000D01*
X85135000Y-56560000D02*
X86995000Y-56560000D01*
X81265000Y-45100000D02*
X87620000Y-45100000D01*
X86995000Y-56560000D02*
X87683541Y-56560000D01*
%TO.N,SHIFT_IN_DIS*%
X80025000Y-43800000D02*
X78105000Y-45720000D01*
X87620000Y-43800000D02*
X80025000Y-43800000D01*
%TD*%
%TA.AperFunction,Conductor*%
%TO.N,GND*%
G36*
X144232500Y-34307113D02*
G01*
X144277887Y-34352500D01*
X144294500Y-34414500D01*
X144294500Y-65165500D01*
X144277887Y-65227500D01*
X144232500Y-65272887D01*
X144170500Y-65289500D01*
X74419500Y-65289500D01*
X74357500Y-65272887D01*
X74312113Y-65227500D01*
X74295500Y-65165500D01*
X74295500Y-53590000D01*
X76755000Y-53590000D01*
X76755000Y-54237824D01*
X76761402Y-54297375D01*
X76811647Y-54432089D01*
X76897811Y-54547188D01*
X77012910Y-54633352D01*
X77147624Y-54683597D01*
X77207176Y-54690000D01*
X77855000Y-54690000D01*
X77855000Y-53590000D01*
X78355000Y-53590000D01*
X78355000Y-54690000D01*
X79002824Y-54690000D01*
X79062375Y-54683597D01*
X79197089Y-54633352D01*
X79312188Y-54547188D01*
X79398352Y-54432089D01*
X79448597Y-54297375D01*
X79455000Y-54237824D01*
X79455000Y-53590000D01*
X78355000Y-53590000D01*
X77855000Y-53590000D01*
X76755000Y-53590000D01*
X74295500Y-53590000D01*
X74295500Y-50800000D01*
X76741843Y-50800000D01*
X76760435Y-51024363D01*
X76760436Y-51024365D01*
X76760436Y-51024368D01*
X76815582Y-51242136D01*
X76815705Y-51242618D01*
X76906138Y-51448788D01*
X76906140Y-51448791D01*
X77006937Y-51603073D01*
X77029279Y-51637269D01*
X77180706Y-51801761D01*
X77209480Y-51854514D01*
X77210073Y-51914601D01*
X77182346Y-51967912D01*
X77132811Y-52001927D01*
X77012911Y-52046647D01*
X76897811Y-52132811D01*
X76811647Y-52247910D01*
X76761402Y-52382624D01*
X76755000Y-52442176D01*
X76755000Y-53090000D01*
X79447734Y-53090000D01*
X79495187Y-53099439D01*
X79535414Y-53126318D01*
X81781162Y-55372067D01*
X84007912Y-57598817D01*
X84020956Y-57615098D01*
X84022999Y-57617016D01*
X84023000Y-57617018D01*
X84072684Y-57663674D01*
X84075448Y-57666353D01*
X84095230Y-57686135D01*
X84098511Y-57688680D01*
X84107369Y-57696246D01*
X84139679Y-57726586D01*
X84139682Y-57726588D01*
X84140097Y-57726977D01*
X84166283Y-57762235D01*
X84178536Y-57804409D01*
X84196458Y-57974929D01*
X84255472Y-58156556D01*
X84350957Y-58321941D01*
X84350960Y-58321944D01*
X84478747Y-58463866D01*
X84633247Y-58576117D01*
X84633248Y-58576118D01*
X84807714Y-58653795D01*
X84994511Y-58693500D01*
X84994513Y-58693500D01*
X85185487Y-58693500D01*
X85185489Y-58693500D01*
X85372285Y-58653795D01*
X85372286Y-58653794D01*
X85372288Y-58653794D01*
X85546752Y-58576118D01*
X85553059Y-58571535D01*
X85553857Y-58570956D01*
X85612974Y-58548038D01*
X85675692Y-58557340D01*
X85725613Y-58596430D01*
X85749685Y-58655087D01*
X85764661Y-58768848D01*
X85825976Y-58916876D01*
X85923512Y-59043987D01*
X86040949Y-59134100D01*
X86050624Y-59141524D01*
X86198650Y-59202838D01*
X86317615Y-59218500D01*
X87672384Y-59218499D01*
X87672386Y-59218499D01*
X87736953Y-59209999D01*
X87791350Y-59202838D01*
X87939376Y-59141524D01*
X88066487Y-59043987D01*
X88164024Y-58916876D01*
X88225338Y-58768850D01*
X88241000Y-58649885D01*
X88240999Y-58370116D01*
X88225338Y-58251150D01*
X88222190Y-58243551D01*
X88217593Y-58232451D01*
X88208154Y-58184998D01*
X88217594Y-58137544D01*
X88225338Y-58118849D01*
X88241000Y-57999886D01*
X91474000Y-57999886D01*
X91489661Y-58118850D01*
X91502006Y-58148654D01*
X91511445Y-58196102D01*
X91502009Y-58243551D01*
X91497944Y-58253365D01*
X91490487Y-58310000D01*
X91522917Y-58310000D01*
X91577761Y-58322788D01*
X91621291Y-58358511D01*
X91630194Y-58370113D01*
X91648515Y-58393989D01*
X91770542Y-58487625D01*
X91808335Y-58535565D01*
X91818673Y-58595729D01*
X91799050Y-58653535D01*
X91754223Y-58694973D01*
X91695055Y-58710000D01*
X91490490Y-58710000D01*
X91490488Y-58710001D01*
X91497943Y-58766631D01*
X91558399Y-58912586D01*
X91654575Y-59037924D01*
X91779913Y-59134100D01*
X91925868Y-59194555D01*
X92043177Y-59210000D01*
X92520000Y-59210000D01*
X92520000Y-58720107D01*
X92531390Y-58668194D01*
X92563468Y-58625817D01*
X92610340Y-58600763D01*
X92663396Y-58597633D01*
X92666854Y-58598180D01*
X92666855Y-58598181D01*
X92710626Y-58605113D01*
X92722041Y-58607477D01*
X92764970Y-58618500D01*
X92785384Y-58618500D01*
X92804776Y-58620025D01*
X92815394Y-58621707D01*
X92868883Y-58643861D01*
X92906484Y-58687885D01*
X92920000Y-58744181D01*
X92920000Y-59209999D01*
X93396825Y-59209999D01*
X93514131Y-59194556D01*
X93660086Y-59134100D01*
X93785424Y-59037924D01*
X93881600Y-58912586D01*
X93942055Y-58766631D01*
X93947364Y-58726314D01*
X93968729Y-58671376D01*
X94013046Y-58632510D01*
X94070303Y-58618500D01*
X115151367Y-58618500D01*
X115172108Y-58620789D01*
X115174905Y-58620701D01*
X115174909Y-58620702D01*
X115243017Y-58618560D01*
X115246913Y-58618500D01*
X115274854Y-58618500D01*
X115274856Y-58618500D01*
X115278956Y-58617981D01*
X115290606Y-58617064D01*
X115334889Y-58615673D01*
X115354498Y-58609975D01*
X115373531Y-58606033D01*
X115393797Y-58603474D01*
X115435006Y-58587157D01*
X115446037Y-58583380D01*
X115488593Y-58571018D01*
X115506160Y-58560628D01*
X115523632Y-58552068D01*
X115542617Y-58544552D01*
X115578475Y-58518498D01*
X115588223Y-58512096D01*
X115626362Y-58489542D01*
X115640800Y-58475103D01*
X115655588Y-58462472D01*
X115672107Y-58450472D01*
X115700359Y-58416319D01*
X115708203Y-58407699D01*
X116743585Y-57372318D01*
X116783813Y-57345438D01*
X116831266Y-57335999D01*
X117630545Y-57335999D01*
X117682485Y-57330692D01*
X117734426Y-57325387D01*
X117902738Y-57269615D01*
X118053652Y-57176530D01*
X118179030Y-57051152D01*
X118272115Y-56900238D01*
X118327887Y-56731926D01*
X118338500Y-56628045D01*
X118338499Y-55901956D01*
X118327887Y-55798074D01*
X118272115Y-55629762D01*
X118179030Y-55478848D01*
X118179029Y-55478847D01*
X118179028Y-55478845D01*
X118053654Y-55353471D01*
X117972325Y-55303307D01*
X117902738Y-55260385D01*
X117902737Y-55260384D01*
X117902736Y-55260384D01*
X117734426Y-55204612D01*
X117640173Y-55194983D01*
X117630544Y-55194000D01*
X116279455Y-55194000D01*
X116175574Y-55204612D01*
X116007263Y-55260384D01*
X115856345Y-55353471D01*
X115730971Y-55478845D01*
X115637884Y-55629763D01*
X115582112Y-55798073D01*
X115571500Y-55901955D01*
X115571500Y-56628043D01*
X115577057Y-56682430D01*
X115570526Y-56736594D01*
X115541380Y-56782713D01*
X115008914Y-57315181D01*
X114968686Y-57342061D01*
X114921233Y-57351500D01*
X114888045Y-57351500D01*
X114831750Y-57337985D01*
X114787727Y-57300385D01*
X114765572Y-57246898D01*
X114770114Y-57189182D01*
X114800364Y-57139819D01*
X114889028Y-57051154D01*
X114889028Y-57051153D01*
X114889030Y-57051152D01*
X114982115Y-56900238D01*
X115037887Y-56731926D01*
X115048500Y-56628045D01*
X115048499Y-55901956D01*
X115037887Y-55798074D01*
X114982115Y-55629762D01*
X114889030Y-55478848D01*
X114889029Y-55478847D01*
X114889028Y-55478845D01*
X114763654Y-55353471D01*
X114682325Y-55303307D01*
X114612738Y-55260385D01*
X114612737Y-55260384D01*
X114612736Y-55260384D01*
X114444426Y-55204612D01*
X114350173Y-55194983D01*
X114340544Y-55194000D01*
X112989455Y-55194000D01*
X112885574Y-55204612D01*
X112717263Y-55260384D01*
X112566345Y-55353471D01*
X112440971Y-55478845D01*
X112347884Y-55629763D01*
X112292112Y-55798073D01*
X112281500Y-55901955D01*
X112281500Y-56628043D01*
X112287057Y-56682430D01*
X112280526Y-56736594D01*
X112251381Y-56782712D01*
X112198914Y-56835180D01*
X112158685Y-56862061D01*
X112111232Y-56871500D01*
X106028766Y-56871500D01*
X105972471Y-56857985D01*
X105928448Y-56820385D01*
X105906293Y-56766898D01*
X105910835Y-56709182D01*
X105941085Y-56659819D01*
X108935723Y-53665181D01*
X111937960Y-50662943D01*
X111997694Y-50629816D01*
X112049769Y-50632511D01*
X112050230Y-50629753D01*
X112282431Y-50668500D01*
X112507569Y-50668500D01*
X112729636Y-50631444D01*
X112862798Y-50585729D01*
X112867237Y-50584204D01*
X112925377Y-50578781D01*
X112979553Y-50600569D01*
X113017751Y-50644735D01*
X113031500Y-50701486D01*
X113031500Y-52152728D01*
X113016929Y-52211049D01*
X112976639Y-52255664D01*
X112920101Y-52276085D01*
X112917430Y-52276358D01*
X112885574Y-52279612D01*
X112717263Y-52335384D01*
X112566345Y-52428471D01*
X112440971Y-52553845D01*
X112347884Y-52704763D01*
X112292112Y-52873073D01*
X112281500Y-52976955D01*
X112281500Y-53703044D01*
X112292112Y-53806925D01*
X112336268Y-53940181D01*
X112347885Y-53975238D01*
X112359085Y-53993396D01*
X112440971Y-54126154D01*
X112566345Y-54251528D01*
X112566347Y-54251529D01*
X112566348Y-54251530D01*
X112717262Y-54344615D01*
X112736972Y-54351146D01*
X112885573Y-54400387D01*
X112895202Y-54401370D01*
X112989455Y-54411000D01*
X114340544Y-54410999D01*
X114444426Y-54400387D01*
X114612738Y-54344615D01*
X114763652Y-54251530D01*
X114889030Y-54126152D01*
X114982115Y-53975238D01*
X115037887Y-53806926D01*
X115048500Y-53703045D01*
X115048499Y-52976956D01*
X115047629Y-52968444D01*
X115037887Y-52873074D01*
X115003913Y-52770545D01*
X114982115Y-52704762D01*
X114889030Y-52553848D01*
X114889029Y-52553847D01*
X114889028Y-52553845D01*
X114763654Y-52428471D01*
X114612736Y-52335384D01*
X114444426Y-52279612D01*
X114409897Y-52276085D01*
X114353359Y-52255662D01*
X114313071Y-52211048D01*
X114298500Y-52152727D01*
X114298500Y-50893766D01*
X114307939Y-50846314D01*
X114334816Y-50806087D01*
X114477961Y-50662942D01*
X114537692Y-50629816D01*
X114589768Y-50632511D01*
X114590229Y-50629753D01*
X114822431Y-50668500D01*
X115047569Y-50668500D01*
X115269635Y-50631444D01*
X115482574Y-50558342D01*
X115680576Y-50451189D01*
X115858240Y-50312906D01*
X116010722Y-50147268D01*
X116101190Y-50008795D01*
X116145982Y-49967561D01*
X116205000Y-49952616D01*
X116264018Y-49967561D01*
X116308809Y-50008795D01*
X116399278Y-50147268D01*
X116551760Y-50312906D01*
X116729424Y-50451189D01*
X116776517Y-50476674D01*
X116824023Y-50522255D01*
X116841500Y-50585729D01*
X116841500Y-52145001D01*
X116824887Y-52207001D01*
X116779500Y-52252388D01*
X116717500Y-52269001D01*
X116279455Y-52269001D01*
X116175574Y-52279612D01*
X116007263Y-52335384D01*
X115856345Y-52428471D01*
X115730971Y-52553845D01*
X115637884Y-52704763D01*
X115582112Y-52873073D01*
X115571500Y-52976955D01*
X115571500Y-53703044D01*
X115582112Y-53806925D01*
X115626268Y-53940181D01*
X115637885Y-53975238D01*
X115649085Y-53993396D01*
X115730971Y-54126154D01*
X115856345Y-54251528D01*
X115856347Y-54251529D01*
X115856348Y-54251530D01*
X116007262Y-54344615D01*
X116026972Y-54351146D01*
X116175573Y-54400387D01*
X116185202Y-54401370D01*
X116279455Y-54411000D01*
X117630544Y-54410999D01*
X117734426Y-54400387D01*
X117902738Y-54344615D01*
X118053652Y-54251530D01*
X118179030Y-54126152D01*
X118272115Y-53975238D01*
X118327887Y-53806926D01*
X118338500Y-53703045D01*
X118338499Y-52976956D01*
X118337629Y-52968444D01*
X118327887Y-52873074D01*
X118293913Y-52770545D01*
X118272115Y-52704762D01*
X118179030Y-52553848D01*
X118179029Y-52553847D01*
X118179028Y-52553845D01*
X118144820Y-52519638D01*
X118117939Y-52479409D01*
X118108500Y-52431956D01*
X118108500Y-50585729D01*
X118125977Y-50522255D01*
X118173483Y-50476674D01*
X118220576Y-50451189D01*
X118398240Y-50312906D01*
X118550722Y-50147268D01*
X118673860Y-49958791D01*
X118764296Y-49752616D01*
X118819564Y-49534368D01*
X118838156Y-49310000D01*
X118819564Y-49085632D01*
X118764296Y-48867384D01*
X118673860Y-48661209D01*
X118550722Y-48472732D01*
X118398240Y-48307094D01*
X118220576Y-48168811D01*
X118022574Y-48061658D01*
X118022573Y-48061657D01*
X118022572Y-48061657D01*
X117809636Y-47988556D01*
X117587569Y-47951500D01*
X117362431Y-47951500D01*
X117140363Y-47988556D01*
X116927427Y-48061657D01*
X116729424Y-48168811D01*
X116551760Y-48307094D01*
X116399279Y-48472730D01*
X116308809Y-48611205D01*
X116264017Y-48652438D01*
X116205000Y-48667383D01*
X116145983Y-48652438D01*
X116101191Y-48611205D01*
X116018324Y-48484368D01*
X116010722Y-48472732D01*
X115858240Y-48307094D01*
X115680576Y-48168811D01*
X115482574Y-48061658D01*
X115482573Y-48061657D01*
X115482572Y-48061657D01*
X115269636Y-47988556D01*
X115047569Y-47951500D01*
X114822431Y-47951500D01*
X114600363Y-47988556D01*
X114387427Y-48061657D01*
X114189424Y-48168811D01*
X114011760Y-48307094D01*
X113859279Y-48472730D01*
X113768809Y-48611205D01*
X113724017Y-48652438D01*
X113665000Y-48667383D01*
X113605983Y-48652438D01*
X113561191Y-48611205D01*
X113478324Y-48484368D01*
X113470722Y-48472732D01*
X113318240Y-48307094D01*
X113140576Y-48168811D01*
X112942574Y-48061658D01*
X112942573Y-48061657D01*
X112942572Y-48061657D01*
X112729636Y-47988556D01*
X112507569Y-47951500D01*
X112282431Y-47951500D01*
X112060363Y-47988556D01*
X111847427Y-48061657D01*
X111649424Y-48168811D01*
X111471760Y-48307094D01*
X111319279Y-48472730D01*
X111228809Y-48611205D01*
X111184017Y-48652438D01*
X111125000Y-48667383D01*
X111065983Y-48652438D01*
X111021191Y-48611205D01*
X110938324Y-48484368D01*
X110930722Y-48472732D01*
X110778240Y-48307094D01*
X110600576Y-48168811D01*
X110402574Y-48061658D01*
X110402573Y-48061657D01*
X110402572Y-48061657D01*
X110189636Y-47988556D01*
X109967569Y-47951500D01*
X109742431Y-47951500D01*
X109520363Y-47988556D01*
X109307427Y-48061657D01*
X109109424Y-48168811D01*
X108931760Y-48307094D01*
X108779279Y-48472730D01*
X108688809Y-48611205D01*
X108644017Y-48652438D01*
X108585000Y-48667383D01*
X108525983Y-48652438D01*
X108481191Y-48611205D01*
X108398324Y-48484368D01*
X108390722Y-48472732D01*
X108238240Y-48307094D01*
X108060576Y-48168811D01*
X107862574Y-48061658D01*
X107862573Y-48061657D01*
X107862572Y-48061657D01*
X107649636Y-47988556D01*
X107427569Y-47951500D01*
X107202431Y-47951500D01*
X106980363Y-47988556D01*
X106767427Y-48061657D01*
X106569424Y-48168811D01*
X106391760Y-48307094D01*
X106239279Y-48472730D01*
X106148809Y-48611205D01*
X106104017Y-48652438D01*
X106045000Y-48667383D01*
X105985983Y-48652438D01*
X105941191Y-48611205D01*
X105858324Y-48484368D01*
X105850722Y-48472732D01*
X105698240Y-48307094D01*
X105520576Y-48168811D01*
X105322574Y-48061658D01*
X105322573Y-48061657D01*
X105322572Y-48061657D01*
X105109636Y-47988556D01*
X104887569Y-47951500D01*
X104662431Y-47951500D01*
X104440363Y-47988556D01*
X104227427Y-48061657D01*
X104029424Y-48168811D01*
X103851760Y-48307094D01*
X103699279Y-48472730D01*
X103608809Y-48611205D01*
X103564017Y-48652438D01*
X103505000Y-48667383D01*
X103445983Y-48652438D01*
X103401191Y-48611205D01*
X103318324Y-48484368D01*
X103310722Y-48472732D01*
X103158240Y-48307094D01*
X102980576Y-48168811D01*
X102782574Y-48061658D01*
X102782573Y-48061657D01*
X102782572Y-48061657D01*
X102569636Y-47988556D01*
X102347569Y-47951500D01*
X102122431Y-47951500D01*
X101900363Y-47988556D01*
X101687427Y-48061657D01*
X101489424Y-48168811D01*
X101311759Y-48307094D01*
X101248548Y-48375759D01*
X101195924Y-48409612D01*
X101133470Y-48413460D01*
X101077089Y-48386322D01*
X101041138Y-48335110D01*
X101010449Y-48252833D01*
X100995889Y-48213796D01*
X100913042Y-48103125D01*
X100908261Y-48096738D01*
X100791203Y-48009110D01*
X100654205Y-47958011D01*
X100623919Y-47954755D01*
X100593638Y-47951500D01*
X98796362Y-47951500D01*
X98769445Y-47954393D01*
X98735794Y-47958011D01*
X98598796Y-48009110D01*
X98481738Y-48096738D01*
X98394110Y-48213796D01*
X98343011Y-48350794D01*
X98339393Y-48384445D01*
X98336689Y-48409612D01*
X98336500Y-48411366D01*
X98336500Y-50208634D01*
X98343011Y-50269205D01*
X98394110Y-50406203D01*
X98481738Y-50523261D01*
X98598796Y-50610889D01*
X98735794Y-50661988D01*
X98735797Y-50661988D01*
X98735799Y-50661989D01*
X98796362Y-50668500D01*
X98937500Y-50668500D01*
X98999500Y-50685113D01*
X99044887Y-50730500D01*
X99061500Y-50792500D01*
X99061500Y-50882728D01*
X99046929Y-50941049D01*
X99006639Y-50985664D01*
X98950101Y-51006085D01*
X98947430Y-51006358D01*
X98915574Y-51009612D01*
X98747263Y-51065384D01*
X98596345Y-51158471D01*
X98470971Y-51283845D01*
X98377884Y-51434763D01*
X98322112Y-51603073D01*
X98311500Y-51706955D01*
X98311500Y-52433046D01*
X98317056Y-52487434D01*
X98310525Y-52541598D01*
X98281379Y-52587715D01*
X96928914Y-53940181D01*
X96888686Y-53967061D01*
X96841233Y-53976500D01*
X95511336Y-53976500D01*
X95449336Y-53959887D01*
X95403949Y-53914500D01*
X95387336Y-53852500D01*
X95403949Y-53790500D01*
X95449527Y-53711556D01*
X95489023Y-53590000D01*
X95508542Y-53529928D01*
X95528504Y-53340000D01*
X95508542Y-53150072D01*
X95472492Y-53039122D01*
X95449527Y-52968443D01*
X95354042Y-52803058D01*
X95324257Y-52769979D01*
X95226253Y-52661134D01*
X95071752Y-52548882D01*
X95071751Y-52548881D01*
X94897285Y-52471204D01*
X94710489Y-52431500D01*
X94710487Y-52431500D01*
X94519513Y-52431500D01*
X94519511Y-52431500D01*
X94332714Y-52471204D01*
X94158248Y-52548881D01*
X94003748Y-52661133D01*
X93875957Y-52803058D01*
X93780472Y-52968443D01*
X93721457Y-53150074D01*
X93718464Y-53178548D01*
X93699578Y-53232438D01*
X93658543Y-53272150D01*
X93604064Y-53289262D01*
X93547692Y-53280144D01*
X93516350Y-53267162D01*
X93397385Y-53251500D01*
X92042613Y-53251500D01*
X91923651Y-53267161D01*
X91775623Y-53328476D01*
X91648512Y-53426012D01*
X91550975Y-53553124D01*
X91489662Y-53701149D01*
X91474000Y-53820114D01*
X91474000Y-54099886D01*
X91489661Y-54218850D01*
X91497406Y-54237548D01*
X91506845Y-54284998D01*
X91497407Y-54332449D01*
X91489662Y-54351146D01*
X91474000Y-54470114D01*
X91474000Y-54749886D01*
X91489661Y-54868850D01*
X91497406Y-54887548D01*
X91506845Y-54934998D01*
X91497407Y-54982449D01*
X91489662Y-55001146D01*
X91474000Y-55120114D01*
X91474000Y-55399886D01*
X91489661Y-55518850D01*
X91497406Y-55537548D01*
X91506845Y-55584998D01*
X91497407Y-55632449D01*
X91489662Y-55651146D01*
X91474000Y-55770114D01*
X91474000Y-56049886D01*
X91489661Y-56168850D01*
X91497406Y-56187548D01*
X91506845Y-56234998D01*
X91497407Y-56282449D01*
X91489662Y-56301146D01*
X91474000Y-56420114D01*
X91474000Y-56699886D01*
X91489661Y-56818850D01*
X91497406Y-56837548D01*
X91506845Y-56884998D01*
X91497407Y-56932449D01*
X91489662Y-56951146D01*
X91474000Y-57070114D01*
X91474000Y-57349886D01*
X91489661Y-57468850D01*
X91497406Y-57487548D01*
X91506845Y-57534998D01*
X91497407Y-57582449D01*
X91489662Y-57601146D01*
X91474000Y-57720114D01*
X91474000Y-57999886D01*
X88241000Y-57999886D01*
X88241000Y-57999885D01*
X88240999Y-57720116D01*
X88237331Y-57692255D01*
X88225338Y-57601152D01*
X88225338Y-57601150D01*
X88217592Y-57582449D01*
X88208154Y-57535000D01*
X88217592Y-57487548D01*
X88225338Y-57468850D01*
X88241000Y-57349885D01*
X88240999Y-57070116D01*
X88225338Y-56951150D01*
X88225337Y-56951148D01*
X88224462Y-56944500D01*
X88235203Y-56875518D01*
X88237094Y-56871500D01*
X88290824Y-56757318D01*
X88320816Y-56600094D01*
X88310766Y-56440350D01*
X88261305Y-56288125D01*
X88235528Y-56247507D01*
X88219141Y-56207798D01*
X88217286Y-56164879D01*
X88224512Y-56110000D01*
X88192083Y-56110000D01*
X88137239Y-56097212D01*
X88093707Y-56061487D01*
X88066487Y-56026013D01*
X88066485Y-56026012D01*
X88066485Y-56026011D01*
X88043502Y-56008376D01*
X88007776Y-55964844D01*
X87994988Y-55910000D01*
X88007776Y-55855156D01*
X88043502Y-55811624D01*
X88066487Y-55793987D01*
X88093708Y-55758511D01*
X88137239Y-55722788D01*
X88192083Y-55710000D01*
X88224510Y-55710000D01*
X88224511Y-55709998D01*
X88217756Y-55658684D01*
X88228313Y-55590094D01*
X88274070Y-55537919D01*
X88340695Y-55518500D01*
X88360489Y-55518500D01*
X88547285Y-55478795D01*
X88547286Y-55478794D01*
X88547288Y-55478794D01*
X88721752Y-55401118D01*
X88876253Y-55288866D01*
X89004040Y-55146944D01*
X89019531Y-55120114D01*
X89099527Y-54981556D01*
X89132922Y-54878777D01*
X89158542Y-54799928D01*
X89178504Y-54610000D01*
X89158542Y-54420072D01*
X89118675Y-54297375D01*
X89099527Y-54238443D01*
X89004042Y-54073058D01*
X88936006Y-53997497D01*
X88876253Y-53931134D01*
X88721752Y-53818882D01*
X88721751Y-53818881D01*
X88547285Y-53741204D01*
X88360489Y-53701500D01*
X88360487Y-53701500D01*
X88308338Y-53701500D01*
X88260885Y-53692061D01*
X88220657Y-53665181D01*
X88193777Y-53624953D01*
X88178278Y-53587537D01*
X88164024Y-53553124D01*
X88100239Y-53469999D01*
X88066489Y-53426015D01*
X88066487Y-53426014D01*
X88066487Y-53426013D01*
X87957954Y-53342732D01*
X87920559Y-53295671D01*
X87909690Y-53236549D01*
X87927905Y-53179263D01*
X88012115Y-53042738D01*
X88067887Y-52874426D01*
X88078500Y-52770545D01*
X88078500Y-52320000D01*
X88870001Y-52320000D01*
X88870001Y-52769979D01*
X88880493Y-52872695D01*
X88935642Y-53039122D01*
X89027683Y-53188345D01*
X89151654Y-53312316D01*
X89300877Y-53404357D01*
X89467303Y-53459506D01*
X89570021Y-53470000D01*
X89695000Y-53470000D01*
X89695000Y-52320000D01*
X90195000Y-52320000D01*
X90195000Y-53469999D01*
X90319979Y-53469999D01*
X90422695Y-53459506D01*
X90589122Y-53404357D01*
X90738345Y-53312316D01*
X90862316Y-53188345D01*
X90954357Y-53039122D01*
X91009506Y-52872696D01*
X91020000Y-52769979D01*
X91020000Y-52320000D01*
X90195000Y-52320000D01*
X89695000Y-52320000D01*
X88870001Y-52320000D01*
X88078500Y-52320000D01*
X88078499Y-51820000D01*
X88870000Y-51820000D01*
X89695000Y-51820000D01*
X89695000Y-50670001D01*
X89570021Y-50670001D01*
X89467304Y-50680493D01*
X89300877Y-50735642D01*
X89151654Y-50827683D01*
X89027683Y-50951654D01*
X88935642Y-51100877D01*
X88880493Y-51267303D01*
X88870000Y-51370021D01*
X88870000Y-51820000D01*
X88078499Y-51820000D01*
X88078499Y-51369456D01*
X88067887Y-51265574D01*
X88012115Y-51097262D01*
X87919030Y-50946348D01*
X87919029Y-50946347D01*
X87919028Y-50946345D01*
X87793654Y-50820971D01*
X87655314Y-50735642D01*
X87642738Y-50727885D01*
X87642737Y-50727884D01*
X87642736Y-50727884D01*
X87474426Y-50672112D01*
X87453751Y-50670000D01*
X90195000Y-50670000D01*
X90195000Y-51820000D01*
X91019999Y-51820000D01*
X91019999Y-51370021D01*
X91009506Y-51267304D01*
X90954357Y-51100877D01*
X90862316Y-50951654D01*
X90738345Y-50827683D01*
X90589122Y-50735642D01*
X90422696Y-50680493D01*
X90319979Y-50670000D01*
X90195000Y-50670000D01*
X87453751Y-50670000D01*
X87375331Y-50661989D01*
X87370544Y-50661500D01*
X86619455Y-50661500D01*
X86515574Y-50672112D01*
X86347263Y-50727884D01*
X86196345Y-50820971D01*
X86070971Y-50946345D01*
X85970476Y-51109274D01*
X85935864Y-51145889D01*
X85889543Y-51165711D01*
X85839159Y-51165468D01*
X85820489Y-51161500D01*
X85820487Y-51161500D01*
X85757500Y-51161500D01*
X85695500Y-51144887D01*
X85650113Y-51099500D01*
X85633500Y-51037500D01*
X85633500Y-49983766D01*
X85642939Y-49936313D01*
X85669819Y-49896085D01*
X87771085Y-47794818D01*
X87811313Y-47767938D01*
X87858766Y-47758499D01*
X88297387Y-47758499D01*
X88368763Y-47749102D01*
X88416350Y-47742838D01*
X88564376Y-47681524D01*
X88691487Y-47583987D01*
X88789024Y-47456876D01*
X88850338Y-47308850D01*
X88866000Y-47189885D01*
X88865999Y-46910116D01*
X88865265Y-46904543D01*
X88852408Y-46806876D01*
X88850338Y-46791150D01*
X88842592Y-46772451D01*
X88833154Y-46725000D01*
X88842592Y-46677548D01*
X88850338Y-46658850D01*
X88866000Y-46539886D01*
X92099000Y-46539886D01*
X92114661Y-46658850D01*
X92127006Y-46688654D01*
X92136445Y-46736102D01*
X92127009Y-46783551D01*
X92122944Y-46793365D01*
X92115487Y-46850000D01*
X92147917Y-46850000D01*
X92202761Y-46862788D01*
X92246291Y-46898511D01*
X92273513Y-46933987D01*
X92273515Y-46933989D01*
X92395542Y-47027625D01*
X92433335Y-47075565D01*
X92443673Y-47135729D01*
X92424050Y-47193535D01*
X92379223Y-47234973D01*
X92320055Y-47250000D01*
X92115490Y-47250000D01*
X92115488Y-47250001D01*
X92122943Y-47306631D01*
X92183399Y-47452586D01*
X92279575Y-47577924D01*
X92404913Y-47674100D01*
X92550868Y-47734555D01*
X92668177Y-47750000D01*
X93145000Y-47750000D01*
X93145000Y-47232499D01*
X93161613Y-47170499D01*
X93207000Y-47125112D01*
X93268997Y-47108499D01*
X93421001Y-47108499D01*
X93483000Y-47125112D01*
X93528387Y-47170499D01*
X93545000Y-47232499D01*
X93545000Y-47749999D01*
X94021825Y-47749999D01*
X94139131Y-47734556D01*
X94285086Y-47674100D01*
X94410424Y-47577924D01*
X94506600Y-47452586D01*
X94567055Y-47306631D01*
X94582500Y-47189323D01*
X94582500Y-47157500D01*
X94599113Y-47095500D01*
X94644500Y-47050113D01*
X94706500Y-47033500D01*
X116451367Y-47033500D01*
X116472108Y-47035789D01*
X116474905Y-47035701D01*
X116474909Y-47035702D01*
X116543017Y-47033560D01*
X116546913Y-47033500D01*
X116574854Y-47033500D01*
X116574856Y-47033500D01*
X116578956Y-47032981D01*
X116590606Y-47032064D01*
X116634889Y-47030673D01*
X116654498Y-47024975D01*
X116673531Y-47021033D01*
X116693797Y-47018474D01*
X116735006Y-47002157D01*
X116746037Y-46998380D01*
X116788593Y-46986018D01*
X116806160Y-46975628D01*
X116823632Y-46967068D01*
X116842617Y-46959552D01*
X116878475Y-46933498D01*
X116888223Y-46927096D01*
X116926362Y-46904542D01*
X116940800Y-46890103D01*
X116955588Y-46877472D01*
X116972107Y-46865472D01*
X117000359Y-46831319D01*
X117008203Y-46822699D01*
X119158584Y-44672318D01*
X119198813Y-44645438D01*
X119246266Y-44635999D01*
X120045545Y-44635999D01*
X120097484Y-44630693D01*
X120149426Y-44625387D01*
X120317738Y-44569615D01*
X120468652Y-44476530D01*
X120594030Y-44351152D01*
X120687115Y-44200238D01*
X120742887Y-44031926D01*
X120753500Y-43928045D01*
X120753499Y-43201956D01*
X120742887Y-43098074D01*
X120687115Y-42929762D01*
X120594030Y-42778848D01*
X120594029Y-42778847D01*
X120594028Y-42778845D01*
X120468654Y-42653471D01*
X120393195Y-42606927D01*
X120317738Y-42560385D01*
X120317737Y-42560384D01*
X120317736Y-42560384D01*
X120149426Y-42504612D01*
X120055173Y-42494983D01*
X120045544Y-42494000D01*
X118694455Y-42494000D01*
X118590574Y-42504612D01*
X118422263Y-42560384D01*
X118271345Y-42653471D01*
X118187681Y-42737136D01*
X118132094Y-42769230D01*
X118067906Y-42769230D01*
X118012319Y-42737136D01*
X117928654Y-42653471D01*
X117853195Y-42606927D01*
X117777738Y-42560385D01*
X117777737Y-42560384D01*
X117777736Y-42560384D01*
X117609426Y-42504612D01*
X117515173Y-42494983D01*
X117505544Y-42494000D01*
X116154455Y-42494000D01*
X116050574Y-42504612D01*
X115882263Y-42560384D01*
X115731345Y-42653471D01*
X115617681Y-42767136D01*
X115562094Y-42799230D01*
X115497906Y-42799230D01*
X115442319Y-42767136D01*
X115388654Y-42713471D01*
X115291377Y-42653470D01*
X115237738Y-42620385D01*
X115237737Y-42620384D01*
X115237736Y-42620384D01*
X115069426Y-42564612D01*
X114975173Y-42554983D01*
X114965544Y-42554000D01*
X113614455Y-42554000D01*
X113510574Y-42564612D01*
X113342263Y-42620384D01*
X113191345Y-42713471D01*
X113065971Y-42838845D01*
X112972884Y-42989763D01*
X112917112Y-43158073D01*
X112906500Y-43261955D01*
X112906500Y-43988043D01*
X112912057Y-44042430D01*
X112905526Y-44096594D01*
X112876380Y-44142713D01*
X112588911Y-44430183D01*
X112548686Y-44457061D01*
X112501233Y-44466500D01*
X103450545Y-44466500D01*
X103394250Y-44452985D01*
X103350227Y-44415385D01*
X103328072Y-44361898D01*
X103332614Y-44304182D01*
X103362864Y-44254819D01*
X103459028Y-44158654D01*
X103459028Y-44158653D01*
X103459030Y-44158652D01*
X103552115Y-44007738D01*
X103607887Y-43839426D01*
X103618500Y-43735545D01*
X103618499Y-43117499D01*
X103635112Y-43055500D01*
X103680499Y-43010113D01*
X103742499Y-42993500D01*
X104244970Y-42993500D01*
X104364856Y-42993500D01*
X104571367Y-42993500D01*
X104592108Y-42995789D01*
X104594905Y-42995701D01*
X104594909Y-42995702D01*
X104663017Y-42993560D01*
X104666913Y-42993500D01*
X104694854Y-42993500D01*
X104694856Y-42993500D01*
X104698956Y-42992981D01*
X104710606Y-42992064D01*
X104754889Y-42990673D01*
X104774498Y-42984975D01*
X104793531Y-42981033D01*
X104813797Y-42978474D01*
X104855006Y-42962157D01*
X104866037Y-42958380D01*
X104908593Y-42946018D01*
X104926160Y-42935628D01*
X104943632Y-42927068D01*
X104962617Y-42919552D01*
X104998475Y-42893498D01*
X105008223Y-42887096D01*
X105046362Y-42864542D01*
X105060800Y-42850103D01*
X105075588Y-42837472D01*
X105092107Y-42825472D01*
X105120359Y-42791319D01*
X105128203Y-42782699D01*
X109397959Y-38512943D01*
X109457693Y-38479816D01*
X109509768Y-38482511D01*
X109510229Y-38479753D01*
X109742431Y-38518500D01*
X109967569Y-38518500D01*
X110189635Y-38481444D01*
X110402574Y-38408342D01*
X110600576Y-38301189D01*
X110778240Y-38162906D01*
X110930722Y-37997268D01*
X111021192Y-37858793D01*
X111065981Y-37817562D01*
X111124998Y-37802616D01*
X111184016Y-37817561D01*
X111228807Y-37858794D01*
X111319275Y-37997265D01*
X111319277Y-37997267D01*
X111319278Y-37997268D01*
X111471760Y-38162906D01*
X111649424Y-38301189D01*
X111847426Y-38408342D01*
X112060365Y-38481444D01*
X112282431Y-38518500D01*
X112507568Y-38518500D01*
X112507569Y-38518500D01*
X112729635Y-38481444D01*
X112729639Y-38481442D01*
X112739770Y-38479752D01*
X112740231Y-38482515D01*
X112792291Y-38479812D01*
X112852040Y-38512944D01*
X113620181Y-39281085D01*
X113647061Y-39321313D01*
X113656500Y-39368766D01*
X113656500Y-39512728D01*
X113641929Y-39571049D01*
X113601639Y-39615664D01*
X113545101Y-39636085D01*
X113542430Y-39636358D01*
X113510574Y-39639612D01*
X113342263Y-39695384D01*
X113191345Y-39788471D01*
X113065971Y-39913845D01*
X112972884Y-40064763D01*
X112917112Y-40233073D01*
X112906500Y-40336955D01*
X112906500Y-41063044D01*
X112917112Y-41166925D01*
X112967460Y-41318866D01*
X112972885Y-41335238D01*
X113001496Y-41381623D01*
X113065971Y-41486154D01*
X113191345Y-41611528D01*
X113191347Y-41611529D01*
X113191348Y-41611530D01*
X113342262Y-41704615D01*
X113426417Y-41732500D01*
X113510573Y-41760387D01*
X113520202Y-41761370D01*
X113614455Y-41771000D01*
X114965544Y-41770999D01*
X115069426Y-41760387D01*
X115237738Y-41704615D01*
X115388652Y-41611530D01*
X115443478Y-41556704D01*
X115502319Y-41497864D01*
X115557906Y-41465770D01*
X115622094Y-41465770D01*
X115677681Y-41497864D01*
X115731345Y-41551528D01*
X115731347Y-41551529D01*
X115731348Y-41551530D01*
X115882262Y-41644615D01*
X115966417Y-41672500D01*
X116050573Y-41700387D01*
X116060202Y-41701370D01*
X116154455Y-41711000D01*
X117505544Y-41710999D01*
X117609426Y-41700387D01*
X117777738Y-41644615D01*
X117928652Y-41551530D01*
X117963182Y-41517000D01*
X118012319Y-41467864D01*
X118067906Y-41435770D01*
X118132094Y-41435770D01*
X118187681Y-41467864D01*
X118271345Y-41551528D01*
X118271347Y-41551529D01*
X118271348Y-41551530D01*
X118422262Y-41644615D01*
X118506417Y-41672500D01*
X118590573Y-41700387D01*
X118600202Y-41701370D01*
X118694455Y-41711000D01*
X120045544Y-41710999D01*
X120149426Y-41700387D01*
X120317738Y-41644615D01*
X120468652Y-41551530D01*
X120594030Y-41426152D01*
X120687115Y-41275238D01*
X120742887Y-41106926D01*
X120753500Y-41003045D01*
X120753499Y-40276956D01*
X120752629Y-40268444D01*
X120742887Y-40173074D01*
X120706997Y-40064763D01*
X120687115Y-40004762D01*
X120594030Y-39853848D01*
X120594029Y-39853847D01*
X120594028Y-39853845D01*
X120468654Y-39728471D01*
X120369420Y-39667263D01*
X120317738Y-39635385D01*
X120317737Y-39635384D01*
X120317736Y-39635384D01*
X120149426Y-39579612D01*
X120114897Y-39576085D01*
X120058359Y-39555662D01*
X120018071Y-39511048D01*
X120003500Y-39452727D01*
X120003500Y-39138634D01*
X120005789Y-39117891D01*
X120005701Y-39115095D01*
X120005702Y-39115092D01*
X120003560Y-39046969D01*
X120003500Y-39043075D01*
X120003500Y-39015147D01*
X120003500Y-39015144D01*
X120002982Y-39011047D01*
X120002065Y-38999398D01*
X120000674Y-38955111D01*
X119994974Y-38935494D01*
X119991033Y-38916464D01*
X119988474Y-38896203D01*
X119972163Y-38855007D01*
X119968381Y-38843960D01*
X119956018Y-38801408D01*
X119956018Y-38801407D01*
X119945622Y-38783829D01*
X119937069Y-38766371D01*
X119929552Y-38747383D01*
X119903503Y-38711530D01*
X119897099Y-38701780D01*
X119874542Y-38663638D01*
X119860107Y-38649203D01*
X119847469Y-38634406D01*
X119835472Y-38617893D01*
X119801324Y-38589643D01*
X119792685Y-38581781D01*
X118824063Y-37613159D01*
X118792193Y-37558396D01*
X118791538Y-37495037D01*
X118819564Y-37384368D01*
X118819564Y-37384364D01*
X118819565Y-37384362D01*
X118838156Y-37160000D01*
X118819564Y-36935636D01*
X118819564Y-36935632D01*
X118764296Y-36717384D01*
X118673860Y-36511209D01*
X118550722Y-36322732D01*
X118398240Y-36157094D01*
X118220576Y-36018811D01*
X118022574Y-35911658D01*
X118022573Y-35911657D01*
X118022572Y-35911657D01*
X117809636Y-35838556D01*
X117587569Y-35801500D01*
X117362431Y-35801500D01*
X117140363Y-35838556D01*
X116927427Y-35911657D01*
X116729424Y-36018811D01*
X116551760Y-36157094D01*
X116399279Y-36322730D01*
X116308809Y-36461205D01*
X116264017Y-36502438D01*
X116205000Y-36517383D01*
X116145983Y-36502438D01*
X116101191Y-36461205D01*
X116081043Y-36430367D01*
X116010722Y-36322732D01*
X115858240Y-36157094D01*
X115680576Y-36018811D01*
X115482574Y-35911658D01*
X115482573Y-35911657D01*
X115482572Y-35911657D01*
X115269636Y-35838556D01*
X115047569Y-35801500D01*
X114822431Y-35801500D01*
X114600363Y-35838556D01*
X114387427Y-35911657D01*
X114189424Y-36018811D01*
X114011760Y-36157094D01*
X113859279Y-36322730D01*
X113768809Y-36461205D01*
X113724017Y-36502438D01*
X113665000Y-36517383D01*
X113605983Y-36502438D01*
X113561191Y-36461205D01*
X113541043Y-36430367D01*
X113470722Y-36322732D01*
X113318240Y-36157094D01*
X113140576Y-36018811D01*
X112942574Y-35911658D01*
X112942573Y-35911657D01*
X112942572Y-35911657D01*
X112729636Y-35838556D01*
X112507569Y-35801500D01*
X112282431Y-35801500D01*
X112060363Y-35838556D01*
X111847427Y-35911657D01*
X111649424Y-36018811D01*
X111471760Y-36157094D01*
X111319279Y-36322730D01*
X111228809Y-36461205D01*
X111184017Y-36502438D01*
X111125000Y-36517383D01*
X111065983Y-36502438D01*
X111021191Y-36461205D01*
X111001043Y-36430367D01*
X110930722Y-36322732D01*
X110778240Y-36157094D01*
X110600576Y-36018811D01*
X110402574Y-35911658D01*
X110402573Y-35911657D01*
X110402572Y-35911657D01*
X110189636Y-35838556D01*
X109967569Y-35801500D01*
X109742431Y-35801500D01*
X109520363Y-35838556D01*
X109307427Y-35911657D01*
X109109424Y-36018811D01*
X108931760Y-36157094D01*
X108779279Y-36322730D01*
X108688809Y-36461205D01*
X108644017Y-36502438D01*
X108585000Y-36517383D01*
X108525983Y-36502438D01*
X108481191Y-36461205D01*
X108461043Y-36430367D01*
X108390722Y-36322732D01*
X108238240Y-36157094D01*
X108060576Y-36018811D01*
X107862574Y-35911658D01*
X107862573Y-35911657D01*
X107862572Y-35911657D01*
X107649636Y-35838556D01*
X107427569Y-35801500D01*
X107202431Y-35801500D01*
X106980363Y-35838556D01*
X106767427Y-35911657D01*
X106569424Y-36018811D01*
X106391760Y-36157094D01*
X106239279Y-36322730D01*
X106148809Y-36461205D01*
X106104017Y-36502438D01*
X106045000Y-36517383D01*
X105985983Y-36502438D01*
X105941191Y-36461205D01*
X105921043Y-36430367D01*
X105850722Y-36322732D01*
X105698240Y-36157094D01*
X105520576Y-36018811D01*
X105322574Y-35911658D01*
X105322573Y-35911657D01*
X105322572Y-35911657D01*
X105109636Y-35838556D01*
X104887569Y-35801500D01*
X104662431Y-35801500D01*
X104440363Y-35838556D01*
X104227427Y-35911657D01*
X104029424Y-36018811D01*
X103851760Y-36157094D01*
X103699279Y-36322730D01*
X103608809Y-36461205D01*
X103564017Y-36502438D01*
X103505000Y-36517383D01*
X103445983Y-36502438D01*
X103401191Y-36461205D01*
X103381043Y-36430367D01*
X103310722Y-36322732D01*
X103158240Y-36157094D01*
X102980576Y-36018811D01*
X102782574Y-35911658D01*
X102782573Y-35911657D01*
X102782572Y-35911657D01*
X102569636Y-35838556D01*
X102347569Y-35801500D01*
X102122431Y-35801500D01*
X101900363Y-35838556D01*
X101687427Y-35911657D01*
X101489424Y-36018811D01*
X101311759Y-36157094D01*
X101248548Y-36225759D01*
X101195924Y-36259612D01*
X101133470Y-36263460D01*
X101077089Y-36236322D01*
X101041138Y-36185110D01*
X101016427Y-36118861D01*
X100995889Y-36063796D01*
X100962214Y-36018811D01*
X100908261Y-35946738D01*
X100791203Y-35859110D01*
X100654205Y-35808011D01*
X100623919Y-35804755D01*
X100593638Y-35801500D01*
X98796362Y-35801500D01*
X98769445Y-35804393D01*
X98735794Y-35808011D01*
X98598796Y-35859110D01*
X98481738Y-35946738D01*
X98394110Y-36063796D01*
X98343011Y-36200794D01*
X98339393Y-36234445D01*
X98336689Y-36259612D01*
X98336500Y-36261366D01*
X98336500Y-38058634D01*
X98343011Y-38119205D01*
X98394110Y-38256203D01*
X98481738Y-38373261D01*
X98598796Y-38460889D01*
X98735794Y-38511988D01*
X98735797Y-38511988D01*
X98735799Y-38511989D01*
X98796362Y-38518500D01*
X98937500Y-38518500D01*
X98999500Y-38535113D01*
X99044887Y-38580500D01*
X99061500Y-38642500D01*
X99061500Y-39260228D01*
X99046929Y-39318549D01*
X99006639Y-39363164D01*
X98950101Y-39383585D01*
X98947430Y-39383858D01*
X98915574Y-39387112D01*
X98747263Y-39442884D01*
X98596345Y-39535971D01*
X98470971Y-39661345D01*
X98377884Y-39812263D01*
X98322112Y-39980573D01*
X98313512Y-40064762D01*
X98311500Y-40084455D01*
X98311500Y-40390000D01*
X98311501Y-40577500D01*
X98294888Y-40639500D01*
X98249501Y-40684887D01*
X98187501Y-40701500D01*
X97813634Y-40701500D01*
X97792891Y-40699210D01*
X97721970Y-40701439D01*
X97718075Y-40701500D01*
X97690141Y-40701500D01*
X97686037Y-40702018D01*
X97674405Y-40702933D01*
X97630110Y-40704325D01*
X97610496Y-40710023D01*
X97591460Y-40713965D01*
X97571206Y-40716525D01*
X97530016Y-40732832D01*
X97518970Y-40736613D01*
X97476407Y-40748979D01*
X97458828Y-40759376D01*
X97441364Y-40767932D01*
X97432620Y-40771394D01*
X97422382Y-40775448D01*
X97386539Y-40801489D01*
X97376782Y-40807898D01*
X97338638Y-40830457D01*
X97324200Y-40844895D01*
X97309411Y-40857525D01*
X97292894Y-40869525D01*
X97264644Y-40903673D01*
X97256783Y-40912311D01*
X95793415Y-42375679D01*
X95733100Y-42408941D01*
X95664341Y-42404885D01*
X95608354Y-42364765D01*
X95582414Y-42300962D01*
X95575542Y-42235572D01*
X95529258Y-42093125D01*
X95516527Y-42053943D01*
X95421042Y-41888558D01*
X95394028Y-41858556D01*
X95293253Y-41746634D01*
X95196901Y-41676629D01*
X95138751Y-41634381D01*
X94964285Y-41556704D01*
X94777489Y-41517000D01*
X94777487Y-41517000D01*
X94586513Y-41517000D01*
X94586511Y-41517000D01*
X94399714Y-41556704D01*
X94225248Y-41634381D01*
X94070745Y-41746634D01*
X94067287Y-41750476D01*
X94025573Y-41780781D01*
X93975140Y-41791500D01*
X92667613Y-41791500D01*
X92548651Y-41807161D01*
X92400623Y-41868476D01*
X92273512Y-41966012D01*
X92175975Y-42093124D01*
X92114662Y-42241149D01*
X92099000Y-42360114D01*
X92099000Y-42639886D01*
X92114661Y-42758850D01*
X92122406Y-42777548D01*
X92131845Y-42824998D01*
X92122407Y-42872449D01*
X92114662Y-42891146D01*
X92099000Y-43010113D01*
X92099000Y-43289886D01*
X92114661Y-43408850D01*
X92122406Y-43427548D01*
X92131845Y-43474998D01*
X92122407Y-43522449D01*
X92114662Y-43541146D01*
X92099000Y-43660114D01*
X92099000Y-43939886D01*
X92114661Y-44058850D01*
X92122406Y-44077548D01*
X92131845Y-44124998D01*
X92122407Y-44172449D01*
X92114662Y-44191146D01*
X92099000Y-44310114D01*
X92099000Y-44589886D01*
X92114661Y-44708850D01*
X92122406Y-44727548D01*
X92131845Y-44774998D01*
X92122407Y-44822449D01*
X92114662Y-44841146D01*
X92099000Y-44960114D01*
X92099000Y-45239886D01*
X92114661Y-45358850D01*
X92122406Y-45377548D01*
X92131845Y-45424998D01*
X92122407Y-45472449D01*
X92114662Y-45491146D01*
X92099000Y-45610114D01*
X92099000Y-45889886D01*
X92114661Y-46008850D01*
X92122406Y-46027548D01*
X92131845Y-46074998D01*
X92122407Y-46122449D01*
X92114662Y-46141146D01*
X92099000Y-46260114D01*
X92099000Y-46539886D01*
X88866000Y-46539886D01*
X88866000Y-46539885D01*
X88865999Y-46260116D01*
X88865999Y-46260113D01*
X88850339Y-46141153D01*
X88842593Y-46122453D01*
X88833154Y-46074999D01*
X88842594Y-46027544D01*
X88850338Y-46008849D01*
X88858827Y-45944368D01*
X88866000Y-45889885D01*
X88865999Y-45610116D01*
X88850338Y-45491150D01*
X88842592Y-45472449D01*
X88833154Y-45425000D01*
X88842592Y-45377548D01*
X88850338Y-45358850D01*
X88866000Y-45239885D01*
X88865999Y-44960116D01*
X88861887Y-44928882D01*
X88850338Y-44841149D01*
X88837993Y-44811346D01*
X88828553Y-44763890D01*
X88837994Y-44716434D01*
X88842056Y-44706627D01*
X88849512Y-44650000D01*
X88817083Y-44650000D01*
X88762239Y-44637212D01*
X88718708Y-44601488D01*
X88691487Y-44566013D01*
X88691485Y-44566012D01*
X88691485Y-44566011D01*
X88668502Y-44548376D01*
X88632776Y-44504844D01*
X88619988Y-44450000D01*
X88632776Y-44395156D01*
X88668502Y-44351624D01*
X88691487Y-44333987D01*
X88718708Y-44298511D01*
X88762239Y-44262788D01*
X88817083Y-44250000D01*
X88849510Y-44250000D01*
X88849511Y-44249998D01*
X88842057Y-44193371D01*
X88837993Y-44183560D01*
X88828553Y-44136105D01*
X88837991Y-44088657D01*
X88850338Y-44058850D01*
X88853571Y-44034288D01*
X88877642Y-43975634D01*
X88927561Y-43936544D01*
X88990278Y-43927241D01*
X89049396Y-43950156D01*
X89078248Y-43971118D01*
X89252714Y-44048795D01*
X89439511Y-44088500D01*
X89439513Y-44088500D01*
X89630487Y-44088500D01*
X89630489Y-44088500D01*
X89817285Y-44048795D01*
X89817286Y-44048794D01*
X89817288Y-44048794D01*
X89991752Y-43971118D01*
X90146253Y-43858866D01*
X90274040Y-43716944D01*
X90328501Y-43622616D01*
X90369527Y-43551556D01*
X90372909Y-43541146D01*
X90428542Y-43369928D01*
X90448504Y-43180000D01*
X90428542Y-42990072D01*
X90387755Y-42864543D01*
X90369527Y-42808443D01*
X90274042Y-42643058D01*
X90253626Y-42620384D01*
X90146253Y-42501134D01*
X89991752Y-42388882D01*
X89991751Y-42388881D01*
X89817285Y-42311204D01*
X89630489Y-42271500D01*
X89630487Y-42271500D01*
X89439513Y-42271500D01*
X89439511Y-42271500D01*
X89252714Y-42311204D01*
X89078245Y-42388882D01*
X89056602Y-42404607D01*
X88997485Y-42427521D01*
X88934768Y-42418216D01*
X88884850Y-42379126D01*
X88860780Y-42320470D01*
X88850338Y-42241151D01*
X88850337Y-42241149D01*
X88789024Y-42093124D01*
X88707836Y-41987319D01*
X88684096Y-41933364D01*
X88687951Y-41874544D01*
X88718529Y-41824152D01*
X88779030Y-41763652D01*
X88872115Y-41612738D01*
X88927887Y-41444426D01*
X88938500Y-41340545D01*
X88938500Y-40890000D01*
X89730001Y-40890000D01*
X89730001Y-41339979D01*
X89740493Y-41442695D01*
X89795642Y-41609122D01*
X89887683Y-41758345D01*
X90011654Y-41882316D01*
X90160877Y-41974357D01*
X90327303Y-42029506D01*
X90430021Y-42040000D01*
X90555000Y-42040000D01*
X90555000Y-40890000D01*
X91055000Y-40890000D01*
X91055000Y-42039999D01*
X91179979Y-42039999D01*
X91282695Y-42029506D01*
X91449122Y-41974357D01*
X91598345Y-41882316D01*
X91722316Y-41758345D01*
X91814357Y-41609122D01*
X91869506Y-41442696D01*
X91880000Y-41339979D01*
X91880000Y-40890000D01*
X91055000Y-40890000D01*
X90555000Y-40890000D01*
X89730001Y-40890000D01*
X88938500Y-40890000D01*
X88938499Y-40390000D01*
X89730000Y-40390000D01*
X90555000Y-40390000D01*
X90555000Y-39240001D01*
X90430021Y-39240001D01*
X90327304Y-39250493D01*
X90160877Y-39305642D01*
X90011654Y-39397683D01*
X89887683Y-39521654D01*
X89795642Y-39670877D01*
X89740493Y-39837303D01*
X89730000Y-39940021D01*
X89730000Y-40390000D01*
X88938499Y-40390000D01*
X88938499Y-39939456D01*
X88927887Y-39835574D01*
X88872115Y-39667262D01*
X88779030Y-39516348D01*
X88779029Y-39516347D01*
X88779028Y-39516345D01*
X88653654Y-39390971D01*
X88578160Y-39344406D01*
X88502738Y-39297885D01*
X88502737Y-39297884D01*
X88502736Y-39297884D01*
X88334426Y-39242112D01*
X88313753Y-39240000D01*
X91055000Y-39240000D01*
X91055000Y-40390000D01*
X91879999Y-40390000D01*
X91879999Y-39940021D01*
X91869506Y-39837304D01*
X91814357Y-39670877D01*
X91722316Y-39521654D01*
X91598345Y-39397683D01*
X91449122Y-39305642D01*
X91282696Y-39250493D01*
X91179979Y-39240000D01*
X91055000Y-39240000D01*
X88313753Y-39240000D01*
X88240173Y-39232483D01*
X88230544Y-39231500D01*
X87479455Y-39231500D01*
X87375574Y-39242112D01*
X87207263Y-39297884D01*
X87056345Y-39390971D01*
X86930971Y-39516345D01*
X86837884Y-39667263D01*
X86782112Y-39835573D01*
X86776031Y-39895103D01*
X86755608Y-39951640D01*
X86710994Y-39991929D01*
X86652673Y-40006500D01*
X86432309Y-40006500D01*
X86381873Y-39995779D01*
X86340158Y-39965471D01*
X86336253Y-39961134D01*
X86181751Y-39848881D01*
X86007285Y-39771204D01*
X85820489Y-39731500D01*
X85820487Y-39731500D01*
X85629513Y-39731500D01*
X85629511Y-39731500D01*
X85442714Y-39771204D01*
X85268248Y-39848881D01*
X85113748Y-39961133D01*
X84985957Y-40103058D01*
X84890472Y-40268443D01*
X84831458Y-40450070D01*
X84811496Y-40640000D01*
X84831458Y-40829929D01*
X84890472Y-41011556D01*
X84985957Y-41176941D01*
X84985960Y-41176944D01*
X85113747Y-41318866D01*
X85261413Y-41426152D01*
X85268248Y-41431118D01*
X85442714Y-41508795D01*
X85629511Y-41548500D01*
X85629513Y-41548500D01*
X85820487Y-41548500D01*
X85820489Y-41548500D01*
X86007285Y-41508795D01*
X86007286Y-41508794D01*
X86007288Y-41508794D01*
X86181752Y-41431118D01*
X86336253Y-41318866D01*
X86340158Y-41314528D01*
X86381873Y-41284221D01*
X86432309Y-41273500D01*
X86652674Y-41273500D01*
X86710995Y-41288071D01*
X86755609Y-41328360D01*
X86776032Y-41384899D01*
X86782112Y-41444425D01*
X86837885Y-41612739D01*
X86854062Y-41638965D01*
X86871632Y-41689219D01*
X86866511Y-41742208D01*
X86839642Y-41788167D01*
X86795977Y-41818623D01*
X86675623Y-41868475D01*
X86548512Y-41966012D01*
X86450975Y-42093124D01*
X86389662Y-42241149D01*
X86374000Y-42360114D01*
X86374000Y-42639886D01*
X86389661Y-42758850D01*
X86397406Y-42777548D01*
X86406845Y-42824998D01*
X86397407Y-42872449D01*
X86389662Y-42891146D01*
X86374000Y-43010113D01*
X86374000Y-43042500D01*
X86357387Y-43104500D01*
X86312000Y-43149887D01*
X86250000Y-43166500D01*
X80108633Y-43166500D01*
X80087891Y-43164210D01*
X80085091Y-43164298D01*
X80016983Y-43166439D01*
X80013087Y-43166500D01*
X79985144Y-43166500D01*
X79981042Y-43167018D01*
X79969403Y-43167934D01*
X79925111Y-43169326D01*
X79905508Y-43175022D01*
X79886456Y-43178967D01*
X79866204Y-43181525D01*
X79825000Y-43197838D01*
X79813955Y-43201619D01*
X79771410Y-43213980D01*
X79771406Y-43213982D01*
X79771407Y-43213982D01*
X79753827Y-43224377D01*
X79736370Y-43232930D01*
X79717378Y-43240449D01*
X79681534Y-43266491D01*
X79671775Y-43272902D01*
X79655362Y-43282609D01*
X79595777Y-43299828D01*
X79535307Y-43286036D01*
X79489080Y-43244684D01*
X79468663Y-43186118D01*
X79456762Y-43042500D01*
X79449564Y-42955632D01*
X79394296Y-42737384D01*
X79303860Y-42531209D01*
X79180722Y-42342732D01*
X79028240Y-42177094D01*
X78850576Y-42038811D01*
X78652574Y-41931658D01*
X78652573Y-41931657D01*
X78652572Y-41931657D01*
X78439636Y-41858556D01*
X78217569Y-41821500D01*
X77992431Y-41821500D01*
X77770363Y-41858556D01*
X77557427Y-41931657D01*
X77359424Y-42038811D01*
X77181760Y-42177094D01*
X77029279Y-42342730D01*
X76906138Y-42531211D01*
X76815705Y-42737381D01*
X76815704Y-42737384D01*
X76797709Y-42808444D01*
X76760435Y-42955636D01*
X76741843Y-43180000D01*
X76760435Y-43404363D01*
X76760435Y-43404366D01*
X76760436Y-43404368D01*
X76797709Y-43551556D01*
X76815705Y-43622618D01*
X76906138Y-43828788D01*
X76906140Y-43828791D01*
X77029278Y-44017268D01*
X77181760Y-44182906D01*
X77359424Y-44321189D01*
X77359426Y-44321190D01*
X77395931Y-44340946D01*
X77443436Y-44386527D01*
X77460913Y-44450000D01*
X77443436Y-44513473D01*
X77395931Y-44559054D01*
X77359426Y-44578809D01*
X77181760Y-44717094D01*
X77029279Y-44882730D01*
X76906138Y-45071211D01*
X76832152Y-45239885D01*
X76815704Y-45277384D01*
X76760436Y-45495632D01*
X76760435Y-45495636D01*
X76741843Y-45719999D01*
X76760435Y-45944363D01*
X76760435Y-45944366D01*
X76760436Y-45944368D01*
X76810268Y-46141150D01*
X76815705Y-46162618D01*
X76906138Y-46368788D01*
X76906140Y-46368791D01*
X77029278Y-46557268D01*
X77181760Y-46722906D01*
X77359424Y-46861189D01*
X77359426Y-46861190D01*
X77395931Y-46880946D01*
X77443436Y-46926527D01*
X77460913Y-46990000D01*
X77443436Y-47053473D01*
X77395931Y-47099054D01*
X77359426Y-47118809D01*
X77181760Y-47257094D01*
X77029279Y-47422730D01*
X76906138Y-47611211D01*
X76815705Y-47817381D01*
X76760435Y-48035636D01*
X76741843Y-48259999D01*
X76760435Y-48484363D01*
X76760435Y-48484366D01*
X76760436Y-48484368D01*
X76805218Y-48661209D01*
X76815705Y-48702618D01*
X76906138Y-48908788D01*
X76906140Y-48908791D01*
X77029278Y-49097268D01*
X77181760Y-49262906D01*
X77359424Y-49401189D01*
X77359426Y-49401190D01*
X77395931Y-49420946D01*
X77443436Y-49466527D01*
X77460913Y-49530000D01*
X77443436Y-49593473D01*
X77395931Y-49639054D01*
X77359426Y-49658809D01*
X77181760Y-49797094D01*
X77029279Y-49962730D01*
X76906138Y-50151211D01*
X76820329Y-50346840D01*
X76815704Y-50357384D01*
X76803341Y-50406204D01*
X76760435Y-50575636D01*
X76741843Y-50800000D01*
X74295500Y-50800000D01*
X74295500Y-34414500D01*
X74312113Y-34352500D01*
X74357500Y-34307113D01*
X74419500Y-34290500D01*
X144170500Y-34290500D01*
X144232500Y-34307113D01*
G37*
%TD.AperFunction*%
%TD*%
%TA.AperFunction,Conductor*%
%TO.N,GND*%
G36*
X157088000Y-79877113D02*
G01*
X157133387Y-79922500D01*
X157150000Y-79984500D01*
X157150000Y-149585500D01*
X157133387Y-149647500D01*
X157088000Y-149692887D01*
X157026000Y-149709500D01*
X57744500Y-149709500D01*
X57682500Y-149692887D01*
X57637113Y-149647500D01*
X57620500Y-149585500D01*
X57620500Y-142805000D01*
X66940000Y-142805000D01*
X66940000Y-143452824D01*
X66946402Y-143512375D01*
X66996647Y-143647089D01*
X67082811Y-143762188D01*
X67197910Y-143848352D01*
X67332624Y-143898597D01*
X67392176Y-143905000D01*
X68040000Y-143905000D01*
X68540000Y-143905000D01*
X69187824Y-143905000D01*
X69247375Y-143898597D01*
X69382089Y-143848352D01*
X69497188Y-143762188D01*
X69583352Y-143647088D01*
X69629680Y-143522878D01*
X69665631Y-143471665D01*
X69722013Y-143444526D01*
X69784467Y-143448374D01*
X69837091Y-143482227D01*
X69864845Y-143512375D01*
X69906760Y-143557906D01*
X70084424Y-143696189D01*
X70282426Y-143803342D01*
X70495365Y-143876444D01*
X70717431Y-143913500D01*
X70942569Y-143913500D01*
X71164635Y-143876444D01*
X71377574Y-143803342D01*
X71575576Y-143696189D01*
X71753240Y-143557906D01*
X71905722Y-143392268D01*
X72028860Y-143203791D01*
X72119296Y-142997616D01*
X72174564Y-142779368D01*
X72193156Y-142555000D01*
X72174564Y-142330632D01*
X72119296Y-142112384D01*
X72028860Y-141906209D01*
X71905722Y-141717732D01*
X71753240Y-141552094D01*
X71575576Y-141413811D01*
X71377574Y-141306658D01*
X71377573Y-141306657D01*
X71377572Y-141306657D01*
X71164636Y-141233556D01*
X70942569Y-141196500D01*
X70717431Y-141196500D01*
X70495363Y-141233556D01*
X70282427Y-141306657D01*
X70084424Y-141413811D01*
X69906759Y-141552094D01*
X69837090Y-141627773D01*
X69784466Y-141661626D01*
X69722012Y-141665473D01*
X69665631Y-141638335D01*
X69629680Y-141587121D01*
X69583352Y-141462911D01*
X69497188Y-141347811D01*
X69382089Y-141261647D01*
X69247375Y-141211402D01*
X69187824Y-141205000D01*
X68540000Y-141205000D01*
X68540000Y-143905000D01*
X68040000Y-143905000D01*
X68040000Y-142805000D01*
X66940000Y-142805000D01*
X57620500Y-142805000D01*
X57620500Y-142305000D01*
X66940000Y-142305000D01*
X68040000Y-142305000D01*
X68040000Y-141205000D01*
X67392176Y-141205000D01*
X67332624Y-141211402D01*
X67197910Y-141261647D01*
X67082811Y-141347811D01*
X66996647Y-141462910D01*
X66946402Y-141597624D01*
X66940000Y-141657176D01*
X66940000Y-142305000D01*
X57620500Y-142305000D01*
X57620500Y-133813634D01*
X91197414Y-133813634D01*
X91203925Y-133874205D01*
X91255024Y-134011203D01*
X91342652Y-134128261D01*
X91459710Y-134215889D01*
X91596708Y-134266988D01*
X91596711Y-134266988D01*
X91596713Y-134266989D01*
X91657276Y-134273500D01*
X93854548Y-134273500D01*
X93854552Y-134273500D01*
X93915115Y-134266989D01*
X93915117Y-134266988D01*
X93915119Y-134266988D01*
X93993038Y-134237924D01*
X94052118Y-134215889D01*
X94169175Y-134128261D01*
X94256803Y-134011204D01*
X94269749Y-133976494D01*
X111847970Y-133976494D01*
X112050051Y-134100329D01*
X112275456Y-134193696D01*
X112512689Y-134250650D01*
X112755914Y-134269792D01*
X112999138Y-134250650D01*
X113236371Y-134193696D01*
X113461776Y-134100329D01*
X113663856Y-133976494D01*
X112755914Y-133068553D01*
X111847970Y-133976494D01*
X94269749Y-133976494D01*
X94307903Y-133874201D01*
X94314414Y-133813638D01*
X94314414Y-132714999D01*
X111201121Y-132714999D01*
X111220263Y-132958224D01*
X111277217Y-133195457D01*
X111370583Y-133420862D01*
X111494418Y-133622942D01*
X112402361Y-132715001D01*
X113109467Y-132715001D01*
X114017408Y-133622942D01*
X114141243Y-133420862D01*
X114234610Y-133195457D01*
X114291564Y-132958224D01*
X114310706Y-132714999D01*
X114291564Y-132471775D01*
X114234610Y-132234542D01*
X114141243Y-132009137D01*
X114017408Y-131807056D01*
X113109467Y-132715000D01*
X113109467Y-132715001D01*
X112402361Y-132715001D01*
X112402361Y-132715000D01*
X111494418Y-131807056D01*
X111370583Y-132009137D01*
X111277217Y-132234542D01*
X111220263Y-132471775D01*
X111201121Y-132714999D01*
X94314414Y-132714999D01*
X94314414Y-131616362D01*
X94307903Y-131555799D01*
X94307902Y-131555797D01*
X94307902Y-131555794D01*
X94269749Y-131453504D01*
X111847970Y-131453504D01*
X112755914Y-132361447D01*
X112755915Y-132361447D01*
X113663856Y-131453504D01*
X113461776Y-131329669D01*
X113236371Y-131236303D01*
X112999138Y-131179349D01*
X112755914Y-131160207D01*
X112512689Y-131179349D01*
X112275456Y-131236303D01*
X112050051Y-131329669D01*
X111847970Y-131453504D01*
X94269749Y-131453504D01*
X94256803Y-131418796D01*
X94169175Y-131301738D01*
X94052117Y-131214110D01*
X93915119Y-131163011D01*
X93884833Y-131159755D01*
X93854552Y-131156500D01*
X91657276Y-131156500D01*
X91630359Y-131159393D01*
X91596708Y-131163011D01*
X91459710Y-131214110D01*
X91342652Y-131301738D01*
X91255024Y-131418796D01*
X91203925Y-131555794D01*
X91197414Y-131616366D01*
X91197414Y-133813634D01*
X57620500Y-133813634D01*
X57620500Y-118360000D01*
X67230000Y-118360000D01*
X67230000Y-119007824D01*
X67236402Y-119067375D01*
X67286647Y-119202089D01*
X67372811Y-119317188D01*
X67487910Y-119403352D01*
X67622624Y-119453597D01*
X67682176Y-119460000D01*
X68330000Y-119460000D01*
X68330000Y-118360000D01*
X68830000Y-118360000D01*
X68830000Y-119460000D01*
X69477824Y-119460000D01*
X69537375Y-119453597D01*
X69672089Y-119403352D01*
X69787188Y-119317188D01*
X69873352Y-119202089D01*
X69923597Y-119067375D01*
X69930000Y-119007824D01*
X69930000Y-118360000D01*
X68830000Y-118360000D01*
X68330000Y-118360000D01*
X67230000Y-118360000D01*
X57620500Y-118360000D01*
X57620500Y-115570000D01*
X67216843Y-115570000D01*
X67235435Y-115794363D01*
X67290705Y-116012618D01*
X67381138Y-116218788D01*
X67504279Y-116407269D01*
X67655706Y-116571761D01*
X67684480Y-116624514D01*
X67685073Y-116684601D01*
X67657346Y-116737912D01*
X67607811Y-116771927D01*
X67487911Y-116816647D01*
X67372811Y-116902811D01*
X67286647Y-117017910D01*
X67236402Y-117152624D01*
X67230000Y-117212176D01*
X67230000Y-117860000D01*
X69930000Y-117860000D01*
X69930000Y-117212176D01*
X69923597Y-117152624D01*
X69873352Y-117017910D01*
X69787188Y-116902811D01*
X69672089Y-116816647D01*
X69552188Y-116771927D01*
X69502653Y-116737912D01*
X69474926Y-116684601D01*
X69475519Y-116624514D01*
X69504291Y-116571763D01*
X69655722Y-116407268D01*
X69778860Y-116218791D01*
X69869296Y-116012616D01*
X69924564Y-115794368D01*
X69943156Y-115570000D01*
X69924564Y-115345632D01*
X69869296Y-115127384D01*
X69778860Y-114921209D01*
X69655722Y-114732732D01*
X69503240Y-114567094D01*
X69325576Y-114428811D01*
X69127574Y-114321658D01*
X69127573Y-114321657D01*
X69127572Y-114321657D01*
X68914636Y-114248556D01*
X68692569Y-114211500D01*
X68467431Y-114211500D01*
X68245363Y-114248556D01*
X68032427Y-114321657D01*
X67834424Y-114428811D01*
X67656760Y-114567094D01*
X67504279Y-114732730D01*
X67381138Y-114921211D01*
X67290705Y-115127381D01*
X67235435Y-115345636D01*
X67216843Y-115570000D01*
X57620500Y-115570000D01*
X57620500Y-110740000D01*
X62150000Y-110740000D01*
X62150000Y-111387824D01*
X62156402Y-111447375D01*
X62206647Y-111582089D01*
X62292811Y-111697188D01*
X62407910Y-111783352D01*
X62542624Y-111833597D01*
X62602176Y-111840000D01*
X63250000Y-111840000D01*
X63250000Y-110740000D01*
X63750000Y-110740000D01*
X63750000Y-111840000D01*
X64397824Y-111840000D01*
X64457375Y-111833597D01*
X64592089Y-111783352D01*
X64707188Y-111697188D01*
X64793352Y-111582089D01*
X64843597Y-111447375D01*
X64850000Y-111387824D01*
X64850000Y-110740000D01*
X67230000Y-110740000D01*
X67230000Y-111387824D01*
X67236402Y-111447375D01*
X67286647Y-111582089D01*
X67372811Y-111697188D01*
X67487910Y-111783352D01*
X67622624Y-111833597D01*
X67682176Y-111840000D01*
X68330000Y-111840000D01*
X68330000Y-110740000D01*
X68830000Y-110740000D01*
X68830000Y-111840000D01*
X69477824Y-111840000D01*
X69537375Y-111833597D01*
X69672089Y-111783352D01*
X69787188Y-111697188D01*
X69873352Y-111582089D01*
X69923597Y-111447375D01*
X69930000Y-111387824D01*
X69930000Y-110740000D01*
X68830000Y-110740000D01*
X68330000Y-110740000D01*
X67230000Y-110740000D01*
X64850000Y-110740000D01*
X63750000Y-110740000D01*
X63250000Y-110740000D01*
X62150000Y-110740000D01*
X57620500Y-110740000D01*
X57620500Y-107949999D01*
X62136843Y-107949999D01*
X62155435Y-108174363D01*
X62210705Y-108392618D01*
X62301138Y-108598788D01*
X62424279Y-108787269D01*
X62575706Y-108951761D01*
X62604480Y-109004514D01*
X62605073Y-109064601D01*
X62577346Y-109117912D01*
X62527811Y-109151927D01*
X62407911Y-109196647D01*
X62292811Y-109282811D01*
X62206647Y-109397910D01*
X62156402Y-109532624D01*
X62150000Y-109592176D01*
X62150000Y-110240000D01*
X64850000Y-110240000D01*
X64850000Y-109592176D01*
X64843597Y-109532624D01*
X64793352Y-109397910D01*
X64707188Y-109282811D01*
X64592089Y-109196647D01*
X64472188Y-109151927D01*
X64422653Y-109117912D01*
X64394926Y-109064601D01*
X64395519Y-109004514D01*
X64424291Y-108951763D01*
X64575722Y-108787268D01*
X64698860Y-108598791D01*
X64789296Y-108392616D01*
X64844564Y-108174368D01*
X64863156Y-107950000D01*
X64863156Y-107949999D01*
X67216843Y-107949999D01*
X67235435Y-108174363D01*
X67290705Y-108392618D01*
X67381138Y-108598788D01*
X67504279Y-108787269D01*
X67655706Y-108951761D01*
X67684480Y-109004514D01*
X67685073Y-109064601D01*
X67657346Y-109117912D01*
X67607811Y-109151927D01*
X67487911Y-109196647D01*
X67372811Y-109282811D01*
X67286647Y-109397910D01*
X67236402Y-109532624D01*
X67230000Y-109592176D01*
X67230000Y-110240000D01*
X69930000Y-110240000D01*
X69930000Y-109592176D01*
X69923597Y-109532624D01*
X69873352Y-109397910D01*
X69787188Y-109282811D01*
X69672089Y-109196647D01*
X69552188Y-109151927D01*
X69502653Y-109117912D01*
X69474926Y-109064601D01*
X69475519Y-109004514D01*
X69504291Y-108951763D01*
X69655722Y-108787268D01*
X69778860Y-108598791D01*
X69869296Y-108392616D01*
X69924564Y-108174368D01*
X69943156Y-107950000D01*
X69924564Y-107725632D01*
X69869296Y-107507384D01*
X69778860Y-107301209D01*
X69655722Y-107112732D01*
X69503240Y-106947094D01*
X69325576Y-106808811D01*
X69127574Y-106701658D01*
X69127573Y-106701657D01*
X69127572Y-106701657D01*
X68914636Y-106628556D01*
X68692569Y-106591500D01*
X68467431Y-106591500D01*
X68245363Y-106628556D01*
X68032427Y-106701657D01*
X67834424Y-106808811D01*
X67656760Y-106947094D01*
X67504279Y-107112730D01*
X67381138Y-107301211D01*
X67290705Y-107507381D01*
X67290704Y-107507384D01*
X67276805Y-107562269D01*
X67235435Y-107725636D01*
X67216843Y-107949999D01*
X64863156Y-107949999D01*
X64844564Y-107725632D01*
X64789296Y-107507384D01*
X64698860Y-107301209D01*
X64575722Y-107112732D01*
X64423240Y-106947094D01*
X64245576Y-106808811D01*
X64047574Y-106701658D01*
X64047573Y-106701657D01*
X64047572Y-106701657D01*
X63834636Y-106628556D01*
X63612569Y-106591500D01*
X63387431Y-106591500D01*
X63165363Y-106628556D01*
X62952427Y-106701657D01*
X62754424Y-106808811D01*
X62576760Y-106947094D01*
X62424279Y-107112730D01*
X62301138Y-107301211D01*
X62210705Y-107507381D01*
X62210704Y-107507384D01*
X62196805Y-107562269D01*
X62155435Y-107725636D01*
X62136843Y-107949999D01*
X57620500Y-107949999D01*
X57620500Y-90805000D01*
X68936496Y-90805000D01*
X68956458Y-90994929D01*
X69015472Y-91176556D01*
X69110957Y-91341941D01*
X69110960Y-91341944D01*
X69238747Y-91483866D01*
X69393248Y-91596118D01*
X69567714Y-91673795D01*
X69754511Y-91713500D01*
X69754513Y-91713500D01*
X69811234Y-91713500D01*
X69858687Y-91722939D01*
X69898915Y-91749819D01*
X71085181Y-92936086D01*
X71112061Y-92976314D01*
X71121500Y-93023767D01*
X71121500Y-109136367D01*
X71119210Y-109157108D01*
X71121439Y-109228017D01*
X71121500Y-109231913D01*
X71121500Y-109259855D01*
X71122018Y-109263956D01*
X71122934Y-109275597D01*
X71124326Y-109319888D01*
X71130022Y-109339492D01*
X71133967Y-109358544D01*
X71136525Y-109378798D01*
X71152838Y-109420001D01*
X71156621Y-109431049D01*
X71168982Y-109473593D01*
X71179374Y-109491166D01*
X71187931Y-109508633D01*
X71195448Y-109527618D01*
X71221491Y-109563463D01*
X71227905Y-109573227D01*
X71250458Y-109611362D01*
X71264890Y-109625794D01*
X71277526Y-109640589D01*
X71289526Y-109657105D01*
X71323667Y-109685349D01*
X71332308Y-109693212D01*
X81245181Y-119606086D01*
X81272061Y-119646314D01*
X81281500Y-119693767D01*
X81281500Y-121218243D01*
X81273264Y-121262681D01*
X81249651Y-121301212D01*
X81217958Y-121336412D01*
X81175957Y-121383058D01*
X81080472Y-121548443D01*
X81021458Y-121730070D01*
X81021457Y-121730072D01*
X81021458Y-121730072D01*
X81006107Y-121876135D01*
X81003550Y-121900462D01*
X80983030Y-121956840D01*
X80938443Y-121996986D01*
X80880229Y-122011500D01*
X78893345Y-122011500D01*
X78842910Y-122000780D01*
X78801195Y-121970472D01*
X78788921Y-121956840D01*
X78716253Y-121876134D01*
X78561752Y-121763882D01*
X78561751Y-121763881D01*
X78387285Y-121686204D01*
X78200489Y-121646500D01*
X78200487Y-121646500D01*
X78009513Y-121646500D01*
X78009511Y-121646500D01*
X77822714Y-121686204D01*
X77648248Y-121763881D01*
X77493748Y-121876133D01*
X77365957Y-122018058D01*
X77270472Y-122183443D01*
X77211458Y-122365070D01*
X77191496Y-122555000D01*
X77211458Y-122744929D01*
X77270472Y-122926556D01*
X77365957Y-123091941D01*
X77365960Y-123091944D01*
X77493747Y-123233866D01*
X77648247Y-123346117D01*
X77648248Y-123346118D01*
X77822714Y-123423795D01*
X78009511Y-123463500D01*
X78009513Y-123463500D01*
X78200487Y-123463500D01*
X78200489Y-123463500D01*
X78387285Y-123423795D01*
X78387286Y-123423794D01*
X78387288Y-123423794D01*
X78561752Y-123346118D01*
X78622223Y-123302182D01*
X78656792Y-123284569D01*
X78695110Y-123278500D01*
X85344148Y-123278500D01*
X85402365Y-123293016D01*
X85446951Y-123333164D01*
X85459772Y-123368396D01*
X85462431Y-123367533D01*
X85466457Y-123379926D01*
X85466458Y-123379928D01*
X85480711Y-123423794D01*
X85525472Y-123561556D01*
X85620957Y-123726941D01*
X85620960Y-123726944D01*
X85748747Y-123868866D01*
X85903248Y-123981118D01*
X86077714Y-124058795D01*
X86264511Y-124098500D01*
X86264513Y-124098500D01*
X86455487Y-124098500D01*
X86455489Y-124098500D01*
X86642285Y-124058795D01*
X86642286Y-124058794D01*
X86642288Y-124058794D01*
X86816752Y-123981118D01*
X86971253Y-123868866D01*
X87099040Y-123726944D01*
X87194527Y-123561556D01*
X87253542Y-123379928D01*
X87273504Y-123190000D01*
X87253542Y-123000072D01*
X87194527Y-122818444D01*
X87194527Y-122818443D01*
X87099042Y-122653058D01*
X87079442Y-122631291D01*
X86971253Y-122511134D01*
X86816752Y-122398882D01*
X86816751Y-122398881D01*
X86642285Y-122321204D01*
X86455489Y-122281500D01*
X86455487Y-122281500D01*
X86402437Y-122281500D01*
X86356790Y-122272792D01*
X86317553Y-122247892D01*
X86257348Y-122191356D01*
X86254551Y-122188645D01*
X86234773Y-122168867D01*
X86231495Y-122166324D01*
X86222622Y-122158745D01*
X86190321Y-122128414D01*
X86172433Y-122118580D01*
X86156169Y-122107896D01*
X86140040Y-122095385D01*
X86099377Y-122077789D01*
X86088883Y-122072648D01*
X86050062Y-122051305D01*
X86038386Y-122048307D01*
X86030284Y-122046227D01*
X86011879Y-122039926D01*
X85993145Y-122031819D01*
X85993143Y-122031818D01*
X85993142Y-122031818D01*
X85949383Y-122024887D01*
X85937943Y-122022518D01*
X85895031Y-122011500D01*
X85895030Y-122011500D01*
X85874616Y-122011500D01*
X85855217Y-122009973D01*
X85835058Y-122006780D01*
X85835057Y-122006780D01*
X85802318Y-122009874D01*
X85790943Y-122010950D01*
X85779274Y-122011500D01*
X82949771Y-122011500D01*
X82891557Y-121996986D01*
X82846970Y-121956840D01*
X82826450Y-121900462D01*
X82808542Y-121730072D01*
X82749527Y-121548444D01*
X82749527Y-121548443D01*
X82654042Y-121383058D01*
X82640746Y-121368291D01*
X82580348Y-121301212D01*
X82556736Y-121262681D01*
X82548500Y-121218243D01*
X82548500Y-119463633D01*
X82550789Y-119442890D01*
X82550701Y-119440094D01*
X82550702Y-119440091D01*
X82548560Y-119371968D01*
X82548500Y-119368074D01*
X82548500Y-119340147D01*
X82548500Y-119340144D01*
X82547982Y-119336047D01*
X82547065Y-119324398D01*
X82545674Y-119280111D01*
X82539974Y-119260494D01*
X82536033Y-119241464D01*
X82533474Y-119221203D01*
X82517163Y-119180007D01*
X82513381Y-119168960D01*
X82501018Y-119126408D01*
X82501018Y-119126407D01*
X82490622Y-119108829D01*
X82482069Y-119091371D01*
X82474552Y-119072383D01*
X82448503Y-119036530D01*
X82442099Y-119026780D01*
X82419542Y-118988638D01*
X82405107Y-118974203D01*
X82392469Y-118959406D01*
X82380472Y-118942893D01*
X82346324Y-118914643D01*
X82337685Y-118906781D01*
X72945905Y-109515000D01*
X76120000Y-109515000D01*
X76120000Y-110162824D01*
X76126402Y-110222375D01*
X76176647Y-110357089D01*
X76262811Y-110472188D01*
X76377910Y-110558352D01*
X76512624Y-110608597D01*
X76572176Y-110615000D01*
X77220000Y-110615000D01*
X77220000Y-109515000D01*
X77720000Y-109515000D01*
X77720000Y-110615000D01*
X78367824Y-110615000D01*
X78427375Y-110608597D01*
X78562089Y-110558352D01*
X78677188Y-110472188D01*
X78763352Y-110357089D01*
X78813597Y-110222375D01*
X78820000Y-110162824D01*
X78820000Y-109515000D01*
X77720000Y-109515000D01*
X77220000Y-109515000D01*
X76120000Y-109515000D01*
X72945905Y-109515000D01*
X72424819Y-108993914D01*
X72397939Y-108953686D01*
X72388500Y-108906233D01*
X72388500Y-106725000D01*
X76106843Y-106725000D01*
X76125435Y-106949363D01*
X76125435Y-106949366D01*
X76125436Y-106949368D01*
X76166805Y-107112732D01*
X76180705Y-107167618D01*
X76271138Y-107373788D01*
X76394279Y-107562269D01*
X76545706Y-107726761D01*
X76574480Y-107779514D01*
X76575073Y-107839601D01*
X76547346Y-107892912D01*
X76497811Y-107926927D01*
X76377911Y-107971647D01*
X76262811Y-108057811D01*
X76176647Y-108172910D01*
X76126402Y-108307624D01*
X76120000Y-108367176D01*
X76120000Y-109015000D01*
X78820000Y-109015000D01*
X78820000Y-108367176D01*
X78813597Y-108307624D01*
X78763352Y-108172910D01*
X78677188Y-108057811D01*
X78562089Y-107971647D01*
X78442188Y-107926927D01*
X78392653Y-107892912D01*
X78364926Y-107839601D01*
X78365519Y-107779514D01*
X78394291Y-107726763D01*
X78545722Y-107562268D01*
X78668860Y-107373791D01*
X78759296Y-107167616D01*
X78814564Y-106949368D01*
X78833156Y-106725000D01*
X78814564Y-106500632D01*
X78759296Y-106282384D01*
X78668860Y-106076209D01*
X78545722Y-105887732D01*
X78393240Y-105722094D01*
X78215576Y-105583811D01*
X78179067Y-105564053D01*
X78131563Y-105518474D01*
X78114086Y-105455000D01*
X78131563Y-105391526D01*
X78179067Y-105345946D01*
X78215576Y-105326189D01*
X78393240Y-105187906D01*
X78545722Y-105022268D01*
X78668860Y-104833791D01*
X78759296Y-104627616D01*
X78814564Y-104409368D01*
X78833156Y-104185000D01*
X78814564Y-103960632D01*
X78759296Y-103742384D01*
X78668860Y-103536209D01*
X78545722Y-103347732D01*
X78393240Y-103182094D01*
X78215576Y-103043811D01*
X78179067Y-103024053D01*
X78131563Y-102978474D01*
X78114086Y-102915000D01*
X78131563Y-102851526D01*
X78179067Y-102805946D01*
X78215576Y-102786189D01*
X78393240Y-102647906D01*
X78545722Y-102482268D01*
X78668860Y-102293791D01*
X78759296Y-102087616D01*
X78814564Y-101869368D01*
X78833156Y-101645000D01*
X78814564Y-101420632D01*
X78759296Y-101202384D01*
X78668860Y-100996209D01*
X78545722Y-100807732D01*
X78393240Y-100642094D01*
X78215576Y-100503811D01*
X78179067Y-100484053D01*
X78131563Y-100438474D01*
X78114086Y-100375000D01*
X78131563Y-100311526D01*
X78179067Y-100265946D01*
X78215576Y-100246189D01*
X78393240Y-100107906D01*
X78545722Y-99942268D01*
X78668860Y-99753791D01*
X78759296Y-99547616D01*
X78814564Y-99329368D01*
X78833156Y-99105000D01*
X78814564Y-98880632D01*
X78759296Y-98662384D01*
X78668860Y-98456209D01*
X78545722Y-98267732D01*
X78393240Y-98102094D01*
X78215576Y-97963811D01*
X78017574Y-97856658D01*
X78017573Y-97856657D01*
X78017572Y-97856657D01*
X77804636Y-97783556D01*
X77582569Y-97746500D01*
X77357431Y-97746500D01*
X77135363Y-97783556D01*
X76922427Y-97856657D01*
X76724424Y-97963811D01*
X76546760Y-98102094D01*
X76394279Y-98267730D01*
X76271138Y-98456211D01*
X76180705Y-98662381D01*
X76125435Y-98880636D01*
X76106843Y-99105000D01*
X76125435Y-99329363D01*
X76180705Y-99547618D01*
X76271138Y-99753788D01*
X76271140Y-99753791D01*
X76394278Y-99942268D01*
X76546760Y-100107906D01*
X76724424Y-100246189D01*
X76724426Y-100246190D01*
X76760931Y-100265946D01*
X76808436Y-100311527D01*
X76825913Y-100375000D01*
X76808436Y-100438473D01*
X76760931Y-100484054D01*
X76724426Y-100503809D01*
X76546760Y-100642094D01*
X76394279Y-100807730D01*
X76271138Y-100996211D01*
X76180705Y-101202381D01*
X76125435Y-101420636D01*
X76106843Y-101644999D01*
X76125435Y-101869363D01*
X76180705Y-102087618D01*
X76271138Y-102293788D01*
X76271140Y-102293791D01*
X76394278Y-102482268D01*
X76546760Y-102647906D01*
X76724424Y-102786189D01*
X76724426Y-102786190D01*
X76760931Y-102805946D01*
X76808436Y-102851527D01*
X76825913Y-102915000D01*
X76808436Y-102978473D01*
X76760931Y-103024054D01*
X76724426Y-103043809D01*
X76546760Y-103182094D01*
X76394279Y-103347730D01*
X76271138Y-103536211D01*
X76180705Y-103742381D01*
X76125435Y-103960636D01*
X76106843Y-104184999D01*
X76125435Y-104409363D01*
X76180705Y-104627618D01*
X76271138Y-104833788D01*
X76271140Y-104833791D01*
X76394278Y-105022268D01*
X76546760Y-105187906D01*
X76724424Y-105326189D01*
X76760930Y-105345945D01*
X76808435Y-105391524D01*
X76825913Y-105454997D01*
X76808437Y-105518471D01*
X76760933Y-105564052D01*
X76724427Y-105583809D01*
X76546760Y-105722094D01*
X76394279Y-105887730D01*
X76271138Y-106076211D01*
X76180705Y-106282381D01*
X76125435Y-106500636D01*
X76106843Y-106725000D01*
X72388500Y-106725000D01*
X72388500Y-92793633D01*
X72390789Y-92772890D01*
X72390701Y-92770094D01*
X72390702Y-92770091D01*
X72388560Y-92701968D01*
X72388500Y-92698074D01*
X72388500Y-92670147D01*
X72388500Y-92670144D01*
X72387982Y-92666047D01*
X72387065Y-92654398D01*
X72385674Y-92610111D01*
X72379974Y-92590494D01*
X72376033Y-92571464D01*
X72373474Y-92551203D01*
X72357163Y-92510007D01*
X72353381Y-92498960D01*
X72341018Y-92456408D01*
X72341018Y-92456407D01*
X72330622Y-92438829D01*
X72322069Y-92421371D01*
X72314552Y-92402383D01*
X72288503Y-92366530D01*
X72282099Y-92356780D01*
X72259542Y-92318638D01*
X72245107Y-92304203D01*
X72232469Y-92289406D01*
X72220472Y-92272893D01*
X72186324Y-92244643D01*
X72177685Y-92236781D01*
X70796620Y-90855715D01*
X70772380Y-90821417D01*
X70760981Y-90781000D01*
X70743542Y-90615072D01*
X70712931Y-90520862D01*
X70684527Y-90433443D01*
X70589042Y-90268058D01*
X70536342Y-90209529D01*
X70461253Y-90126134D01*
X70342070Y-90039542D01*
X70306751Y-90013881D01*
X70132285Y-89936204D01*
X69945489Y-89896500D01*
X69945487Y-89896500D01*
X69754513Y-89896500D01*
X69754511Y-89896500D01*
X69567714Y-89936204D01*
X69393248Y-90013881D01*
X69238748Y-90126133D01*
X69110957Y-90268058D01*
X69015472Y-90433443D01*
X68956458Y-90615070D01*
X68936496Y-90805000D01*
X57620500Y-90805000D01*
X57620500Y-89534999D01*
X63856496Y-89534999D01*
X63876458Y-89724929D01*
X63935472Y-89906556D01*
X64030957Y-90071941D01*
X64030960Y-90071944D01*
X64158747Y-90213866D01*
X64233333Y-90268056D01*
X64313248Y-90326118D01*
X64487714Y-90403795D01*
X64674511Y-90443500D01*
X64674513Y-90443500D01*
X64865487Y-90443500D01*
X64865489Y-90443500D01*
X65052285Y-90403795D01*
X65052286Y-90403794D01*
X65052288Y-90403794D01*
X65226752Y-90326118D01*
X65381253Y-90213866D01*
X65385158Y-90209528D01*
X65426873Y-90179221D01*
X65477309Y-90168500D01*
X68496367Y-90168500D01*
X68517108Y-90170789D01*
X68519905Y-90170701D01*
X68519909Y-90170702D01*
X68588017Y-90168560D01*
X68591913Y-90168500D01*
X68619854Y-90168500D01*
X68619856Y-90168500D01*
X68623956Y-90167981D01*
X68635606Y-90167064D01*
X68679889Y-90165673D01*
X68699498Y-90159975D01*
X68718531Y-90156033D01*
X68738797Y-90153474D01*
X68780006Y-90137157D01*
X68791037Y-90133380D01*
X68833593Y-90121018D01*
X68851160Y-90110628D01*
X68868632Y-90102068D01*
X68887617Y-90094552D01*
X68923475Y-90068498D01*
X68933223Y-90062096D01*
X68971362Y-90039542D01*
X68985800Y-90025103D01*
X69000588Y-90012472D01*
X69017107Y-90000472D01*
X69045359Y-89966319D01*
X69053203Y-89957699D01*
X70436085Y-88574819D01*
X70476314Y-88547939D01*
X70523767Y-88538500D01*
X70580489Y-88538500D01*
X70767285Y-88498795D01*
X70767286Y-88498794D01*
X70767288Y-88498794D01*
X70941752Y-88421118D01*
X71096253Y-88308866D01*
X71224040Y-88166944D01*
X71319527Y-88001556D01*
X71378542Y-87819928D01*
X71398504Y-87630000D01*
X71378542Y-87440072D01*
X71319527Y-87258444D01*
X71319527Y-87258443D01*
X71224042Y-87093058D01*
X71204442Y-87071291D01*
X71096253Y-86951134D01*
X70941752Y-86838882D01*
X70941751Y-86838881D01*
X70767285Y-86761204D01*
X70580489Y-86721500D01*
X70580487Y-86721500D01*
X70389513Y-86721500D01*
X70389511Y-86721500D01*
X70202714Y-86761204D01*
X70028248Y-86838881D01*
X69873748Y-86951133D01*
X69745957Y-87093058D01*
X69650472Y-87258443D01*
X69591458Y-87440070D01*
X69574019Y-87605995D01*
X69562619Y-87646416D01*
X69538379Y-87680714D01*
X68353914Y-88865181D01*
X68313686Y-88892061D01*
X68266233Y-88901500D01*
X65477309Y-88901500D01*
X65426873Y-88890779D01*
X65385158Y-88860471D01*
X65381253Y-88856134D01*
X65226751Y-88743881D01*
X65052285Y-88666204D01*
X64865489Y-88626500D01*
X64865487Y-88626500D01*
X64674513Y-88626500D01*
X64674511Y-88626500D01*
X64487714Y-88666204D01*
X64313248Y-88743881D01*
X64158748Y-88856133D01*
X64030957Y-88998058D01*
X63935472Y-89163443D01*
X63876458Y-89345070D01*
X63856496Y-89534999D01*
X57620500Y-89534999D01*
X57620500Y-85935000D01*
X63491358Y-85935000D01*
X63511870Y-86130156D01*
X63572507Y-86316780D01*
X63670622Y-86486719D01*
X63670623Y-86486720D01*
X63801926Y-86632547D01*
X63958029Y-86745963D01*
X63960679Y-86747888D01*
X64139946Y-86827703D01*
X64331883Y-86868500D01*
X64331885Y-86868500D01*
X64528115Y-86868500D01*
X64528117Y-86868500D01*
X64667458Y-86838882D01*
X64720056Y-86827702D01*
X64879565Y-86756683D01*
X64930000Y-86745963D01*
X64980434Y-86756683D01*
X65139944Y-86827702D01*
X65331883Y-86868500D01*
X65331885Y-86868500D01*
X65528115Y-86868500D01*
X65528117Y-86868500D01*
X65667458Y-86838882D01*
X65720056Y-86827702D01*
X65879565Y-86756683D01*
X65930000Y-86745963D01*
X65980434Y-86756683D01*
X66139944Y-86827702D01*
X66331883Y-86868500D01*
X66331885Y-86868500D01*
X66528115Y-86868500D01*
X66528117Y-86868500D01*
X66667458Y-86838882D01*
X66720056Y-86827702D01*
X66879565Y-86756683D01*
X66930000Y-86745963D01*
X66980434Y-86756683D01*
X67139944Y-86827702D01*
X67331883Y-86868500D01*
X67331885Y-86868500D01*
X67528115Y-86868500D01*
X67528117Y-86868500D01*
X67667458Y-86838882D01*
X67720056Y-86827702D01*
X67879565Y-86756683D01*
X67930000Y-86745963D01*
X67980434Y-86756683D01*
X68139944Y-86827702D01*
X68331883Y-86868500D01*
X68331885Y-86868500D01*
X68528115Y-86868500D01*
X68528117Y-86868500D01*
X68720053Y-86827703D01*
X68720054Y-86827702D01*
X68720056Y-86827702D01*
X68899321Y-86747888D01*
X69058074Y-86632547D01*
X69189377Y-86486720D01*
X69287492Y-86316780D01*
X69348130Y-86130155D01*
X69368642Y-85935000D01*
X69348130Y-85739845D01*
X69318619Y-85649022D01*
X69312580Y-85608054D01*
X69320370Y-85567378D01*
X69356989Y-85469201D01*
X69363500Y-85408638D01*
X69363500Y-84461362D01*
X69356989Y-84400799D01*
X69356988Y-84400797D01*
X69356988Y-84400794D01*
X69305889Y-84263796D01*
X69218261Y-84146738D01*
X69101203Y-84059110D01*
X68964205Y-84008011D01*
X68933919Y-84004755D01*
X68903638Y-84001500D01*
X67956362Y-84001500D01*
X67907911Y-84006708D01*
X67895798Y-84008011D01*
X67792418Y-84046570D01*
X67723303Y-84051678D01*
X67679999Y-84042473D01*
X67680000Y-84042474D01*
X67680000Y-84056027D01*
X67666884Y-84111531D01*
X67650556Y-84131068D01*
X67652423Y-84132466D01*
X67554110Y-84263796D01*
X67503011Y-84400794D01*
X67496500Y-84461366D01*
X67496500Y-84877500D01*
X67479887Y-84939500D01*
X67434500Y-84984887D01*
X67372500Y-85001500D01*
X67331883Y-85001500D01*
X67139946Y-85042296D01*
X66980435Y-85113316D01*
X66930000Y-85124036D01*
X66879565Y-85113316D01*
X66720053Y-85042296D01*
X66528117Y-85001500D01*
X66528115Y-85001500D01*
X66487281Y-85001500D01*
X66429067Y-84986986D01*
X66384480Y-84946840D01*
X66363961Y-84890465D01*
X66348130Y-84739845D01*
X66330310Y-84685000D01*
X66680000Y-84685000D01*
X67180000Y-84685000D01*
X67180000Y-84042474D01*
X67142585Y-84050427D01*
X66980435Y-84122620D01*
X66930000Y-84133340D01*
X66879566Y-84122620D01*
X66717415Y-84050427D01*
X66680000Y-84042474D01*
X66680000Y-84685000D01*
X66330310Y-84685000D01*
X66287492Y-84553220D01*
X66196612Y-84395811D01*
X66180000Y-84333814D01*
X66180000Y-84042474D01*
X66142585Y-84050427D01*
X65990884Y-84117969D01*
X65940449Y-84128689D01*
X65890013Y-84117968D01*
X65875555Y-84111531D01*
X65757819Y-84059111D01*
X65720055Y-84042297D01*
X65528117Y-84001500D01*
X65528115Y-84001500D01*
X65331885Y-84001500D01*
X65331883Y-84001500D01*
X65139946Y-84042296D01*
X64969986Y-84117968D01*
X64919551Y-84128688D01*
X64869117Y-84117968D01*
X64717415Y-84050427D01*
X64680000Y-84042474D01*
X64680000Y-84333814D01*
X64663387Y-84395811D01*
X64625540Y-84461366D01*
X64572506Y-84553222D01*
X64511870Y-84739843D01*
X64511869Y-84739845D01*
X64511870Y-84739845D01*
X64496038Y-84890465D01*
X64475520Y-84946840D01*
X64430933Y-84986986D01*
X64372719Y-85001500D01*
X64331883Y-85001500D01*
X64139946Y-85042296D01*
X63960679Y-85122111D01*
X63906717Y-85161318D01*
X63872149Y-85178931D01*
X63833831Y-85185000D01*
X63538628Y-85185000D01*
X63580315Y-85313303D01*
X63609874Y-85364501D01*
X63626486Y-85426500D01*
X63609874Y-85488499D01*
X63572507Y-85553220D01*
X63511870Y-85739843D01*
X63491358Y-85935000D01*
X57620500Y-85935000D01*
X57620500Y-84684999D01*
X63538627Y-84684999D01*
X63538628Y-84685000D01*
X64180000Y-84685000D01*
X64180000Y-84042474D01*
X64142585Y-84050427D01*
X63964952Y-84129513D01*
X63807643Y-84243805D01*
X63677536Y-84388303D01*
X63580315Y-84556695D01*
X63538627Y-84684999D01*
X57620500Y-84684999D01*
X57620500Y-79984500D01*
X57637113Y-79922500D01*
X57682500Y-79877113D01*
X57744500Y-79860500D01*
X157026000Y-79860500D01*
X157088000Y-79877113D01*
G37*
%TD.AperFunction*%
%TD*%
M02*
