%TF.GenerationSoftware,KiCad,Pcbnew,7.0.1-3b83917a11~172~ubuntu20.04.1*%
%TF.CreationDate,2023-04-20T14:28:58+02:00*%
%TF.ProjectId,alarmclock,616c6172-6d63-46c6-9f63-6b2e6b696361,rev?*%
%TF.SameCoordinates,Original*%
%TF.FileFunction,Legend,Top*%
%TF.FilePolarity,Positive*%
%FSLAX46Y46*%
G04 Gerber Fmt 4.6, Leading zero omitted, Abs format (unit mm)*
G04 Created by KiCad (PCBNEW 7.0.1-3b83917a11~172~ubuntu20.04.1) date 2023-04-20 14:28:58*
%MOMM*%
%LPD*%
G01*
G04 APERTURE LIST*
%ADD10C,0.150000*%
%ADD11C,0.120000*%
G04 APERTURE END LIST*
D10*
%TO.C,BT1*%
X92070199Y-126033809D02*
X92213056Y-126081428D01*
X92213056Y-126081428D02*
X92260675Y-126129047D01*
X92260675Y-126129047D02*
X92308294Y-126224285D01*
X92308294Y-126224285D02*
X92308294Y-126367142D01*
X92308294Y-126367142D02*
X92260675Y-126462380D01*
X92260675Y-126462380D02*
X92213056Y-126510000D01*
X92213056Y-126510000D02*
X92117818Y-126557619D01*
X92117818Y-126557619D02*
X91736866Y-126557619D01*
X91736866Y-126557619D02*
X91736866Y-125557619D01*
X91736866Y-125557619D02*
X92070199Y-125557619D01*
X92070199Y-125557619D02*
X92165437Y-125605238D01*
X92165437Y-125605238D02*
X92213056Y-125652857D01*
X92213056Y-125652857D02*
X92260675Y-125748095D01*
X92260675Y-125748095D02*
X92260675Y-125843333D01*
X92260675Y-125843333D02*
X92213056Y-125938571D01*
X92213056Y-125938571D02*
X92165437Y-125986190D01*
X92165437Y-125986190D02*
X92070199Y-126033809D01*
X92070199Y-126033809D02*
X91736866Y-126033809D01*
X92594009Y-125557619D02*
X93165437Y-125557619D01*
X92879723Y-126557619D02*
X92879723Y-125557619D01*
X94022580Y-126557619D02*
X93451152Y-126557619D01*
X93736866Y-126557619D02*
X93736866Y-125557619D01*
X93736866Y-125557619D02*
X93641628Y-125700476D01*
X93641628Y-125700476D02*
X93546390Y-125795714D01*
X93546390Y-125795714D02*
X93451152Y-125843333D01*
%TO.C,C5*%
X78417380Y-94396666D02*
X78465000Y-94444285D01*
X78465000Y-94444285D02*
X78512619Y-94587142D01*
X78512619Y-94587142D02*
X78512619Y-94682380D01*
X78512619Y-94682380D02*
X78465000Y-94825237D01*
X78465000Y-94825237D02*
X78369761Y-94920475D01*
X78369761Y-94920475D02*
X78274523Y-94968094D01*
X78274523Y-94968094D02*
X78084047Y-95015713D01*
X78084047Y-95015713D02*
X77941190Y-95015713D01*
X77941190Y-95015713D02*
X77750714Y-94968094D01*
X77750714Y-94968094D02*
X77655476Y-94920475D01*
X77655476Y-94920475D02*
X77560238Y-94825237D01*
X77560238Y-94825237D02*
X77512619Y-94682380D01*
X77512619Y-94682380D02*
X77512619Y-94587142D01*
X77512619Y-94587142D02*
X77560238Y-94444285D01*
X77560238Y-94444285D02*
X77607857Y-94396666D01*
X77512619Y-93491904D02*
X77512619Y-93968094D01*
X77512619Y-93968094D02*
X77988809Y-94015713D01*
X77988809Y-94015713D02*
X77941190Y-93968094D01*
X77941190Y-93968094D02*
X77893571Y-93872856D01*
X77893571Y-93872856D02*
X77893571Y-93634761D01*
X77893571Y-93634761D02*
X77941190Y-93539523D01*
X77941190Y-93539523D02*
X77988809Y-93491904D01*
X77988809Y-93491904D02*
X78084047Y-93444285D01*
X78084047Y-93444285D02*
X78322142Y-93444285D01*
X78322142Y-93444285D02*
X78417380Y-93491904D01*
X78417380Y-93491904D02*
X78465000Y-93539523D01*
X78465000Y-93539523D02*
X78512619Y-93634761D01*
X78512619Y-93634761D02*
X78512619Y-93872856D01*
X78512619Y-93872856D02*
X78465000Y-93968094D01*
X78465000Y-93968094D02*
X78417380Y-94015713D01*
%TO.C,J4*%
X96387619Y-49643333D02*
X97101904Y-49643333D01*
X97101904Y-49643333D02*
X97244761Y-49690952D01*
X97244761Y-49690952D02*
X97340000Y-49786190D01*
X97340000Y-49786190D02*
X97387619Y-49929047D01*
X97387619Y-49929047D02*
X97387619Y-50024285D01*
X96720952Y-48738571D02*
X97387619Y-48738571D01*
X96340000Y-48976666D02*
X97054285Y-49214761D01*
X97054285Y-49214761D02*
X97054285Y-48595714D01*
%TO.C,C11*%
X65427380Y-134512857D02*
X65475000Y-134560476D01*
X65475000Y-134560476D02*
X65522619Y-134703333D01*
X65522619Y-134703333D02*
X65522619Y-134798571D01*
X65522619Y-134798571D02*
X65475000Y-134941428D01*
X65475000Y-134941428D02*
X65379761Y-135036666D01*
X65379761Y-135036666D02*
X65284523Y-135084285D01*
X65284523Y-135084285D02*
X65094047Y-135131904D01*
X65094047Y-135131904D02*
X64951190Y-135131904D01*
X64951190Y-135131904D02*
X64760714Y-135084285D01*
X64760714Y-135084285D02*
X64665476Y-135036666D01*
X64665476Y-135036666D02*
X64570238Y-134941428D01*
X64570238Y-134941428D02*
X64522619Y-134798571D01*
X64522619Y-134798571D02*
X64522619Y-134703333D01*
X64522619Y-134703333D02*
X64570238Y-134560476D01*
X64570238Y-134560476D02*
X64617857Y-134512857D01*
X65522619Y-133560476D02*
X65522619Y-134131904D01*
X65522619Y-133846190D02*
X64522619Y-133846190D01*
X64522619Y-133846190D02*
X64665476Y-133941428D01*
X64665476Y-133941428D02*
X64760714Y-134036666D01*
X64760714Y-134036666D02*
X64808333Y-134131904D01*
X65522619Y-132608095D02*
X65522619Y-133179523D01*
X65522619Y-132893809D02*
X64522619Y-132893809D01*
X64522619Y-132893809D02*
X64665476Y-132989047D01*
X64665476Y-132989047D02*
X64760714Y-133084285D01*
X64760714Y-133084285D02*
X64808333Y-133179523D01*
%TO.C,BZ1*%
X67699047Y-112758809D02*
X67841904Y-112806428D01*
X67841904Y-112806428D02*
X67889523Y-112854047D01*
X67889523Y-112854047D02*
X67937142Y-112949285D01*
X67937142Y-112949285D02*
X67937142Y-113092142D01*
X67937142Y-113092142D02*
X67889523Y-113187380D01*
X67889523Y-113187380D02*
X67841904Y-113235000D01*
X67841904Y-113235000D02*
X67746666Y-113282619D01*
X67746666Y-113282619D02*
X67365714Y-113282619D01*
X67365714Y-113282619D02*
X67365714Y-112282619D01*
X67365714Y-112282619D02*
X67699047Y-112282619D01*
X67699047Y-112282619D02*
X67794285Y-112330238D01*
X67794285Y-112330238D02*
X67841904Y-112377857D01*
X67841904Y-112377857D02*
X67889523Y-112473095D01*
X67889523Y-112473095D02*
X67889523Y-112568333D01*
X67889523Y-112568333D02*
X67841904Y-112663571D01*
X67841904Y-112663571D02*
X67794285Y-112711190D01*
X67794285Y-112711190D02*
X67699047Y-112758809D01*
X67699047Y-112758809D02*
X67365714Y-112758809D01*
X68270476Y-112282619D02*
X68937142Y-112282619D01*
X68937142Y-112282619D02*
X68270476Y-113282619D01*
X68270476Y-113282619D02*
X68937142Y-113282619D01*
X69841904Y-113282619D02*
X69270476Y-113282619D01*
X69556190Y-113282619D02*
X69556190Y-112282619D01*
X69556190Y-112282619D02*
X69460952Y-112425476D01*
X69460952Y-112425476D02*
X69365714Y-112520714D01*
X69365714Y-112520714D02*
X69270476Y-112568333D01*
%TO.C,J7*%
X77136666Y-106600119D02*
X77136666Y-107314404D01*
X77136666Y-107314404D02*
X77089047Y-107457261D01*
X77089047Y-107457261D02*
X76993809Y-107552500D01*
X76993809Y-107552500D02*
X76850952Y-107600119D01*
X76850952Y-107600119D02*
X76755714Y-107600119D01*
X77517619Y-106600119D02*
X78184285Y-106600119D01*
X78184285Y-106600119D02*
X77755714Y-107600119D01*
%TO.C,C1*%
X81702380Y-41011666D02*
X81750000Y-41059285D01*
X81750000Y-41059285D02*
X81797619Y-41202142D01*
X81797619Y-41202142D02*
X81797619Y-41297380D01*
X81797619Y-41297380D02*
X81750000Y-41440237D01*
X81750000Y-41440237D02*
X81654761Y-41535475D01*
X81654761Y-41535475D02*
X81559523Y-41583094D01*
X81559523Y-41583094D02*
X81369047Y-41630713D01*
X81369047Y-41630713D02*
X81226190Y-41630713D01*
X81226190Y-41630713D02*
X81035714Y-41583094D01*
X81035714Y-41583094D02*
X80940476Y-41535475D01*
X80940476Y-41535475D02*
X80845238Y-41440237D01*
X80845238Y-41440237D02*
X80797619Y-41297380D01*
X80797619Y-41297380D02*
X80797619Y-41202142D01*
X80797619Y-41202142D02*
X80845238Y-41059285D01*
X80845238Y-41059285D02*
X80892857Y-41011666D01*
X81797619Y-40059285D02*
X81797619Y-40630713D01*
X81797619Y-40344999D02*
X80797619Y-40344999D01*
X80797619Y-40344999D02*
X80940476Y-40440237D01*
X80940476Y-40440237D02*
X81035714Y-40535475D01*
X81035714Y-40535475D02*
X81083333Y-40630713D01*
%TO.C,JP1*%
X72062619Y-128148333D02*
X72776904Y-128148333D01*
X72776904Y-128148333D02*
X72919761Y-128195952D01*
X72919761Y-128195952D02*
X73015000Y-128291190D01*
X73015000Y-128291190D02*
X73062619Y-128434047D01*
X73062619Y-128434047D02*
X73062619Y-128529285D01*
X73062619Y-127672142D02*
X72062619Y-127672142D01*
X72062619Y-127672142D02*
X72062619Y-127291190D01*
X72062619Y-127291190D02*
X72110238Y-127195952D01*
X72110238Y-127195952D02*
X72157857Y-127148333D01*
X72157857Y-127148333D02*
X72253095Y-127100714D01*
X72253095Y-127100714D02*
X72395952Y-127100714D01*
X72395952Y-127100714D02*
X72491190Y-127148333D01*
X72491190Y-127148333D02*
X72538809Y-127195952D01*
X72538809Y-127195952D02*
X72586428Y-127291190D01*
X72586428Y-127291190D02*
X72586428Y-127672142D01*
X73062619Y-126148333D02*
X73062619Y-126719761D01*
X73062619Y-126434047D02*
X72062619Y-126434047D01*
X72062619Y-126434047D02*
X72205476Y-126529285D01*
X72205476Y-126529285D02*
X72300714Y-126624523D01*
X72300714Y-126624523D02*
X72348333Y-126719761D01*
%TO.C,Y1*%
X65886428Y-100611190D02*
X66362619Y-100611190D01*
X65362619Y-100944523D02*
X65886428Y-100611190D01*
X65886428Y-100611190D02*
X65362619Y-100277857D01*
X66362619Y-99420714D02*
X66362619Y-99992142D01*
X66362619Y-99706428D02*
X65362619Y-99706428D01*
X65362619Y-99706428D02*
X65505476Y-99801666D01*
X65505476Y-99801666D02*
X65600714Y-99896904D01*
X65600714Y-99896904D02*
X65648333Y-99992142D01*
%TO.C,Q1*%
X76767857Y-127470238D02*
X76720238Y-127565476D01*
X76720238Y-127565476D02*
X76625000Y-127660714D01*
X76625000Y-127660714D02*
X76482142Y-127803571D01*
X76482142Y-127803571D02*
X76434523Y-127898809D01*
X76434523Y-127898809D02*
X76434523Y-127994047D01*
X76672619Y-127946428D02*
X76625000Y-128041666D01*
X76625000Y-128041666D02*
X76529761Y-128136904D01*
X76529761Y-128136904D02*
X76339285Y-128184523D01*
X76339285Y-128184523D02*
X76005952Y-128184523D01*
X76005952Y-128184523D02*
X75815476Y-128136904D01*
X75815476Y-128136904D02*
X75720238Y-128041666D01*
X75720238Y-128041666D02*
X75672619Y-127946428D01*
X75672619Y-127946428D02*
X75672619Y-127755952D01*
X75672619Y-127755952D02*
X75720238Y-127660714D01*
X75720238Y-127660714D02*
X75815476Y-127565476D01*
X75815476Y-127565476D02*
X76005952Y-127517857D01*
X76005952Y-127517857D02*
X76339285Y-127517857D01*
X76339285Y-127517857D02*
X76529761Y-127565476D01*
X76529761Y-127565476D02*
X76625000Y-127660714D01*
X76625000Y-127660714D02*
X76672619Y-127755952D01*
X76672619Y-127755952D02*
X76672619Y-127946428D01*
X76672619Y-126565476D02*
X76672619Y-127136904D01*
X76672619Y-126851190D02*
X75672619Y-126851190D01*
X75672619Y-126851190D02*
X75815476Y-126946428D01*
X75815476Y-126946428D02*
X75910714Y-127041666D01*
X75910714Y-127041666D02*
X75958333Y-127136904D01*
%TO.C,J1*%
X65422619Y-142888333D02*
X66136904Y-142888333D01*
X66136904Y-142888333D02*
X66279761Y-142935952D01*
X66279761Y-142935952D02*
X66375000Y-143031190D01*
X66375000Y-143031190D02*
X66422619Y-143174047D01*
X66422619Y-143174047D02*
X66422619Y-143269285D01*
X66422619Y-141888333D02*
X66422619Y-142459761D01*
X66422619Y-142174047D02*
X65422619Y-142174047D01*
X65422619Y-142174047D02*
X65565476Y-142269285D01*
X65565476Y-142269285D02*
X65660714Y-142364523D01*
X65660714Y-142364523D02*
X65708333Y-142459761D01*
%TO.C,JP2*%
X63467619Y-93043333D02*
X64181904Y-93043333D01*
X64181904Y-93043333D02*
X64324761Y-93090952D01*
X64324761Y-93090952D02*
X64420000Y-93186190D01*
X64420000Y-93186190D02*
X64467619Y-93329047D01*
X64467619Y-93329047D02*
X64467619Y-93424285D01*
X64467619Y-92567142D02*
X63467619Y-92567142D01*
X63467619Y-92567142D02*
X63467619Y-92186190D01*
X63467619Y-92186190D02*
X63515238Y-92090952D01*
X63515238Y-92090952D02*
X63562857Y-92043333D01*
X63562857Y-92043333D02*
X63658095Y-91995714D01*
X63658095Y-91995714D02*
X63800952Y-91995714D01*
X63800952Y-91995714D02*
X63896190Y-92043333D01*
X63896190Y-92043333D02*
X63943809Y-92090952D01*
X63943809Y-92090952D02*
X63991428Y-92186190D01*
X63991428Y-92186190D02*
X63991428Y-92567142D01*
X63562857Y-91614761D02*
X63515238Y-91567142D01*
X63515238Y-91567142D02*
X63467619Y-91471904D01*
X63467619Y-91471904D02*
X63467619Y-91233809D01*
X63467619Y-91233809D02*
X63515238Y-91138571D01*
X63515238Y-91138571D02*
X63562857Y-91090952D01*
X63562857Y-91090952D02*
X63658095Y-91043333D01*
X63658095Y-91043333D02*
X63753333Y-91043333D01*
X63753333Y-91043333D02*
X63896190Y-91090952D01*
X63896190Y-91090952D02*
X64467619Y-91662380D01*
X64467619Y-91662380D02*
X64467619Y-91043333D01*
%TO.C,C6*%
X73392380Y-85301666D02*
X73440000Y-85349285D01*
X73440000Y-85349285D02*
X73487619Y-85492142D01*
X73487619Y-85492142D02*
X73487619Y-85587380D01*
X73487619Y-85587380D02*
X73440000Y-85730237D01*
X73440000Y-85730237D02*
X73344761Y-85825475D01*
X73344761Y-85825475D02*
X73249523Y-85873094D01*
X73249523Y-85873094D02*
X73059047Y-85920713D01*
X73059047Y-85920713D02*
X72916190Y-85920713D01*
X72916190Y-85920713D02*
X72725714Y-85873094D01*
X72725714Y-85873094D02*
X72630476Y-85825475D01*
X72630476Y-85825475D02*
X72535238Y-85730237D01*
X72535238Y-85730237D02*
X72487619Y-85587380D01*
X72487619Y-85587380D02*
X72487619Y-85492142D01*
X72487619Y-85492142D02*
X72535238Y-85349285D01*
X72535238Y-85349285D02*
X72582857Y-85301666D01*
X72487619Y-84444523D02*
X72487619Y-84634999D01*
X72487619Y-84634999D02*
X72535238Y-84730237D01*
X72535238Y-84730237D02*
X72582857Y-84777856D01*
X72582857Y-84777856D02*
X72725714Y-84873094D01*
X72725714Y-84873094D02*
X72916190Y-84920713D01*
X72916190Y-84920713D02*
X73297142Y-84920713D01*
X73297142Y-84920713D02*
X73392380Y-84873094D01*
X73392380Y-84873094D02*
X73440000Y-84825475D01*
X73440000Y-84825475D02*
X73487619Y-84730237D01*
X73487619Y-84730237D02*
X73487619Y-84539761D01*
X73487619Y-84539761D02*
X73440000Y-84444523D01*
X73440000Y-84444523D02*
X73392380Y-84396904D01*
X73392380Y-84396904D02*
X73297142Y-84349285D01*
X73297142Y-84349285D02*
X73059047Y-84349285D01*
X73059047Y-84349285D02*
X72963809Y-84396904D01*
X72963809Y-84396904D02*
X72916190Y-84444523D01*
X72916190Y-84444523D02*
X72868571Y-84539761D01*
X72868571Y-84539761D02*
X72868571Y-84730237D01*
X72868571Y-84730237D02*
X72916190Y-84825475D01*
X72916190Y-84825475D02*
X72963809Y-84873094D01*
X72963809Y-84873094D02*
X73059047Y-84920713D01*
%TO.C,U4*%
X63462619Y-130006904D02*
X64272142Y-130006904D01*
X64272142Y-130006904D02*
X64367380Y-129959285D01*
X64367380Y-129959285D02*
X64415000Y-129911666D01*
X64415000Y-129911666D02*
X64462619Y-129816428D01*
X64462619Y-129816428D02*
X64462619Y-129625952D01*
X64462619Y-129625952D02*
X64415000Y-129530714D01*
X64415000Y-129530714D02*
X64367380Y-129483095D01*
X64367380Y-129483095D02*
X64272142Y-129435476D01*
X64272142Y-129435476D02*
X63462619Y-129435476D01*
X63795952Y-128530714D02*
X64462619Y-128530714D01*
X63415000Y-128768809D02*
X64129285Y-129006904D01*
X64129285Y-129006904D02*
X64129285Y-128387857D01*
%TO.C,C7*%
X68987380Y-98291666D02*
X69035000Y-98339285D01*
X69035000Y-98339285D02*
X69082619Y-98482142D01*
X69082619Y-98482142D02*
X69082619Y-98577380D01*
X69082619Y-98577380D02*
X69035000Y-98720237D01*
X69035000Y-98720237D02*
X68939761Y-98815475D01*
X68939761Y-98815475D02*
X68844523Y-98863094D01*
X68844523Y-98863094D02*
X68654047Y-98910713D01*
X68654047Y-98910713D02*
X68511190Y-98910713D01*
X68511190Y-98910713D02*
X68320714Y-98863094D01*
X68320714Y-98863094D02*
X68225476Y-98815475D01*
X68225476Y-98815475D02*
X68130238Y-98720237D01*
X68130238Y-98720237D02*
X68082619Y-98577380D01*
X68082619Y-98577380D02*
X68082619Y-98482142D01*
X68082619Y-98482142D02*
X68130238Y-98339285D01*
X68130238Y-98339285D02*
X68177857Y-98291666D01*
X68082619Y-97958332D02*
X68082619Y-97291666D01*
X68082619Y-97291666D02*
X69082619Y-97720237D01*
%TO.C,C4*%
X76873333Y-120962380D02*
X76825714Y-121010000D01*
X76825714Y-121010000D02*
X76682857Y-121057619D01*
X76682857Y-121057619D02*
X76587619Y-121057619D01*
X76587619Y-121057619D02*
X76444762Y-121010000D01*
X76444762Y-121010000D02*
X76349524Y-120914761D01*
X76349524Y-120914761D02*
X76301905Y-120819523D01*
X76301905Y-120819523D02*
X76254286Y-120629047D01*
X76254286Y-120629047D02*
X76254286Y-120486190D01*
X76254286Y-120486190D02*
X76301905Y-120295714D01*
X76301905Y-120295714D02*
X76349524Y-120200476D01*
X76349524Y-120200476D02*
X76444762Y-120105238D01*
X76444762Y-120105238D02*
X76587619Y-120057619D01*
X76587619Y-120057619D02*
X76682857Y-120057619D01*
X76682857Y-120057619D02*
X76825714Y-120105238D01*
X76825714Y-120105238D02*
X76873333Y-120152857D01*
X77730476Y-120390952D02*
X77730476Y-121057619D01*
X77492381Y-120010000D02*
X77254286Y-120724285D01*
X77254286Y-120724285D02*
X77873333Y-120724285D01*
%TO.C,J5*%
X68246666Y-119902619D02*
X68246666Y-120616904D01*
X68246666Y-120616904D02*
X68199047Y-120759761D01*
X68199047Y-120759761D02*
X68103809Y-120855000D01*
X68103809Y-120855000D02*
X67960952Y-120902619D01*
X67960952Y-120902619D02*
X67865714Y-120902619D01*
X69199047Y-119902619D02*
X68722857Y-119902619D01*
X68722857Y-119902619D02*
X68675238Y-120378809D01*
X68675238Y-120378809D02*
X68722857Y-120331190D01*
X68722857Y-120331190D02*
X68818095Y-120283571D01*
X68818095Y-120283571D02*
X69056190Y-120283571D01*
X69056190Y-120283571D02*
X69151428Y-120331190D01*
X69151428Y-120331190D02*
X69199047Y-120378809D01*
X69199047Y-120378809D02*
X69246666Y-120474047D01*
X69246666Y-120474047D02*
X69246666Y-120712142D01*
X69246666Y-120712142D02*
X69199047Y-120807380D01*
X69199047Y-120807380D02*
X69151428Y-120855000D01*
X69151428Y-120855000D02*
X69056190Y-120902619D01*
X69056190Y-120902619D02*
X68818095Y-120902619D01*
X68818095Y-120902619D02*
X68722857Y-120855000D01*
X68722857Y-120855000D02*
X68675238Y-120807380D01*
%TO.C,C8*%
X65627380Y-102101666D02*
X65675000Y-102149285D01*
X65675000Y-102149285D02*
X65722619Y-102292142D01*
X65722619Y-102292142D02*
X65722619Y-102387380D01*
X65722619Y-102387380D02*
X65675000Y-102530237D01*
X65675000Y-102530237D02*
X65579761Y-102625475D01*
X65579761Y-102625475D02*
X65484523Y-102673094D01*
X65484523Y-102673094D02*
X65294047Y-102720713D01*
X65294047Y-102720713D02*
X65151190Y-102720713D01*
X65151190Y-102720713D02*
X64960714Y-102673094D01*
X64960714Y-102673094D02*
X64865476Y-102625475D01*
X64865476Y-102625475D02*
X64770238Y-102530237D01*
X64770238Y-102530237D02*
X64722619Y-102387380D01*
X64722619Y-102387380D02*
X64722619Y-102292142D01*
X64722619Y-102292142D02*
X64770238Y-102149285D01*
X64770238Y-102149285D02*
X64817857Y-102101666D01*
X65151190Y-101530237D02*
X65103571Y-101625475D01*
X65103571Y-101625475D02*
X65055952Y-101673094D01*
X65055952Y-101673094D02*
X64960714Y-101720713D01*
X64960714Y-101720713D02*
X64913095Y-101720713D01*
X64913095Y-101720713D02*
X64817857Y-101673094D01*
X64817857Y-101673094D02*
X64770238Y-101625475D01*
X64770238Y-101625475D02*
X64722619Y-101530237D01*
X64722619Y-101530237D02*
X64722619Y-101339761D01*
X64722619Y-101339761D02*
X64770238Y-101244523D01*
X64770238Y-101244523D02*
X64817857Y-101196904D01*
X64817857Y-101196904D02*
X64913095Y-101149285D01*
X64913095Y-101149285D02*
X64960714Y-101149285D01*
X64960714Y-101149285D02*
X65055952Y-101196904D01*
X65055952Y-101196904D02*
X65103571Y-101244523D01*
X65103571Y-101244523D02*
X65151190Y-101339761D01*
X65151190Y-101339761D02*
X65151190Y-101530237D01*
X65151190Y-101530237D02*
X65198809Y-101625475D01*
X65198809Y-101625475D02*
X65246428Y-101673094D01*
X65246428Y-101673094D02*
X65341666Y-101720713D01*
X65341666Y-101720713D02*
X65532142Y-101720713D01*
X65532142Y-101720713D02*
X65627380Y-101673094D01*
X65627380Y-101673094D02*
X65675000Y-101625475D01*
X65675000Y-101625475D02*
X65722619Y-101530237D01*
X65722619Y-101530237D02*
X65722619Y-101339761D01*
X65722619Y-101339761D02*
X65675000Y-101244523D01*
X65675000Y-101244523D02*
X65627380Y-101196904D01*
X65627380Y-101196904D02*
X65532142Y-101149285D01*
X65532142Y-101149285D02*
X65341666Y-101149285D01*
X65341666Y-101149285D02*
X65246428Y-101196904D01*
X65246428Y-101196904D02*
X65198809Y-101244523D01*
X65198809Y-101244523D02*
X65151190Y-101339761D01*
%TO.C,C9*%
X61117380Y-109892918D02*
X61165000Y-109940537D01*
X61165000Y-109940537D02*
X61212619Y-110083394D01*
X61212619Y-110083394D02*
X61212619Y-110178632D01*
X61212619Y-110178632D02*
X61165000Y-110321489D01*
X61165000Y-110321489D02*
X61069761Y-110416727D01*
X61069761Y-110416727D02*
X60974523Y-110464346D01*
X60974523Y-110464346D02*
X60784047Y-110511965D01*
X60784047Y-110511965D02*
X60641190Y-110511965D01*
X60641190Y-110511965D02*
X60450714Y-110464346D01*
X60450714Y-110464346D02*
X60355476Y-110416727D01*
X60355476Y-110416727D02*
X60260238Y-110321489D01*
X60260238Y-110321489D02*
X60212619Y-110178632D01*
X60212619Y-110178632D02*
X60212619Y-110083394D01*
X60212619Y-110083394D02*
X60260238Y-109940537D01*
X60260238Y-109940537D02*
X60307857Y-109892918D01*
X61212619Y-109416727D02*
X61212619Y-109226251D01*
X61212619Y-109226251D02*
X61165000Y-109131013D01*
X61165000Y-109131013D02*
X61117380Y-109083394D01*
X61117380Y-109083394D02*
X60974523Y-108988156D01*
X60974523Y-108988156D02*
X60784047Y-108940537D01*
X60784047Y-108940537D02*
X60403095Y-108940537D01*
X60403095Y-108940537D02*
X60307857Y-108988156D01*
X60307857Y-108988156D02*
X60260238Y-109035775D01*
X60260238Y-109035775D02*
X60212619Y-109131013D01*
X60212619Y-109131013D02*
X60212619Y-109321489D01*
X60212619Y-109321489D02*
X60260238Y-109416727D01*
X60260238Y-109416727D02*
X60307857Y-109464346D01*
X60307857Y-109464346D02*
X60403095Y-109511965D01*
X60403095Y-109511965D02*
X60641190Y-109511965D01*
X60641190Y-109511965D02*
X60736428Y-109464346D01*
X60736428Y-109464346D02*
X60784047Y-109416727D01*
X60784047Y-109416727D02*
X60831666Y-109321489D01*
X60831666Y-109321489D02*
X60831666Y-109131013D01*
X60831666Y-109131013D02*
X60784047Y-109035775D01*
X60784047Y-109035775D02*
X60736428Y-108988156D01*
X60736428Y-108988156D02*
X60641190Y-108940537D01*
%TO.C,R1*%
X81932619Y-127674166D02*
X81456428Y-128007499D01*
X81932619Y-128245594D02*
X80932619Y-128245594D01*
X80932619Y-128245594D02*
X80932619Y-127864642D01*
X80932619Y-127864642D02*
X80980238Y-127769404D01*
X80980238Y-127769404D02*
X81027857Y-127721785D01*
X81027857Y-127721785D02*
X81123095Y-127674166D01*
X81123095Y-127674166D02*
X81265952Y-127674166D01*
X81265952Y-127674166D02*
X81361190Y-127721785D01*
X81361190Y-127721785D02*
X81408809Y-127769404D01*
X81408809Y-127769404D02*
X81456428Y-127864642D01*
X81456428Y-127864642D02*
X81456428Y-128245594D01*
X81932619Y-126721785D02*
X81932619Y-127293213D01*
X81932619Y-127007499D02*
X80932619Y-127007499D01*
X80932619Y-127007499D02*
X81075476Y-127102737D01*
X81075476Y-127102737D02*
X81170714Y-127197975D01*
X81170714Y-127197975D02*
X81218333Y-127293213D01*
%TO.C,C10*%
X68712142Y-140962380D02*
X68664523Y-141010000D01*
X68664523Y-141010000D02*
X68521666Y-141057619D01*
X68521666Y-141057619D02*
X68426428Y-141057619D01*
X68426428Y-141057619D02*
X68283571Y-141010000D01*
X68283571Y-141010000D02*
X68188333Y-140914761D01*
X68188333Y-140914761D02*
X68140714Y-140819523D01*
X68140714Y-140819523D02*
X68093095Y-140629047D01*
X68093095Y-140629047D02*
X68093095Y-140486190D01*
X68093095Y-140486190D02*
X68140714Y-140295714D01*
X68140714Y-140295714D02*
X68188333Y-140200476D01*
X68188333Y-140200476D02*
X68283571Y-140105238D01*
X68283571Y-140105238D02*
X68426428Y-140057619D01*
X68426428Y-140057619D02*
X68521666Y-140057619D01*
X68521666Y-140057619D02*
X68664523Y-140105238D01*
X68664523Y-140105238D02*
X68712142Y-140152857D01*
X69664523Y-141057619D02*
X69093095Y-141057619D01*
X69378809Y-141057619D02*
X69378809Y-140057619D01*
X69378809Y-140057619D02*
X69283571Y-140200476D01*
X69283571Y-140200476D02*
X69188333Y-140295714D01*
X69188333Y-140295714D02*
X69093095Y-140343333D01*
X70283571Y-140057619D02*
X70378809Y-140057619D01*
X70378809Y-140057619D02*
X70474047Y-140105238D01*
X70474047Y-140105238D02*
X70521666Y-140152857D01*
X70521666Y-140152857D02*
X70569285Y-140248095D01*
X70569285Y-140248095D02*
X70616904Y-140438571D01*
X70616904Y-140438571D02*
X70616904Y-140676666D01*
X70616904Y-140676666D02*
X70569285Y-140867142D01*
X70569285Y-140867142D02*
X70521666Y-140962380D01*
X70521666Y-140962380D02*
X70474047Y-141010000D01*
X70474047Y-141010000D02*
X70378809Y-141057619D01*
X70378809Y-141057619D02*
X70283571Y-141057619D01*
X70283571Y-141057619D02*
X70188333Y-141010000D01*
X70188333Y-141010000D02*
X70140714Y-140962380D01*
X70140714Y-140962380D02*
X70093095Y-140867142D01*
X70093095Y-140867142D02*
X70045476Y-140676666D01*
X70045476Y-140676666D02*
X70045476Y-140438571D01*
X70045476Y-140438571D02*
X70093095Y-140248095D01*
X70093095Y-140248095D02*
X70140714Y-140152857D01*
X70140714Y-140152857D02*
X70188333Y-140105238D01*
X70188333Y-140105238D02*
X70283571Y-140057619D01*
%TO.C,D1*%
X90547619Y-131965594D02*
X89547619Y-131965594D01*
X89547619Y-131965594D02*
X89547619Y-131727499D01*
X89547619Y-131727499D02*
X89595238Y-131584642D01*
X89595238Y-131584642D02*
X89690476Y-131489404D01*
X89690476Y-131489404D02*
X89785714Y-131441785D01*
X89785714Y-131441785D02*
X89976190Y-131394166D01*
X89976190Y-131394166D02*
X90119047Y-131394166D01*
X90119047Y-131394166D02*
X90309523Y-131441785D01*
X90309523Y-131441785D02*
X90404761Y-131489404D01*
X90404761Y-131489404D02*
X90500000Y-131584642D01*
X90500000Y-131584642D02*
X90547619Y-131727499D01*
X90547619Y-131727499D02*
X90547619Y-131965594D01*
X90547619Y-130441785D02*
X90547619Y-131013213D01*
X90547619Y-130727499D02*
X89547619Y-130727499D01*
X89547619Y-130727499D02*
X89690476Y-130822737D01*
X89690476Y-130822737D02*
X89785714Y-130917975D01*
X89785714Y-130917975D02*
X89833333Y-131013213D01*
%TO.C,SW2*%
X62166667Y-113235000D02*
X62309524Y-113282619D01*
X62309524Y-113282619D02*
X62547619Y-113282619D01*
X62547619Y-113282619D02*
X62642857Y-113235000D01*
X62642857Y-113235000D02*
X62690476Y-113187380D01*
X62690476Y-113187380D02*
X62738095Y-113092142D01*
X62738095Y-113092142D02*
X62738095Y-112996904D01*
X62738095Y-112996904D02*
X62690476Y-112901666D01*
X62690476Y-112901666D02*
X62642857Y-112854047D01*
X62642857Y-112854047D02*
X62547619Y-112806428D01*
X62547619Y-112806428D02*
X62357143Y-112758809D01*
X62357143Y-112758809D02*
X62261905Y-112711190D01*
X62261905Y-112711190D02*
X62214286Y-112663571D01*
X62214286Y-112663571D02*
X62166667Y-112568333D01*
X62166667Y-112568333D02*
X62166667Y-112473095D01*
X62166667Y-112473095D02*
X62214286Y-112377857D01*
X62214286Y-112377857D02*
X62261905Y-112330238D01*
X62261905Y-112330238D02*
X62357143Y-112282619D01*
X62357143Y-112282619D02*
X62595238Y-112282619D01*
X62595238Y-112282619D02*
X62738095Y-112330238D01*
X63071429Y-112282619D02*
X63309524Y-113282619D01*
X63309524Y-113282619D02*
X63500000Y-112568333D01*
X63500000Y-112568333D02*
X63690476Y-113282619D01*
X63690476Y-113282619D02*
X63928572Y-112282619D01*
X64261905Y-112377857D02*
X64309524Y-112330238D01*
X64309524Y-112330238D02*
X64404762Y-112282619D01*
X64404762Y-112282619D02*
X64642857Y-112282619D01*
X64642857Y-112282619D02*
X64738095Y-112330238D01*
X64738095Y-112330238D02*
X64785714Y-112377857D01*
X64785714Y-112377857D02*
X64833333Y-112473095D01*
X64833333Y-112473095D02*
X64833333Y-112568333D01*
X64833333Y-112568333D02*
X64785714Y-112711190D01*
X64785714Y-112711190D02*
X64214286Y-113282619D01*
X64214286Y-113282619D02*
X64833333Y-113282619D01*
%TO.C,U1*%
X66232619Y-93046904D02*
X67042142Y-93046904D01*
X67042142Y-93046904D02*
X67137380Y-92999285D01*
X67137380Y-92999285D02*
X67185000Y-92951666D01*
X67185000Y-92951666D02*
X67232619Y-92856428D01*
X67232619Y-92856428D02*
X67232619Y-92665952D01*
X67232619Y-92665952D02*
X67185000Y-92570714D01*
X67185000Y-92570714D02*
X67137380Y-92523095D01*
X67137380Y-92523095D02*
X67042142Y-92475476D01*
X67042142Y-92475476D02*
X66232619Y-92475476D01*
X67232619Y-91475476D02*
X67232619Y-92046904D01*
X67232619Y-91761190D02*
X66232619Y-91761190D01*
X66232619Y-91761190D02*
X66375476Y-91856428D01*
X66375476Y-91856428D02*
X66470714Y-91951666D01*
X66470714Y-91951666D02*
X66518333Y-92046904D01*
D11*
%TO.C,BT1*%
X94600914Y-138325000D02*
X91425914Y-138325000D01*
X91425914Y-138325000D02*
X91425914Y-127105000D01*
X91425914Y-127105000D02*
X94600914Y-127105000D01*
X94600915Y-138325000D02*
G75*
G03*
X94600915Y-127105000I12434999J5610000D01*
G01*
%TO.C,C5*%
X77110000Y-93518748D02*
X77110000Y-94941252D01*
X75290000Y-93518748D02*
X75290000Y-94941252D01*
%TO.C,J4*%
X100965000Y-47980000D02*
X118805000Y-47980000D01*
X98365000Y-47980000D02*
X99695000Y-47980000D01*
X98365000Y-49310000D02*
X98365000Y-47980000D01*
X118805000Y-50640000D02*
X118805000Y-47980000D01*
X100965000Y-50640000D02*
X100965000Y-47980000D01*
X100965000Y-50640000D02*
X118805000Y-50640000D01*
%TO.C,C11*%
X64120000Y-133158748D02*
X64120000Y-134581252D01*
X62300000Y-133158748D02*
X62300000Y-134581252D01*
%TO.C,BZ1*%
X69910000Y-111820000D02*
X68580000Y-111820000D01*
X69910000Y-110490000D02*
X69910000Y-111820000D01*
X69910000Y-109220000D02*
X69910000Y-106620000D01*
X69910000Y-109220000D02*
X67250000Y-109220000D01*
X69910000Y-106620000D02*
X67250000Y-106620000D01*
X67250000Y-109220000D02*
X67250000Y-106620000D01*
%TO.C,J7*%
X76140000Y-107995000D02*
X76140000Y-97775000D01*
X78800000Y-97775000D02*
X76140000Y-97775000D01*
X78800000Y-107995000D02*
X76140000Y-107995000D01*
X78800000Y-107995000D02*
X78800000Y-97775000D01*
X78800000Y-109265000D02*
X78800000Y-110595000D01*
X78800000Y-110595000D02*
X77470000Y-110595000D01*
%TO.C,J2*%
X69115000Y-84225000D02*
X69115000Y-84935000D01*
X68430000Y-84225000D02*
X69115000Y-84225000D01*
X67745000Y-84225000D02*
X63870000Y-84225000D01*
X67745000Y-84225000D02*
X67745000Y-84326724D01*
X63870000Y-84225000D02*
X63870000Y-84540507D01*
X63870000Y-85329493D02*
X63870000Y-85540507D01*
X68990000Y-86329493D02*
X68990000Y-86645000D01*
X63870000Y-86329493D02*
X63870000Y-86645000D01*
X68990000Y-86645000D02*
X63870000Y-86645000D01*
%TO.C,C1*%
X84095000Y-41556252D02*
X84095000Y-40133748D01*
X82275000Y-41556252D02*
X82275000Y-40133748D01*
%TO.C,JP1*%
X73400000Y-128715000D02*
X73400000Y-125915000D01*
X75400000Y-128715000D02*
X73400000Y-128715000D01*
X73400000Y-125915000D02*
X75400000Y-125915000D01*
X75400000Y-125915000D02*
X75400000Y-128715000D01*
%TO.C,Y1*%
X63000000Y-95285000D02*
X63000000Y-104985000D01*
X64900000Y-95285000D02*
X63000000Y-95285000D01*
%TO.C,J3*%
X100965000Y-35830000D02*
X118805000Y-35830000D01*
X98365000Y-35830000D02*
X99695000Y-35830000D01*
X98365000Y-37160000D02*
X98365000Y-35830000D01*
X118805000Y-38490000D02*
X118805000Y-35830000D01*
X100965000Y-38490000D02*
X100965000Y-35830000D01*
X100965000Y-38490000D02*
X118805000Y-38490000D01*
%TO.C,Q1*%
X79370000Y-128050000D02*
X79370000Y-126640000D01*
X77040000Y-126640000D02*
X77710000Y-126640000D01*
X77050000Y-126640000D02*
X77050000Y-129375000D01*
X78710000Y-126640000D02*
X79370000Y-126640000D01*
%TO.C,J1*%
X66960000Y-143885000D02*
X66960000Y-142555000D01*
X68290000Y-143885000D02*
X66960000Y-143885000D01*
X69560000Y-143885000D02*
X72160000Y-143885000D01*
X69560000Y-143885000D02*
X69560000Y-141225000D01*
X72160000Y-143885000D02*
X72160000Y-141225000D01*
X69560000Y-141225000D02*
X72160000Y-141225000D01*
%TO.C,JP2*%
X61280000Y-94235000D02*
X61280000Y-88735000D01*
X63230000Y-94235000D02*
X61280000Y-94235000D01*
X60730000Y-90385000D02*
X61030000Y-90085000D01*
X61030000Y-90085000D02*
X60730000Y-89785000D01*
X60730000Y-89785000D02*
X60730000Y-90385000D01*
X61280000Y-88735000D02*
X63230000Y-88735000D01*
X63230000Y-88735000D02*
X63230000Y-94235000D01*
%TO.C,C6*%
X70060000Y-85581252D02*
X70060000Y-84158748D01*
X71880000Y-85581252D02*
X71880000Y-84158748D01*
%TO.C,U4*%
X65910000Y-135885000D02*
X65910000Y-129875000D01*
X72730000Y-133635000D02*
X72730000Y-129875000D01*
X65910000Y-129875000D02*
X67170000Y-129875000D01*
X72730000Y-129875000D02*
X71470000Y-129875000D01*
%TO.C,C7*%
X66205000Y-97863748D02*
X66205000Y-98386252D01*
X67675000Y-97863748D02*
X67675000Y-98386252D01*
%TO.C,C4*%
X77751252Y-117835000D02*
X76328748Y-117835000D01*
X77751252Y-119655000D02*
X76328748Y-119655000D01*
%TO.C,J5*%
X69910000Y-119440000D02*
X68580000Y-119440000D01*
X69910000Y-118110000D02*
X69910000Y-119440000D01*
X69910000Y-116840000D02*
X69910000Y-114240000D01*
X69910000Y-116840000D02*
X67250000Y-116840000D01*
X69910000Y-114240000D02*
X67250000Y-114240000D01*
X67250000Y-116840000D02*
X67250000Y-114240000D01*
%TO.C,C8*%
X67675000Y-102196252D02*
X67675000Y-101673748D01*
X66205000Y-102196252D02*
X66205000Y-101673748D01*
%TO.C,C9*%
X60750000Y-108303748D02*
X60750000Y-109726252D01*
X58930000Y-108303748D02*
X58930000Y-109726252D01*
%TO.C,R1*%
X82380000Y-128234564D02*
X82380000Y-126780436D01*
X84200000Y-128234564D02*
X84200000Y-126780436D01*
%TO.C,C10*%
X70066252Y-139655000D02*
X68643748Y-139655000D01*
X70066252Y-137835000D02*
X68643748Y-137835000D01*
%TO.C,D1*%
X89400000Y-128767500D02*
X87130000Y-128767500D01*
X87130000Y-128767500D02*
X87130000Y-132827500D01*
X89400000Y-132827500D02*
X89400000Y-128767500D01*
%TO.C,SW2*%
X64830000Y-111820000D02*
X63500000Y-111820000D01*
X64830000Y-110490000D02*
X64830000Y-111820000D01*
X64830000Y-109220000D02*
X64830000Y-106620000D01*
X64830000Y-109220000D02*
X62170000Y-109220000D01*
X64830000Y-106620000D02*
X62170000Y-106620000D01*
X62170000Y-109220000D02*
X62170000Y-106620000D01*
%TO.C,U1*%
X74355000Y-92285000D02*
X74355000Y-90085000D01*
X74355000Y-92285000D02*
X74355000Y-94485000D01*
X67585000Y-92285000D02*
X67585000Y-90085000D01*
X67585000Y-92285000D02*
X67585000Y-95885000D01*
%TD*%
M02*
