%TF.GenerationSoftware,KiCad,Pcbnew,7.0.8-7.0.8~ubuntu20.04.1*%
%TF.CreationDate,2023-10-10T13:21:00+02:00*%
%TF.ProjectId,alarmclock,616c6172-6d63-46c6-9f63-6b2e6b696361,rev?*%
%TF.SameCoordinates,Original*%
%TF.FileFunction,Copper,L2,Bot*%
%TF.FilePolarity,Positive*%
%FSLAX46Y46*%
G04 Gerber Fmt 4.6, Leading zero omitted, Abs format (unit mm)*
G04 Created by KiCad (PCBNEW 7.0.8-7.0.8~ubuntu20.04.1) date 2023-10-10 13:21:00*
%MOMM*%
%LPD*%
G01*
G04 APERTURE LIST*
G04 Aperture macros list*
%AMRoundRect*
0 Rectangle with rounded corners*
0 $1 Rounding radius*
0 $2 $3 $4 $5 $6 $7 $8 $9 X,Y pos of 4 corners*
0 Add a 4 corners polygon primitive as box body*
4,1,4,$2,$3,$4,$5,$6,$7,$8,$9,$2,$3,0*
0 Add four circle primitives for the rounded corners*
1,1,$1+$1,$2,$3*
1,1,$1+$1,$4,$5*
1,1,$1+$1,$6,$7*
1,1,$1+$1,$8,$9*
0 Add four rect primitives between the rounded corners*
20,1,$1+$1,$2,$3,$4,$5,0*
20,1,$1+$1,$4,$5,$6,$7,0*
20,1,$1+$1,$6,$7,$8,$9,0*
20,1,$1+$1,$8,$9,$2,$3,0*%
G04 Aperture macros list end*
%TA.AperFunction,ComponentPad*%
%ADD10C,2.100000*%
%TD*%
%TA.AperFunction,ComponentPad*%
%ADD11R,2.100000X2.100000*%
%TD*%
%TA.AperFunction,ComponentPad*%
%ADD12R,1.700000X1.700000*%
%TD*%
%TA.AperFunction,ComponentPad*%
%ADD13O,1.700000X1.700000*%
%TD*%
%TA.AperFunction,ComponentPad*%
%ADD14R,0.850000X0.850000*%
%TD*%
%TA.AperFunction,ComponentPad*%
%ADD15O,0.850000X0.850000*%
%TD*%
%TA.AperFunction,SMDPad,CuDef*%
%ADD16RoundRect,0.250000X-0.625000X0.312500X-0.625000X-0.312500X0.625000X-0.312500X0.625000X0.312500X0*%
%TD*%
%TA.AperFunction,SMDPad,CuDef*%
%ADD17RoundRect,0.250000X-0.325000X-0.650000X0.325000X-0.650000X0.325000X0.650000X-0.325000X0.650000X0*%
%TD*%
%TA.AperFunction,SMDPad,CuDef*%
%ADD18RoundRect,0.100000X0.637500X0.100000X-0.637500X0.100000X-0.637500X-0.100000X0.637500X-0.100000X0*%
%TD*%
%TA.AperFunction,SMDPad,CuDef*%
%ADD19RoundRect,0.250000X0.650000X-0.325000X0.650000X0.325000X-0.650000X0.325000X-0.650000X-0.325000X0*%
%TD*%
%TA.AperFunction,SMDPad,CuDef*%
%ADD20RoundRect,0.250000X-0.650000X0.325000X-0.650000X-0.325000X0.650000X-0.325000X0.650000X0.325000X0*%
%TD*%
%TA.AperFunction,ViaPad*%
%ADD21C,0.800000*%
%TD*%
%TA.AperFunction,Conductor*%
%ADD22C,0.250000*%
%TD*%
G04 APERTURE END LIST*
D10*
%TO.P,BT1,2,-*%
%TO.N,GND*%
X112755914Y-132715000D03*
D11*
%TO.P,BT1,1,+*%
%TO.N,Net-(BT1-+)*%
X92755914Y-132715000D03*
%TD*%
D12*
%TO.P,J4,1,Pin_1*%
%TO.N,Net-(J4-Pin_1)*%
X113350000Y-94880000D03*
D13*
%TO.P,J4,2,Pin_2*%
%TO.N,Net-(J4-Pin_2)*%
X115890000Y-94880000D03*
%TO.P,J4,3,Pin_3*%
%TO.N,Net-(J4-Pin_3)*%
X118430000Y-94880000D03*
%TO.P,J4,4,Pin_4*%
%TO.N,Net-(J4-Pin_4)*%
X120970000Y-94880000D03*
%TO.P,J4,5,Pin_5*%
%TO.N,Net-(J4-Pin_5)*%
X123510000Y-94880000D03*
%TO.P,J4,6,Pin_6*%
%TO.N,Net-(J4-Pin_6)*%
X126050000Y-94880000D03*
%TO.P,J4,7,Pin_7*%
%TO.N,Net-(J4-Pin_7)*%
X128590000Y-94880000D03*
%TO.P,J4,8,Pin_8*%
%TO.N,Net-(J4-Pin_8)*%
X131130000Y-94880000D03*
%TD*%
D12*
%TO.P,BZ1,1,-*%
%TO.N,GND*%
X68580000Y-110490000D03*
D13*
%TO.P,BZ1,2,+*%
%TO.N,Alarm*%
X68580000Y-107950000D03*
%TD*%
D12*
%TO.P,J7,1,Pin_1*%
%TO.N,GND*%
X78740000Y-105410000D03*
D13*
%TO.P,J7,2,Pin_2*%
%TO.N,SRCLK*%
X78740000Y-102870000D03*
%TO.P,J7,3,Pin_3*%
%TO.N,RCLK*%
X78740000Y-100330000D03*
%TO.P,J7,4,Pin_4*%
%TO.N,SHIFT_IN*%
X78740000Y-97790000D03*
%TO.P,J7,5,Pin_5*%
%TO.N,+5V*%
X78740000Y-95250000D03*
%TD*%
D14*
%TO.P,J2,1,Pin_1*%
%TO.N,+3V3*%
X68430000Y-84935000D03*
D15*
%TO.P,J2,2,Pin_2*%
%TO.N,SWDIO*%
X68430000Y-85935000D03*
%TO.P,J2,3,Pin_3*%
%TO.N,GND*%
X67430000Y-84935000D03*
%TO.P,J2,4,Pin_4*%
%TO.N,SWCLK*%
X67430000Y-85935000D03*
%TO.P,J2,5,Pin_5*%
%TO.N,GND*%
X66430000Y-84935000D03*
%TO.P,J2,6,Pin_6*%
%TO.N,unconnected-(J2-Pin_6-Pad6)*%
X66430000Y-85935000D03*
%TO.P,J2,7,Pin_7*%
%TO.N,unconnected-(J2-Pin_7-Pad7)*%
X65430000Y-84935000D03*
%TO.P,J2,8,Pin_8*%
%TO.N,unconnected-(J2-Pin_8-Pad8)*%
X65430000Y-85935000D03*
%TO.P,J2,9,Pin_9*%
%TO.N,GND*%
X64430000Y-84935000D03*
%TO.P,J2,10,Pin_10*%
%TO.N,NRST*%
X64430000Y-85935000D03*
%TD*%
D12*
%TO.P,J8,1,Pin_1*%
%TO.N,GND*%
X84455000Y-93345000D03*
D13*
%TO.P,J8,2,Pin_2*%
X84455000Y-90805000D03*
%TO.P,J8,3,Pin_3*%
%TO.N,Rotary_B*%
X84455000Y-88265000D03*
%TO.P,J8,4,Pin_4*%
%TO.N,Switch_Encoder*%
X84455000Y-85725000D03*
%TO.P,J8,5,Pin_5*%
%TO.N,Rotary_A*%
X84455000Y-83185000D03*
%TD*%
D12*
%TO.P,J3,1,Pin_1*%
%TO.N,Net-(J3-Pin_1)*%
X113350000Y-82730000D03*
D13*
%TO.P,J3,2,Pin_2*%
%TO.N,Net-(J3-Pin_2)*%
X115890000Y-82730000D03*
%TO.P,J3,3,Pin_3*%
%TO.N,Net-(J3-Pin_3)*%
X118430000Y-82730000D03*
%TO.P,J3,4,Pin_4*%
%TO.N,Net-(J3-Pin_4)*%
X120970000Y-82730000D03*
%TO.P,J3,5,Pin_5*%
%TO.N,Net-(J3-Pin_5)*%
X123510000Y-82730000D03*
%TO.P,J3,6,Pin_6*%
%TO.N,Net-(J3-Pin_6)*%
X126050000Y-82730000D03*
%TO.P,J3,7,Pin_7*%
%TO.N,Net-(J3-Pin_7)*%
X128590000Y-82730000D03*
%TO.P,J3,8,Pin_8*%
%TO.N,Net-(J3-Pin_8)*%
X131130000Y-82730000D03*
%TD*%
D12*
%TO.P,J1,1,Pin_1*%
%TO.N,GND*%
X62230000Y-146050000D03*
D13*
%TO.P,J1,2,Pin_2*%
%TO.N,Net-(J1-Pin_2)*%
X62230000Y-143510000D03*
%TD*%
D12*
%TO.P,J5,1,Pin_1*%
%TO.N,GND*%
X68580000Y-118110000D03*
D13*
%TO.P,J5,2,Pin_2*%
%TO.N,Mute_button*%
X68580000Y-115570000D03*
%TD*%
D12*
%TO.P,SW2,1,1*%
%TO.N,GND*%
X60325000Y-83180000D03*
D13*
%TO.P,SW2,2,2*%
%TO.N,NRST*%
X60325000Y-85720000D03*
%TD*%
D16*
%TO.P,R10,1*%
%TO.N,Net-(J3-Pin_7)*%
X130485000Y-86210000D03*
%TO.P,R10,2*%
%TO.N,Net-(U2-QG)*%
X130485000Y-89135000D03*
%TD*%
D17*
%TO.P,C3,1*%
%TO.N,+5V*%
X101510000Y-86210000D03*
%TO.P,C3,2*%
%TO.N,GND*%
X104460000Y-86210000D03*
%TD*%
D18*
%TO.P,U2,1,QB*%
%TO.N,Net-(U2-QB)*%
X107000000Y-88070000D03*
%TO.P,U2,2,QC*%
%TO.N,Net-(J3-Pin_3)*%
X107000000Y-88720000D03*
%TO.P,U2,3,QD*%
%TO.N,Net-(J3-Pin_4)*%
X107000000Y-89370000D03*
%TO.P,U2,4,QE*%
%TO.N,Net-(J3-Pin_5)*%
X107000000Y-90020000D03*
%TO.P,U2,5,QF*%
%TO.N,Net-(U2-QF)*%
X107000000Y-90670000D03*
%TO.P,U2,6,QG*%
%TO.N,Net-(U2-QG)*%
X107000000Y-91320000D03*
%TO.P,U2,7,QH*%
%TO.N,Net-(U2-QH)*%
X107000000Y-91970000D03*
%TO.P,U2,8,GND*%
%TO.N,GND*%
X107000000Y-92620000D03*
%TO.P,U2,9,QH'*%
%TO.N,SR_OVERFLOW*%
X101275000Y-92620000D03*
%TO.P,U2,10,~{SRCLR}*%
%TO.N,+5V*%
X101275000Y-91970000D03*
%TO.P,U2,11,SRCLK*%
%TO.N,SRCLK_DIS*%
X101275000Y-91320000D03*
%TO.P,U2,12,RCLK*%
%TO.N,RCLK_DIS*%
X101275000Y-90670000D03*
%TO.P,U2,13,~{OE}*%
%TO.N,GND*%
X101275000Y-90020000D03*
%TO.P,U2,14,SER*%
%TO.N,SHIFT_IN_DIS*%
X101275000Y-89370000D03*
%TO.P,U2,15,QA*%
%TO.N,Net-(U2-QA)*%
X101275000Y-88720000D03*
%TO.P,U2,16,VCC*%
%TO.N,+5V*%
X101275000Y-88070000D03*
%TD*%
D16*
%TO.P,R4,1*%
%TO.N,Net-(J3-Pin_2)*%
X115890000Y-86017500D03*
%TO.P,R4,2*%
%TO.N,Net-(U2-QB)*%
X115890000Y-88942500D03*
%TD*%
%TO.P,R18,1*%
%TO.N,Net-(J4-Pin_8)*%
X130610000Y-98910000D03*
%TO.P,R18,2*%
%TO.N,Net-(U3-QH)*%
X130610000Y-101835000D03*
%TD*%
%TO.P,R12,1*%
%TO.N,Net-(J4-Pin_2)*%
X115890000Y-97640000D03*
%TO.P,R12,2*%
%TO.N,Net-(U3-QB)*%
X115890000Y-100565000D03*
%TD*%
D19*
%TO.P,C1,1*%
%TO.N,+5V*%
X96520000Y-88265000D03*
%TO.P,C1,2*%
%TO.N,GND*%
X96520000Y-85315000D03*
%TD*%
D16*
%TO.P,R17,1*%
%TO.N,Net-(J4-Pin_7)*%
X127320000Y-98910000D03*
%TO.P,R17,2*%
%TO.N,Net-(U3-QG)*%
X127320000Y-101835000D03*
%TD*%
D18*
%TO.P,U3,1,QB*%
%TO.N,Net-(U3-QB)*%
X106375000Y-99530000D03*
%TO.P,U3,2,QC*%
%TO.N,Net-(J4-Pin_3)*%
X106375000Y-100180000D03*
%TO.P,U3,3,QD*%
%TO.N,Net-(J4-Pin_4)*%
X106375000Y-100830000D03*
%TO.P,U3,4,QE*%
%TO.N,Net-(J4-Pin_5)*%
X106375000Y-101480000D03*
%TO.P,U3,5,QF*%
%TO.N,Net-(J4-Pin_6)*%
X106375000Y-102130000D03*
%TO.P,U3,6,QG*%
%TO.N,Net-(U3-QG)*%
X106375000Y-102780000D03*
%TO.P,U3,7,QH*%
%TO.N,Net-(U3-QH)*%
X106375000Y-103430000D03*
%TO.P,U3,8,GND*%
%TO.N,GND*%
X106375000Y-104080000D03*
%TO.P,U3,9,QH'*%
%TO.N,unconnected-(U3-QH'-Pad9)*%
X100650000Y-104080000D03*
%TO.P,U3,10,~{SRCLR}*%
%TO.N,+5V*%
X100650000Y-103430000D03*
%TO.P,U3,11,SRCLK*%
%TO.N,SRCLK_DIS*%
X100650000Y-102780000D03*
%TO.P,U3,12,RCLK*%
%TO.N,RCLK_DIS*%
X100650000Y-102130000D03*
%TO.P,U3,13,~{OE}*%
%TO.N,GND*%
X100650000Y-101480000D03*
%TO.P,U3,14,SER*%
%TO.N,SR_OVERFLOW*%
X100650000Y-100830000D03*
%TO.P,U3,15,QA*%
%TO.N,Net-(U3-QA)*%
X100650000Y-100180000D03*
%TO.P,U3,16,VCC*%
%TO.N,+5V*%
X100650000Y-99530000D03*
%TD*%
D16*
%TO.P,R9,1*%
%TO.N,Net-(J4-Pin_1)*%
X113350000Y-97640000D03*
%TO.P,R9,2*%
%TO.N,Net-(U3-QA)*%
X113350000Y-100565000D03*
%TD*%
%TO.P,R8,1*%
%TO.N,Net-(J3-Pin_6)*%
X127945000Y-86270000D03*
%TO.P,R8,2*%
%TO.N,Net-(U2-QF)*%
X127945000Y-89195000D03*
%TD*%
D12*
%TO.P,J6,1,Pin_1*%
%TO.N,GND*%
X91760000Y-98910000D03*
D13*
%TO.P,J6,2,Pin_2*%
%TO.N,SRCLK_DIS*%
X91760000Y-96370000D03*
%TO.P,J6,3,Pin_3*%
%TO.N,RCLK_DIS*%
X91760000Y-93830000D03*
%TO.P,J6,4,Pin_4*%
%TO.N,SHIFT_IN_DIS*%
X91760000Y-91290000D03*
%TO.P,J6,5,Pin_5*%
%TO.N,+5V*%
X91760000Y-88750000D03*
%TD*%
D17*
%TO.P,C2,1*%
%TO.N,+5V*%
X100650000Y-97640000D03*
%TO.P,C2,2*%
%TO.N,GND*%
X103600000Y-97640000D03*
%TD*%
D20*
%TO.P,C9,1*%
%TO.N,NRST*%
X62865000Y-88265000D03*
%TO.P,C9,2*%
%TO.N,GND*%
X62865000Y-91215000D03*
%TD*%
D16*
%TO.P,R3,1*%
%TO.N,Net-(J3-Pin_1)*%
X113350000Y-86017500D03*
%TO.P,R3,2*%
%TO.N,Net-(U2-QA)*%
X113350000Y-88942500D03*
%TD*%
%TO.P,R11,1*%
%TO.N,Net-(J3-Pin_8)*%
X133025000Y-86210000D03*
%TO.P,R11,2*%
%TO.N,Net-(U2-QH)*%
X133025000Y-89135000D03*
%TD*%
D21*
%TO.N,GND*%
X71120000Y-81915000D03*
X80010000Y-114300000D03*
X72390000Y-91440000D03*
X72390000Y-93218000D03*
X76200000Y-127000000D03*
X77470000Y-91440000D03*
X65024000Y-135636000D03*
X66675000Y-87630000D03*
X68580000Y-92964000D03*
X71628000Y-87884000D03*
X65786000Y-94234000D03*
X76200000Y-127000000D03*
X80010000Y-86995000D03*
X80010000Y-84455000D03*
X76200000Y-127000000D03*
X75565000Y-120650000D03*
%TO.N,+5V*%
X98745000Y-104140000D03*
X99380000Y-97640000D03*
X99380000Y-92560000D03*
X99380000Y-86210000D03*
%TO.N,+BATT*%
X78105000Y-122555000D03*
X86360000Y-123190000D03*
%TO.N,NRST*%
X69850000Y-92710000D03*
%TO.N,+3.3V*%
X66675000Y-130810000D03*
X67945000Y-132080000D03*
X70485000Y-126365000D03*
X69215000Y-130810000D03*
X66675000Y-125095000D03*
X69215000Y-125095000D03*
X70485000Y-132080000D03*
X67945000Y-125095000D03*
X69215000Y-126365000D03*
X66675000Y-132080000D03*
X67945000Y-126365000D03*
X67945000Y-130810000D03*
X70485000Y-125095000D03*
X69215000Y-132080000D03*
X70485000Y-130810000D03*
X66675000Y-126365000D03*
%TO.N,Vbat_enable*%
X83820000Y-119380000D03*
X69850000Y-87630000D03*
%TO.N,Net-(U2-QA)*%
X112080000Y-89945500D03*
X103190000Y-88750000D03*
%TO.N,Net-(U2-QB)*%
X108337000Y-87995500D03*
X115890000Y-89945500D03*
%TO.N,Net-(U3-QA)*%
X101920000Y-100180000D03*
X113350000Y-101450000D03*
%TO.N,Net-(U3-QB)*%
X115890000Y-101450000D03*
X108270000Y-98910000D03*
%TO.N,RCLK_DIS*%
X98110000Y-101450000D03*
X94300000Y-91290000D03*
%TD*%
D22*
%TO.N,GND*%
X104334000Y-104080000D02*
X106375000Y-104080000D01*
X101734000Y-101480000D02*
X104334000Y-104080000D01*
X107000000Y-92620000D02*
X105320000Y-92620000D01*
X105320000Y-92620000D02*
X102720000Y-90020000D01*
X100650000Y-101480000D02*
X101734000Y-101480000D01*
X102720000Y-90020000D02*
X101275000Y-90020000D01*
%TO.N,+5V*%
X101510000Y-86210000D02*
X101510000Y-87835000D01*
X100650000Y-103430000D02*
X99455000Y-103430000D01*
X99380000Y-86210000D02*
X101510000Y-86210000D01*
X96840000Y-88750000D02*
X91760000Y-88750000D01*
X99380000Y-97640000D02*
X100650000Y-97640000D01*
X101275000Y-91970000D02*
X99970000Y-91970000D01*
X99970000Y-91970000D02*
X99380000Y-92560000D01*
X101510000Y-87835000D02*
X101275000Y-88070000D01*
X100650000Y-99530000D02*
X100650000Y-97640000D01*
X99380000Y-86210000D02*
X96840000Y-88750000D01*
X99455000Y-103430000D02*
X98745000Y-104140000D01*
%TO.N,+BATT*%
X78195000Y-122645000D02*
X78105000Y-122555000D01*
X85090000Y-121920000D02*
X82940305Y-121920000D01*
X82940305Y-121920000D02*
X82215305Y-122645000D01*
X82215305Y-122645000D02*
X78195000Y-122645000D01*
X86360000Y-123190000D02*
X85090000Y-121920000D01*
%TO.N,NRST*%
X62865000Y-88265000D02*
X64430000Y-86700000D01*
X62865000Y-88265000D02*
X62865000Y-88260000D01*
X65405000Y-88265000D02*
X62865000Y-88265000D01*
X64430000Y-86700000D02*
X64430000Y-85935000D01*
X62865000Y-88260000D02*
X60325000Y-85720000D01*
X69850000Y-92710000D02*
X65405000Y-88265000D01*
%TO.N,Net-(J3-Pin_1)*%
X113350000Y-82730000D02*
X113350000Y-86017500D01*
%TO.N,Net-(J3-Pin_2)*%
X115890000Y-82730000D02*
X115890000Y-86017500D01*
%TO.N,Net-(J3-Pin_3)*%
X111385000Y-86905000D02*
X116753173Y-86905000D01*
X116753173Y-86905000D02*
X118430000Y-85228173D01*
X109570000Y-88720000D02*
X111385000Y-86905000D01*
X107000000Y-88720000D02*
X109570000Y-88720000D01*
X118430000Y-85228173D02*
X118430000Y-82730000D01*
%TO.N,Net-(J3-Pin_4)*%
X120970000Y-83670000D02*
X120970000Y-82730000D01*
X109556396Y-89370000D02*
X111446396Y-87480000D01*
X107000000Y-89370000D02*
X109556396Y-89370000D01*
X111446396Y-87480000D02*
X117160000Y-87480000D01*
X117160000Y-87480000D02*
X120970000Y-83670000D01*
%TO.N,Net-(J3-Pin_5)*%
X109990000Y-90020000D02*
X112080000Y-87930000D01*
X112080000Y-87930000D02*
X117980000Y-87930000D01*
X107000000Y-90020000D02*
X109540000Y-90020000D01*
X118310000Y-87930000D02*
X117980000Y-87930000D01*
X109540000Y-90020000D02*
X109990000Y-90020000D01*
X123510000Y-82730000D02*
X118310000Y-87930000D01*
%TO.N,Net-(J3-Pin_6)*%
X127945000Y-86270000D02*
X127945000Y-84625000D01*
X127945000Y-84625000D02*
X126050000Y-82730000D01*
%TO.N,Net-(J3-Pin_7)*%
X128590000Y-83990000D02*
X130485000Y-85885000D01*
X128590000Y-82730000D02*
X128590000Y-83990000D01*
%TO.N,Net-(J3-Pin_8)*%
X133025000Y-84625000D02*
X133025000Y-86210000D01*
X131130000Y-82730000D02*
X133025000Y-84625000D01*
%TO.N,Net-(J4-Pin_1)*%
X113350000Y-94880000D02*
X113350000Y-97640000D01*
%TO.N,Net-(J4-Pin_2)*%
X115890000Y-94880000D02*
X115890000Y-97640000D01*
%TO.N,Net-(J4-Pin_3)*%
X106375000Y-100180000D02*
X110810000Y-100180000D01*
X116753173Y-98527500D02*
X118430000Y-96850673D01*
X118430000Y-96850673D02*
X118430000Y-94880000D01*
X112462500Y-98527500D02*
X116753173Y-98527500D01*
X110810000Y-100180000D02*
X112462500Y-98527500D01*
%TO.N,Net-(J4-Pin_4)*%
X117823883Y-99228198D02*
X112398198Y-99228198D01*
X120970000Y-96082081D02*
X117823883Y-99228198D01*
X112398198Y-99228198D02*
X110796396Y-100830000D01*
X120970000Y-94880000D02*
X120970000Y-96082081D01*
X110796396Y-100830000D02*
X106375000Y-100830000D01*
%TO.N,Net-(J4-Pin_5)*%
X111182792Y-101480000D02*
X111877792Y-102175000D01*
X106375000Y-101480000D02*
X111182792Y-101480000D01*
X111877792Y-102175000D02*
X116215000Y-102175000D01*
X116215000Y-102175000D02*
X123510000Y-94880000D01*
%TO.N,Net-(J4-Pin_6)*%
X108965000Y-102625000D02*
X108470000Y-102130000D01*
X118305000Y-102625000D02*
X108965000Y-102625000D01*
X108470000Y-102130000D02*
X106375000Y-102130000D01*
X126050000Y-94880000D02*
X118305000Y-102625000D01*
%TO.N,Net-(J4-Pin_7)*%
X127320000Y-98910000D02*
X127320000Y-96150000D01*
X127320000Y-96150000D02*
X128590000Y-94880000D01*
%TO.N,Net-(J4-Pin_8)*%
X131130000Y-98390000D02*
X131130000Y-94880000D01*
X130610000Y-98910000D02*
X131130000Y-98390000D01*
%TO.N,Vbat_enable*%
X71665000Y-107225000D02*
X71665000Y-89445000D01*
X83820000Y-119380000D02*
X71665000Y-107225000D01*
X71665000Y-89445000D02*
X69850000Y-87630000D01*
%TO.N,Net-(U2-QA)*%
X113350000Y-88942500D02*
X113083000Y-88942500D01*
X113083000Y-88942500D02*
X112080000Y-89945500D01*
X103160000Y-88720000D02*
X103190000Y-88750000D01*
X101275000Y-88720000D02*
X103160000Y-88720000D01*
%TO.N,Net-(U2-QB)*%
X108262500Y-88070000D02*
X108337000Y-87995500D01*
X107000000Y-88070000D02*
X108262500Y-88070000D01*
X115890000Y-89945500D02*
X115890000Y-88942500D01*
%TO.N,Net-(U2-QF)*%
X126470000Y-90670000D02*
X107000000Y-90670000D01*
X127945000Y-89195000D02*
X126470000Y-90670000D01*
%TO.N,Net-(U3-QA)*%
X113350000Y-100565000D02*
X113350000Y-101450000D01*
X101920000Y-100180000D02*
X100650000Y-100180000D01*
%TO.N,Net-(U2-QG)*%
X128330000Y-91290000D02*
X107000000Y-91290000D01*
X130485000Y-89135000D02*
X128330000Y-91290000D01*
%TO.N,Net-(U2-QH)*%
X107000000Y-91970000D02*
X130190000Y-91970000D01*
X130190000Y-91970000D02*
X133025000Y-89135000D01*
%TO.N,Net-(U3-QB)*%
X115890000Y-100565000D02*
X115890000Y-101450000D01*
X106375000Y-99530000D02*
X107650000Y-99530000D01*
X107650000Y-99530000D02*
X108270000Y-98910000D01*
%TO.N,Net-(U3-QG)*%
X108483604Y-102780000D02*
X108778604Y-103075000D01*
X108778604Y-103075000D02*
X126080000Y-103075000D01*
X126080000Y-103075000D02*
X127320000Y-101835000D01*
X106375000Y-102780000D02*
X108483604Y-102780000D01*
%TO.N,Net-(U3-QH)*%
X128890000Y-103555000D02*
X106500000Y-103555000D01*
X106500000Y-103555000D02*
X106375000Y-103430000D01*
X130610000Y-101835000D02*
X128890000Y-103555000D01*
%TO.N,SR_OVERFLOW*%
X98655000Y-99523541D02*
X98655000Y-95240000D01*
X100650000Y-100830000D02*
X99961459Y-100830000D01*
X98655000Y-95240000D02*
X101275000Y-92620000D01*
X99961459Y-100830000D02*
X98655000Y-99523541D01*
%TO.N,SRCLK_DIS*%
X98170000Y-102780000D02*
X91760000Y-96370000D01*
X100650000Y-102780000D02*
X98170000Y-102780000D01*
X96810000Y-91320000D02*
X101275000Y-91320000D01*
X91760000Y-96370000D02*
X96810000Y-91320000D01*
%TO.N,RCLK_DIS*%
X91760000Y-93830000D02*
X94920000Y-90670000D01*
X98110000Y-101450000D02*
X98790000Y-102130000D01*
X98790000Y-102130000D02*
X100650000Y-102130000D01*
X94920000Y-90670000D02*
X101275000Y-90670000D01*
X100650000Y-102130000D02*
X101338541Y-102130000D01*
%TO.N,SHIFT_IN_DIS*%
X93680000Y-89370000D02*
X91760000Y-91290000D01*
X101275000Y-89370000D02*
X93680000Y-89370000D01*
%TD*%
%TA.AperFunction,Conductor*%
%TO.N,+3.3V*%
G36*
X71698039Y-123209685D02*
G01*
X71743794Y-123262489D01*
X71755000Y-123314000D01*
X71755000Y-133226000D01*
X71735315Y-133293039D01*
X71682511Y-133338794D01*
X71631000Y-133350000D01*
X65529000Y-133350000D01*
X65461961Y-133330315D01*
X65416206Y-133277511D01*
X65405000Y-133226000D01*
X65405000Y-123314000D01*
X65424685Y-123246961D01*
X65477489Y-123201206D01*
X65529000Y-123190000D01*
X71631000Y-123190000D01*
X71698039Y-123209685D01*
G37*
%TD.AperFunction*%
%TD*%
%TA.AperFunction,Conductor*%
%TO.N,GND*%
G36*
X84705000Y-92909498D02*
G01*
X84597315Y-92860320D01*
X84490763Y-92845000D01*
X84419237Y-92845000D01*
X84312685Y-92860320D01*
X84205000Y-92909498D01*
X84205000Y-91240501D01*
X84312685Y-91289680D01*
X84419237Y-91305000D01*
X84490763Y-91305000D01*
X84597315Y-91289680D01*
X84705000Y-91240501D01*
X84705000Y-92909498D01*
G37*
%TD.AperFunction*%
%TA.AperFunction,Conductor*%
G36*
X157892539Y-79880185D02*
G01*
X157938294Y-79932989D01*
X157949500Y-79984500D01*
X157949500Y-149585500D01*
X157929815Y-149652539D01*
X157877011Y-149698294D01*
X157825500Y-149709500D01*
X57744500Y-149709500D01*
X57677461Y-149689815D01*
X57631706Y-149637011D01*
X57620500Y-149585500D01*
X57620500Y-143510005D01*
X60866844Y-143510005D01*
X60885434Y-143734359D01*
X60885436Y-143734371D01*
X60940703Y-143952614D01*
X61031140Y-144158792D01*
X61154276Y-144347265D01*
X61154278Y-144347268D01*
X61305707Y-144511762D01*
X61336629Y-144574415D01*
X61328769Y-144643841D01*
X61284622Y-144697997D01*
X61257811Y-144711926D01*
X61137912Y-144756646D01*
X61137906Y-144756649D01*
X61022812Y-144842809D01*
X61022809Y-144842812D01*
X60936649Y-144957906D01*
X60936645Y-144957913D01*
X60886403Y-145092620D01*
X60886401Y-145092627D01*
X60880000Y-145152155D01*
X60880000Y-145800000D01*
X61796314Y-145800000D01*
X61770507Y-145840156D01*
X61730000Y-145978111D01*
X61730000Y-146121889D01*
X61770507Y-146259844D01*
X61796314Y-146300000D01*
X60880000Y-146300000D01*
X60880000Y-146947844D01*
X60886401Y-147007372D01*
X60886403Y-147007379D01*
X60936645Y-147142086D01*
X60936649Y-147142093D01*
X61022809Y-147257187D01*
X61022812Y-147257190D01*
X61137906Y-147343350D01*
X61137913Y-147343354D01*
X61272620Y-147393596D01*
X61272627Y-147393598D01*
X61332155Y-147399999D01*
X61332172Y-147400000D01*
X61980000Y-147400000D01*
X61980000Y-146485501D01*
X62087685Y-146534680D01*
X62194237Y-146550000D01*
X62265763Y-146550000D01*
X62372315Y-146534680D01*
X62480000Y-146485501D01*
X62480000Y-147400000D01*
X63127828Y-147400000D01*
X63127844Y-147399999D01*
X63187372Y-147393598D01*
X63187379Y-147393596D01*
X63322086Y-147343354D01*
X63322093Y-147343350D01*
X63437187Y-147257190D01*
X63437190Y-147257187D01*
X63523350Y-147142093D01*
X63523354Y-147142086D01*
X63573596Y-147007379D01*
X63573598Y-147007372D01*
X63579999Y-146947844D01*
X63580000Y-146947827D01*
X63580000Y-146300000D01*
X62663686Y-146300000D01*
X62689493Y-146259844D01*
X62730000Y-146121889D01*
X62730000Y-145978111D01*
X62689493Y-145840156D01*
X62663686Y-145800000D01*
X63580000Y-145800000D01*
X63580000Y-145152172D01*
X63579999Y-145152155D01*
X63573598Y-145092627D01*
X63573596Y-145092620D01*
X63523354Y-144957913D01*
X63523350Y-144957906D01*
X63437190Y-144842812D01*
X63437187Y-144842809D01*
X63322093Y-144756649D01*
X63322088Y-144756646D01*
X63202188Y-144711926D01*
X63146255Y-144670054D01*
X63121838Y-144604590D01*
X63136690Y-144536317D01*
X63154286Y-144511769D01*
X63305722Y-144347268D01*
X63428860Y-144158791D01*
X63519296Y-143952616D01*
X63574564Y-143734368D01*
X63593156Y-143510000D01*
X63574564Y-143285632D01*
X63519296Y-143067384D01*
X63428860Y-142861209D01*
X63305722Y-142672732D01*
X63305719Y-142672729D01*
X63305715Y-142672723D01*
X63153243Y-142507097D01*
X63153238Y-142507092D01*
X62975577Y-142368812D01*
X62975572Y-142368808D01*
X62777580Y-142261661D01*
X62777577Y-142261659D01*
X62777574Y-142261658D01*
X62777571Y-142261657D01*
X62777569Y-142261656D01*
X62564637Y-142188556D01*
X62342569Y-142151500D01*
X62117431Y-142151500D01*
X61895362Y-142188556D01*
X61682430Y-142261656D01*
X61682419Y-142261661D01*
X61484427Y-142368808D01*
X61484422Y-142368812D01*
X61306761Y-142507092D01*
X61306756Y-142507097D01*
X61154284Y-142672723D01*
X61154276Y-142672734D01*
X61031140Y-142861207D01*
X60940703Y-143067385D01*
X60885436Y-143285628D01*
X60885434Y-143285640D01*
X60866844Y-143509994D01*
X60866844Y-143510005D01*
X57620500Y-143510005D01*
X57620500Y-133226000D01*
X64891500Y-133226000D01*
X64891501Y-133226009D01*
X64903235Y-133335151D01*
X64903237Y-133335163D01*
X64914443Y-133386673D01*
X64949106Y-133490820D01*
X64949109Y-133490826D01*
X65028128Y-133613781D01*
X65028134Y-133613788D01*
X65073879Y-133666581D01*
X65073882Y-133666584D01*
X65073884Y-133666586D01*
X65090657Y-133681120D01*
X65184335Y-133762294D01*
X65184337Y-133762295D01*
X65184339Y-133762297D01*
X65317287Y-133823014D01*
X65360059Y-133835573D01*
X65384321Y-133842698D01*
X65384326Y-133842699D01*
X65384330Y-133842700D01*
X65529000Y-133863500D01*
X65529003Y-133863500D01*
X71630990Y-133863500D01*
X71631000Y-133863500D01*
X71740157Y-133851764D01*
X71791668Y-133840558D01*
X71826440Y-133828984D01*
X71872501Y-133813654D01*
X91197414Y-133813654D01*
X91203925Y-133874202D01*
X91203925Y-133874204D01*
X91255025Y-134011204D01*
X91342653Y-134128261D01*
X91459710Y-134215889D01*
X91596713Y-134266989D01*
X91622786Y-134269792D01*
X91657259Y-134273499D01*
X91657276Y-134273500D01*
X93854552Y-134273500D01*
X93854568Y-134273499D01*
X93881606Y-134270591D01*
X93915115Y-134266989D01*
X94052118Y-134215889D01*
X94169175Y-134128261D01*
X94256803Y-134011204D01*
X94307903Y-133874201D01*
X94313406Y-133823014D01*
X94314413Y-133813654D01*
X94314414Y-133813637D01*
X94314414Y-132715000D01*
X111201121Y-132715000D01*
X111220262Y-132958219D01*
X111277217Y-133195457D01*
X111370582Y-133420861D01*
X111494418Y-133622942D01*
X112153366Y-132963993D01*
X112163102Y-132993956D01*
X112251100Y-133132619D01*
X112370817Y-133245040D01*
X112505424Y-133319041D01*
X111847970Y-133976494D01*
X112050052Y-134100331D01*
X112275456Y-134193696D01*
X112512694Y-134250651D01*
X112512693Y-134250651D01*
X112755914Y-134269792D01*
X112999133Y-134250651D01*
X113236371Y-134193696D01*
X113461775Y-134100331D01*
X113663856Y-133976494D01*
X113003448Y-133316086D01*
X113071543Y-133289126D01*
X113204406Y-133192595D01*
X113309089Y-133066055D01*
X113357545Y-132963079D01*
X114017408Y-133622942D01*
X114141245Y-133420861D01*
X114234610Y-133195457D01*
X114291565Y-132958219D01*
X114310706Y-132715000D01*
X114291565Y-132471780D01*
X114234610Y-132234542D01*
X114141245Y-132009138D01*
X114017408Y-131807056D01*
X113358460Y-132466004D01*
X113348726Y-132436044D01*
X113260728Y-132297381D01*
X113141011Y-132184960D01*
X113006403Y-132110958D01*
X113663856Y-131453504D01*
X113461775Y-131329668D01*
X113236371Y-131236303D01*
X112999133Y-131179348D01*
X112999134Y-131179348D01*
X112755914Y-131160207D01*
X112512694Y-131179348D01*
X112275456Y-131236303D01*
X112050060Y-131329665D01*
X112050055Y-131329668D01*
X111847970Y-131453504D01*
X112508379Y-132113913D01*
X112440285Y-132140874D01*
X112307422Y-132237405D01*
X112202739Y-132363945D01*
X112154282Y-132466920D01*
X111494418Y-131807056D01*
X111370582Y-132009141D01*
X111370579Y-132009146D01*
X111277217Y-132234542D01*
X111220262Y-132471780D01*
X111201121Y-132715000D01*
X94314414Y-132715000D01*
X94314414Y-131616362D01*
X94314413Y-131616345D01*
X94311071Y-131585270D01*
X94307903Y-131555799D01*
X94256803Y-131418796D01*
X94169175Y-131301739D01*
X94052118Y-131214111D01*
X93915117Y-131163011D01*
X93854568Y-131156500D01*
X93854552Y-131156500D01*
X91657276Y-131156500D01*
X91657259Y-131156500D01*
X91596711Y-131163011D01*
X91596709Y-131163011D01*
X91459709Y-131214111D01*
X91342653Y-131301739D01*
X91255025Y-131418795D01*
X91203925Y-131555795D01*
X91203925Y-131555797D01*
X91197414Y-131616345D01*
X91197414Y-133813654D01*
X71872501Y-133813654D01*
X71895820Y-133805893D01*
X71895824Y-133805890D01*
X71895827Y-133805890D01*
X72018782Y-133726871D01*
X72071586Y-133681116D01*
X72167297Y-133570661D01*
X72228014Y-133437713D01*
X72247699Y-133370674D01*
X72247700Y-133370670D01*
X72268500Y-133226000D01*
X72268500Y-123314000D01*
X72256764Y-123204843D01*
X72245558Y-123153332D01*
X72240882Y-123139282D01*
X72210893Y-123049179D01*
X72210890Y-123049173D01*
X72131871Y-122926218D01*
X72131865Y-122926211D01*
X72086120Y-122873418D01*
X72086117Y-122873415D01*
X71975664Y-122777705D01*
X71975658Y-122777701D01*
X71842716Y-122716987D01*
X71775679Y-122697302D01*
X71775673Y-122697300D01*
X71688868Y-122684820D01*
X71631000Y-122676500D01*
X65529000Y-122676500D01*
X65528991Y-122676500D01*
X65528990Y-122676501D01*
X65419848Y-122688235D01*
X65419836Y-122688237D01*
X65368326Y-122699443D01*
X65264179Y-122734106D01*
X65264173Y-122734109D01*
X65141218Y-122813128D01*
X65141211Y-122813134D01*
X65088418Y-122858879D01*
X65088415Y-122858882D01*
X64992705Y-122969335D01*
X64992701Y-122969341D01*
X64931987Y-123102283D01*
X64912302Y-123169321D01*
X64912300Y-123169326D01*
X64898764Y-123263474D01*
X64891500Y-123314000D01*
X64891500Y-133226000D01*
X57620500Y-133226000D01*
X57620500Y-122555000D01*
X77191496Y-122555000D01*
X77211458Y-122744928D01*
X77211459Y-122744931D01*
X77270470Y-122926549D01*
X77270473Y-122926556D01*
X77365960Y-123091944D01*
X77454250Y-123190000D01*
X77491182Y-123231018D01*
X77493747Y-123233866D01*
X77648248Y-123346118D01*
X77822712Y-123423794D01*
X78009513Y-123463500D01*
X78200487Y-123463500D01*
X78387288Y-123423794D01*
X78561752Y-123346118D01*
X78622225Y-123302181D01*
X78688031Y-123278702D01*
X78695110Y-123278500D01*
X82131671Y-123278500D01*
X82147418Y-123280238D01*
X82147444Y-123279968D01*
X82155210Y-123280701D01*
X82155214Y-123280702D01*
X82225263Y-123278500D01*
X82255161Y-123278500D01*
X82255162Y-123278500D01*
X82256527Y-123278327D01*
X82262167Y-123277614D01*
X82267990Y-123277156D01*
X82294013Y-123276338D01*
X82315195Y-123275673D01*
X82324986Y-123272827D01*
X82334786Y-123269980D01*
X82353843Y-123266032D01*
X82374102Y-123263474D01*
X82418026Y-123246082D01*
X82423526Y-123244199D01*
X82468898Y-123231018D01*
X82486470Y-123220625D01*
X82503937Y-123212068D01*
X82522922Y-123204552D01*
X82561131Y-123176790D01*
X82566009Y-123173585D01*
X82606667Y-123149542D01*
X82621107Y-123135100D01*
X82635897Y-123122470D01*
X82652412Y-123110472D01*
X82682519Y-123074078D01*
X82686441Y-123069766D01*
X83166391Y-122589819D01*
X83227714Y-122556334D01*
X83254072Y-122553500D01*
X84776234Y-122553500D01*
X84843273Y-122573185D01*
X84863915Y-122589819D01*
X85413378Y-123139282D01*
X85446863Y-123200605D01*
X85449018Y-123214001D01*
X85454218Y-123263473D01*
X85466458Y-123379928D01*
X85466459Y-123379931D01*
X85525470Y-123561549D01*
X85525473Y-123561556D01*
X85620960Y-123726944D01*
X85748747Y-123868866D01*
X85903248Y-123981118D01*
X86077712Y-124058794D01*
X86264513Y-124098500D01*
X86455487Y-124098500D01*
X86642288Y-124058794D01*
X86816752Y-123981118D01*
X86971253Y-123868866D01*
X87099040Y-123726944D01*
X87194527Y-123561556D01*
X87253542Y-123379928D01*
X87273504Y-123190000D01*
X87253542Y-123000072D01*
X87194527Y-122818444D01*
X87099040Y-122653056D01*
X86971253Y-122511134D01*
X86816752Y-122398882D01*
X86642288Y-122321206D01*
X86642286Y-122321205D01*
X86455487Y-122281500D01*
X86398767Y-122281500D01*
X86331728Y-122261815D01*
X86311086Y-122245181D01*
X85597088Y-121531183D01*
X85587187Y-121518823D01*
X85586977Y-121518998D01*
X85582002Y-121512986D01*
X85582000Y-121512982D01*
X85555658Y-121488245D01*
X85530922Y-121465016D01*
X85509768Y-121443863D01*
X85507792Y-121442331D01*
X85504183Y-121439531D01*
X85499750Y-121435744D01*
X85465321Y-121403414D01*
X85465319Y-121403412D01*
X85447431Y-121393578D01*
X85431170Y-121382897D01*
X85415039Y-121370384D01*
X85371693Y-121351627D01*
X85366445Y-121349056D01*
X85339019Y-121333979D01*
X85325060Y-121326305D01*
X85321660Y-121325432D01*
X85305287Y-121321228D01*
X85286881Y-121314926D01*
X85268144Y-121306818D01*
X85268146Y-121306818D01*
X85221496Y-121299430D01*
X85215781Y-121298246D01*
X85195612Y-121293068D01*
X85170032Y-121286500D01*
X85170030Y-121286500D01*
X85149616Y-121286500D01*
X85130217Y-121284973D01*
X85110058Y-121281780D01*
X85110057Y-121281780D01*
X85063034Y-121286225D01*
X85057196Y-121286500D01*
X83023936Y-121286500D01*
X83008184Y-121284760D01*
X83008159Y-121285032D01*
X83000397Y-121284298D01*
X83000396Y-121284298D01*
X82930333Y-121286500D01*
X82900449Y-121286500D01*
X82900446Y-121286500D01*
X82900434Y-121286501D01*
X82893442Y-121287384D01*
X82887625Y-121287841D01*
X82840419Y-121289325D01*
X82840412Y-121289326D01*
X82820805Y-121295022D01*
X82801766Y-121298965D01*
X82781516Y-121301524D01*
X82781506Y-121301526D01*
X82737596Y-121318911D01*
X82732070Y-121320803D01*
X82686717Y-121333979D01*
X82686712Y-121333981D01*
X82669138Y-121344374D01*
X82651677Y-121352928D01*
X82632691Y-121360446D01*
X82632689Y-121360447D01*
X82594477Y-121388208D01*
X82589595Y-121391415D01*
X82548942Y-121415457D01*
X82534506Y-121429894D01*
X82519720Y-121442523D01*
X82503198Y-121454528D01*
X82503196Y-121454529D01*
X82503196Y-121454530D01*
X82503193Y-121454532D01*
X82473085Y-121490925D01*
X82469154Y-121495246D01*
X81989219Y-121975181D01*
X81927896Y-122008666D01*
X81901538Y-122011500D01*
X78893346Y-122011500D01*
X78826307Y-121991815D01*
X78801196Y-121970472D01*
X78716258Y-121876138D01*
X78716255Y-121876136D01*
X78716254Y-121876135D01*
X78716253Y-121876134D01*
X78561752Y-121763882D01*
X78387288Y-121686206D01*
X78387286Y-121686205D01*
X78200487Y-121646500D01*
X78009513Y-121646500D01*
X77822714Y-121686205D01*
X77648246Y-121763883D01*
X77493745Y-121876135D01*
X77365959Y-122018057D01*
X77270473Y-122183443D01*
X77270470Y-122183450D01*
X77238612Y-122281500D01*
X77211458Y-122365072D01*
X77191496Y-122555000D01*
X57620500Y-122555000D01*
X57620500Y-115570005D01*
X67216844Y-115570005D01*
X67235434Y-115794359D01*
X67235436Y-115794371D01*
X67290703Y-116012614D01*
X67381140Y-116218792D01*
X67504276Y-116407265D01*
X67504278Y-116407268D01*
X67655707Y-116571762D01*
X67686629Y-116634415D01*
X67678769Y-116703841D01*
X67634622Y-116757997D01*
X67607811Y-116771926D01*
X67487912Y-116816646D01*
X67487906Y-116816649D01*
X67372812Y-116902809D01*
X67372809Y-116902812D01*
X67286649Y-117017906D01*
X67286645Y-117017913D01*
X67236403Y-117152620D01*
X67236401Y-117152627D01*
X67230000Y-117212155D01*
X67230000Y-117860000D01*
X68146314Y-117860000D01*
X68120507Y-117900156D01*
X68080000Y-118038111D01*
X68080000Y-118181889D01*
X68120507Y-118319844D01*
X68146314Y-118360000D01*
X67230000Y-118360000D01*
X67230000Y-119007844D01*
X67236401Y-119067372D01*
X67236403Y-119067379D01*
X67286645Y-119202086D01*
X67286649Y-119202093D01*
X67372809Y-119317187D01*
X67372812Y-119317190D01*
X67487906Y-119403350D01*
X67487913Y-119403354D01*
X67622620Y-119453596D01*
X67622627Y-119453598D01*
X67682155Y-119459999D01*
X67682172Y-119460000D01*
X68330000Y-119460000D01*
X68330000Y-118545501D01*
X68437685Y-118594680D01*
X68544237Y-118610000D01*
X68615763Y-118610000D01*
X68722315Y-118594680D01*
X68830000Y-118545501D01*
X68830000Y-119460000D01*
X69477828Y-119460000D01*
X69477844Y-119459999D01*
X69537372Y-119453598D01*
X69537379Y-119453596D01*
X69672086Y-119403354D01*
X69672093Y-119403350D01*
X69787187Y-119317190D01*
X69787190Y-119317187D01*
X69873350Y-119202093D01*
X69873354Y-119202086D01*
X69923596Y-119067379D01*
X69923598Y-119067372D01*
X69929999Y-119007844D01*
X69930000Y-119007827D01*
X69930000Y-118360000D01*
X69013686Y-118360000D01*
X69039493Y-118319844D01*
X69080000Y-118181889D01*
X69080000Y-118038111D01*
X69039493Y-117900156D01*
X69013686Y-117860000D01*
X69930000Y-117860000D01*
X69930000Y-117212172D01*
X69929999Y-117212155D01*
X69923598Y-117152627D01*
X69923596Y-117152620D01*
X69873354Y-117017913D01*
X69873350Y-117017906D01*
X69787190Y-116902812D01*
X69787187Y-116902809D01*
X69672093Y-116816649D01*
X69672088Y-116816646D01*
X69552188Y-116771926D01*
X69496255Y-116730054D01*
X69471838Y-116664590D01*
X69486690Y-116596317D01*
X69504286Y-116571769D01*
X69655722Y-116407268D01*
X69778860Y-116218791D01*
X69869296Y-116012616D01*
X69924564Y-115794368D01*
X69943156Y-115570000D01*
X69924564Y-115345632D01*
X69869296Y-115127384D01*
X69778860Y-114921209D01*
X69655722Y-114732732D01*
X69655719Y-114732729D01*
X69655715Y-114732723D01*
X69503243Y-114567097D01*
X69503238Y-114567092D01*
X69325577Y-114428812D01*
X69325572Y-114428808D01*
X69127580Y-114321661D01*
X69127577Y-114321659D01*
X69127574Y-114321658D01*
X69127571Y-114321657D01*
X69127569Y-114321656D01*
X68914637Y-114248556D01*
X68692569Y-114211500D01*
X68467431Y-114211500D01*
X68245362Y-114248556D01*
X68032430Y-114321656D01*
X68032419Y-114321661D01*
X67834427Y-114428808D01*
X67834422Y-114428812D01*
X67656761Y-114567092D01*
X67656756Y-114567097D01*
X67504284Y-114732723D01*
X67504276Y-114732734D01*
X67381140Y-114921207D01*
X67290703Y-115127385D01*
X67235436Y-115345628D01*
X67235434Y-115345640D01*
X67216844Y-115569994D01*
X67216844Y-115570005D01*
X57620500Y-115570005D01*
X57620500Y-107950005D01*
X67216844Y-107950005D01*
X67235434Y-108174359D01*
X67235436Y-108174371D01*
X67290703Y-108392614D01*
X67381140Y-108598792D01*
X67504276Y-108787265D01*
X67504278Y-108787268D01*
X67655707Y-108951762D01*
X67686629Y-109014415D01*
X67678769Y-109083841D01*
X67634622Y-109137997D01*
X67607811Y-109151926D01*
X67487912Y-109196646D01*
X67487906Y-109196649D01*
X67372812Y-109282809D01*
X67372809Y-109282812D01*
X67286649Y-109397906D01*
X67286645Y-109397913D01*
X67236403Y-109532620D01*
X67236401Y-109532627D01*
X67230000Y-109592155D01*
X67230000Y-110240000D01*
X68146314Y-110240000D01*
X68120507Y-110280156D01*
X68080000Y-110418111D01*
X68080000Y-110561889D01*
X68120507Y-110699844D01*
X68146314Y-110740000D01*
X67230000Y-110740000D01*
X67230000Y-111387844D01*
X67236401Y-111447372D01*
X67236403Y-111447379D01*
X67286645Y-111582086D01*
X67286649Y-111582093D01*
X67372809Y-111697187D01*
X67372812Y-111697190D01*
X67487906Y-111783350D01*
X67487913Y-111783354D01*
X67622620Y-111833596D01*
X67622627Y-111833598D01*
X67682155Y-111839999D01*
X67682172Y-111840000D01*
X68330000Y-111840000D01*
X68330000Y-110925501D01*
X68437685Y-110974680D01*
X68544237Y-110990000D01*
X68615763Y-110990000D01*
X68722315Y-110974680D01*
X68830000Y-110925501D01*
X68830000Y-111840000D01*
X69477828Y-111840000D01*
X69477844Y-111839999D01*
X69537372Y-111833598D01*
X69537379Y-111833596D01*
X69672086Y-111783354D01*
X69672093Y-111783350D01*
X69787187Y-111697190D01*
X69787190Y-111697187D01*
X69873350Y-111582093D01*
X69873354Y-111582086D01*
X69923596Y-111447379D01*
X69923598Y-111447372D01*
X69929999Y-111387844D01*
X69930000Y-111387827D01*
X69930000Y-110740000D01*
X69013686Y-110740000D01*
X69039493Y-110699844D01*
X69080000Y-110561889D01*
X69080000Y-110418111D01*
X69039493Y-110280156D01*
X69013686Y-110240000D01*
X69930000Y-110240000D01*
X69930000Y-109592172D01*
X69929999Y-109592155D01*
X69923598Y-109532627D01*
X69923596Y-109532620D01*
X69873354Y-109397913D01*
X69873350Y-109397906D01*
X69787190Y-109282812D01*
X69787187Y-109282809D01*
X69672093Y-109196649D01*
X69672088Y-109196646D01*
X69552188Y-109151926D01*
X69496255Y-109110054D01*
X69471838Y-109044590D01*
X69486690Y-108976317D01*
X69504286Y-108951769D01*
X69655722Y-108787268D01*
X69778860Y-108598791D01*
X69869296Y-108392616D01*
X69924564Y-108174368D01*
X69943156Y-107950000D01*
X69924564Y-107725632D01*
X69869296Y-107507384D01*
X69778860Y-107301209D01*
X69761579Y-107274759D01*
X69689808Y-107164905D01*
X69655722Y-107112732D01*
X69655719Y-107112729D01*
X69655715Y-107112723D01*
X69503243Y-106947097D01*
X69503238Y-106947092D01*
X69325577Y-106808812D01*
X69325572Y-106808808D01*
X69127580Y-106701661D01*
X69127577Y-106701659D01*
X69127574Y-106701658D01*
X69127571Y-106701657D01*
X69127569Y-106701656D01*
X68914637Y-106628556D01*
X68692569Y-106591500D01*
X68467431Y-106591500D01*
X68245362Y-106628556D01*
X68032430Y-106701656D01*
X68032419Y-106701661D01*
X67834427Y-106808808D01*
X67834422Y-106808812D01*
X67656761Y-106947092D01*
X67656756Y-106947097D01*
X67504284Y-107112723D01*
X67504276Y-107112734D01*
X67381140Y-107301207D01*
X67290703Y-107507385D01*
X67235436Y-107725628D01*
X67235434Y-107725640D01*
X67216844Y-107949994D01*
X67216844Y-107950005D01*
X57620500Y-107950005D01*
X57620500Y-91465000D01*
X61465001Y-91465000D01*
X61465001Y-91589986D01*
X61475494Y-91692697D01*
X61530641Y-91859119D01*
X61530643Y-91859124D01*
X61622684Y-92008345D01*
X61746654Y-92132315D01*
X61895875Y-92224356D01*
X61895880Y-92224358D01*
X62062302Y-92279505D01*
X62062309Y-92279506D01*
X62165019Y-92289999D01*
X62614999Y-92289999D01*
X62615000Y-92289998D01*
X62615000Y-91465000D01*
X63115000Y-91465000D01*
X63115000Y-92289999D01*
X63564972Y-92289999D01*
X63564986Y-92289998D01*
X63667697Y-92279505D01*
X63834119Y-92224358D01*
X63834124Y-92224356D01*
X63983345Y-92132315D01*
X64107315Y-92008345D01*
X64199356Y-91859124D01*
X64199358Y-91859119D01*
X64254505Y-91692697D01*
X64254506Y-91692690D01*
X64264999Y-91589986D01*
X64265000Y-91589973D01*
X64265000Y-91465000D01*
X63115000Y-91465000D01*
X62615000Y-91465000D01*
X61465001Y-91465000D01*
X57620500Y-91465000D01*
X57620500Y-90965000D01*
X61465000Y-90965000D01*
X62615000Y-90965000D01*
X62615000Y-90140000D01*
X63115000Y-90140000D01*
X63115000Y-90965000D01*
X64264999Y-90965000D01*
X64264999Y-90840028D01*
X64264998Y-90840013D01*
X64254505Y-90737302D01*
X64199358Y-90570880D01*
X64199356Y-90570875D01*
X64107315Y-90421654D01*
X63983345Y-90297684D01*
X63834124Y-90205643D01*
X63834119Y-90205641D01*
X63667697Y-90150494D01*
X63667690Y-90150493D01*
X63564986Y-90140000D01*
X63115000Y-90140000D01*
X62615000Y-90140000D01*
X62165028Y-90140000D01*
X62165012Y-90140001D01*
X62062302Y-90150494D01*
X61895880Y-90205641D01*
X61895875Y-90205643D01*
X61746654Y-90297684D01*
X61622684Y-90421654D01*
X61530643Y-90570875D01*
X61530641Y-90570880D01*
X61475494Y-90737302D01*
X61475493Y-90737309D01*
X61465000Y-90840013D01*
X61465000Y-90965000D01*
X57620500Y-90965000D01*
X57620500Y-85720005D01*
X58961844Y-85720005D01*
X58980434Y-85944359D01*
X58980436Y-85944371D01*
X59035703Y-86162614D01*
X59126140Y-86368792D01*
X59249276Y-86557265D01*
X59249284Y-86557276D01*
X59401756Y-86722902D01*
X59401761Y-86722907D01*
X59445157Y-86756684D01*
X59579424Y-86861189D01*
X59579425Y-86861189D01*
X59579427Y-86861191D01*
X59660823Y-86905240D01*
X59777426Y-86968342D01*
X59990365Y-87041444D01*
X60212431Y-87078500D01*
X60437569Y-87078500D01*
X60659630Y-87041445D01*
X60659631Y-87041444D01*
X60659635Y-87041444D01*
X60659637Y-87041442D01*
X60663849Y-87040376D01*
X60733669Y-87042988D01*
X60781991Y-87072895D01*
X61428001Y-87718905D01*
X61461486Y-87780228D01*
X61463678Y-87819188D01*
X61456500Y-87889445D01*
X61456500Y-88640537D01*
X61456501Y-88640553D01*
X61467113Y-88744427D01*
X61476232Y-88771946D01*
X61522885Y-88912738D01*
X61615970Y-89063652D01*
X61741348Y-89189030D01*
X61892262Y-89282115D01*
X62060574Y-89337887D01*
X62164455Y-89348500D01*
X63565544Y-89348499D01*
X63669426Y-89337887D01*
X63837738Y-89282115D01*
X63988652Y-89189030D01*
X64114030Y-89063652D01*
X64148423Y-89007893D01*
X64179566Y-88957403D01*
X64231514Y-88910678D01*
X64285104Y-88898500D01*
X65091234Y-88898500D01*
X65158273Y-88918185D01*
X65178915Y-88934819D01*
X68903378Y-92659282D01*
X68936863Y-92720605D01*
X68939018Y-92734001D01*
X68941739Y-92759885D01*
X68956458Y-92899928D01*
X68956459Y-92899931D01*
X69015470Y-93081549D01*
X69015473Y-93081556D01*
X69110960Y-93246944D01*
X69186944Y-93331333D01*
X69237413Y-93387385D01*
X69238747Y-93388866D01*
X69393248Y-93501118D01*
X69567712Y-93578794D01*
X69754513Y-93618500D01*
X69945487Y-93618500D01*
X70132288Y-93578794D01*
X70306752Y-93501118D01*
X70461253Y-93388866D01*
X70589040Y-93246944D01*
X70684527Y-93081556D01*
X70743542Y-92899928D01*
X70763504Y-92710000D01*
X70743542Y-92520072D01*
X70684527Y-92338444D01*
X70589040Y-92173056D01*
X70461253Y-92031134D01*
X70306752Y-91918882D01*
X70132288Y-91841206D01*
X70132286Y-91841205D01*
X69945487Y-91801500D01*
X69888767Y-91801500D01*
X69821728Y-91781815D01*
X69801086Y-91765181D01*
X65912088Y-87876183D01*
X65902187Y-87863823D01*
X65901977Y-87863998D01*
X65897002Y-87857986D01*
X65897000Y-87857982D01*
X65859092Y-87822384D01*
X65845922Y-87810016D01*
X65824768Y-87788863D01*
X65822792Y-87787331D01*
X65819183Y-87784531D01*
X65814750Y-87780744D01*
X65814200Y-87780228D01*
X65780321Y-87748414D01*
X65780319Y-87748412D01*
X65762431Y-87738578D01*
X65746170Y-87727897D01*
X65730039Y-87715384D01*
X65686693Y-87696627D01*
X65681445Y-87694056D01*
X65654251Y-87679106D01*
X65640060Y-87671305D01*
X65636660Y-87670432D01*
X65620287Y-87666228D01*
X65601881Y-87659926D01*
X65583144Y-87651818D01*
X65583146Y-87651818D01*
X65536496Y-87644430D01*
X65530781Y-87643246D01*
X65510612Y-87638068D01*
X65485032Y-87631500D01*
X65485030Y-87631500D01*
X65464616Y-87631500D01*
X65445560Y-87630000D01*
X68936496Y-87630000D01*
X68956458Y-87819928D01*
X68956459Y-87819931D01*
X69015470Y-88001549D01*
X69015473Y-88001556D01*
X69110960Y-88166944D01*
X69213290Y-88280594D01*
X69237413Y-88307385D01*
X69238747Y-88308866D01*
X69393248Y-88421118D01*
X69567712Y-88498794D01*
X69754513Y-88538500D01*
X69811234Y-88538500D01*
X69878273Y-88558185D01*
X69898915Y-88574819D01*
X70995181Y-89671085D01*
X71028666Y-89732408D01*
X71031500Y-89758766D01*
X71031500Y-107141366D01*
X71029761Y-107157113D01*
X71030032Y-107157139D01*
X71029298Y-107164905D01*
X71031500Y-107234957D01*
X71031500Y-107264859D01*
X71032384Y-107271856D01*
X71032842Y-107277679D01*
X71034326Y-107324889D01*
X71034327Y-107324891D01*
X71040022Y-107344495D01*
X71043967Y-107363542D01*
X71046526Y-107383797D01*
X71046527Y-107383800D01*
X71046528Y-107383803D01*
X71063914Y-107427716D01*
X71065806Y-107433244D01*
X71078981Y-107478592D01*
X71089372Y-107496162D01*
X71097932Y-107513635D01*
X71105447Y-107532617D01*
X71133209Y-107570827D01*
X71136416Y-107575710D01*
X71160458Y-107616362D01*
X71160462Y-107616366D01*
X71174889Y-107630793D01*
X71187526Y-107645588D01*
X71199528Y-107662107D01*
X71235931Y-107692222D01*
X71240231Y-107696135D01*
X80115855Y-116571760D01*
X82873379Y-119329284D01*
X82906864Y-119390607D01*
X82909018Y-119403999D01*
X82926458Y-119569928D01*
X82926459Y-119569931D01*
X82985470Y-119751549D01*
X82985473Y-119751556D01*
X83080960Y-119916944D01*
X83208747Y-120058866D01*
X83363248Y-120171118D01*
X83537712Y-120248794D01*
X83724513Y-120288500D01*
X83915487Y-120288500D01*
X84102288Y-120248794D01*
X84276752Y-120171118D01*
X84431253Y-120058866D01*
X84559040Y-119916944D01*
X84654527Y-119751556D01*
X84713542Y-119569928D01*
X84733504Y-119380000D01*
X84713542Y-119190072D01*
X84654527Y-119008444D01*
X84559040Y-118843056D01*
X84431253Y-118701134D01*
X84276752Y-118588882D01*
X84102288Y-118511206D01*
X84102286Y-118511205D01*
X83915487Y-118471500D01*
X83858766Y-118471500D01*
X83791727Y-118451815D01*
X83771085Y-118435181D01*
X72334819Y-106998914D01*
X72301334Y-106937591D01*
X72298500Y-106911233D01*
X72298500Y-102870005D01*
X77376844Y-102870005D01*
X77395434Y-103094359D01*
X77395436Y-103094371D01*
X77450703Y-103312614D01*
X77541140Y-103518792D01*
X77652243Y-103688847D01*
X77664278Y-103707268D01*
X77815707Y-103871762D01*
X77846629Y-103934415D01*
X77838769Y-104003841D01*
X77794622Y-104057997D01*
X77767811Y-104071926D01*
X77647912Y-104116646D01*
X77647906Y-104116649D01*
X77532812Y-104202809D01*
X77532809Y-104202812D01*
X77446649Y-104317906D01*
X77446645Y-104317913D01*
X77396403Y-104452620D01*
X77396401Y-104452627D01*
X77390000Y-104512155D01*
X77390000Y-105160000D01*
X78306314Y-105160000D01*
X78280507Y-105200156D01*
X78240000Y-105338111D01*
X78240000Y-105481889D01*
X78280507Y-105619844D01*
X78306314Y-105660000D01*
X77390000Y-105660000D01*
X77390000Y-106307844D01*
X77396401Y-106367372D01*
X77396403Y-106367379D01*
X77446645Y-106502086D01*
X77446649Y-106502093D01*
X77532809Y-106617187D01*
X77532812Y-106617190D01*
X77647906Y-106703350D01*
X77647913Y-106703354D01*
X77782620Y-106753596D01*
X77782627Y-106753598D01*
X77842155Y-106759999D01*
X77842172Y-106760000D01*
X78490000Y-106760000D01*
X78490000Y-105845501D01*
X78597685Y-105894680D01*
X78704237Y-105910000D01*
X78775763Y-105910000D01*
X78882315Y-105894680D01*
X78990000Y-105845501D01*
X78990000Y-106760000D01*
X79637828Y-106760000D01*
X79637844Y-106759999D01*
X79697372Y-106753598D01*
X79697379Y-106753596D01*
X79832086Y-106703354D01*
X79832093Y-106703350D01*
X79947187Y-106617190D01*
X79947190Y-106617187D01*
X80033350Y-106502093D01*
X80033354Y-106502086D01*
X80083596Y-106367379D01*
X80083598Y-106367372D01*
X80089999Y-106307844D01*
X80090000Y-106307827D01*
X80090000Y-105660000D01*
X79173686Y-105660000D01*
X79199493Y-105619844D01*
X79240000Y-105481889D01*
X79240000Y-105338111D01*
X79199493Y-105200156D01*
X79173686Y-105160000D01*
X80090000Y-105160000D01*
X80090000Y-104512172D01*
X80089999Y-104512155D01*
X80083598Y-104452627D01*
X80083596Y-104452620D01*
X80033354Y-104317913D01*
X80033350Y-104317906D01*
X79947190Y-104202812D01*
X79947187Y-104202809D01*
X79832093Y-104116649D01*
X79832088Y-104116646D01*
X79712188Y-104071926D01*
X79656255Y-104030054D01*
X79631838Y-103964590D01*
X79646690Y-103896317D01*
X79664286Y-103871769D01*
X79815722Y-103707268D01*
X79938860Y-103518791D01*
X80029296Y-103312616D01*
X80084564Y-103094368D01*
X80087615Y-103057550D01*
X80103156Y-102870005D01*
X80103156Y-102869994D01*
X80084565Y-102645640D01*
X80084563Y-102645628D01*
X80051357Y-102514500D01*
X80029296Y-102427384D01*
X79938860Y-102221209D01*
X79815722Y-102032732D01*
X79815719Y-102032729D01*
X79815715Y-102032723D01*
X79663243Y-101867097D01*
X79663238Y-101867092D01*
X79485577Y-101728812D01*
X79485578Y-101728812D01*
X79485576Y-101728811D01*
X79449070Y-101709055D01*
X79399479Y-101659836D01*
X79384371Y-101591619D01*
X79408541Y-101526064D01*
X79449070Y-101490945D01*
X79459512Y-101485294D01*
X79485576Y-101471189D01*
X79663240Y-101332906D01*
X79803842Y-101180173D01*
X79815715Y-101167276D01*
X79815716Y-101167274D01*
X79815722Y-101167268D01*
X79938860Y-100978791D01*
X80029296Y-100772616D01*
X80084564Y-100554368D01*
X80084798Y-100551549D01*
X80103156Y-100330005D01*
X80103156Y-100329994D01*
X80084565Y-100105640D01*
X80084563Y-100105628D01*
X80067973Y-100040115D01*
X80029296Y-99887384D01*
X79938860Y-99681209D01*
X79931462Y-99669886D01*
X79842356Y-99533498D01*
X79815722Y-99492732D01*
X79815719Y-99492729D01*
X79815715Y-99492723D01*
X79663243Y-99327097D01*
X79663238Y-99327092D01*
X79485577Y-99188812D01*
X79485578Y-99188812D01*
X79485576Y-99188811D01*
X79449070Y-99169055D01*
X79399479Y-99119836D01*
X79384371Y-99051619D01*
X79408541Y-98986064D01*
X79449070Y-98950945D01*
X79449084Y-98950936D01*
X79485576Y-98931189D01*
X79663240Y-98792906D01*
X79815722Y-98627268D01*
X79938860Y-98438791D01*
X80029296Y-98232616D01*
X80084564Y-98014368D01*
X80084565Y-98014359D01*
X80103156Y-97790005D01*
X80103156Y-97789994D01*
X80084565Y-97565640D01*
X80084563Y-97565628D01*
X80029296Y-97347385D01*
X79998399Y-97276947D01*
X79938860Y-97141209D01*
X79815722Y-96952732D01*
X79815719Y-96952729D01*
X79815715Y-96952723D01*
X79663243Y-96787097D01*
X79663238Y-96787092D01*
X79513930Y-96670880D01*
X79485576Y-96648811D01*
X79449070Y-96629055D01*
X79399479Y-96579836D01*
X79384371Y-96511619D01*
X79408541Y-96446064D01*
X79449070Y-96410945D01*
X79449084Y-96410936D01*
X79485576Y-96391189D01*
X79512793Y-96370005D01*
X90396844Y-96370005D01*
X90415434Y-96594359D01*
X90415436Y-96594371D01*
X90470703Y-96812614D01*
X90561140Y-97018792D01*
X90661937Y-97173072D01*
X90684278Y-97207268D01*
X90835707Y-97371762D01*
X90866629Y-97434415D01*
X90858769Y-97503841D01*
X90814622Y-97557997D01*
X90787811Y-97571926D01*
X90667912Y-97616646D01*
X90667906Y-97616649D01*
X90552812Y-97702809D01*
X90552809Y-97702812D01*
X90466649Y-97817906D01*
X90466645Y-97817913D01*
X90416403Y-97952620D01*
X90416401Y-97952627D01*
X90410000Y-98012155D01*
X90410000Y-98660000D01*
X91326314Y-98660000D01*
X91300507Y-98700156D01*
X91260000Y-98838111D01*
X91260000Y-98981889D01*
X91300507Y-99119844D01*
X91326314Y-99160000D01*
X90410000Y-99160000D01*
X90410000Y-99807844D01*
X90416401Y-99867372D01*
X90416403Y-99867379D01*
X90466645Y-100002086D01*
X90466649Y-100002093D01*
X90552809Y-100117187D01*
X90552812Y-100117190D01*
X90667906Y-100203350D01*
X90667913Y-100203354D01*
X90802620Y-100253596D01*
X90802627Y-100253598D01*
X90862155Y-100259999D01*
X90862172Y-100260000D01*
X91510000Y-100260000D01*
X91510000Y-99345501D01*
X91617685Y-99394680D01*
X91724237Y-99410000D01*
X91795763Y-99410000D01*
X91902315Y-99394680D01*
X92010000Y-99345501D01*
X92010000Y-100260000D01*
X92657828Y-100260000D01*
X92657844Y-100259999D01*
X92717372Y-100253598D01*
X92717379Y-100253596D01*
X92852086Y-100203354D01*
X92852093Y-100203350D01*
X92967187Y-100117190D01*
X92967190Y-100117187D01*
X93053350Y-100002093D01*
X93053354Y-100002086D01*
X93103596Y-99867379D01*
X93103598Y-99867372D01*
X93109999Y-99807844D01*
X93110000Y-99807827D01*
X93110000Y-99160000D01*
X92193686Y-99160000D01*
X92219493Y-99119844D01*
X92260000Y-98981889D01*
X92260000Y-98838111D01*
X92219493Y-98700156D01*
X92193686Y-98660000D01*
X93102734Y-98660000D01*
X93169773Y-98679685D01*
X93190414Y-98696318D01*
X95435870Y-100941775D01*
X97662912Y-103168817D01*
X97672816Y-103181178D01*
X97673026Y-103181005D01*
X97678001Y-103187019D01*
X97729078Y-103234984D01*
X97750224Y-103256130D01*
X97755813Y-103260466D01*
X97760245Y-103264252D01*
X97787787Y-103290114D01*
X97794680Y-103296587D01*
X97812562Y-103306417D01*
X97828829Y-103317102D01*
X97844960Y-103329615D01*
X97866838Y-103339081D01*
X97888307Y-103348371D01*
X97893533Y-103350931D01*
X97934940Y-103373695D01*
X97954716Y-103378772D01*
X97973122Y-103385074D01*
X97979629Y-103387890D01*
X98033333Y-103432585D01*
X98054348Y-103499219D01*
X98036002Y-103566637D01*
X98022525Y-103584658D01*
X98005959Y-103603057D01*
X97910473Y-103768443D01*
X97910470Y-103768450D01*
X97854693Y-103940116D01*
X97851458Y-103950072D01*
X97831496Y-104140000D01*
X97851458Y-104329928D01*
X97851459Y-104329931D01*
X97910470Y-104511549D01*
X97910473Y-104511556D01*
X98005960Y-104676944D01*
X98133747Y-104818866D01*
X98288248Y-104931118D01*
X98462712Y-105008794D01*
X98649513Y-105048500D01*
X98840487Y-105048500D01*
X99027288Y-105008794D01*
X99201752Y-104931118D01*
X99356253Y-104818866D01*
X99479469Y-104682020D01*
X99538952Y-104645374D01*
X99608809Y-104646703D01*
X99647103Y-104666619D01*
X99705622Y-104711523D01*
X99705625Y-104711525D01*
X99798966Y-104750187D01*
X99853650Y-104772838D01*
X99972615Y-104788500D01*
X101327384Y-104788499D01*
X101327386Y-104788499D01*
X101446342Y-104772839D01*
X101446341Y-104772839D01*
X101446350Y-104772838D01*
X101594376Y-104711524D01*
X101721487Y-104613987D01*
X101819024Y-104486876D01*
X101880338Y-104338850D01*
X101896000Y-104219885D01*
X101895999Y-103940116D01*
X101894471Y-103928512D01*
X101892355Y-103912435D01*
X101880338Y-103821150D01*
X101872593Y-103802454D01*
X101865124Y-103732986D01*
X101872594Y-103707545D01*
X101872710Y-103707265D01*
X101880338Y-103688850D01*
X101896000Y-103569886D01*
X105129000Y-103569886D01*
X105144660Y-103688847D01*
X105144661Y-103688848D01*
X105157007Y-103718655D01*
X105164475Y-103788124D01*
X105157009Y-103813552D01*
X105152944Y-103823365D01*
X105145487Y-103880000D01*
X105177917Y-103880000D01*
X105244956Y-103899685D01*
X105276291Y-103928511D01*
X105303513Y-103963987D01*
X105303514Y-103963988D01*
X105303516Y-103963990D01*
X105425542Y-104057625D01*
X105466744Y-104114053D01*
X105470899Y-104183799D01*
X105436686Y-104244719D01*
X105374969Y-104277471D01*
X105350055Y-104280000D01*
X105145490Y-104280000D01*
X105145488Y-104280001D01*
X105152942Y-104336627D01*
X105152944Y-104336633D01*
X105213399Y-104482585D01*
X105309575Y-104607924D01*
X105434913Y-104704100D01*
X105580865Y-104764554D01*
X105580869Y-104764555D01*
X105698176Y-104779999D01*
X106174999Y-104779999D01*
X106175000Y-104779998D01*
X106175000Y-104290106D01*
X106194685Y-104223067D01*
X106247489Y-104177312D01*
X106316647Y-104167368D01*
X106318398Y-104167633D01*
X106321853Y-104168180D01*
X106321855Y-104168181D01*
X106368505Y-104175569D01*
X106374208Y-104176749D01*
X106419970Y-104188500D01*
X106440384Y-104188500D01*
X106459776Y-104190025D01*
X106470394Y-104191707D01*
X106533529Y-104221634D01*
X106570463Y-104280944D01*
X106575000Y-104314181D01*
X106575000Y-104779999D01*
X107051824Y-104779999D01*
X107169128Y-104764557D01*
X107169133Y-104764555D01*
X107315085Y-104704100D01*
X107440424Y-104607924D01*
X107536600Y-104482586D01*
X107597054Y-104336634D01*
X107597055Y-104336629D01*
X107602364Y-104296314D01*
X107630631Y-104232417D01*
X107688956Y-104193947D01*
X107725303Y-104188500D01*
X128806366Y-104188500D01*
X128822113Y-104190238D01*
X128822139Y-104189968D01*
X128829905Y-104190701D01*
X128829909Y-104190702D01*
X128899958Y-104188500D01*
X128929856Y-104188500D01*
X128929857Y-104188500D01*
X128931222Y-104188327D01*
X128936862Y-104187614D01*
X128942685Y-104187156D01*
X128968708Y-104186338D01*
X128989890Y-104185673D01*
X128999681Y-104182827D01*
X129009481Y-104179980D01*
X129028538Y-104176032D01*
X129048797Y-104173474D01*
X129092721Y-104156082D01*
X129098221Y-104154199D01*
X129143593Y-104141018D01*
X129161165Y-104130625D01*
X129178632Y-104122068D01*
X129197617Y-104114552D01*
X129235826Y-104086790D01*
X129240704Y-104083585D01*
X129281362Y-104059542D01*
X129295802Y-104045100D01*
X129310592Y-104032470D01*
X129327107Y-104020472D01*
X129357222Y-103984067D01*
X129361126Y-103979776D01*
X130398585Y-102942318D01*
X130459908Y-102908833D01*
X130486266Y-102905999D01*
X131285537Y-102905999D01*
X131285544Y-102905999D01*
X131389426Y-102895387D01*
X131557738Y-102839615D01*
X131708652Y-102746530D01*
X131834030Y-102621152D01*
X131927115Y-102470238D01*
X131982887Y-102301926D01*
X131993500Y-102198045D01*
X131993499Y-101471956D01*
X131982887Y-101368074D01*
X131927115Y-101199762D01*
X131834030Y-101048848D01*
X131708652Y-100923470D01*
X131557738Y-100830385D01*
X131557735Y-100830384D01*
X131389427Y-100774613D01*
X131285545Y-100764000D01*
X129934462Y-100764000D01*
X129934446Y-100764001D01*
X129830572Y-100774613D01*
X129662264Y-100830384D01*
X129662259Y-100830386D01*
X129511346Y-100923471D01*
X129385971Y-101048846D01*
X129292886Y-101199759D01*
X129292884Y-101199764D01*
X129237113Y-101368072D01*
X129226500Y-101471947D01*
X129226500Y-102198037D01*
X129226502Y-102198058D01*
X129232056Y-102252433D01*
X129219286Y-102321126D01*
X129196379Y-102352714D01*
X128663914Y-102885181D01*
X128602591Y-102918666D01*
X128576233Y-102921500D01*
X128543044Y-102921500D01*
X128476005Y-102901815D01*
X128430250Y-102849011D01*
X128420306Y-102779853D01*
X128449331Y-102716297D01*
X128455363Y-102709819D01*
X128544030Y-102621152D01*
X128637115Y-102470238D01*
X128692887Y-102301926D01*
X128703500Y-102198045D01*
X128703499Y-101471956D01*
X128692887Y-101368074D01*
X128637115Y-101199762D01*
X128544030Y-101048848D01*
X128418652Y-100923470D01*
X128267738Y-100830385D01*
X128267735Y-100830384D01*
X128099427Y-100774613D01*
X127995545Y-100764000D01*
X126644462Y-100764000D01*
X126644446Y-100764001D01*
X126540572Y-100774613D01*
X126372264Y-100830384D01*
X126372259Y-100830386D01*
X126221346Y-100923471D01*
X126095971Y-101048846D01*
X126002886Y-101199759D01*
X126002884Y-101199764D01*
X125947113Y-101368072D01*
X125936500Y-101471947D01*
X125936500Y-102198037D01*
X125936502Y-102198058D01*
X125942056Y-102252432D01*
X125929286Y-102321124D01*
X125906381Y-102352712D01*
X125853915Y-102405180D01*
X125792592Y-102438666D01*
X125766232Y-102441500D01*
X119683766Y-102441500D01*
X119616727Y-102421815D01*
X119570972Y-102369011D01*
X119561028Y-102299853D01*
X119590053Y-102236297D01*
X119596085Y-102229819D01*
X122585106Y-99240798D01*
X125593009Y-96232894D01*
X125654330Y-96199411D01*
X125711128Y-96200371D01*
X125715359Y-96201442D01*
X125715365Y-96201444D01*
X125937431Y-96238500D01*
X126162569Y-96238500D01*
X126384635Y-96201444D01*
X126522237Y-96154204D01*
X126592035Y-96151055D01*
X126652457Y-96186141D01*
X126684317Y-96248323D01*
X126686500Y-96271486D01*
X126686500Y-97722727D01*
X126666815Y-97789766D01*
X126614011Y-97835521D01*
X126575104Y-97846085D01*
X126540572Y-97849613D01*
X126372264Y-97905384D01*
X126372259Y-97905386D01*
X126221346Y-97998471D01*
X126095971Y-98123846D01*
X126002886Y-98274759D01*
X126002884Y-98274764D01*
X125947113Y-98443072D01*
X125936500Y-98546947D01*
X125936500Y-99273037D01*
X125936501Y-99273053D01*
X125947113Y-99376927D01*
X126002884Y-99545235D01*
X126002886Y-99545240D01*
X126014087Y-99563400D01*
X126095970Y-99696152D01*
X126221348Y-99821530D01*
X126372262Y-99914615D01*
X126540574Y-99970387D01*
X126644455Y-99981000D01*
X127995544Y-99980999D01*
X128099426Y-99970387D01*
X128267738Y-99914615D01*
X128418652Y-99821530D01*
X128544030Y-99696152D01*
X128637115Y-99545238D01*
X128692887Y-99376926D01*
X128703500Y-99273045D01*
X128703499Y-98546956D01*
X128692887Y-98443074D01*
X128637115Y-98274762D01*
X128544030Y-98123848D01*
X128418652Y-97998470D01*
X128267738Y-97905385D01*
X128267735Y-97905384D01*
X128099427Y-97849613D01*
X128064896Y-97846085D01*
X128000205Y-97819688D01*
X127960054Y-97762507D01*
X127953500Y-97722727D01*
X127953500Y-96463765D01*
X127973185Y-96396726D01*
X127989810Y-96376093D01*
X128133010Y-96232892D01*
X128194329Y-96199410D01*
X128251143Y-96200374D01*
X128255356Y-96201441D01*
X128255365Y-96201444D01*
X128477431Y-96238500D01*
X128702569Y-96238500D01*
X128924635Y-96201444D01*
X129137574Y-96128342D01*
X129335576Y-96021189D01*
X129513240Y-95882906D01*
X129665722Y-95717268D01*
X129756193Y-95578790D01*
X129809338Y-95533437D01*
X129878569Y-95524013D01*
X129941905Y-95553515D01*
X129963804Y-95578787D01*
X130054278Y-95717268D01*
X130054283Y-95717273D01*
X130054284Y-95717276D01*
X130180968Y-95854889D01*
X130206760Y-95882906D01*
X130384424Y-96021189D01*
X130384426Y-96021190D01*
X130384433Y-96021195D01*
X130431516Y-96046674D01*
X130481107Y-96095892D01*
X130496500Y-96155729D01*
X130496500Y-97715000D01*
X130476815Y-97782039D01*
X130424011Y-97827794D01*
X130372500Y-97839000D01*
X129934462Y-97839000D01*
X129934446Y-97839001D01*
X129830572Y-97849613D01*
X129662264Y-97905384D01*
X129662259Y-97905386D01*
X129511346Y-97998471D01*
X129385971Y-98123846D01*
X129292886Y-98274759D01*
X129292884Y-98274764D01*
X129237113Y-98443072D01*
X129226500Y-98546947D01*
X129226500Y-99273037D01*
X129226501Y-99273053D01*
X129237113Y-99376927D01*
X129292884Y-99545235D01*
X129292886Y-99545240D01*
X129304087Y-99563400D01*
X129385970Y-99696152D01*
X129511348Y-99821530D01*
X129662262Y-99914615D01*
X129830574Y-99970387D01*
X129934455Y-99981000D01*
X131285544Y-99980999D01*
X131389426Y-99970387D01*
X131557738Y-99914615D01*
X131708652Y-99821530D01*
X131834030Y-99696152D01*
X131927115Y-99545238D01*
X131982887Y-99376926D01*
X131993500Y-99273045D01*
X131993499Y-98546956D01*
X131982887Y-98443074D01*
X131927115Y-98274762D01*
X131834030Y-98123848D01*
X131799819Y-98089637D01*
X131766334Y-98028314D01*
X131763500Y-98001956D01*
X131763500Y-96155729D01*
X131783185Y-96088690D01*
X131828484Y-96046674D01*
X131875566Y-96021195D01*
X131875572Y-96021191D01*
X131875576Y-96021189D01*
X132053240Y-95882906D01*
X132205722Y-95717268D01*
X132328860Y-95528791D01*
X132419296Y-95322616D01*
X132474564Y-95104368D01*
X132479884Y-95040165D01*
X132493156Y-94880005D01*
X132493156Y-94879994D01*
X132474565Y-94655640D01*
X132474563Y-94655628D01*
X132429782Y-94478792D01*
X132419296Y-94437384D01*
X132328860Y-94231209D01*
X132312706Y-94206484D01*
X132248894Y-94108812D01*
X132205722Y-94042732D01*
X132205719Y-94042729D01*
X132205715Y-94042723D01*
X132053243Y-93877097D01*
X132053238Y-93877092D01*
X131933371Y-93783795D01*
X131875576Y-93738811D01*
X131875575Y-93738810D01*
X131875572Y-93738808D01*
X131677580Y-93631661D01*
X131677577Y-93631659D01*
X131677574Y-93631658D01*
X131677571Y-93631657D01*
X131677569Y-93631656D01*
X131464637Y-93558556D01*
X131242569Y-93521500D01*
X131017431Y-93521500D01*
X130795362Y-93558556D01*
X130582430Y-93631656D01*
X130582419Y-93631661D01*
X130384427Y-93738808D01*
X130384422Y-93738812D01*
X130206761Y-93877092D01*
X130206756Y-93877097D01*
X130054284Y-94042723D01*
X130054276Y-94042734D01*
X129963808Y-94181206D01*
X129910662Y-94226562D01*
X129841431Y-94235986D01*
X129778095Y-94206484D01*
X129756192Y-94181206D01*
X129665723Y-94042734D01*
X129665715Y-94042723D01*
X129513243Y-93877097D01*
X129513238Y-93877092D01*
X129393371Y-93783795D01*
X129335576Y-93738811D01*
X129335575Y-93738810D01*
X129335572Y-93738808D01*
X129137580Y-93631661D01*
X129137577Y-93631659D01*
X129137574Y-93631658D01*
X129137571Y-93631657D01*
X129137569Y-93631656D01*
X128924637Y-93558556D01*
X128702569Y-93521500D01*
X128477431Y-93521500D01*
X128255362Y-93558556D01*
X128042430Y-93631656D01*
X128042419Y-93631661D01*
X127844427Y-93738808D01*
X127844422Y-93738812D01*
X127666761Y-93877092D01*
X127666756Y-93877097D01*
X127514284Y-94042723D01*
X127514276Y-94042734D01*
X127423808Y-94181206D01*
X127370662Y-94226562D01*
X127301431Y-94235986D01*
X127238095Y-94206484D01*
X127216192Y-94181206D01*
X127125723Y-94042734D01*
X127125715Y-94042723D01*
X126973243Y-93877097D01*
X126973238Y-93877092D01*
X126853371Y-93783795D01*
X126795576Y-93738811D01*
X126795575Y-93738810D01*
X126795572Y-93738808D01*
X126597580Y-93631661D01*
X126597577Y-93631659D01*
X126597574Y-93631658D01*
X126597571Y-93631657D01*
X126597569Y-93631656D01*
X126384637Y-93558556D01*
X126162569Y-93521500D01*
X125937431Y-93521500D01*
X125715362Y-93558556D01*
X125502430Y-93631656D01*
X125502419Y-93631661D01*
X125304427Y-93738808D01*
X125304422Y-93738812D01*
X125126761Y-93877092D01*
X125126756Y-93877097D01*
X124974284Y-94042723D01*
X124974276Y-94042734D01*
X124883808Y-94181206D01*
X124830662Y-94226562D01*
X124761431Y-94235986D01*
X124698095Y-94206484D01*
X124676192Y-94181206D01*
X124585723Y-94042734D01*
X124585715Y-94042723D01*
X124433243Y-93877097D01*
X124433238Y-93877092D01*
X124313371Y-93783795D01*
X124255576Y-93738811D01*
X124255575Y-93738810D01*
X124255572Y-93738808D01*
X124057580Y-93631661D01*
X124057577Y-93631659D01*
X124057574Y-93631658D01*
X124057571Y-93631657D01*
X124057569Y-93631656D01*
X123844637Y-93558556D01*
X123622569Y-93521500D01*
X123397431Y-93521500D01*
X123175362Y-93558556D01*
X122962430Y-93631656D01*
X122962419Y-93631661D01*
X122764427Y-93738808D01*
X122764422Y-93738812D01*
X122586761Y-93877092D01*
X122586756Y-93877097D01*
X122434284Y-94042723D01*
X122434276Y-94042734D01*
X122343808Y-94181206D01*
X122290662Y-94226562D01*
X122221431Y-94235986D01*
X122158095Y-94206484D01*
X122136192Y-94181206D01*
X122045723Y-94042734D01*
X122045715Y-94042723D01*
X121893243Y-93877097D01*
X121893238Y-93877092D01*
X121773371Y-93783795D01*
X121715576Y-93738811D01*
X121715575Y-93738810D01*
X121715572Y-93738808D01*
X121517580Y-93631661D01*
X121517577Y-93631659D01*
X121517574Y-93631658D01*
X121517571Y-93631657D01*
X121517569Y-93631656D01*
X121304637Y-93558556D01*
X121082569Y-93521500D01*
X120857431Y-93521500D01*
X120635362Y-93558556D01*
X120422430Y-93631656D01*
X120422419Y-93631661D01*
X120224427Y-93738808D01*
X120224422Y-93738812D01*
X120046761Y-93877092D01*
X120046756Y-93877097D01*
X119894284Y-94042723D01*
X119894276Y-94042734D01*
X119803808Y-94181206D01*
X119750662Y-94226562D01*
X119681431Y-94235986D01*
X119618095Y-94206484D01*
X119596192Y-94181206D01*
X119505723Y-94042734D01*
X119505715Y-94042723D01*
X119353243Y-93877097D01*
X119353238Y-93877092D01*
X119233371Y-93783795D01*
X119175576Y-93738811D01*
X119175575Y-93738810D01*
X119175572Y-93738808D01*
X118977580Y-93631661D01*
X118977577Y-93631659D01*
X118977574Y-93631658D01*
X118977571Y-93631657D01*
X118977569Y-93631656D01*
X118764637Y-93558556D01*
X118542569Y-93521500D01*
X118317431Y-93521500D01*
X118095362Y-93558556D01*
X117882430Y-93631656D01*
X117882419Y-93631661D01*
X117684427Y-93738808D01*
X117684422Y-93738812D01*
X117506761Y-93877092D01*
X117506756Y-93877097D01*
X117354284Y-94042723D01*
X117354276Y-94042734D01*
X117263808Y-94181206D01*
X117210662Y-94226562D01*
X117141431Y-94235986D01*
X117078095Y-94206484D01*
X117056192Y-94181206D01*
X116965723Y-94042734D01*
X116965715Y-94042723D01*
X116813243Y-93877097D01*
X116813238Y-93877092D01*
X116693371Y-93783795D01*
X116635576Y-93738811D01*
X116635575Y-93738810D01*
X116635572Y-93738808D01*
X116437580Y-93631661D01*
X116437577Y-93631659D01*
X116437574Y-93631658D01*
X116437571Y-93631657D01*
X116437569Y-93631656D01*
X116224637Y-93558556D01*
X116002569Y-93521500D01*
X115777431Y-93521500D01*
X115555362Y-93558556D01*
X115342430Y-93631656D01*
X115342419Y-93631661D01*
X115144427Y-93738808D01*
X115144422Y-93738812D01*
X114966761Y-93877092D01*
X114903548Y-93945760D01*
X114843661Y-93981750D01*
X114773823Y-93979649D01*
X114716207Y-93940124D01*
X114696138Y-93905110D01*
X114650889Y-93783796D01*
X114617214Y-93738812D01*
X114563261Y-93666739D01*
X114446204Y-93579111D01*
X114445354Y-93578794D01*
X114309203Y-93528011D01*
X114248654Y-93521500D01*
X114248638Y-93521500D01*
X112451362Y-93521500D01*
X112451345Y-93521500D01*
X112390797Y-93528011D01*
X112390795Y-93528011D01*
X112253795Y-93579111D01*
X112136739Y-93666739D01*
X112049111Y-93783795D01*
X111998011Y-93920795D01*
X111998011Y-93920797D01*
X111991500Y-93981345D01*
X111991500Y-95778654D01*
X111998011Y-95839202D01*
X111998011Y-95839204D01*
X112030902Y-95927385D01*
X112049111Y-95976204D01*
X112136739Y-96093261D01*
X112253796Y-96180889D01*
X112368949Y-96223839D01*
X112389490Y-96231501D01*
X112390799Y-96231989D01*
X112418050Y-96234918D01*
X112451345Y-96238499D01*
X112451362Y-96238500D01*
X112592500Y-96238500D01*
X112659539Y-96258185D01*
X112705294Y-96310989D01*
X112716500Y-96362500D01*
X112716500Y-96452727D01*
X112696815Y-96519766D01*
X112644011Y-96565521D01*
X112605104Y-96576085D01*
X112570572Y-96579613D01*
X112402264Y-96635384D01*
X112402259Y-96635386D01*
X112251346Y-96728471D01*
X112125971Y-96853846D01*
X112032886Y-97004759D01*
X112032884Y-97004764D01*
X111977113Y-97173072D01*
X111966500Y-97276947D01*
X111966500Y-98003037D01*
X111966502Y-98003058D01*
X111972056Y-98057434D01*
X111959285Y-98126127D01*
X111936379Y-98157715D01*
X110583914Y-99510181D01*
X110522591Y-99543666D01*
X110496233Y-99546500D01*
X109166336Y-99546500D01*
X109099297Y-99526815D01*
X109053542Y-99474011D01*
X109043598Y-99404853D01*
X109058948Y-99360501D01*
X109059195Y-99360072D01*
X109104527Y-99281556D01*
X109163542Y-99099928D01*
X109183504Y-98910000D01*
X109163542Y-98720072D01*
X109107290Y-98546947D01*
X109104529Y-98538450D01*
X109104528Y-98538449D01*
X109104527Y-98538444D01*
X109009040Y-98373056D01*
X108881253Y-98231134D01*
X108726752Y-98118882D01*
X108552288Y-98041206D01*
X108552286Y-98041205D01*
X108365487Y-98001500D01*
X108174513Y-98001500D01*
X107987714Y-98041205D01*
X107987712Y-98041206D01*
X107823138Y-98114479D01*
X107813246Y-98118883D01*
X107658745Y-98231135D01*
X107530959Y-98373057D01*
X107435473Y-98538443D01*
X107435470Y-98538450D01*
X107382929Y-98700156D01*
X107376458Y-98720072D01*
X107373465Y-98748546D01*
X107346881Y-98813160D01*
X107289583Y-98853144D01*
X107219764Y-98855804D01*
X107202694Y-98850145D01*
X107197940Y-98848176D01*
X107171350Y-98837162D01*
X107052385Y-98821500D01*
X105697613Y-98821500D01*
X105578657Y-98837160D01*
X105578646Y-98837163D01*
X105430627Y-98898474D01*
X105430624Y-98898475D01*
X105430624Y-98898476D01*
X105303513Y-98996013D01*
X105237795Y-99081658D01*
X105205974Y-99123127D01*
X105144663Y-99271146D01*
X105144661Y-99271151D01*
X105129000Y-99390114D01*
X105129000Y-99669886D01*
X105144660Y-99788844D01*
X105144662Y-99788851D01*
X105152407Y-99807550D01*
X105159874Y-99877019D01*
X105152408Y-99902447D01*
X105144663Y-99921146D01*
X105144661Y-99921151D01*
X105129000Y-100040114D01*
X105129000Y-100319886D01*
X105144660Y-100438844D01*
X105144662Y-100438851D01*
X105152407Y-100457550D01*
X105159874Y-100527019D01*
X105152408Y-100552447D01*
X105144663Y-100571146D01*
X105144661Y-100571151D01*
X105129000Y-100690114D01*
X105129000Y-100969886D01*
X105144660Y-101088844D01*
X105144662Y-101088851D01*
X105152407Y-101107550D01*
X105159874Y-101177019D01*
X105152408Y-101202447D01*
X105144663Y-101221146D01*
X105144661Y-101221151D01*
X105129000Y-101340114D01*
X105129000Y-101619886D01*
X105144660Y-101738844D01*
X105144662Y-101738851D01*
X105152407Y-101757550D01*
X105159874Y-101827019D01*
X105152408Y-101852447D01*
X105144663Y-101871146D01*
X105144661Y-101871151D01*
X105129000Y-101990114D01*
X105129000Y-102269886D01*
X105144660Y-102388844D01*
X105144662Y-102388851D01*
X105152407Y-102407550D01*
X105159874Y-102477019D01*
X105152408Y-102502447D01*
X105144663Y-102521146D01*
X105144661Y-102521151D01*
X105129000Y-102640114D01*
X105129000Y-102919886D01*
X105144660Y-103038844D01*
X105144662Y-103038851D01*
X105152407Y-103057550D01*
X105159874Y-103127019D01*
X105152408Y-103152447D01*
X105144663Y-103171146D01*
X105144661Y-103171151D01*
X105129000Y-103290114D01*
X105129000Y-103569886D01*
X101896000Y-103569886D01*
X101896000Y-103569885D01*
X101895999Y-103290116D01*
X101880338Y-103171150D01*
X101872593Y-103152454D01*
X101865124Y-103082986D01*
X101872594Y-103057545D01*
X101880338Y-103038850D01*
X101896000Y-102919885D01*
X101895999Y-102640116D01*
X101880338Y-102521150D01*
X101880337Y-102521148D01*
X101879462Y-102514500D01*
X101890203Y-102445518D01*
X101892094Y-102441500D01*
X101945824Y-102327318D01*
X101975816Y-102170094D01*
X101965766Y-102010350D01*
X101916305Y-101858125D01*
X101890527Y-101817506D01*
X101871227Y-101750356D01*
X101872286Y-101734878D01*
X101879512Y-101680000D01*
X101847083Y-101680000D01*
X101780044Y-101660315D01*
X101748708Y-101631488D01*
X101741165Y-101621658D01*
X101721487Y-101596013D01*
X101721485Y-101596012D01*
X101721485Y-101596011D01*
X101710153Y-101587316D01*
X101698502Y-101578375D01*
X101657299Y-101521949D01*
X101653144Y-101452203D01*
X101687355Y-101391283D01*
X101698498Y-101381627D01*
X101721487Y-101363987D01*
X101748708Y-101328511D01*
X101805137Y-101287310D01*
X101847083Y-101280000D01*
X101879510Y-101280000D01*
X101879511Y-101279998D01*
X101872756Y-101228684D01*
X101883522Y-101159649D01*
X101929903Y-101107393D01*
X101995695Y-101088500D01*
X102015487Y-101088500D01*
X102202288Y-101048794D01*
X102376752Y-100971118D01*
X102531253Y-100858866D01*
X102659040Y-100716944D01*
X102754527Y-100551556D01*
X102813542Y-100369928D01*
X102833504Y-100180000D01*
X102813542Y-99990072D01*
X102754527Y-99808444D01*
X102659040Y-99643056D01*
X102531253Y-99501134D01*
X102376752Y-99388882D01*
X102202288Y-99311206D01*
X102202286Y-99311205D01*
X102015487Y-99271500D01*
X101963337Y-99271500D01*
X101896298Y-99251815D01*
X101850543Y-99199011D01*
X101848776Y-99194952D01*
X101819025Y-99123126D01*
X101819024Y-99123125D01*
X101819024Y-99123124D01*
X101721487Y-98996013D01*
X101721485Y-98996011D01*
X101721484Y-98996010D01*
X101612957Y-98912733D01*
X101571755Y-98856305D01*
X101567600Y-98786559D01*
X101582906Y-98749261D01*
X101667115Y-98612738D01*
X101722887Y-98444426D01*
X101733500Y-98340545D01*
X101733500Y-97890000D01*
X102525001Y-97890000D01*
X102525001Y-98339986D01*
X102535494Y-98442697D01*
X102590641Y-98609119D01*
X102590643Y-98609124D01*
X102682684Y-98758345D01*
X102806654Y-98882315D01*
X102955875Y-98974356D01*
X102955880Y-98974358D01*
X103122302Y-99029505D01*
X103122309Y-99029506D01*
X103225019Y-99039999D01*
X103349999Y-99039999D01*
X103350000Y-99039998D01*
X103350000Y-97890000D01*
X103850000Y-97890000D01*
X103850000Y-99039999D01*
X103974972Y-99039999D01*
X103974986Y-99039998D01*
X104077697Y-99029505D01*
X104244119Y-98974358D01*
X104244124Y-98974356D01*
X104393345Y-98882315D01*
X104517315Y-98758345D01*
X104609356Y-98609124D01*
X104609358Y-98609119D01*
X104664505Y-98442697D01*
X104664506Y-98442690D01*
X104674999Y-98339986D01*
X104675000Y-98339973D01*
X104675000Y-97890000D01*
X103850000Y-97890000D01*
X103350000Y-97890000D01*
X102525001Y-97890000D01*
X101733500Y-97890000D01*
X101733499Y-97390000D01*
X102525000Y-97390000D01*
X103350000Y-97390000D01*
X103350000Y-96240000D01*
X103850000Y-96240000D01*
X103850000Y-97390000D01*
X104674999Y-97390000D01*
X104674999Y-96940028D01*
X104674998Y-96940013D01*
X104664505Y-96837302D01*
X104609358Y-96670880D01*
X104609356Y-96670875D01*
X104517315Y-96521654D01*
X104393345Y-96397684D01*
X104244124Y-96305643D01*
X104244119Y-96305641D01*
X104077697Y-96250494D01*
X104077690Y-96250493D01*
X103974986Y-96240000D01*
X103850000Y-96240000D01*
X103350000Y-96240000D01*
X103225027Y-96240000D01*
X103225012Y-96240001D01*
X103122302Y-96250494D01*
X102955880Y-96305641D01*
X102955875Y-96305643D01*
X102806654Y-96397684D01*
X102682684Y-96521654D01*
X102590643Y-96670875D01*
X102590641Y-96670880D01*
X102535494Y-96837302D01*
X102535493Y-96837309D01*
X102525000Y-96940013D01*
X102525000Y-97390000D01*
X101733499Y-97390000D01*
X101733499Y-96939456D01*
X101722887Y-96835574D01*
X101667115Y-96667262D01*
X101574030Y-96516348D01*
X101448652Y-96390970D01*
X101310316Y-96305643D01*
X101297740Y-96297886D01*
X101297735Y-96297884D01*
X101129427Y-96242113D01*
X101025546Y-96231500D01*
X100274462Y-96231500D01*
X100274446Y-96231501D01*
X100170572Y-96242113D01*
X100002264Y-96297884D01*
X100002259Y-96297886D01*
X99851346Y-96390971D01*
X99725971Y-96516346D01*
X99705406Y-96549688D01*
X99637975Y-96659011D01*
X99629094Y-96673409D01*
X99627907Y-96672677D01*
X99586945Y-96719195D01*
X99519750Y-96738344D01*
X99494960Y-96735638D01*
X99475492Y-96731500D01*
X99475487Y-96731500D01*
X99412500Y-96731500D01*
X99345461Y-96711815D01*
X99299706Y-96659011D01*
X99288500Y-96607500D01*
X99288500Y-95553765D01*
X99308185Y-95486726D01*
X99324814Y-95466089D01*
X101426085Y-93364817D01*
X101487408Y-93331333D01*
X101513766Y-93328499D01*
X101952386Y-93328499D01*
X102071342Y-93312839D01*
X102071341Y-93312839D01*
X102071350Y-93312838D01*
X102219376Y-93251524D01*
X102346487Y-93153987D01*
X102444024Y-93026876D01*
X102505338Y-92878850D01*
X102521000Y-92759885D01*
X102520999Y-92480116D01*
X102520265Y-92474544D01*
X102516660Y-92447155D01*
X102505338Y-92361150D01*
X102497593Y-92342454D01*
X102490124Y-92272986D01*
X102497594Y-92247545D01*
X102502865Y-92234819D01*
X102505338Y-92228850D01*
X102521000Y-92109886D01*
X105754000Y-92109886D01*
X105769660Y-92228847D01*
X105769661Y-92228848D01*
X105782007Y-92258655D01*
X105789475Y-92328124D01*
X105782009Y-92353552D01*
X105777944Y-92363365D01*
X105770487Y-92420000D01*
X105802917Y-92420000D01*
X105869956Y-92439685D01*
X105901291Y-92468511D01*
X105928513Y-92503987D01*
X105928514Y-92503988D01*
X105928516Y-92503990D01*
X106050542Y-92597625D01*
X106091744Y-92654053D01*
X106095899Y-92723799D01*
X106061686Y-92784719D01*
X105999969Y-92817471D01*
X105975055Y-92820000D01*
X105770490Y-92820000D01*
X105770488Y-92820001D01*
X105777942Y-92876627D01*
X105777944Y-92876633D01*
X105838399Y-93022585D01*
X105934575Y-93147924D01*
X106059913Y-93244100D01*
X106205865Y-93304554D01*
X106205869Y-93304555D01*
X106323176Y-93319999D01*
X106799999Y-93319999D01*
X106800000Y-93319998D01*
X106800000Y-92802499D01*
X106819685Y-92735460D01*
X106872489Y-92689705D01*
X106923997Y-92678499D01*
X107076001Y-92678499D01*
X107143039Y-92698184D01*
X107188794Y-92750988D01*
X107200000Y-92802499D01*
X107200000Y-93319999D01*
X107676824Y-93319999D01*
X107794128Y-93304557D01*
X107794133Y-93304555D01*
X107940085Y-93244100D01*
X108065424Y-93147924D01*
X108161600Y-93022586D01*
X108222054Y-92876634D01*
X108222055Y-92876630D01*
X108237499Y-92759330D01*
X108237500Y-92759316D01*
X108237500Y-92727500D01*
X108257185Y-92660461D01*
X108309989Y-92614706D01*
X108361500Y-92603500D01*
X130106366Y-92603500D01*
X130122113Y-92605238D01*
X130122139Y-92604968D01*
X130129905Y-92605701D01*
X130129909Y-92605702D01*
X130199958Y-92603500D01*
X130229856Y-92603500D01*
X130229857Y-92603500D01*
X130231222Y-92603327D01*
X130236862Y-92602614D01*
X130242685Y-92602156D01*
X130268708Y-92601338D01*
X130289890Y-92600673D01*
X130300379Y-92597625D01*
X130309481Y-92594980D01*
X130328538Y-92591032D01*
X130348797Y-92588474D01*
X130392721Y-92571082D01*
X130398221Y-92569199D01*
X130443593Y-92556018D01*
X130461165Y-92545625D01*
X130478632Y-92537068D01*
X130497617Y-92529552D01*
X130535826Y-92501790D01*
X130540704Y-92498585D01*
X130581362Y-92474542D01*
X130595802Y-92460100D01*
X130610592Y-92447470D01*
X130627107Y-92435472D01*
X130657222Y-92399067D01*
X130661126Y-92394776D01*
X132813585Y-90242318D01*
X132874908Y-90208833D01*
X132901266Y-90205999D01*
X133700537Y-90205999D01*
X133700544Y-90205999D01*
X133804426Y-90195387D01*
X133972738Y-90139615D01*
X134123652Y-90046530D01*
X134249030Y-89921152D01*
X134342115Y-89770238D01*
X134397887Y-89601926D01*
X134408500Y-89498045D01*
X134408499Y-88771956D01*
X134397887Y-88668074D01*
X134342115Y-88499762D01*
X134249030Y-88348848D01*
X134123652Y-88223470D01*
X133972738Y-88130385D01*
X133884683Y-88101207D01*
X133804427Y-88074613D01*
X133700545Y-88064000D01*
X132349462Y-88064000D01*
X132349446Y-88064001D01*
X132245572Y-88074613D01*
X132077264Y-88130384D01*
X132077259Y-88130386D01*
X131926346Y-88223471D01*
X131842681Y-88307137D01*
X131781358Y-88340622D01*
X131711666Y-88335638D01*
X131667319Y-88307137D01*
X131583653Y-88223471D01*
X131583652Y-88223470D01*
X131432738Y-88130385D01*
X131344683Y-88101207D01*
X131264427Y-88074613D01*
X131160545Y-88064000D01*
X129809462Y-88064000D01*
X129809446Y-88064001D01*
X129705572Y-88074613D01*
X129537264Y-88130384D01*
X129537259Y-88130386D01*
X129386349Y-88223469D01*
X129272680Y-88337137D01*
X129211356Y-88370621D01*
X129141664Y-88365636D01*
X129097318Y-88337136D01*
X129043653Y-88283471D01*
X129043652Y-88283470D01*
X128892738Y-88190385D01*
X128892735Y-88190384D01*
X128724427Y-88134613D01*
X128620545Y-88124000D01*
X127269462Y-88124000D01*
X127269446Y-88124001D01*
X127165572Y-88134613D01*
X126997264Y-88190384D01*
X126997259Y-88190386D01*
X126846346Y-88283471D01*
X126720971Y-88408846D01*
X126627886Y-88559759D01*
X126627884Y-88559764D01*
X126572113Y-88728072D01*
X126561500Y-88831947D01*
X126561500Y-89558037D01*
X126561502Y-89558058D01*
X126567056Y-89612433D01*
X126554286Y-89681126D01*
X126531379Y-89712714D01*
X126243912Y-90000182D01*
X126182592Y-90033666D01*
X126156233Y-90036500D01*
X117105544Y-90036500D01*
X117038505Y-90016815D01*
X116992750Y-89964011D01*
X116982806Y-89894853D01*
X117011831Y-89831297D01*
X117017863Y-89824819D01*
X117065806Y-89776876D01*
X117114030Y-89728652D01*
X117207115Y-89577738D01*
X117262887Y-89409426D01*
X117273500Y-89305545D01*
X117273499Y-88687499D01*
X117293183Y-88620461D01*
X117345987Y-88574706D01*
X117397499Y-88563500D01*
X117899970Y-88563500D01*
X118226366Y-88563500D01*
X118242113Y-88565238D01*
X118242139Y-88564968D01*
X118249905Y-88565701D01*
X118249909Y-88565702D01*
X118319958Y-88563500D01*
X118349856Y-88563500D01*
X118349857Y-88563500D01*
X118351222Y-88563327D01*
X118356862Y-88562614D01*
X118362685Y-88562156D01*
X118388708Y-88561338D01*
X118409890Y-88560673D01*
X118421140Y-88557404D01*
X118429481Y-88554980D01*
X118448538Y-88551032D01*
X118468797Y-88548474D01*
X118512721Y-88531082D01*
X118518221Y-88529199D01*
X118563593Y-88516018D01*
X118581165Y-88505625D01*
X118598632Y-88497068D01*
X118617617Y-88489552D01*
X118655826Y-88461790D01*
X118660704Y-88458585D01*
X118701362Y-88434542D01*
X118715802Y-88420100D01*
X118730592Y-88407470D01*
X118747107Y-88395472D01*
X118777222Y-88359067D01*
X118781126Y-88354776D01*
X123053009Y-84082893D01*
X123114330Y-84049410D01*
X123171143Y-84050374D01*
X123175356Y-84051441D01*
X123175365Y-84051444D01*
X123397431Y-84088500D01*
X123622569Y-84088500D01*
X123844635Y-84051444D01*
X124057574Y-83978342D01*
X124255576Y-83871189D01*
X124433240Y-83732906D01*
X124585722Y-83567268D01*
X124676193Y-83428790D01*
X124729338Y-83383437D01*
X124798569Y-83374013D01*
X124861905Y-83403515D01*
X124883804Y-83428787D01*
X124974278Y-83567268D01*
X124974283Y-83567273D01*
X124974284Y-83567276D01*
X125086804Y-83689503D01*
X125126760Y-83732906D01*
X125304424Y-83871189D01*
X125304425Y-83871189D01*
X125304427Y-83871191D01*
X125349086Y-83895359D01*
X125502426Y-83978342D01*
X125715365Y-84051444D01*
X125937431Y-84088500D01*
X126162569Y-84088500D01*
X126384630Y-84051445D01*
X126384631Y-84051444D01*
X126384635Y-84051444D01*
X126384637Y-84051442D01*
X126388849Y-84050376D01*
X126458669Y-84052988D01*
X126506991Y-84082895D01*
X127275181Y-84851085D01*
X127308666Y-84912408D01*
X127311500Y-84938766D01*
X127311500Y-85082727D01*
X127291815Y-85149766D01*
X127239011Y-85195521D01*
X127200104Y-85206085D01*
X127165572Y-85209613D01*
X126997264Y-85265384D01*
X126997259Y-85265386D01*
X126846346Y-85358471D01*
X126720971Y-85483846D01*
X126627886Y-85634759D01*
X126627884Y-85634764D01*
X126572113Y-85803072D01*
X126561500Y-85906947D01*
X126561500Y-86633037D01*
X126561501Y-86633053D01*
X126572113Y-86736927D01*
X126627884Y-86905235D01*
X126627886Y-86905240D01*
X126637991Y-86921623D01*
X126720970Y-87056152D01*
X126846348Y-87181530D01*
X126997262Y-87274615D01*
X127165574Y-87330387D01*
X127269455Y-87341000D01*
X128620544Y-87340999D01*
X128724426Y-87330387D01*
X128892738Y-87274615D01*
X129043652Y-87181530D01*
X129157319Y-87067863D01*
X129218642Y-87034378D01*
X129288334Y-87039362D01*
X129332681Y-87067863D01*
X129386348Y-87121530D01*
X129537262Y-87214615D01*
X129705574Y-87270387D01*
X129809455Y-87281000D01*
X131160544Y-87280999D01*
X131264426Y-87270387D01*
X131432738Y-87214615D01*
X131583652Y-87121530D01*
X131667319Y-87037863D01*
X131728642Y-87004378D01*
X131798334Y-87009362D01*
X131842681Y-87037863D01*
X131926348Y-87121530D01*
X132077262Y-87214615D01*
X132245574Y-87270387D01*
X132349455Y-87281000D01*
X133700544Y-87280999D01*
X133804426Y-87270387D01*
X133972738Y-87214615D01*
X134123652Y-87121530D01*
X134249030Y-86996152D01*
X134342115Y-86845238D01*
X134397887Y-86676926D01*
X134408500Y-86573045D01*
X134408499Y-85846956D01*
X134397887Y-85743074D01*
X134342115Y-85574762D01*
X134249030Y-85423848D01*
X134123652Y-85298470D01*
X134024414Y-85237259D01*
X133972740Y-85205386D01*
X133972735Y-85205384D01*
X133804427Y-85149613D01*
X133769896Y-85146085D01*
X133705205Y-85119688D01*
X133665054Y-85062507D01*
X133658500Y-85022727D01*
X133658500Y-84708632D01*
X133660239Y-84692880D01*
X133659968Y-84692855D01*
X133660700Y-84685099D01*
X133660702Y-84685092D01*
X133658500Y-84615028D01*
X133658500Y-84585144D01*
X133657614Y-84578141D01*
X133657157Y-84572322D01*
X133655890Y-84532002D01*
X133655674Y-84525111D01*
X133649976Y-84505499D01*
X133646033Y-84486466D01*
X133643474Y-84466203D01*
X133626085Y-84422286D01*
X133624196Y-84416766D01*
X133611018Y-84371407D01*
X133600626Y-84353835D01*
X133592066Y-84336362D01*
X133591057Y-84333813D01*
X133584552Y-84317383D01*
X133556794Y-84279179D01*
X133553587Y-84274296D01*
X133535555Y-84243806D01*
X133529542Y-84233638D01*
X133515108Y-84219204D01*
X133502471Y-84204409D01*
X133490482Y-84187907D01*
X133490470Y-84187890D01*
X133454073Y-84157781D01*
X133449751Y-84153847D01*
X132479063Y-83183159D01*
X132445578Y-83121836D01*
X132446539Y-83065037D01*
X132474561Y-82954380D01*
X132474561Y-82954379D01*
X132474564Y-82954368D01*
X132476583Y-82930000D01*
X132493156Y-82730005D01*
X132493156Y-82729994D01*
X132474565Y-82505640D01*
X132474563Y-82505628D01*
X132419296Y-82287385D01*
X132417009Y-82282172D01*
X132328860Y-82081209D01*
X132312706Y-82056484D01*
X132205723Y-81892734D01*
X132205715Y-81892723D01*
X132053243Y-81727097D01*
X132053238Y-81727092D01*
X131875577Y-81588812D01*
X131875572Y-81588808D01*
X131677580Y-81481661D01*
X131677577Y-81481659D01*
X131677574Y-81481658D01*
X131677571Y-81481657D01*
X131677569Y-81481656D01*
X131464637Y-81408556D01*
X131242569Y-81371500D01*
X131017431Y-81371500D01*
X130795362Y-81408556D01*
X130582430Y-81481656D01*
X130582419Y-81481661D01*
X130384427Y-81588808D01*
X130384422Y-81588812D01*
X130206761Y-81727092D01*
X130206756Y-81727097D01*
X130054284Y-81892723D01*
X130054276Y-81892734D01*
X129963808Y-82031206D01*
X129910662Y-82076562D01*
X129841431Y-82085986D01*
X129778095Y-82056484D01*
X129756192Y-82031206D01*
X129665723Y-81892734D01*
X129665715Y-81892723D01*
X129513243Y-81727097D01*
X129513238Y-81727092D01*
X129335577Y-81588812D01*
X129335572Y-81588808D01*
X129137580Y-81481661D01*
X129137577Y-81481659D01*
X129137574Y-81481658D01*
X129137571Y-81481657D01*
X129137569Y-81481656D01*
X128924637Y-81408556D01*
X128702569Y-81371500D01*
X128477431Y-81371500D01*
X128255362Y-81408556D01*
X128042430Y-81481656D01*
X128042419Y-81481661D01*
X127844427Y-81588808D01*
X127844422Y-81588812D01*
X127666761Y-81727092D01*
X127666756Y-81727097D01*
X127514284Y-81892723D01*
X127514276Y-81892734D01*
X127423808Y-82031206D01*
X127370662Y-82076562D01*
X127301431Y-82085986D01*
X127238095Y-82056484D01*
X127216192Y-82031206D01*
X127125723Y-81892734D01*
X127125715Y-81892723D01*
X126973243Y-81727097D01*
X126973238Y-81727092D01*
X126795577Y-81588812D01*
X126795572Y-81588808D01*
X126597580Y-81481661D01*
X126597577Y-81481659D01*
X126597574Y-81481658D01*
X126597571Y-81481657D01*
X126597569Y-81481656D01*
X126384637Y-81408556D01*
X126162569Y-81371500D01*
X125937431Y-81371500D01*
X125715362Y-81408556D01*
X125502430Y-81481656D01*
X125502419Y-81481661D01*
X125304427Y-81588808D01*
X125304422Y-81588812D01*
X125126761Y-81727092D01*
X125126756Y-81727097D01*
X124974284Y-81892723D01*
X124974276Y-81892734D01*
X124883808Y-82031206D01*
X124830662Y-82076562D01*
X124761431Y-82085986D01*
X124698095Y-82056484D01*
X124676192Y-82031206D01*
X124585723Y-81892734D01*
X124585715Y-81892723D01*
X124433243Y-81727097D01*
X124433238Y-81727092D01*
X124255577Y-81588812D01*
X124255572Y-81588808D01*
X124057580Y-81481661D01*
X124057577Y-81481659D01*
X124057574Y-81481658D01*
X124057571Y-81481657D01*
X124057569Y-81481656D01*
X123844637Y-81408556D01*
X123622569Y-81371500D01*
X123397431Y-81371500D01*
X123175362Y-81408556D01*
X122962430Y-81481656D01*
X122962419Y-81481661D01*
X122764427Y-81588808D01*
X122764422Y-81588812D01*
X122586761Y-81727092D01*
X122586756Y-81727097D01*
X122434284Y-81892723D01*
X122434276Y-81892734D01*
X122343808Y-82031206D01*
X122290662Y-82076562D01*
X122221431Y-82085986D01*
X122158095Y-82056484D01*
X122136192Y-82031206D01*
X122045723Y-81892734D01*
X122045715Y-81892723D01*
X121893243Y-81727097D01*
X121893238Y-81727092D01*
X121715577Y-81588812D01*
X121715572Y-81588808D01*
X121517580Y-81481661D01*
X121517577Y-81481659D01*
X121517574Y-81481658D01*
X121517571Y-81481657D01*
X121517569Y-81481656D01*
X121304637Y-81408556D01*
X121082569Y-81371500D01*
X120857431Y-81371500D01*
X120635362Y-81408556D01*
X120422430Y-81481656D01*
X120422419Y-81481661D01*
X120224427Y-81588808D01*
X120224422Y-81588812D01*
X120046761Y-81727092D01*
X120046756Y-81727097D01*
X119894284Y-81892723D01*
X119894276Y-81892734D01*
X119803808Y-82031206D01*
X119750662Y-82076562D01*
X119681431Y-82085986D01*
X119618095Y-82056484D01*
X119596192Y-82031206D01*
X119505723Y-81892734D01*
X119505715Y-81892723D01*
X119353243Y-81727097D01*
X119353238Y-81727092D01*
X119175577Y-81588812D01*
X119175572Y-81588808D01*
X118977580Y-81481661D01*
X118977577Y-81481659D01*
X118977574Y-81481658D01*
X118977571Y-81481657D01*
X118977569Y-81481656D01*
X118764637Y-81408556D01*
X118542569Y-81371500D01*
X118317431Y-81371500D01*
X118095362Y-81408556D01*
X117882430Y-81481656D01*
X117882419Y-81481661D01*
X117684427Y-81588808D01*
X117684422Y-81588812D01*
X117506761Y-81727092D01*
X117506756Y-81727097D01*
X117354284Y-81892723D01*
X117354276Y-81892734D01*
X117263808Y-82031206D01*
X117210662Y-82076562D01*
X117141431Y-82085986D01*
X117078095Y-82056484D01*
X117056192Y-82031206D01*
X116965723Y-81892734D01*
X116965715Y-81892723D01*
X116813243Y-81727097D01*
X116813238Y-81727092D01*
X116635577Y-81588812D01*
X116635572Y-81588808D01*
X116437580Y-81481661D01*
X116437577Y-81481659D01*
X116437574Y-81481658D01*
X116437571Y-81481657D01*
X116437569Y-81481656D01*
X116224637Y-81408556D01*
X116002569Y-81371500D01*
X115777431Y-81371500D01*
X115555362Y-81408556D01*
X115342430Y-81481656D01*
X115342419Y-81481661D01*
X115144427Y-81588808D01*
X115144422Y-81588812D01*
X114966761Y-81727092D01*
X114903548Y-81795760D01*
X114843661Y-81831750D01*
X114773823Y-81829649D01*
X114716207Y-81790124D01*
X114696138Y-81755110D01*
X114650889Y-81633796D01*
X114617214Y-81588812D01*
X114563261Y-81516739D01*
X114446204Y-81429111D01*
X114309203Y-81378011D01*
X114248654Y-81371500D01*
X114248638Y-81371500D01*
X112451362Y-81371500D01*
X112451345Y-81371500D01*
X112390797Y-81378011D01*
X112390795Y-81378011D01*
X112253795Y-81429111D01*
X112136739Y-81516739D01*
X112049111Y-81633795D01*
X111998011Y-81770795D01*
X111998011Y-81770797D01*
X111991500Y-81831345D01*
X111991500Y-83628654D01*
X111998011Y-83689202D01*
X111998011Y-83689204D01*
X112024018Y-83758929D01*
X112049111Y-83826204D01*
X112136739Y-83943261D01*
X112253796Y-84030889D01*
X112390799Y-84081989D01*
X112418050Y-84084918D01*
X112451345Y-84088499D01*
X112451362Y-84088500D01*
X112592500Y-84088500D01*
X112659539Y-84108185D01*
X112705294Y-84160989D01*
X112716500Y-84212500D01*
X112716500Y-84830227D01*
X112696815Y-84897266D01*
X112644011Y-84943021D01*
X112605104Y-84953585D01*
X112570572Y-84957113D01*
X112402264Y-85012884D01*
X112402259Y-85012886D01*
X112251346Y-85105971D01*
X112125971Y-85231346D01*
X112032886Y-85382259D01*
X112032884Y-85382264D01*
X111977113Y-85550572D01*
X111966500Y-85654447D01*
X111966500Y-85654455D01*
X111966500Y-85960000D01*
X111966501Y-86147500D01*
X111946817Y-86214539D01*
X111894013Y-86260294D01*
X111842501Y-86271500D01*
X111468632Y-86271500D01*
X111452880Y-86269760D01*
X111452855Y-86270032D01*
X111445093Y-86269298D01*
X111445092Y-86269298D01*
X111375029Y-86271500D01*
X111345144Y-86271500D01*
X111345141Y-86271500D01*
X111345129Y-86271501D01*
X111338137Y-86272384D01*
X111332320Y-86272841D01*
X111285111Y-86274325D01*
X111285109Y-86274326D01*
X111265496Y-86280023D01*
X111246459Y-86283965D01*
X111226208Y-86286524D01*
X111226202Y-86286526D01*
X111182299Y-86303907D01*
X111176775Y-86305798D01*
X111131406Y-86318981D01*
X111131401Y-86318983D01*
X111113827Y-86329376D01*
X111096362Y-86337932D01*
X111077387Y-86345445D01*
X111077385Y-86345446D01*
X111039176Y-86373206D01*
X111034294Y-86376412D01*
X110993635Y-86400458D01*
X110979200Y-86414894D01*
X110964412Y-86427525D01*
X110947894Y-86439526D01*
X110947888Y-86439532D01*
X110917780Y-86475925D01*
X110913849Y-86480246D01*
X109448415Y-87945679D01*
X109387092Y-87979164D01*
X109317400Y-87974180D01*
X109261467Y-87932308D01*
X109237414Y-87870962D01*
X109230542Y-87805572D01*
X109223708Y-87784540D01*
X109171529Y-87623950D01*
X109171528Y-87623949D01*
X109171527Y-87623944D01*
X109076040Y-87458556D01*
X108948253Y-87316634D01*
X108793752Y-87204382D01*
X108619288Y-87126706D01*
X108619286Y-87126705D01*
X108432487Y-87087000D01*
X108241513Y-87087000D01*
X108054714Y-87126705D01*
X107967480Y-87165544D01*
X107928862Y-87182738D01*
X107880246Y-87204383D01*
X107725744Y-87316636D01*
X107722289Y-87320474D01*
X107662802Y-87357121D01*
X107630141Y-87361500D01*
X106322613Y-87361500D01*
X106203657Y-87377160D01*
X106203646Y-87377163D01*
X106055627Y-87438474D01*
X106055624Y-87438475D01*
X106055624Y-87438476D01*
X105928513Y-87536013D01*
X105844174Y-87645925D01*
X105830974Y-87663127D01*
X105769663Y-87811146D01*
X105769661Y-87811151D01*
X105754000Y-87930114D01*
X105754000Y-88209886D01*
X105769660Y-88328844D01*
X105769662Y-88328851D01*
X105777407Y-88347550D01*
X105784874Y-88417019D01*
X105777408Y-88442447D01*
X105769663Y-88461146D01*
X105769661Y-88461151D01*
X105754000Y-88580114D01*
X105754000Y-88859886D01*
X105769660Y-88978844D01*
X105769662Y-88978851D01*
X105777407Y-88997550D01*
X105784874Y-89067019D01*
X105777408Y-89092447D01*
X105769663Y-89111146D01*
X105769661Y-89111151D01*
X105754000Y-89230114D01*
X105754000Y-89509886D01*
X105769660Y-89628844D01*
X105769662Y-89628851D01*
X105777407Y-89647550D01*
X105784874Y-89717019D01*
X105777408Y-89742447D01*
X105769663Y-89761146D01*
X105769661Y-89761151D01*
X105754000Y-89880114D01*
X105754000Y-90159886D01*
X105769660Y-90278844D01*
X105769662Y-90278851D01*
X105777407Y-90297550D01*
X105784874Y-90367019D01*
X105777408Y-90392447D01*
X105769663Y-90411146D01*
X105769661Y-90411151D01*
X105754000Y-90530114D01*
X105754000Y-90809886D01*
X105769660Y-90928844D01*
X105769662Y-90928851D01*
X105777407Y-90947550D01*
X105784874Y-91017019D01*
X105777408Y-91042447D01*
X105769663Y-91061146D01*
X105769661Y-91061151D01*
X105754000Y-91180114D01*
X105754000Y-91459886D01*
X105769660Y-91578844D01*
X105769662Y-91578851D01*
X105777407Y-91597550D01*
X105784874Y-91667019D01*
X105777408Y-91692447D01*
X105769663Y-91711146D01*
X105769661Y-91711151D01*
X105754000Y-91830114D01*
X105754000Y-92109886D01*
X102521000Y-92109886D01*
X102521000Y-92109885D01*
X102520999Y-91830116D01*
X102520581Y-91826944D01*
X102516840Y-91798521D01*
X102505338Y-91711150D01*
X102497593Y-91692454D01*
X102490124Y-91622986D01*
X102497594Y-91597545D01*
X102500725Y-91589986D01*
X102505338Y-91578850D01*
X102521000Y-91459885D01*
X102520999Y-91180116D01*
X102505338Y-91061150D01*
X102497593Y-91042454D01*
X102490124Y-90972986D01*
X102497594Y-90947545D01*
X102505338Y-90928850D01*
X102521000Y-90809885D01*
X102520999Y-90530116D01*
X102516887Y-90498883D01*
X102505339Y-90411157D01*
X102505338Y-90411153D01*
X102505338Y-90411150D01*
X102492991Y-90381342D01*
X102485523Y-90311878D01*
X102492994Y-90286434D01*
X102497056Y-90276628D01*
X102504512Y-90220000D01*
X102472083Y-90220000D01*
X102405044Y-90200315D01*
X102373708Y-90171488D01*
X102369081Y-90165458D01*
X102346487Y-90136013D01*
X102346485Y-90136012D01*
X102346485Y-90136011D01*
X102335153Y-90127316D01*
X102323502Y-90118375D01*
X102282299Y-90061949D01*
X102278144Y-89992203D01*
X102312355Y-89931283D01*
X102323498Y-89921627D01*
X102346487Y-89903987D01*
X102373708Y-89868511D01*
X102430137Y-89827310D01*
X102472083Y-89820000D01*
X102504510Y-89820000D01*
X102504511Y-89819998D01*
X102497058Y-89763377D01*
X102497056Y-89763372D01*
X102492992Y-89753560D01*
X102485523Y-89684091D01*
X102492989Y-89658662D01*
X102505338Y-89628850D01*
X102508571Y-89604288D01*
X102536836Y-89540393D01*
X102595160Y-89501921D01*
X102665025Y-89501088D01*
X102704395Y-89520155D01*
X102733248Y-89541118D01*
X102907712Y-89618794D01*
X103094513Y-89658500D01*
X103285487Y-89658500D01*
X103472288Y-89618794D01*
X103646752Y-89541118D01*
X103801253Y-89428866D01*
X103929040Y-89286944D01*
X104024527Y-89121556D01*
X104083542Y-88939928D01*
X104103504Y-88750000D01*
X104083542Y-88560072D01*
X104024527Y-88378444D01*
X103929040Y-88213056D01*
X103801253Y-88071134D01*
X103646752Y-87958882D01*
X103472288Y-87881206D01*
X103472286Y-87881205D01*
X103285487Y-87841500D01*
X103094513Y-87841500D01*
X102907714Y-87881205D01*
X102907712Y-87881206D01*
X102792935Y-87932308D01*
X102733244Y-87958884D01*
X102711603Y-87974607D01*
X102645796Y-87998086D01*
X102577742Y-87982259D01*
X102529048Y-87932153D01*
X102515780Y-87890471D01*
X102505339Y-87811158D01*
X102505338Y-87811150D01*
X102478805Y-87747094D01*
X102444025Y-87663125D01*
X102444023Y-87663122D01*
X102362836Y-87557319D01*
X102337641Y-87492150D01*
X102351679Y-87423705D01*
X102373524Y-87394157D01*
X102434030Y-87333652D01*
X102527115Y-87182738D01*
X102582887Y-87014426D01*
X102593500Y-86910545D01*
X102593500Y-86460000D01*
X103385001Y-86460000D01*
X103385001Y-86909986D01*
X103395494Y-87012697D01*
X103450641Y-87179119D01*
X103450643Y-87179124D01*
X103542684Y-87328345D01*
X103666654Y-87452315D01*
X103815875Y-87544356D01*
X103815880Y-87544358D01*
X103982302Y-87599505D01*
X103982309Y-87599506D01*
X104085019Y-87609999D01*
X104209999Y-87609999D01*
X104210000Y-87609998D01*
X104210000Y-86460000D01*
X104710000Y-86460000D01*
X104710000Y-87609999D01*
X104834972Y-87609999D01*
X104834986Y-87609998D01*
X104937697Y-87599505D01*
X105104119Y-87544358D01*
X105104124Y-87544356D01*
X105253345Y-87452315D01*
X105377315Y-87328345D01*
X105469356Y-87179124D01*
X105469358Y-87179119D01*
X105524505Y-87012697D01*
X105524506Y-87012690D01*
X105534999Y-86909986D01*
X105535000Y-86909973D01*
X105535000Y-86460000D01*
X104710000Y-86460000D01*
X104210000Y-86460000D01*
X103385001Y-86460000D01*
X102593500Y-86460000D01*
X102593499Y-85960000D01*
X103385000Y-85960000D01*
X104210000Y-85960000D01*
X104210000Y-84810000D01*
X104710000Y-84810000D01*
X104710000Y-85960000D01*
X105534999Y-85960000D01*
X105534999Y-85510028D01*
X105534998Y-85510013D01*
X105524505Y-85407302D01*
X105469358Y-85240880D01*
X105469356Y-85240875D01*
X105377315Y-85091654D01*
X105253345Y-84967684D01*
X105104124Y-84875643D01*
X105104119Y-84875641D01*
X104937697Y-84820494D01*
X104937690Y-84820493D01*
X104834986Y-84810000D01*
X104710000Y-84810000D01*
X104210000Y-84810000D01*
X104085027Y-84810000D01*
X104085012Y-84810001D01*
X103982302Y-84820494D01*
X103815880Y-84875641D01*
X103815875Y-84875643D01*
X103666654Y-84967684D01*
X103542684Y-85091654D01*
X103450643Y-85240875D01*
X103450641Y-85240880D01*
X103395494Y-85407302D01*
X103395493Y-85407309D01*
X103385000Y-85510013D01*
X103385000Y-85960000D01*
X102593499Y-85960000D01*
X102593499Y-85509456D01*
X102582887Y-85405574D01*
X102527115Y-85237262D01*
X102434030Y-85086348D01*
X102308652Y-84960970D01*
X102189915Y-84887732D01*
X102157740Y-84867886D01*
X102157735Y-84867884D01*
X101989427Y-84812113D01*
X101885546Y-84801500D01*
X101134462Y-84801500D01*
X101134446Y-84801501D01*
X101030572Y-84812113D01*
X100862264Y-84867884D01*
X100862259Y-84867886D01*
X100711346Y-84960971D01*
X100585971Y-85086346D01*
X100492886Y-85237259D01*
X100492884Y-85237264D01*
X100437113Y-85405573D01*
X100431031Y-85465103D01*
X100404634Y-85529795D01*
X100347454Y-85569946D01*
X100307673Y-85576500D01*
X100087309Y-85576500D01*
X100020270Y-85556815D01*
X99995160Y-85535473D01*
X99991254Y-85531135D01*
X99962183Y-85510013D01*
X99836752Y-85418882D01*
X99662288Y-85341206D01*
X99662286Y-85341205D01*
X99475487Y-85301500D01*
X99284513Y-85301500D01*
X99097714Y-85341205D01*
X99044420Y-85364933D01*
X98941765Y-85410638D01*
X98923246Y-85418883D01*
X98768745Y-85531135D01*
X98640959Y-85673057D01*
X98545473Y-85838443D01*
X98545470Y-85838450D01*
X98486459Y-86020068D01*
X98486458Y-86020072D01*
X98476814Y-86111834D01*
X98469019Y-86185995D01*
X98442434Y-86250609D01*
X98433379Y-86260714D01*
X97511872Y-87182221D01*
X97450549Y-87215706D01*
X97385189Y-87212246D01*
X97324429Y-87192113D01*
X97324431Y-87192113D01*
X97220545Y-87181500D01*
X95819462Y-87181500D01*
X95819446Y-87181501D01*
X95715572Y-87192113D01*
X95547264Y-87247884D01*
X95547259Y-87247886D01*
X95396346Y-87340971D01*
X95270971Y-87466346D01*
X95177886Y-87617259D01*
X95177884Y-87617264D01*
X95122113Y-87785572D01*
X95111500Y-87889447D01*
X95111500Y-87992500D01*
X95091815Y-88059539D01*
X95039011Y-88105294D01*
X94987500Y-88116500D01*
X93035956Y-88116500D01*
X92968917Y-88096815D01*
X92932148Y-88060322D01*
X92857247Y-87945679D01*
X92835722Y-87912732D01*
X92835719Y-87912729D01*
X92835715Y-87912723D01*
X92683243Y-87747097D01*
X92683238Y-87747092D01*
X92560831Y-87651818D01*
X92505576Y-87608811D01*
X92505575Y-87608810D01*
X92505572Y-87608808D01*
X92307580Y-87501661D01*
X92307577Y-87501659D01*
X92307574Y-87501658D01*
X92307571Y-87501657D01*
X92307569Y-87501656D01*
X92094637Y-87428556D01*
X91872569Y-87391500D01*
X91647431Y-87391500D01*
X91425362Y-87428556D01*
X91212430Y-87501656D01*
X91212419Y-87501661D01*
X91014427Y-87608808D01*
X91014422Y-87608812D01*
X90836761Y-87747092D01*
X90836756Y-87747097D01*
X90684284Y-87912723D01*
X90684276Y-87912734D01*
X90561140Y-88101207D01*
X90470703Y-88307385D01*
X90415436Y-88525628D01*
X90415434Y-88525640D01*
X90396844Y-88749994D01*
X90396844Y-88750005D01*
X90415434Y-88974359D01*
X90415436Y-88974371D01*
X90470703Y-89192614D01*
X90561140Y-89398792D01*
X90684276Y-89587265D01*
X90684284Y-89587276D01*
X90836756Y-89752902D01*
X90836761Y-89752907D01*
X90859024Y-89770235D01*
X91014424Y-89891189D01*
X91014429Y-89891191D01*
X91014431Y-89891193D01*
X91050930Y-89910946D01*
X91100520Y-89960165D01*
X91115628Y-90028382D01*
X91091457Y-90093937D01*
X91050930Y-90129054D01*
X91014431Y-90148806D01*
X91014422Y-90148812D01*
X90836761Y-90287092D01*
X90836756Y-90287097D01*
X90684284Y-90452723D01*
X90684276Y-90452734D01*
X90561140Y-90641207D01*
X90470703Y-90847385D01*
X90415436Y-91065628D01*
X90415434Y-91065640D01*
X90396844Y-91289994D01*
X90396844Y-91290005D01*
X90415434Y-91514359D01*
X90415436Y-91514371D01*
X90470703Y-91732614D01*
X90561140Y-91938792D01*
X90684276Y-92127265D01*
X90684284Y-92127276D01*
X90799943Y-92252913D01*
X90836760Y-92292906D01*
X91014424Y-92431189D01*
X91014429Y-92431191D01*
X91014431Y-92431193D01*
X91050930Y-92450946D01*
X91100520Y-92500165D01*
X91115628Y-92568382D01*
X91091457Y-92633937D01*
X91050930Y-92669054D01*
X91014431Y-92688806D01*
X91014422Y-92688812D01*
X90836761Y-92827092D01*
X90836756Y-92827097D01*
X90684284Y-92992723D01*
X90684276Y-92992734D01*
X90561140Y-93181207D01*
X90470703Y-93387385D01*
X90415436Y-93605628D01*
X90415434Y-93605640D01*
X90396844Y-93829994D01*
X90396844Y-93830005D01*
X90415434Y-94054359D01*
X90415436Y-94054371D01*
X90470703Y-94272614D01*
X90561140Y-94478792D01*
X90684276Y-94667265D01*
X90684284Y-94667276D01*
X90825099Y-94820239D01*
X90836760Y-94832906D01*
X91014424Y-94971189D01*
X91014429Y-94971191D01*
X91014431Y-94971193D01*
X91050930Y-94990946D01*
X91100520Y-95040165D01*
X91115628Y-95108382D01*
X91091457Y-95173937D01*
X91050930Y-95209054D01*
X91014431Y-95228806D01*
X91014422Y-95228812D01*
X90836761Y-95367092D01*
X90836756Y-95367097D01*
X90684284Y-95532723D01*
X90684276Y-95532734D01*
X90561140Y-95721207D01*
X90470703Y-95927385D01*
X90415436Y-96145628D01*
X90415434Y-96145640D01*
X90396844Y-96369994D01*
X90396844Y-96370005D01*
X79512793Y-96370005D01*
X79663240Y-96252906D01*
X79776437Y-96129943D01*
X79815715Y-96087276D01*
X79815716Y-96087274D01*
X79815722Y-96087268D01*
X79938860Y-95898791D01*
X80029296Y-95692616D01*
X80084564Y-95474368D01*
X80084565Y-95474359D01*
X80103156Y-95250005D01*
X80103156Y-95249994D01*
X80084565Y-95025640D01*
X80084563Y-95025628D01*
X80047683Y-94879994D01*
X80029296Y-94807384D01*
X79938860Y-94601209D01*
X79906832Y-94552187D01*
X79858880Y-94478791D01*
X79815722Y-94412732D01*
X79815719Y-94412729D01*
X79815715Y-94412723D01*
X79663243Y-94247097D01*
X79663238Y-94247092D01*
X79485577Y-94108812D01*
X79485572Y-94108808D01*
X79287580Y-94001661D01*
X79287577Y-94001659D01*
X79287574Y-94001658D01*
X79287571Y-94001657D01*
X79287569Y-94001656D01*
X79074637Y-93928556D01*
X78852569Y-93891500D01*
X78627431Y-93891500D01*
X78405362Y-93928556D01*
X78192430Y-94001656D01*
X78192419Y-94001661D01*
X77994427Y-94108808D01*
X77994422Y-94108812D01*
X77816761Y-94247092D01*
X77816756Y-94247097D01*
X77664284Y-94412723D01*
X77664276Y-94412734D01*
X77541140Y-94601207D01*
X77450703Y-94807385D01*
X77395436Y-95025628D01*
X77395434Y-95025640D01*
X77376844Y-95249994D01*
X77376844Y-95250005D01*
X77395434Y-95474359D01*
X77395436Y-95474371D01*
X77450703Y-95692614D01*
X77541140Y-95898792D01*
X77664276Y-96087265D01*
X77664284Y-96087276D01*
X77816756Y-96252902D01*
X77816760Y-96252906D01*
X77994424Y-96391189D01*
X77994429Y-96391191D01*
X77994431Y-96391193D01*
X78030930Y-96410946D01*
X78080520Y-96460165D01*
X78095628Y-96528382D01*
X78071457Y-96593937D01*
X78030930Y-96629054D01*
X77994431Y-96648806D01*
X77994422Y-96648812D01*
X77816761Y-96787092D01*
X77816756Y-96787097D01*
X77664284Y-96952723D01*
X77664276Y-96952734D01*
X77541140Y-97141207D01*
X77450703Y-97347385D01*
X77395436Y-97565628D01*
X77395434Y-97565640D01*
X77376844Y-97789994D01*
X77376844Y-97790005D01*
X77395434Y-98014359D01*
X77395436Y-98014371D01*
X77450703Y-98232614D01*
X77541140Y-98438792D01*
X77664276Y-98627265D01*
X77664284Y-98627276D01*
X77810917Y-98786559D01*
X77816760Y-98792906D01*
X77994424Y-98931189D01*
X77994429Y-98931191D01*
X77994431Y-98931193D01*
X78030930Y-98950946D01*
X78080520Y-99000165D01*
X78095628Y-99068382D01*
X78071457Y-99133937D01*
X78030930Y-99169054D01*
X77994431Y-99188806D01*
X77994422Y-99188812D01*
X77816761Y-99327092D01*
X77816756Y-99327097D01*
X77664284Y-99492723D01*
X77664276Y-99492734D01*
X77541140Y-99681207D01*
X77450703Y-99887385D01*
X77395436Y-100105628D01*
X77395434Y-100105640D01*
X77376844Y-100329994D01*
X77376844Y-100330005D01*
X77395434Y-100554359D01*
X77395436Y-100554371D01*
X77450703Y-100772614D01*
X77541140Y-100978792D01*
X77664276Y-101167265D01*
X77664284Y-101167276D01*
X77816756Y-101332902D01*
X77816761Y-101332907D01*
X77826022Y-101340115D01*
X77994424Y-101471189D01*
X77994429Y-101471191D01*
X77994431Y-101471193D01*
X78030930Y-101490946D01*
X78080520Y-101540165D01*
X78095628Y-101608382D01*
X78071457Y-101673937D01*
X78030930Y-101709054D01*
X77994431Y-101728806D01*
X77994422Y-101728812D01*
X77816761Y-101867092D01*
X77816756Y-101867097D01*
X77664284Y-102032723D01*
X77664276Y-102032734D01*
X77541140Y-102221207D01*
X77450703Y-102427385D01*
X77395436Y-102645628D01*
X77395434Y-102645640D01*
X77376844Y-102869994D01*
X77376844Y-102870005D01*
X72298500Y-102870005D01*
X72298500Y-89528632D01*
X72300239Y-89512880D01*
X72299968Y-89512855D01*
X72300700Y-89505099D01*
X72300702Y-89505092D01*
X72298500Y-89435028D01*
X72298500Y-89405144D01*
X72297614Y-89398141D01*
X72297157Y-89392322D01*
X72295674Y-89345113D01*
X72295674Y-89345111D01*
X72289974Y-89325492D01*
X72286031Y-89306446D01*
X72285917Y-89305545D01*
X72283474Y-89286203D01*
X72266081Y-89242274D01*
X72264204Y-89236792D01*
X72251019Y-89191407D01*
X72240620Y-89173824D01*
X72232066Y-89156363D01*
X72224552Y-89137383D01*
X72196793Y-89099176D01*
X72193586Y-89094294D01*
X72169544Y-89053641D01*
X72169543Y-89053640D01*
X72169542Y-89053638D01*
X72155108Y-89039204D01*
X72142471Y-89024409D01*
X72130472Y-89007893D01*
X72130470Y-89007890D01*
X72094073Y-88977781D01*
X72089751Y-88973847D01*
X71380910Y-88265005D01*
X83091844Y-88265005D01*
X83110434Y-88489359D01*
X83110436Y-88489371D01*
X83165703Y-88707614D01*
X83256140Y-88913792D01*
X83379276Y-89102265D01*
X83379284Y-89102276D01*
X83531756Y-89267902D01*
X83531761Y-89267907D01*
X83555268Y-89286203D01*
X83709424Y-89406189D01*
X83751324Y-89428864D01*
X83752695Y-89429606D01*
X83802286Y-89478825D01*
X83817394Y-89547042D01*
X83793224Y-89612597D01*
X83764802Y-89640236D01*
X83583922Y-89766890D01*
X83583920Y-89766891D01*
X83416891Y-89933920D01*
X83416886Y-89933926D01*
X83281400Y-90127420D01*
X83281399Y-90127422D01*
X83181570Y-90341507D01*
X83181567Y-90341513D01*
X83124364Y-90554999D01*
X83124364Y-90555000D01*
X84021314Y-90555000D01*
X83995507Y-90595156D01*
X83955000Y-90733111D01*
X83955000Y-90876889D01*
X83995507Y-91014844D01*
X84021314Y-91055000D01*
X83124364Y-91055000D01*
X83181567Y-91268486D01*
X83181570Y-91268492D01*
X83281399Y-91482578D01*
X83416894Y-91676082D01*
X83539334Y-91798522D01*
X83572819Y-91859845D01*
X83567835Y-91929537D01*
X83525963Y-91985470D01*
X83494987Y-92002385D01*
X83362911Y-92051646D01*
X83362906Y-92051649D01*
X83247812Y-92137809D01*
X83247809Y-92137812D01*
X83161649Y-92252906D01*
X83161645Y-92252913D01*
X83111403Y-92387620D01*
X83111401Y-92387627D01*
X83105000Y-92447155D01*
X83105000Y-93095000D01*
X84021314Y-93095000D01*
X83995507Y-93135156D01*
X83955000Y-93273111D01*
X83955000Y-93416889D01*
X83995507Y-93554844D01*
X84021314Y-93595000D01*
X83105000Y-93595000D01*
X83105000Y-94242844D01*
X83111401Y-94302372D01*
X83111403Y-94302379D01*
X83161645Y-94437086D01*
X83161649Y-94437093D01*
X83247809Y-94552187D01*
X83247812Y-94552190D01*
X83362906Y-94638350D01*
X83362913Y-94638354D01*
X83497620Y-94688596D01*
X83497627Y-94688598D01*
X83557155Y-94694999D01*
X83557172Y-94695000D01*
X84205000Y-94695000D01*
X84205000Y-93780501D01*
X84312685Y-93829680D01*
X84419237Y-93845000D01*
X84490763Y-93845000D01*
X84597315Y-93829680D01*
X84705000Y-93780501D01*
X84705000Y-94695000D01*
X85352828Y-94695000D01*
X85352844Y-94694999D01*
X85412372Y-94688598D01*
X85412379Y-94688596D01*
X85547086Y-94638354D01*
X85547093Y-94638350D01*
X85662187Y-94552190D01*
X85662190Y-94552187D01*
X85748350Y-94437093D01*
X85748354Y-94437086D01*
X85798596Y-94302379D01*
X85798598Y-94302372D01*
X85804999Y-94242844D01*
X85805000Y-94242827D01*
X85805000Y-93595000D01*
X84888686Y-93595000D01*
X84914493Y-93554844D01*
X84955000Y-93416889D01*
X84955000Y-93273111D01*
X84914493Y-93135156D01*
X84888686Y-93095000D01*
X85805000Y-93095000D01*
X85805000Y-92447172D01*
X85804999Y-92447155D01*
X85798598Y-92387627D01*
X85798596Y-92387620D01*
X85748354Y-92252913D01*
X85748350Y-92252906D01*
X85662190Y-92137812D01*
X85662187Y-92137809D01*
X85547093Y-92051649D01*
X85547086Y-92051645D01*
X85415013Y-92002385D01*
X85359079Y-91960514D01*
X85334662Y-91895049D01*
X85349514Y-91826776D01*
X85370665Y-91798521D01*
X85493108Y-91676078D01*
X85628600Y-91482578D01*
X85728429Y-91268492D01*
X85728432Y-91268486D01*
X85785636Y-91055000D01*
X84888686Y-91055000D01*
X84914493Y-91014844D01*
X84955000Y-90876889D01*
X84955000Y-90733111D01*
X84914493Y-90595156D01*
X84888686Y-90555000D01*
X85785636Y-90555000D01*
X85785635Y-90554999D01*
X85728432Y-90341513D01*
X85728429Y-90341507D01*
X85628600Y-90127422D01*
X85628599Y-90127420D01*
X85493113Y-89933926D01*
X85493108Y-89933920D01*
X85326082Y-89766894D01*
X85145197Y-89640236D01*
X85101572Y-89585659D01*
X85094380Y-89516160D01*
X85125902Y-89453806D01*
X85157300Y-89429608D01*
X85200576Y-89406189D01*
X85378240Y-89267906D01*
X85512966Y-89121556D01*
X85530715Y-89102276D01*
X85530716Y-89102274D01*
X85530722Y-89102268D01*
X85653860Y-88913791D01*
X85744296Y-88707616D01*
X85799564Y-88489368D01*
X85801902Y-88461151D01*
X85818156Y-88265005D01*
X85818156Y-88264994D01*
X85799565Y-88040640D01*
X85799563Y-88040628D01*
X85782736Y-87974180D01*
X85744296Y-87822384D01*
X85653860Y-87616209D01*
X85650989Y-87611815D01*
X85537741Y-87438476D01*
X85530722Y-87427732D01*
X85530719Y-87427729D01*
X85530715Y-87427723D01*
X85378243Y-87262097D01*
X85378238Y-87262092D01*
X85222537Y-87140904D01*
X85200576Y-87123811D01*
X85164070Y-87104055D01*
X85114479Y-87054836D01*
X85099371Y-86986619D01*
X85123541Y-86921064D01*
X85164070Y-86885945D01*
X85166690Y-86884527D01*
X85200576Y-86866189D01*
X85378240Y-86727906D01*
X85530722Y-86562268D01*
X85653860Y-86373791D01*
X85744296Y-86167616D01*
X85799564Y-85949368D01*
X85799978Y-85944371D01*
X85818156Y-85725005D01*
X85818156Y-85724994D01*
X85804898Y-85565000D01*
X95120001Y-85565000D01*
X95120001Y-85689986D01*
X95130494Y-85792697D01*
X95185641Y-85959119D01*
X95185643Y-85959124D01*
X95277684Y-86108345D01*
X95401654Y-86232315D01*
X95550875Y-86324356D01*
X95550880Y-86324358D01*
X95717302Y-86379505D01*
X95717309Y-86379506D01*
X95820019Y-86389999D01*
X96269999Y-86389999D01*
X96270000Y-86389998D01*
X96270000Y-85565000D01*
X96770000Y-85565000D01*
X96770000Y-86389999D01*
X97219972Y-86389999D01*
X97219986Y-86389998D01*
X97322697Y-86379505D01*
X97489119Y-86324358D01*
X97489124Y-86324356D01*
X97638345Y-86232315D01*
X97762315Y-86108345D01*
X97854356Y-85959124D01*
X97854358Y-85959119D01*
X97909505Y-85792697D01*
X97909506Y-85792690D01*
X97919999Y-85689986D01*
X97920000Y-85689973D01*
X97920000Y-85565000D01*
X96770000Y-85565000D01*
X96270000Y-85565000D01*
X95120001Y-85565000D01*
X85804898Y-85565000D01*
X85799565Y-85500640D01*
X85799563Y-85500628D01*
X85796876Y-85490018D01*
X85744296Y-85282384D01*
X85653860Y-85076209D01*
X85650593Y-85071209D01*
X85646536Y-85065000D01*
X95120000Y-85065000D01*
X96270000Y-85065000D01*
X96270000Y-84240000D01*
X96770000Y-84240000D01*
X96770000Y-85065000D01*
X97919999Y-85065000D01*
X97919999Y-84940028D01*
X97919998Y-84940013D01*
X97909505Y-84837302D01*
X97854358Y-84670880D01*
X97854356Y-84670875D01*
X97762315Y-84521654D01*
X97638345Y-84397684D01*
X97489124Y-84305643D01*
X97489119Y-84305641D01*
X97322697Y-84250494D01*
X97322690Y-84250493D01*
X97219986Y-84240000D01*
X96770000Y-84240000D01*
X96270000Y-84240000D01*
X95820028Y-84240000D01*
X95820012Y-84240001D01*
X95717302Y-84250494D01*
X95550880Y-84305641D01*
X95550875Y-84305643D01*
X95401654Y-84397684D01*
X95277684Y-84521654D01*
X95185643Y-84670875D01*
X95185641Y-84670880D01*
X95130494Y-84837302D01*
X95130493Y-84837309D01*
X95120000Y-84940013D01*
X95120000Y-85065000D01*
X85646536Y-85065000D01*
X85566844Y-84943021D01*
X85530722Y-84887732D01*
X85530719Y-84887729D01*
X85530715Y-84887723D01*
X85378243Y-84722097D01*
X85378238Y-84722092D01*
X85259797Y-84629905D01*
X85200576Y-84583811D01*
X85164070Y-84564055D01*
X85114479Y-84514836D01*
X85099371Y-84446619D01*
X85123541Y-84381064D01*
X85164070Y-84345945D01*
X85164084Y-84345936D01*
X85200576Y-84326189D01*
X85378240Y-84187906D01*
X85503648Y-84051678D01*
X85530715Y-84022276D01*
X85530716Y-84022274D01*
X85530722Y-84022268D01*
X85653860Y-83833791D01*
X85744296Y-83627616D01*
X85799564Y-83409368D01*
X85802494Y-83374013D01*
X85818156Y-83185005D01*
X85818156Y-83184994D01*
X85799565Y-82960640D01*
X85799563Y-82960628D01*
X85744296Y-82742385D01*
X85738863Y-82730000D01*
X85653860Y-82536209D01*
X85633888Y-82505640D01*
X85530723Y-82347734D01*
X85530715Y-82347723D01*
X85378243Y-82182097D01*
X85378238Y-82182092D01*
X85200577Y-82043812D01*
X85200572Y-82043808D01*
X85002580Y-81936661D01*
X85002577Y-81936659D01*
X85002574Y-81936658D01*
X85002571Y-81936657D01*
X85002569Y-81936656D01*
X84789637Y-81863556D01*
X84567569Y-81826500D01*
X84342431Y-81826500D01*
X84120362Y-81863556D01*
X83907430Y-81936656D01*
X83907419Y-81936661D01*
X83709427Y-82043808D01*
X83709422Y-82043812D01*
X83531761Y-82182092D01*
X83531756Y-82182097D01*
X83379284Y-82347723D01*
X83379276Y-82347734D01*
X83256140Y-82536207D01*
X83165703Y-82742385D01*
X83110436Y-82960628D01*
X83110434Y-82960640D01*
X83091844Y-83184994D01*
X83091844Y-83185005D01*
X83110434Y-83409359D01*
X83110436Y-83409371D01*
X83165703Y-83627614D01*
X83256140Y-83833792D01*
X83379276Y-84022265D01*
X83379284Y-84022276D01*
X83531756Y-84187902D01*
X83531761Y-84187907D01*
X83563358Y-84212500D01*
X83709424Y-84326189D01*
X83709429Y-84326191D01*
X83709431Y-84326193D01*
X83745930Y-84345946D01*
X83795520Y-84395165D01*
X83810628Y-84463382D01*
X83786457Y-84528937D01*
X83745930Y-84564054D01*
X83709431Y-84583806D01*
X83709422Y-84583812D01*
X83531761Y-84722092D01*
X83531756Y-84722097D01*
X83379284Y-84887723D01*
X83379276Y-84887734D01*
X83256140Y-85076207D01*
X83165703Y-85282385D01*
X83110436Y-85500628D01*
X83110434Y-85500640D01*
X83091844Y-85724994D01*
X83091844Y-85725005D01*
X83110434Y-85949359D01*
X83110436Y-85949371D01*
X83165703Y-86167614D01*
X83256140Y-86373792D01*
X83379276Y-86562265D01*
X83379284Y-86562276D01*
X83531756Y-86727902D01*
X83531761Y-86727907D01*
X83574542Y-86761205D01*
X83709424Y-86866189D01*
X83709429Y-86866191D01*
X83709431Y-86866193D01*
X83745930Y-86885946D01*
X83795520Y-86935165D01*
X83810628Y-87003382D01*
X83786457Y-87068937D01*
X83745930Y-87104054D01*
X83709431Y-87123806D01*
X83709422Y-87123812D01*
X83531761Y-87262092D01*
X83531756Y-87262097D01*
X83379284Y-87427723D01*
X83379276Y-87427734D01*
X83256140Y-87616207D01*
X83165703Y-87822385D01*
X83110436Y-88040628D01*
X83110434Y-88040640D01*
X83091844Y-88264994D01*
X83091844Y-88265005D01*
X71380910Y-88265005D01*
X70796620Y-87680715D01*
X70763135Y-87619392D01*
X70760982Y-87606012D01*
X70743542Y-87440072D01*
X70684527Y-87258444D01*
X70589040Y-87093056D01*
X70461253Y-86951134D01*
X70306752Y-86838882D01*
X70132288Y-86761206D01*
X70132286Y-86761205D01*
X69945487Y-86721500D01*
X69754513Y-86721500D01*
X69567714Y-86761205D01*
X69480480Y-86800044D01*
X69416320Y-86828610D01*
X69393246Y-86838883D01*
X69238745Y-86951135D01*
X69110959Y-87093057D01*
X69015473Y-87258443D01*
X69015470Y-87258450D01*
X68956459Y-87440068D01*
X68956458Y-87440072D01*
X68936496Y-87630000D01*
X65445560Y-87630000D01*
X65445217Y-87629973D01*
X65425058Y-87626780D01*
X65425057Y-87626780D01*
X65378034Y-87631225D01*
X65372196Y-87631500D01*
X64693766Y-87631500D01*
X64626727Y-87611815D01*
X64580972Y-87559011D01*
X64571028Y-87489853D01*
X64600053Y-87426297D01*
X64606077Y-87419826D01*
X64818819Y-87207083D01*
X64831180Y-87197183D01*
X64831006Y-87196973D01*
X64837012Y-87192003D01*
X64837018Y-87192000D01*
X64884999Y-87140904D01*
X64906134Y-87119770D01*
X64910463Y-87114187D01*
X64914242Y-87109763D01*
X64946586Y-87075321D01*
X64956423Y-87057424D01*
X64967097Y-87041174D01*
X64979613Y-87025041D01*
X64998372Y-86981689D01*
X65000933Y-86976462D01*
X65023695Y-86935060D01*
X65026276Y-86925004D01*
X65062012Y-86864967D01*
X65124535Y-86833779D01*
X65172161Y-86834549D01*
X65331885Y-86868500D01*
X65331886Y-86868500D01*
X65528113Y-86868500D01*
X65528115Y-86868500D01*
X65720056Y-86827702D01*
X65720058Y-86827700D01*
X65720061Y-86827700D01*
X65869408Y-86761206D01*
X65879565Y-86756683D01*
X65948814Y-86747399D01*
X65980433Y-86756683D01*
X65990592Y-86761206D01*
X66139938Y-86827700D01*
X66139944Y-86827702D01*
X66331885Y-86868500D01*
X66331886Y-86868500D01*
X66528113Y-86868500D01*
X66528115Y-86868500D01*
X66720056Y-86827702D01*
X66720058Y-86827700D01*
X66720061Y-86827700D01*
X66869408Y-86761206D01*
X66879565Y-86756683D01*
X66948814Y-86747399D01*
X66980433Y-86756683D01*
X66990592Y-86761206D01*
X67139938Y-86827700D01*
X67139944Y-86827702D01*
X67331885Y-86868500D01*
X67331886Y-86868500D01*
X67528113Y-86868500D01*
X67528115Y-86868500D01*
X67720056Y-86827702D01*
X67720058Y-86827700D01*
X67720061Y-86827700D01*
X67869408Y-86761206D01*
X67879565Y-86756683D01*
X67948814Y-86747399D01*
X67980433Y-86756683D01*
X67990592Y-86761206D01*
X68139938Y-86827700D01*
X68139944Y-86827702D01*
X68331885Y-86868500D01*
X68331886Y-86868500D01*
X68528113Y-86868500D01*
X68528115Y-86868500D01*
X68720056Y-86827702D01*
X68720058Y-86827700D01*
X68720061Y-86827700D01*
X68869408Y-86761206D01*
X68899321Y-86747888D01*
X69058074Y-86632547D01*
X69189377Y-86486720D01*
X69287492Y-86316780D01*
X69348130Y-86130155D01*
X69368642Y-85935000D01*
X69348130Y-85739845D01*
X69318622Y-85649028D01*
X69316627Y-85579187D01*
X69320372Y-85567376D01*
X69356987Y-85469207D01*
X69356987Y-85469205D01*
X69356989Y-85469201D01*
X69362399Y-85418882D01*
X69363499Y-85408654D01*
X69363500Y-85408637D01*
X69363500Y-84461362D01*
X69363499Y-84461345D01*
X69359007Y-84419572D01*
X69356989Y-84400799D01*
X69356152Y-84398556D01*
X69321497Y-84305643D01*
X69305889Y-84263796D01*
X69218261Y-84146739D01*
X69101204Y-84059111D01*
X69080646Y-84051443D01*
X68964203Y-84008011D01*
X68903654Y-84001500D01*
X68903638Y-84001500D01*
X67956362Y-84001500D01*
X67956345Y-84001500D01*
X67895798Y-84008010D01*
X67792418Y-84046570D01*
X67723303Y-84051678D01*
X67680000Y-84042473D01*
X67680000Y-84057116D01*
X67660315Y-84124155D01*
X67643681Y-84144797D01*
X67641741Y-84146736D01*
X67554111Y-84263795D01*
X67503011Y-84400795D01*
X67503011Y-84400797D01*
X67496500Y-84461345D01*
X67496500Y-84693329D01*
X67454624Y-84685000D01*
X67405376Y-84685000D01*
X67332455Y-84699505D01*
X67249760Y-84754760D01*
X67194505Y-84837455D01*
X67175102Y-84935000D01*
X67194152Y-85030774D01*
X67139944Y-85042297D01*
X67139942Y-85042298D01*
X66980435Y-85113315D01*
X66911185Y-85122599D01*
X66879565Y-85113315D01*
X66720057Y-85042298D01*
X66720055Y-85042297D01*
X66665847Y-85030775D01*
X66684898Y-84935000D01*
X66665495Y-84837455D01*
X66610240Y-84754760D01*
X66527545Y-84699505D01*
X66454624Y-84685000D01*
X66680000Y-84685000D01*
X67180000Y-84685000D01*
X67180000Y-84042473D01*
X67142585Y-84050426D01*
X67142584Y-84050426D01*
X66980435Y-84122620D01*
X66911185Y-84131904D01*
X66879565Y-84122620D01*
X66717414Y-84050426D01*
X66680000Y-84042473D01*
X66680000Y-84685000D01*
X66454624Y-84685000D01*
X66405376Y-84685000D01*
X66334866Y-84699025D01*
X66293699Y-84572322D01*
X66287494Y-84553225D01*
X66287491Y-84553219D01*
X66275241Y-84532002D01*
X66199492Y-84400799D01*
X66196613Y-84395813D01*
X66180000Y-84333813D01*
X66180000Y-84042473D01*
X66142585Y-84050426D01*
X66142584Y-84050426D01*
X65990883Y-84117968D01*
X65921633Y-84127252D01*
X65890016Y-84117969D01*
X65720056Y-84042298D01*
X65720054Y-84042297D01*
X65720055Y-84042297D01*
X65548011Y-84005729D01*
X65528115Y-84001500D01*
X65331885Y-84001500D01*
X65311989Y-84005729D01*
X65139944Y-84042297D01*
X65139942Y-84042298D01*
X64969985Y-84117968D01*
X64900735Y-84127252D01*
X64869115Y-84117968D01*
X64717414Y-84050426D01*
X64680000Y-84042473D01*
X64680000Y-84333813D01*
X64663387Y-84395813D01*
X64572508Y-84553219D01*
X64572505Y-84553225D01*
X64525132Y-84699025D01*
X64454624Y-84685000D01*
X64405376Y-84685000D01*
X64332455Y-84699505D01*
X64249760Y-84754760D01*
X64194505Y-84837455D01*
X64175102Y-84935000D01*
X64194152Y-85030774D01*
X64139944Y-85042297D01*
X64139938Y-85042299D01*
X63960679Y-85122111D01*
X63906717Y-85161318D01*
X63840910Y-85184798D01*
X63833831Y-85185000D01*
X63538628Y-85185000D01*
X63580316Y-85313306D01*
X63580317Y-85313307D01*
X63609873Y-85364500D01*
X63626346Y-85432401D01*
X63609873Y-85488499D01*
X63572511Y-85553211D01*
X63572508Y-85553218D01*
X63511871Y-85739840D01*
X63511870Y-85739842D01*
X63491358Y-85935000D01*
X63511870Y-86130157D01*
X63511871Y-86130159D01*
X63572505Y-86316774D01*
X63572508Y-86316780D01*
X63651141Y-86452977D01*
X63667614Y-86520878D01*
X63644761Y-86586904D01*
X63631435Y-86602658D01*
X63088913Y-87145181D01*
X63027590Y-87178666D01*
X63001232Y-87181500D01*
X62733767Y-87181500D01*
X62666728Y-87161815D01*
X62646086Y-87145181D01*
X61674062Y-86173157D01*
X61640577Y-86111834D01*
X61641537Y-86055038D01*
X61669564Y-85944368D01*
X61669565Y-85944359D01*
X61688156Y-85720005D01*
X61688156Y-85719994D01*
X61669565Y-85495640D01*
X61669563Y-85495628D01*
X61648332Y-85411789D01*
X61614296Y-85277384D01*
X61523860Y-85071209D01*
X61519803Y-85065000D01*
X61447987Y-84955076D01*
X61400722Y-84882732D01*
X61249291Y-84718236D01*
X61232888Y-84685000D01*
X63538628Y-84685000D01*
X64180000Y-84685000D01*
X64180000Y-84042473D01*
X64142585Y-84050426D01*
X64142580Y-84050428D01*
X63964953Y-84129513D01*
X63807643Y-84243806D01*
X63677535Y-84388305D01*
X63580317Y-84556692D01*
X63580316Y-84556693D01*
X63538628Y-84684999D01*
X63538628Y-84685000D01*
X61232888Y-84685000D01*
X61218370Y-84655584D01*
X61226230Y-84586158D01*
X61270376Y-84532002D01*
X61297189Y-84518073D01*
X61417086Y-84473354D01*
X61417093Y-84473350D01*
X61532187Y-84387190D01*
X61532190Y-84387187D01*
X61618350Y-84272093D01*
X61618354Y-84272086D01*
X61668596Y-84137379D01*
X61668598Y-84137372D01*
X61674999Y-84077844D01*
X61675000Y-84077827D01*
X61675000Y-83430000D01*
X60758686Y-83430000D01*
X60784493Y-83389844D01*
X60825000Y-83251889D01*
X60825000Y-83108111D01*
X60784493Y-82970156D01*
X60758686Y-82930000D01*
X61675000Y-82930000D01*
X61675000Y-82282172D01*
X61674999Y-82282155D01*
X61668598Y-82222627D01*
X61668596Y-82222620D01*
X61618354Y-82087913D01*
X61618350Y-82087906D01*
X61532190Y-81972812D01*
X61532187Y-81972809D01*
X61417093Y-81886649D01*
X61417086Y-81886645D01*
X61282379Y-81836403D01*
X61282372Y-81836401D01*
X61222844Y-81830000D01*
X60575000Y-81830000D01*
X60575000Y-82744498D01*
X60467315Y-82695320D01*
X60360763Y-82680000D01*
X60289237Y-82680000D01*
X60182685Y-82695320D01*
X60075000Y-82744498D01*
X60075000Y-81830000D01*
X59427155Y-81830000D01*
X59367627Y-81836401D01*
X59367620Y-81836403D01*
X59232913Y-81886645D01*
X59232906Y-81886649D01*
X59117812Y-81972809D01*
X59117809Y-81972812D01*
X59031649Y-82087906D01*
X59031645Y-82087913D01*
X58981403Y-82222620D01*
X58981401Y-82222627D01*
X58975000Y-82282155D01*
X58975000Y-82930000D01*
X59891314Y-82930000D01*
X59865507Y-82970156D01*
X59825000Y-83108111D01*
X59825000Y-83251889D01*
X59865507Y-83389844D01*
X59891314Y-83430000D01*
X58975000Y-83430000D01*
X58975000Y-84077844D01*
X58981401Y-84137372D01*
X58981403Y-84137379D01*
X59031645Y-84272086D01*
X59031649Y-84272093D01*
X59117809Y-84387187D01*
X59117812Y-84387190D01*
X59232906Y-84473350D01*
X59232913Y-84473354D01*
X59352810Y-84518073D01*
X59408744Y-84559944D01*
X59433161Y-84625409D01*
X59418309Y-84693682D01*
X59400706Y-84718238D01*
X59249284Y-84882723D01*
X59249276Y-84882734D01*
X59126140Y-85071207D01*
X59035703Y-85277385D01*
X58980436Y-85495628D01*
X58980434Y-85495640D01*
X58961844Y-85719994D01*
X58961844Y-85720005D01*
X57620500Y-85720005D01*
X57620500Y-79984500D01*
X57640185Y-79917461D01*
X57692989Y-79871706D01*
X57744500Y-79860500D01*
X157825500Y-79860500D01*
X157892539Y-79880185D01*
G37*
%TD.AperFunction*%
%TD*%
%TA.AperFunction,NonConductor*%
G36*
X119781905Y-83403515D02*
G01*
X119803804Y-83428787D01*
X119894278Y-83567268D01*
X119949129Y-83626852D01*
X119980051Y-83689503D01*
X119972191Y-83758929D01*
X119945580Y-83798514D01*
X119275181Y-84468914D01*
X119213858Y-84502399D01*
X119144167Y-84497415D01*
X119088233Y-84455544D01*
X119063816Y-84390079D01*
X119063500Y-84381233D01*
X119063500Y-84005729D01*
X119083185Y-83938690D01*
X119128484Y-83896674D01*
X119175566Y-83871195D01*
X119175572Y-83871191D01*
X119175576Y-83871189D01*
X119353240Y-83732906D01*
X119505722Y-83567268D01*
X119596193Y-83428790D01*
X119649338Y-83383437D01*
X119718569Y-83374013D01*
X119781905Y-83403515D01*
G37*
%TD.AperFunction*%
%TA.AperFunction,NonConductor*%
G36*
X114871746Y-83639391D02*
G01*
X114903545Y-83664236D01*
X114966760Y-83732906D01*
X115144424Y-83871189D01*
X115144426Y-83871190D01*
X115144433Y-83871195D01*
X115191516Y-83896674D01*
X115241107Y-83945892D01*
X115256500Y-84005729D01*
X115256500Y-84830227D01*
X115236815Y-84897266D01*
X115184011Y-84943021D01*
X115145104Y-84953585D01*
X115110572Y-84957113D01*
X114942264Y-85012884D01*
X114942259Y-85012886D01*
X114791346Y-85105971D01*
X114707681Y-85189637D01*
X114646358Y-85223122D01*
X114576666Y-85218138D01*
X114532319Y-85189637D01*
X114448653Y-85105971D01*
X114448652Y-85105970D01*
X114329612Y-85032545D01*
X114297740Y-85012886D01*
X114297735Y-85012884D01*
X114129427Y-84957113D01*
X114094896Y-84953585D01*
X114030205Y-84927188D01*
X113990054Y-84870007D01*
X113983500Y-84830227D01*
X113983500Y-84212500D01*
X114003185Y-84145461D01*
X114055989Y-84099706D01*
X114107500Y-84088500D01*
X114248638Y-84088500D01*
X114248654Y-84088499D01*
X114275692Y-84085591D01*
X114309201Y-84081989D01*
X114446204Y-84030889D01*
X114563261Y-83943261D01*
X114650889Y-83826204D01*
X114696138Y-83704887D01*
X114738009Y-83648956D01*
X114803474Y-83624539D01*
X114871746Y-83639391D01*
G37*
%TD.AperFunction*%
%TA.AperFunction,NonConductor*%
G36*
X117241905Y-83403515D02*
G01*
X117263804Y-83428787D01*
X117354278Y-83567268D01*
X117354283Y-83567273D01*
X117354284Y-83567276D01*
X117466804Y-83689503D01*
X117506760Y-83732906D01*
X117684424Y-83871189D01*
X117684426Y-83871190D01*
X117684433Y-83871195D01*
X117731516Y-83896674D01*
X117781107Y-83945892D01*
X117796500Y-84005729D01*
X117796500Y-84914405D01*
X117776815Y-84981444D01*
X117760181Y-85002086D01*
X117383963Y-85378304D01*
X117322640Y-85411789D01*
X117252948Y-85406805D01*
X117197015Y-85364933D01*
X117190750Y-85355730D01*
X117114030Y-85231348D01*
X116988652Y-85105970D01*
X116869612Y-85032545D01*
X116837740Y-85012886D01*
X116837735Y-85012884D01*
X116669427Y-84957113D01*
X116634896Y-84953585D01*
X116570205Y-84927188D01*
X116530054Y-84870007D01*
X116523500Y-84830227D01*
X116523500Y-84005729D01*
X116543185Y-83938690D01*
X116588484Y-83896674D01*
X116635566Y-83871195D01*
X116635572Y-83871191D01*
X116635576Y-83871189D01*
X116813240Y-83732906D01*
X116965722Y-83567268D01*
X117056193Y-83428790D01*
X117109338Y-83383437D01*
X117178569Y-83374013D01*
X117241905Y-83403515D01*
G37*
%TD.AperFunction*%
%TA.AperFunction,NonConductor*%
G36*
X129941905Y-83403515D02*
G01*
X129963804Y-83428787D01*
X130054278Y-83567268D01*
X130054283Y-83567273D01*
X130054284Y-83567276D01*
X130166804Y-83689503D01*
X130206760Y-83732906D01*
X130384424Y-83871189D01*
X130384425Y-83871189D01*
X130384427Y-83871191D01*
X130429086Y-83895359D01*
X130582426Y-83978342D01*
X130795365Y-84051444D01*
X131017431Y-84088500D01*
X131242569Y-84088500D01*
X131464630Y-84051445D01*
X131464631Y-84051444D01*
X131464635Y-84051444D01*
X131464637Y-84051442D01*
X131468849Y-84050376D01*
X131538669Y-84052988D01*
X131586991Y-84082895D01*
X132355181Y-84851085D01*
X132388666Y-84912408D01*
X132391500Y-84938766D01*
X132391500Y-85022727D01*
X132371815Y-85089766D01*
X132319011Y-85135521D01*
X132280104Y-85146085D01*
X132245572Y-85149613D01*
X132077264Y-85205384D01*
X132077259Y-85205386D01*
X131926346Y-85298471D01*
X131842681Y-85382137D01*
X131781358Y-85415622D01*
X131711666Y-85410638D01*
X131667319Y-85382137D01*
X131583653Y-85298471D01*
X131583652Y-85298470D01*
X131484414Y-85237259D01*
X131432740Y-85205386D01*
X131432735Y-85205384D01*
X131264427Y-85149613D01*
X131160552Y-85139000D01*
X131160545Y-85139000D01*
X130686266Y-85139000D01*
X130619227Y-85119315D01*
X130598585Y-85102681D01*
X129452587Y-83956682D01*
X129419102Y-83895359D01*
X129424086Y-83825667D01*
X129464103Y-83771150D01*
X129513240Y-83732906D01*
X129665722Y-83567268D01*
X129756193Y-83428790D01*
X129809338Y-83383437D01*
X129878569Y-83374013D01*
X129941905Y-83403515D01*
G37*
%TD.AperFunction*%
%TA.AperFunction,NonConductor*%
G36*
X128225773Y-90285684D02*
G01*
X128271528Y-90338488D01*
X128281472Y-90407646D01*
X128252447Y-90471202D01*
X128246415Y-90477680D01*
X128103914Y-90620181D01*
X128042591Y-90653666D01*
X128016233Y-90656500D01*
X127678765Y-90656500D01*
X127611726Y-90636815D01*
X127565971Y-90584011D01*
X127556027Y-90514853D01*
X127585052Y-90451297D01*
X127591084Y-90444819D01*
X127733585Y-90302318D01*
X127794908Y-90268833D01*
X127821266Y-90265999D01*
X128158734Y-90265999D01*
X128225773Y-90285684D01*
G37*
%TD.AperFunction*%
%TA.AperFunction,NonConductor*%
G36*
X130825772Y-90225684D02*
G01*
X130871527Y-90278488D01*
X130881471Y-90347646D01*
X130852446Y-90411202D01*
X130846414Y-90417680D01*
X129963914Y-91300181D01*
X129902591Y-91333666D01*
X129876233Y-91336500D01*
X129478766Y-91336500D01*
X129411727Y-91316815D01*
X129365972Y-91264011D01*
X129356028Y-91194853D01*
X129385053Y-91131297D01*
X129391085Y-91124819D01*
X130273585Y-90242318D01*
X130334908Y-90208833D01*
X130361266Y-90205999D01*
X130758733Y-90205999D01*
X130825772Y-90225684D01*
G37*
%TD.AperFunction*%
%TA.AperFunction,NonConductor*%
G36*
X114871746Y-95789391D02*
G01*
X114903545Y-95814236D01*
X114966760Y-95882906D01*
X115144424Y-96021189D01*
X115144426Y-96021190D01*
X115144433Y-96021195D01*
X115191516Y-96046674D01*
X115241107Y-96095892D01*
X115256500Y-96155729D01*
X115256500Y-96452727D01*
X115236815Y-96519766D01*
X115184011Y-96565521D01*
X115145104Y-96576085D01*
X115110572Y-96579613D01*
X114942264Y-96635384D01*
X114942259Y-96635386D01*
X114791346Y-96728471D01*
X114707681Y-96812137D01*
X114646358Y-96845622D01*
X114576666Y-96840638D01*
X114532319Y-96812137D01*
X114448653Y-96728471D01*
X114448652Y-96728470D01*
X114297738Y-96635385D01*
X114265148Y-96624586D01*
X114129427Y-96579613D01*
X114094896Y-96576085D01*
X114030205Y-96549688D01*
X113990054Y-96492507D01*
X113983500Y-96452727D01*
X113983500Y-96362500D01*
X114003185Y-96295461D01*
X114055989Y-96249706D01*
X114107500Y-96238500D01*
X114248638Y-96238500D01*
X114248654Y-96238499D01*
X114275692Y-96235591D01*
X114309201Y-96231989D01*
X114310510Y-96231501D01*
X114323768Y-96226555D01*
X114446204Y-96180889D01*
X114563261Y-96093261D01*
X114650889Y-95976204D01*
X114696138Y-95854887D01*
X114738009Y-95798956D01*
X114803474Y-95774539D01*
X114871746Y-95789391D01*
G37*
%TD.AperFunction*%
%TA.AperFunction,NonConductor*%
G36*
X119781905Y-95553515D02*
G01*
X119803804Y-95578787D01*
X119894278Y-95717268D01*
X119894283Y-95717273D01*
X119894284Y-95717276D01*
X120020968Y-95854889D01*
X120046760Y-95882906D01*
X120063324Y-95895798D01*
X120104136Y-95952507D01*
X120107811Y-96022280D01*
X120074842Y-96081332D01*
X119275181Y-96880993D01*
X119213858Y-96914478D01*
X119144166Y-96909494D01*
X119088233Y-96867622D01*
X119063816Y-96802158D01*
X119063500Y-96793312D01*
X119063500Y-96155729D01*
X119083185Y-96088690D01*
X119128484Y-96046674D01*
X119175566Y-96021195D01*
X119175572Y-96021191D01*
X119175576Y-96021189D01*
X119353240Y-95882906D01*
X119505722Y-95717268D01*
X119596193Y-95578790D01*
X119649338Y-95533437D01*
X119718569Y-95524013D01*
X119781905Y-95553515D01*
G37*
%TD.AperFunction*%
%TA.AperFunction,NonConductor*%
G36*
X117241905Y-95553515D02*
G01*
X117263804Y-95578787D01*
X117354278Y-95717268D01*
X117354283Y-95717273D01*
X117354284Y-95717276D01*
X117480968Y-95854889D01*
X117506760Y-95882906D01*
X117684424Y-96021189D01*
X117684426Y-96021190D01*
X117684433Y-96021195D01*
X117731516Y-96046674D01*
X117781107Y-96095892D01*
X117796500Y-96155729D01*
X117796500Y-96536905D01*
X117776815Y-96603944D01*
X117760181Y-96624586D01*
X117383963Y-97000804D01*
X117322640Y-97034289D01*
X117252948Y-97029305D01*
X117197015Y-96987433D01*
X117190750Y-96978230D01*
X117114030Y-96853848D01*
X116988652Y-96728470D01*
X116837738Y-96635385D01*
X116805148Y-96624586D01*
X116669427Y-96579613D01*
X116634896Y-96576085D01*
X116570205Y-96549688D01*
X116530054Y-96492507D01*
X116523500Y-96452727D01*
X116523500Y-96155729D01*
X116543185Y-96088690D01*
X116588484Y-96046674D01*
X116635566Y-96021195D01*
X116635572Y-96021191D01*
X116635576Y-96021189D01*
X116813240Y-95882906D01*
X116965722Y-95717268D01*
X117056193Y-95578790D01*
X117109338Y-95533437D01*
X117178569Y-95524013D01*
X117241905Y-95553515D01*
G37*
%TD.AperFunction*%
%TA.AperFunction,NonConductor*%
G36*
X111885834Y-100738978D02*
G01*
X111941767Y-100780850D01*
X111966184Y-100846314D01*
X111966500Y-100855158D01*
X111966500Y-100928036D01*
X111966501Y-100928053D01*
X111977113Y-101031927D01*
X111984258Y-101053491D01*
X111986658Y-101123319D01*
X111950925Y-101183360D01*
X111888404Y-101214551D01*
X111818945Y-101206989D01*
X111778870Y-101180173D01*
X111689880Y-101091183D01*
X111679979Y-101078823D01*
X111679769Y-101078998D01*
X111674794Y-101072986D01*
X111674792Y-101072982D01*
X111651787Y-101051379D01*
X111616393Y-100991138D01*
X111619187Y-100921324D01*
X111648989Y-100873309D01*
X111754821Y-100767477D01*
X111816142Y-100733994D01*
X111885834Y-100738978D01*
G37*
%TD.AperFunction*%
%TA.AperFunction,NonConductor*%
G36*
X123171128Y-96200371D02*
G01*
X123175359Y-96201442D01*
X123175365Y-96201444D01*
X123397431Y-96238500D01*
X123496233Y-96238500D01*
X123563272Y-96258185D01*
X123609027Y-96310989D01*
X123618971Y-96380147D01*
X123589946Y-96443703D01*
X123583914Y-96450181D01*
X118078914Y-101955181D01*
X118017591Y-101988666D01*
X117991233Y-101991500D01*
X117593766Y-101991500D01*
X117526727Y-101971815D01*
X117480972Y-101919011D01*
X117471028Y-101849853D01*
X117500053Y-101786297D01*
X117506085Y-101779819D01*
X120277233Y-99008671D01*
X123053009Y-96232894D01*
X123114330Y-96199411D01*
X123171128Y-96200371D01*
G37*
%TD.AperFunction*%
%TA.AperFunction,NonConductor*%
G36*
X100374713Y-86863185D02*
G01*
X100420468Y-86915989D01*
X100431032Y-86954899D01*
X100437112Y-87014426D01*
X100492884Y-87182735D01*
X100492886Y-87182740D01*
X100509063Y-87208966D01*
X100527503Y-87276359D01*
X100506580Y-87343022D01*
X100452938Y-87387792D01*
X100450977Y-87388624D01*
X100330625Y-87438475D01*
X100248287Y-87501656D01*
X100203513Y-87536013D01*
X100119174Y-87645925D01*
X100105974Y-87663127D01*
X100044663Y-87811146D01*
X100044661Y-87811151D01*
X100029000Y-87930114D01*
X100029000Y-88209886D01*
X100044660Y-88328844D01*
X100044662Y-88328851D01*
X100052407Y-88347550D01*
X100059874Y-88417019D01*
X100052408Y-88442447D01*
X100044663Y-88461146D01*
X100044661Y-88461151D01*
X100029000Y-88580114D01*
X100029000Y-88612500D01*
X100009315Y-88679539D01*
X99956511Y-88725294D01*
X99905000Y-88736500D01*
X98052500Y-88736500D01*
X97985461Y-88716815D01*
X97939706Y-88664011D01*
X97928500Y-88612533D01*
X97928499Y-88611215D01*
X97928499Y-88608795D01*
X97948166Y-88541753D01*
X97964813Y-88521089D01*
X99331085Y-87154819D01*
X99392408Y-87121334D01*
X99418766Y-87118500D01*
X99475487Y-87118500D01*
X99662288Y-87078794D01*
X99836752Y-87001118D01*
X99991253Y-86888866D01*
X99995160Y-86884527D01*
X100054646Y-86847879D01*
X100087309Y-86843500D01*
X100307674Y-86843500D01*
X100374713Y-86863185D01*
G37*
%TD.AperFunction*%
%TA.AperFunction,NonConductor*%
G36*
X94452724Y-90023185D02*
G01*
X94498479Y-90075989D01*
X94508423Y-90145147D01*
X94481225Y-90206543D01*
X94473926Y-90215366D01*
X94452785Y-90240919D01*
X94448854Y-90245239D01*
X94348915Y-90345180D01*
X94287592Y-90378666D01*
X94261233Y-90381500D01*
X94204513Y-90381500D01*
X94017714Y-90421205D01*
X94017712Y-90421206D01*
X93898681Y-90474202D01*
X93843246Y-90498883D01*
X93688745Y-90611135D01*
X93560959Y-90753057D01*
X93465473Y-90918443D01*
X93465470Y-90918450D01*
X93406459Y-91100068D01*
X93406458Y-91100072D01*
X93398045Y-91180116D01*
X93389019Y-91265995D01*
X93362434Y-91330609D01*
X93353379Y-91340714D01*
X93333819Y-91360274D01*
X93272496Y-91393759D01*
X93202804Y-91388775D01*
X93146871Y-91346903D01*
X93122562Y-91282833D01*
X93104565Y-91065639D01*
X93104563Y-91065628D01*
X93076538Y-90954960D01*
X93079163Y-90885140D01*
X93109061Y-90836841D01*
X93906086Y-90039819D01*
X93967409Y-90006334D01*
X93993767Y-90003500D01*
X94385685Y-90003500D01*
X94452724Y-90023185D01*
G37*
%TD.AperFunction*%
%TA.AperFunction,NonConductor*%
G36*
X95698272Y-91323185D02*
G01*
X95744027Y-91375989D01*
X95753971Y-91445147D01*
X95724946Y-91508703D01*
X95718914Y-91515181D01*
X93333819Y-93900274D01*
X93272496Y-93933759D01*
X93202804Y-93928775D01*
X93146871Y-93886903D01*
X93122562Y-93822833D01*
X93104565Y-93605639D01*
X93104563Y-93605628D01*
X93076538Y-93494960D01*
X93079163Y-93425140D01*
X93109061Y-93376841D01*
X94251086Y-92234819D01*
X94312409Y-92201334D01*
X94338767Y-92198500D01*
X94395487Y-92198500D01*
X94582288Y-92158794D01*
X94756752Y-92081118D01*
X94911253Y-91968866D01*
X95039040Y-91826944D01*
X95134527Y-91661556D01*
X95193542Y-91479928D01*
X95200414Y-91414535D01*
X95226999Y-91349924D01*
X95284296Y-91309939D01*
X95323735Y-91303500D01*
X95631233Y-91303500D01*
X95698272Y-91323185D01*
G37*
%TD.AperFunction*%
%TA.AperFunction,NonConductor*%
G36*
X99564626Y-98549677D02*
G01*
X99620359Y-98591814D01*
X99630968Y-98609629D01*
X99632884Y-98612735D01*
X99632885Y-98612738D01*
X99716652Y-98748545D01*
X99717094Y-98749261D01*
X99735534Y-98816653D01*
X99714612Y-98883317D01*
X99687043Y-98912733D01*
X99578511Y-98996014D01*
X99510875Y-99084158D01*
X99454447Y-99125361D01*
X99384701Y-99129515D01*
X99323781Y-99095302D01*
X99291029Y-99033584D01*
X99288500Y-99008671D01*
X99288500Y-98672500D01*
X99308185Y-98605461D01*
X99360989Y-98559706D01*
X99412500Y-98548500D01*
X99475487Y-98548500D01*
X99494959Y-98544361D01*
X99564626Y-98549677D01*
G37*
%TD.AperFunction*%
%TA.AperFunction,NonConductor*%
G36*
X98533383Y-91973185D02*
G01*
X98579138Y-92025989D01*
X98589082Y-92095147D01*
X98573731Y-92139500D01*
X98545473Y-92188443D01*
X98545470Y-92188450D01*
X98489357Y-92361149D01*
X98486458Y-92370072D01*
X98466496Y-92560000D01*
X98486458Y-92749928D01*
X98486459Y-92749931D01*
X98545470Y-92931549D01*
X98545473Y-92931556D01*
X98640960Y-93096944D01*
X98768747Y-93238866D01*
X98923248Y-93351118D01*
X99097712Y-93428794D01*
X99264070Y-93464154D01*
X99325551Y-93497346D01*
X99359327Y-93558509D01*
X99354675Y-93628224D01*
X99325969Y-93673125D01*
X98266179Y-94732914D01*
X98253820Y-94742818D01*
X98253993Y-94743027D01*
X98247983Y-94747999D01*
X98200016Y-94799078D01*
X98178872Y-94820222D01*
X98178857Y-94820239D01*
X98174531Y-94825814D01*
X98170747Y-94830244D01*
X98138419Y-94864671D01*
X98138412Y-94864681D01*
X98128579Y-94882567D01*
X98117903Y-94898820D01*
X98105386Y-94914957D01*
X98105385Y-94914959D01*
X98086625Y-94958310D01*
X98084055Y-94963556D01*
X98061303Y-95004941D01*
X98061303Y-95004942D01*
X98056225Y-95024720D01*
X98049925Y-95043122D01*
X98041818Y-95061857D01*
X98034431Y-95108495D01*
X98033246Y-95114216D01*
X98021500Y-95159965D01*
X98021500Y-95180384D01*
X98019973Y-95199783D01*
X98016780Y-95219941D01*
X98016780Y-95219942D01*
X98021225Y-95266966D01*
X98021500Y-95272804D01*
X98021500Y-99439907D01*
X98019761Y-99455654D01*
X98020032Y-99455680D01*
X98019298Y-99463446D01*
X98019298Y-99463449D01*
X98019298Y-99463450D01*
X98020219Y-99492734D01*
X98021500Y-99533498D01*
X98021500Y-99563400D01*
X98022384Y-99570397D01*
X98022842Y-99576220D01*
X98024326Y-99623430D01*
X98024327Y-99623432D01*
X98030022Y-99643036D01*
X98033967Y-99662083D01*
X98036526Y-99682338D01*
X98036527Y-99682341D01*
X98036528Y-99682344D01*
X98053914Y-99726257D01*
X98055806Y-99731785D01*
X98068981Y-99777133D01*
X98079372Y-99794703D01*
X98087932Y-99812176D01*
X98095447Y-99831158D01*
X98123209Y-99869368D01*
X98126418Y-99874253D01*
X98150287Y-99914615D01*
X98150458Y-99914903D01*
X98150462Y-99914907D01*
X98164889Y-99929334D01*
X98177527Y-99944130D01*
X98189528Y-99960648D01*
X98189531Y-99960651D01*
X98225920Y-99990754D01*
X98230231Y-99994676D01*
X98352742Y-100117187D01*
X98684333Y-100448779D01*
X98717818Y-100510102D01*
X98712834Y-100579794D01*
X98670962Y-100635727D01*
X98605498Y-100660144D01*
X98546219Y-100649740D01*
X98392288Y-100581206D01*
X98392286Y-100581205D01*
X98205487Y-100541500D01*
X98014513Y-100541500D01*
X97827714Y-100581205D01*
X97827712Y-100581206D01*
X97673782Y-100649740D01*
X97653246Y-100658883D01*
X97498745Y-100771135D01*
X97376901Y-100906457D01*
X97317414Y-100943106D01*
X97247557Y-100941775D01*
X97197070Y-100911166D01*
X95182404Y-98896500D01*
X93109062Y-96823157D01*
X93075577Y-96761834D01*
X93076537Y-96705038D01*
X93104564Y-96594368D01*
X93104600Y-96593937D01*
X93123156Y-96370005D01*
X93123156Y-96369994D01*
X93104565Y-96145640D01*
X93104563Y-96145628D01*
X93076538Y-96034960D01*
X93079163Y-95965140D01*
X93109061Y-95916841D01*
X97036085Y-91989819D01*
X97097408Y-91956334D01*
X97123766Y-91953500D01*
X98466344Y-91953500D01*
X98533383Y-91973185D01*
G37*
%TD.AperFunction*%
%TA.AperFunction,NonConductor*%
G36*
X99103712Y-100868207D02*
G01*
X99105823Y-100870269D01*
X99388308Y-101152754D01*
X99421793Y-101214077D01*
X99423566Y-101256620D01*
X99412501Y-101340666D01*
X99412500Y-101340683D01*
X99412500Y-101372500D01*
X99392815Y-101439539D01*
X99340011Y-101485294D01*
X99288500Y-101496500D01*
X99140041Y-101496500D01*
X99073002Y-101476815D01*
X99027247Y-101424011D01*
X99016721Y-101385465D01*
X99003542Y-101260072D01*
X98944527Y-101078444D01*
X98910754Y-101019948D01*
X98894282Y-100952050D01*
X98917134Y-100886023D01*
X98972056Y-100842832D01*
X99041609Y-100836191D01*
X99103712Y-100868207D01*
G37*
%TD.AperFunction*%
M02*
