%TF.GenerationSoftware,KiCad,Pcbnew,7.0.8-7.0.8~ubuntu20.04.1*%
%TF.CreationDate,2023-10-10T13:21:00+02:00*%
%TF.ProjectId,alarmclock,616c6172-6d63-46c6-9f63-6b2e6b696361,rev?*%
%TF.SameCoordinates,Original*%
%TF.FileFunction,Legend,Top*%
%TF.FilePolarity,Positive*%
%FSLAX46Y46*%
G04 Gerber Fmt 4.6, Leading zero omitted, Abs format (unit mm)*
G04 Created by KiCad (PCBNEW 7.0.8-7.0.8~ubuntu20.04.1) date 2023-10-10 13:21:00*
%MOMM*%
%LPD*%
G01*
G04 APERTURE LIST*
%ADD10C,0.150000*%
%ADD11C,0.120000*%
%ADD12C,0.152400*%
G04 APERTURE END LIST*
D10*
X99682493Y-127139819D02*
X99682493Y-127854104D01*
X99682493Y-127854104D02*
X99634874Y-127996961D01*
X99634874Y-127996961D02*
X99539636Y-128092200D01*
X99539636Y-128092200D02*
X99396779Y-128139819D01*
X99396779Y-128139819D02*
X99301541Y-128139819D01*
X100634874Y-128139819D02*
X100158684Y-128139819D01*
X100158684Y-128139819D02*
X100158684Y-127139819D01*
X101539636Y-128044580D02*
X101492017Y-128092200D01*
X101492017Y-128092200D02*
X101349160Y-128139819D01*
X101349160Y-128139819D02*
X101253922Y-128139819D01*
X101253922Y-128139819D02*
X101111065Y-128092200D01*
X101111065Y-128092200D02*
X101015827Y-127996961D01*
X101015827Y-127996961D02*
X100968208Y-127901723D01*
X100968208Y-127901723D02*
X100920589Y-127711247D01*
X100920589Y-127711247D02*
X100920589Y-127568390D01*
X100920589Y-127568390D02*
X100968208Y-127377914D01*
X100968208Y-127377914D02*
X101015827Y-127282676D01*
X101015827Y-127282676D02*
X101111065Y-127187438D01*
X101111065Y-127187438D02*
X101253922Y-127139819D01*
X101253922Y-127139819D02*
X101349160Y-127139819D01*
X101349160Y-127139819D02*
X101492017Y-127187438D01*
X101492017Y-127187438D02*
X101539636Y-127235057D01*
X102253922Y-127139819D02*
X102253922Y-127854104D01*
X102253922Y-127854104D02*
X102206303Y-127996961D01*
X102206303Y-127996961D02*
X102111065Y-128092200D01*
X102111065Y-128092200D02*
X101968208Y-128139819D01*
X101968208Y-128139819D02*
X101872970Y-128139819D01*
X103206303Y-128139819D02*
X102730113Y-128139819D01*
X102730113Y-128139819D02*
X102730113Y-127139819D01*
X104111065Y-128044580D02*
X104063446Y-128092200D01*
X104063446Y-128092200D02*
X103920589Y-128139819D01*
X103920589Y-128139819D02*
X103825351Y-128139819D01*
X103825351Y-128139819D02*
X103682494Y-128092200D01*
X103682494Y-128092200D02*
X103587256Y-127996961D01*
X103587256Y-127996961D02*
X103539637Y-127901723D01*
X103539637Y-127901723D02*
X103492018Y-127711247D01*
X103492018Y-127711247D02*
X103492018Y-127568390D01*
X103492018Y-127568390D02*
X103539637Y-127377914D01*
X103539637Y-127377914D02*
X103587256Y-127282676D01*
X103587256Y-127282676D02*
X103682494Y-127187438D01*
X103682494Y-127187438D02*
X103825351Y-127139819D01*
X103825351Y-127139819D02*
X103920589Y-127139819D01*
X103920589Y-127139819D02*
X104063446Y-127187438D01*
X104063446Y-127187438D02*
X104111065Y-127235057D01*
X104825351Y-127139819D02*
X104825351Y-127854104D01*
X104825351Y-127854104D02*
X104777732Y-127996961D01*
X104777732Y-127996961D02*
X104682494Y-128092200D01*
X104682494Y-128092200D02*
X104539637Y-128139819D01*
X104539637Y-128139819D02*
X104444399Y-128139819D01*
X105777732Y-128139819D02*
X105301542Y-128139819D01*
X105301542Y-128139819D02*
X105301542Y-127139819D01*
X106682494Y-128044580D02*
X106634875Y-128092200D01*
X106634875Y-128092200D02*
X106492018Y-128139819D01*
X106492018Y-128139819D02*
X106396780Y-128139819D01*
X106396780Y-128139819D02*
X106253923Y-128092200D01*
X106253923Y-128092200D02*
X106158685Y-127996961D01*
X106158685Y-127996961D02*
X106111066Y-127901723D01*
X106111066Y-127901723D02*
X106063447Y-127711247D01*
X106063447Y-127711247D02*
X106063447Y-127568390D01*
X106063447Y-127568390D02*
X106111066Y-127377914D01*
X106111066Y-127377914D02*
X106158685Y-127282676D01*
X106158685Y-127282676D02*
X106253923Y-127187438D01*
X106253923Y-127187438D02*
X106396780Y-127139819D01*
X106396780Y-127139819D02*
X106492018Y-127139819D01*
X106492018Y-127139819D02*
X106634875Y-127187438D01*
X106634875Y-127187438D02*
X106682494Y-127235057D01*
X107396780Y-127139819D02*
X107396780Y-127854104D01*
X107396780Y-127854104D02*
X107349161Y-127996961D01*
X107349161Y-127996961D02*
X107253923Y-128092200D01*
X107253923Y-128092200D02*
X107111066Y-128139819D01*
X107111066Y-128139819D02*
X107015828Y-128139819D01*
X108349161Y-128139819D02*
X107872971Y-128139819D01*
X107872971Y-128139819D02*
X107872971Y-127139819D01*
X109253923Y-128044580D02*
X109206304Y-128092200D01*
X109206304Y-128092200D02*
X109063447Y-128139819D01*
X109063447Y-128139819D02*
X108968209Y-128139819D01*
X108968209Y-128139819D02*
X108825352Y-128092200D01*
X108825352Y-128092200D02*
X108730114Y-127996961D01*
X108730114Y-127996961D02*
X108682495Y-127901723D01*
X108682495Y-127901723D02*
X108634876Y-127711247D01*
X108634876Y-127711247D02*
X108634876Y-127568390D01*
X108634876Y-127568390D02*
X108682495Y-127377914D01*
X108682495Y-127377914D02*
X108730114Y-127282676D01*
X108730114Y-127282676D02*
X108825352Y-127187438D01*
X108825352Y-127187438D02*
X108968209Y-127139819D01*
X108968209Y-127139819D02*
X109063447Y-127139819D01*
X109063447Y-127139819D02*
X109206304Y-127187438D01*
X109206304Y-127187438D02*
X109253923Y-127235057D01*
D11*
X87630000Y-110490000D02*
X87630000Y-80010000D01*
X156845000Y-111125000D02*
X88265000Y-111125000D01*
D10*
X66734819Y-99524522D02*
X67734819Y-98857856D01*
X66734819Y-98857856D02*
X67734819Y-99524522D01*
X66830057Y-98524522D02*
X66782438Y-98476903D01*
X66782438Y-98476903D02*
X66734819Y-98381665D01*
X66734819Y-98381665D02*
X66734819Y-98143570D01*
X66734819Y-98143570D02*
X66782438Y-98048332D01*
X66782438Y-98048332D02*
X66830057Y-98000713D01*
X66830057Y-98000713D02*
X66925295Y-97953094D01*
X66925295Y-97953094D02*
X67020533Y-97953094D01*
X67020533Y-97953094D02*
X67163390Y-98000713D01*
X67163390Y-98000713D02*
X67734819Y-98572141D01*
X67734819Y-98572141D02*
X67734819Y-97953094D01*
X74201580Y-90795666D02*
X74249200Y-90843285D01*
X74249200Y-90843285D02*
X74296819Y-90986142D01*
X74296819Y-90986142D02*
X74296819Y-91081380D01*
X74296819Y-91081380D02*
X74249200Y-91224237D01*
X74249200Y-91224237D02*
X74153961Y-91319475D01*
X74153961Y-91319475D02*
X74058723Y-91367094D01*
X74058723Y-91367094D02*
X73868247Y-91414713D01*
X73868247Y-91414713D02*
X73725390Y-91414713D01*
X73725390Y-91414713D02*
X73534914Y-91367094D01*
X73534914Y-91367094D02*
X73439676Y-91319475D01*
X73439676Y-91319475D02*
X73344438Y-91224237D01*
X73344438Y-91224237D02*
X73296819Y-91081380D01*
X73296819Y-91081380D02*
X73296819Y-90986142D01*
X73296819Y-90986142D02*
X73344438Y-90843285D01*
X73344438Y-90843285D02*
X73392057Y-90795666D01*
X73296819Y-89890904D02*
X73296819Y-90367094D01*
X73296819Y-90367094D02*
X73773009Y-90414713D01*
X73773009Y-90414713D02*
X73725390Y-90367094D01*
X73725390Y-90367094D02*
X73677771Y-90271856D01*
X73677771Y-90271856D02*
X73677771Y-90033761D01*
X73677771Y-90033761D02*
X73725390Y-89938523D01*
X73725390Y-89938523D02*
X73773009Y-89890904D01*
X73773009Y-89890904D02*
X73868247Y-89843285D01*
X73868247Y-89843285D02*
X74106342Y-89843285D01*
X74106342Y-89843285D02*
X74201580Y-89890904D01*
X74201580Y-89890904D02*
X74249200Y-89938523D01*
X74249200Y-89938523D02*
X74296819Y-90033761D01*
X74296819Y-90033761D02*
X74296819Y-90271856D01*
X74296819Y-90271856D02*
X74249200Y-90367094D01*
X74249200Y-90367094D02*
X74201580Y-90414713D01*
X92070199Y-126026009D02*
X92213056Y-126073628D01*
X92213056Y-126073628D02*
X92260675Y-126121247D01*
X92260675Y-126121247D02*
X92308294Y-126216485D01*
X92308294Y-126216485D02*
X92308294Y-126359342D01*
X92308294Y-126359342D02*
X92260675Y-126454580D01*
X92260675Y-126454580D02*
X92213056Y-126502200D01*
X92213056Y-126502200D02*
X92117818Y-126549819D01*
X92117818Y-126549819D02*
X91736866Y-126549819D01*
X91736866Y-126549819D02*
X91736866Y-125549819D01*
X91736866Y-125549819D02*
X92070199Y-125549819D01*
X92070199Y-125549819D02*
X92165437Y-125597438D01*
X92165437Y-125597438D02*
X92213056Y-125645057D01*
X92213056Y-125645057D02*
X92260675Y-125740295D01*
X92260675Y-125740295D02*
X92260675Y-125835533D01*
X92260675Y-125835533D02*
X92213056Y-125930771D01*
X92213056Y-125930771D02*
X92165437Y-125978390D01*
X92165437Y-125978390D02*
X92070199Y-126026009D01*
X92070199Y-126026009D02*
X91736866Y-126026009D01*
X92594009Y-125549819D02*
X93165437Y-125549819D01*
X92879723Y-126549819D02*
X92879723Y-125549819D01*
X94022580Y-126549819D02*
X93451152Y-126549819D01*
X93736866Y-126549819D02*
X93736866Y-125549819D01*
X93736866Y-125549819D02*
X93641628Y-125692676D01*
X93641628Y-125692676D02*
X93546390Y-125787914D01*
X93546390Y-125787914D02*
X93451152Y-125835533D01*
X110034819Y-95213333D02*
X110749104Y-95213333D01*
X110749104Y-95213333D02*
X110891961Y-95260952D01*
X110891961Y-95260952D02*
X110987200Y-95356190D01*
X110987200Y-95356190D02*
X111034819Y-95499047D01*
X111034819Y-95499047D02*
X111034819Y-95594285D01*
X110368152Y-94308571D02*
X111034819Y-94308571D01*
X109987200Y-94546666D02*
X110701485Y-94784761D01*
X110701485Y-94784761D02*
X110701485Y-94165714D01*
X65419580Y-134512857D02*
X65467200Y-134560476D01*
X65467200Y-134560476D02*
X65514819Y-134703333D01*
X65514819Y-134703333D02*
X65514819Y-134798571D01*
X65514819Y-134798571D02*
X65467200Y-134941428D01*
X65467200Y-134941428D02*
X65371961Y-135036666D01*
X65371961Y-135036666D02*
X65276723Y-135084285D01*
X65276723Y-135084285D02*
X65086247Y-135131904D01*
X65086247Y-135131904D02*
X64943390Y-135131904D01*
X64943390Y-135131904D02*
X64752914Y-135084285D01*
X64752914Y-135084285D02*
X64657676Y-135036666D01*
X64657676Y-135036666D02*
X64562438Y-134941428D01*
X64562438Y-134941428D02*
X64514819Y-134798571D01*
X64514819Y-134798571D02*
X64514819Y-134703333D01*
X64514819Y-134703333D02*
X64562438Y-134560476D01*
X64562438Y-134560476D02*
X64610057Y-134512857D01*
X65514819Y-133560476D02*
X65514819Y-134131904D01*
X65514819Y-133846190D02*
X64514819Y-133846190D01*
X64514819Y-133846190D02*
X64657676Y-133941428D01*
X64657676Y-133941428D02*
X64752914Y-134036666D01*
X64752914Y-134036666D02*
X64800533Y-134131904D01*
X65514819Y-132608095D02*
X65514819Y-133179523D01*
X65514819Y-132893809D02*
X64514819Y-132893809D01*
X64514819Y-132893809D02*
X64657676Y-132989047D01*
X64657676Y-132989047D02*
X64752914Y-133084285D01*
X64752914Y-133084285D02*
X64800533Y-133179523D01*
X67699047Y-112751009D02*
X67841904Y-112798628D01*
X67841904Y-112798628D02*
X67889523Y-112846247D01*
X67889523Y-112846247D02*
X67937142Y-112941485D01*
X67937142Y-112941485D02*
X67937142Y-113084342D01*
X67937142Y-113084342D02*
X67889523Y-113179580D01*
X67889523Y-113179580D02*
X67841904Y-113227200D01*
X67841904Y-113227200D02*
X67746666Y-113274819D01*
X67746666Y-113274819D02*
X67365714Y-113274819D01*
X67365714Y-113274819D02*
X67365714Y-112274819D01*
X67365714Y-112274819D02*
X67699047Y-112274819D01*
X67699047Y-112274819D02*
X67794285Y-112322438D01*
X67794285Y-112322438D02*
X67841904Y-112370057D01*
X67841904Y-112370057D02*
X67889523Y-112465295D01*
X67889523Y-112465295D02*
X67889523Y-112560533D01*
X67889523Y-112560533D02*
X67841904Y-112655771D01*
X67841904Y-112655771D02*
X67794285Y-112703390D01*
X67794285Y-112703390D02*
X67699047Y-112751009D01*
X67699047Y-112751009D02*
X67365714Y-112751009D01*
X68270476Y-112274819D02*
X68937142Y-112274819D01*
X68937142Y-112274819D02*
X68270476Y-113274819D01*
X68270476Y-113274819D02*
X68937142Y-113274819D01*
X69841904Y-113274819D02*
X69270476Y-113274819D01*
X69556190Y-113274819D02*
X69556190Y-112274819D01*
X69556190Y-112274819D02*
X69460952Y-112417676D01*
X69460952Y-112417676D02*
X69365714Y-112512914D01*
X69365714Y-112512914D02*
X69270476Y-112560533D01*
X78406666Y-102737319D02*
X78406666Y-103451604D01*
X78406666Y-103451604D02*
X78359047Y-103594461D01*
X78359047Y-103594461D02*
X78263809Y-103689700D01*
X78263809Y-103689700D02*
X78120952Y-103737319D01*
X78120952Y-103737319D02*
X78025714Y-103737319D01*
X78787619Y-102737319D02*
X79454285Y-102737319D01*
X79454285Y-102737319D02*
X79025714Y-103737319D01*
X84121666Y-95129819D02*
X84121666Y-95844104D01*
X84121666Y-95844104D02*
X84074047Y-95986961D01*
X84074047Y-95986961D02*
X83978809Y-96082200D01*
X83978809Y-96082200D02*
X83835952Y-96129819D01*
X83835952Y-96129819D02*
X83740714Y-96129819D01*
X84740714Y-95558390D02*
X84645476Y-95510771D01*
X84645476Y-95510771D02*
X84597857Y-95463152D01*
X84597857Y-95463152D02*
X84550238Y-95367914D01*
X84550238Y-95367914D02*
X84550238Y-95320295D01*
X84550238Y-95320295D02*
X84597857Y-95225057D01*
X84597857Y-95225057D02*
X84645476Y-95177438D01*
X84645476Y-95177438D02*
X84740714Y-95129819D01*
X84740714Y-95129819D02*
X84931190Y-95129819D01*
X84931190Y-95129819D02*
X85026428Y-95177438D01*
X85026428Y-95177438D02*
X85074047Y-95225057D01*
X85074047Y-95225057D02*
X85121666Y-95320295D01*
X85121666Y-95320295D02*
X85121666Y-95367914D01*
X85121666Y-95367914D02*
X85074047Y-95463152D01*
X85074047Y-95463152D02*
X85026428Y-95510771D01*
X85026428Y-95510771D02*
X84931190Y-95558390D01*
X84931190Y-95558390D02*
X84740714Y-95558390D01*
X84740714Y-95558390D02*
X84645476Y-95606009D01*
X84645476Y-95606009D02*
X84597857Y-95653628D01*
X84597857Y-95653628D02*
X84550238Y-95748866D01*
X84550238Y-95748866D02*
X84550238Y-95939342D01*
X84550238Y-95939342D02*
X84597857Y-96034580D01*
X84597857Y-96034580D02*
X84645476Y-96082200D01*
X84645476Y-96082200D02*
X84740714Y-96129819D01*
X84740714Y-96129819D02*
X84931190Y-96129819D01*
X84931190Y-96129819D02*
X85026428Y-96082200D01*
X85026428Y-96082200D02*
X85074047Y-96034580D01*
X85074047Y-96034580D02*
X85121666Y-95939342D01*
X85121666Y-95939342D02*
X85121666Y-95748866D01*
X85121666Y-95748866D02*
X85074047Y-95653628D01*
X85074047Y-95653628D02*
X85026428Y-95606009D01*
X85026428Y-95606009D02*
X84931190Y-95558390D01*
X82242819Y-92431620D02*
X81766628Y-92764953D01*
X82242819Y-93003048D02*
X81242819Y-93003048D01*
X81242819Y-93003048D02*
X81242819Y-92622096D01*
X81242819Y-92622096D02*
X81290438Y-92526858D01*
X81290438Y-92526858D02*
X81338057Y-92479239D01*
X81338057Y-92479239D02*
X81433295Y-92431620D01*
X81433295Y-92431620D02*
X81576152Y-92431620D01*
X81576152Y-92431620D02*
X81671390Y-92479239D01*
X81671390Y-92479239D02*
X81719009Y-92526858D01*
X81719009Y-92526858D02*
X81766628Y-92622096D01*
X81766628Y-92622096D02*
X81766628Y-93003048D01*
X82242819Y-91860191D02*
X82195200Y-91955429D01*
X82195200Y-91955429D02*
X82147580Y-92003048D01*
X82147580Y-92003048D02*
X82052342Y-92050667D01*
X82052342Y-92050667D02*
X81766628Y-92050667D01*
X81766628Y-92050667D02*
X81671390Y-92003048D01*
X81671390Y-92003048D02*
X81623771Y-91955429D01*
X81623771Y-91955429D02*
X81576152Y-91860191D01*
X81576152Y-91860191D02*
X81576152Y-91717334D01*
X81576152Y-91717334D02*
X81623771Y-91622096D01*
X81623771Y-91622096D02*
X81671390Y-91574477D01*
X81671390Y-91574477D02*
X81766628Y-91526858D01*
X81766628Y-91526858D02*
X82052342Y-91526858D01*
X82052342Y-91526858D02*
X82147580Y-91574477D01*
X82147580Y-91574477D02*
X82195200Y-91622096D01*
X82195200Y-91622096D02*
X82242819Y-91717334D01*
X82242819Y-91717334D02*
X82242819Y-91860191D01*
X81576152Y-91241143D02*
X81576152Y-90860191D01*
X81242819Y-91098286D02*
X82099961Y-91098286D01*
X82099961Y-91098286D02*
X82195200Y-91050667D01*
X82195200Y-91050667D02*
X82242819Y-90955429D01*
X82242819Y-90955429D02*
X82242819Y-90860191D01*
X82242819Y-90098286D02*
X81719009Y-90098286D01*
X81719009Y-90098286D02*
X81623771Y-90145905D01*
X81623771Y-90145905D02*
X81576152Y-90241143D01*
X81576152Y-90241143D02*
X81576152Y-90431619D01*
X81576152Y-90431619D02*
X81623771Y-90526857D01*
X82195200Y-90098286D02*
X82242819Y-90193524D01*
X82242819Y-90193524D02*
X82242819Y-90431619D01*
X82242819Y-90431619D02*
X82195200Y-90526857D01*
X82195200Y-90526857D02*
X82099961Y-90574476D01*
X82099961Y-90574476D02*
X82004723Y-90574476D01*
X82004723Y-90574476D02*
X81909485Y-90526857D01*
X81909485Y-90526857D02*
X81861866Y-90431619D01*
X81861866Y-90431619D02*
X81861866Y-90193524D01*
X81861866Y-90193524D02*
X81814247Y-90098286D01*
X82242819Y-89622095D02*
X81576152Y-89622095D01*
X81766628Y-89622095D02*
X81671390Y-89574476D01*
X81671390Y-89574476D02*
X81623771Y-89526857D01*
X81623771Y-89526857D02*
X81576152Y-89431619D01*
X81576152Y-89431619D02*
X81576152Y-89336381D01*
X81576152Y-89098285D02*
X82242819Y-88860190D01*
X81576152Y-88622095D02*
X82242819Y-88860190D01*
X82242819Y-88860190D02*
X82480914Y-88955428D01*
X82480914Y-88955428D02*
X82528533Y-89003047D01*
X82528533Y-89003047D02*
X82576152Y-89098285D01*
X81719009Y-88241142D02*
X81719009Y-87907809D01*
X82242819Y-87764952D02*
X82242819Y-88241142D01*
X82242819Y-88241142D02*
X81242819Y-88241142D01*
X81242819Y-88241142D02*
X81242819Y-87764952D01*
X81576152Y-87336380D02*
X82242819Y-87336380D01*
X81671390Y-87336380D02*
X81623771Y-87288761D01*
X81623771Y-87288761D02*
X81576152Y-87193523D01*
X81576152Y-87193523D02*
X81576152Y-87050666D01*
X81576152Y-87050666D02*
X81623771Y-86955428D01*
X81623771Y-86955428D02*
X81719009Y-86907809D01*
X81719009Y-86907809D02*
X82242819Y-86907809D01*
X82195200Y-86003047D02*
X82242819Y-86098285D01*
X82242819Y-86098285D02*
X82242819Y-86288761D01*
X82242819Y-86288761D02*
X82195200Y-86383999D01*
X82195200Y-86383999D02*
X82147580Y-86431618D01*
X82147580Y-86431618D02*
X82052342Y-86479237D01*
X82052342Y-86479237D02*
X81766628Y-86479237D01*
X81766628Y-86479237D02*
X81671390Y-86431618D01*
X81671390Y-86431618D02*
X81623771Y-86383999D01*
X81623771Y-86383999D02*
X81576152Y-86288761D01*
X81576152Y-86288761D02*
X81576152Y-86098285D01*
X81576152Y-86098285D02*
X81623771Y-86003047D01*
X82242819Y-85431618D02*
X82195200Y-85526856D01*
X82195200Y-85526856D02*
X82147580Y-85574475D01*
X82147580Y-85574475D02*
X82052342Y-85622094D01*
X82052342Y-85622094D02*
X81766628Y-85622094D01*
X81766628Y-85622094D02*
X81671390Y-85574475D01*
X81671390Y-85574475D02*
X81623771Y-85526856D01*
X81623771Y-85526856D02*
X81576152Y-85431618D01*
X81576152Y-85431618D02*
X81576152Y-85288761D01*
X81576152Y-85288761D02*
X81623771Y-85193523D01*
X81623771Y-85193523D02*
X81671390Y-85145904D01*
X81671390Y-85145904D02*
X81766628Y-85098285D01*
X81766628Y-85098285D02*
X82052342Y-85098285D01*
X82052342Y-85098285D02*
X82147580Y-85145904D01*
X82147580Y-85145904D02*
X82195200Y-85193523D01*
X82195200Y-85193523D02*
X82242819Y-85288761D01*
X82242819Y-85288761D02*
X82242819Y-85431618D01*
X82242819Y-84241142D02*
X81242819Y-84241142D01*
X82195200Y-84241142D02*
X82242819Y-84336380D01*
X82242819Y-84336380D02*
X82242819Y-84526856D01*
X82242819Y-84526856D02*
X82195200Y-84622094D01*
X82195200Y-84622094D02*
X82147580Y-84669713D01*
X82147580Y-84669713D02*
X82052342Y-84717332D01*
X82052342Y-84717332D02*
X81766628Y-84717332D01*
X81766628Y-84717332D02*
X81671390Y-84669713D01*
X81671390Y-84669713D02*
X81623771Y-84622094D01*
X81623771Y-84622094D02*
X81576152Y-84526856D01*
X81576152Y-84526856D02*
X81576152Y-84336380D01*
X81576152Y-84336380D02*
X81623771Y-84241142D01*
X82195200Y-83383999D02*
X82242819Y-83479237D01*
X82242819Y-83479237D02*
X82242819Y-83669713D01*
X82242819Y-83669713D02*
X82195200Y-83764951D01*
X82195200Y-83764951D02*
X82099961Y-83812570D01*
X82099961Y-83812570D02*
X81719009Y-83812570D01*
X81719009Y-83812570D02*
X81623771Y-83764951D01*
X81623771Y-83764951D02*
X81576152Y-83669713D01*
X81576152Y-83669713D02*
X81576152Y-83479237D01*
X81576152Y-83479237D02*
X81623771Y-83383999D01*
X81623771Y-83383999D02*
X81719009Y-83336380D01*
X81719009Y-83336380D02*
X81814247Y-83336380D01*
X81814247Y-83336380D02*
X81909485Y-83812570D01*
X82242819Y-82907808D02*
X81576152Y-82907808D01*
X81766628Y-82907808D02*
X81671390Y-82860189D01*
X81671390Y-82860189D02*
X81623771Y-82812570D01*
X81623771Y-82812570D02*
X81576152Y-82717332D01*
X81576152Y-82717332D02*
X81576152Y-82622094D01*
X72054819Y-128148333D02*
X72769104Y-128148333D01*
X72769104Y-128148333D02*
X72911961Y-128195952D01*
X72911961Y-128195952D02*
X73007200Y-128291190D01*
X73007200Y-128291190D02*
X73054819Y-128434047D01*
X73054819Y-128434047D02*
X73054819Y-128529285D01*
X73054819Y-127672142D02*
X72054819Y-127672142D01*
X72054819Y-127672142D02*
X72054819Y-127291190D01*
X72054819Y-127291190D02*
X72102438Y-127195952D01*
X72102438Y-127195952D02*
X72150057Y-127148333D01*
X72150057Y-127148333D02*
X72245295Y-127100714D01*
X72245295Y-127100714D02*
X72388152Y-127100714D01*
X72388152Y-127100714D02*
X72483390Y-127148333D01*
X72483390Y-127148333D02*
X72531009Y-127195952D01*
X72531009Y-127195952D02*
X72578628Y-127291190D01*
X72578628Y-127291190D02*
X72578628Y-127672142D01*
X73054819Y-126148333D02*
X73054819Y-126719761D01*
X73054819Y-126434047D02*
X72054819Y-126434047D01*
X72054819Y-126434047D02*
X72197676Y-126529285D01*
X72197676Y-126529285D02*
X72292914Y-126624523D01*
X72292914Y-126624523D02*
X72340533Y-126719761D01*
X76760057Y-127470238D02*
X76712438Y-127565476D01*
X76712438Y-127565476D02*
X76617200Y-127660714D01*
X76617200Y-127660714D02*
X76474342Y-127803571D01*
X76474342Y-127803571D02*
X76426723Y-127898809D01*
X76426723Y-127898809D02*
X76426723Y-127994047D01*
X76664819Y-127946428D02*
X76617200Y-128041666D01*
X76617200Y-128041666D02*
X76521961Y-128136904D01*
X76521961Y-128136904D02*
X76331485Y-128184523D01*
X76331485Y-128184523D02*
X75998152Y-128184523D01*
X75998152Y-128184523D02*
X75807676Y-128136904D01*
X75807676Y-128136904D02*
X75712438Y-128041666D01*
X75712438Y-128041666D02*
X75664819Y-127946428D01*
X75664819Y-127946428D02*
X75664819Y-127755952D01*
X75664819Y-127755952D02*
X75712438Y-127660714D01*
X75712438Y-127660714D02*
X75807676Y-127565476D01*
X75807676Y-127565476D02*
X75998152Y-127517857D01*
X75998152Y-127517857D02*
X76331485Y-127517857D01*
X76331485Y-127517857D02*
X76521961Y-127565476D01*
X76521961Y-127565476D02*
X76617200Y-127660714D01*
X76617200Y-127660714D02*
X76664819Y-127755952D01*
X76664819Y-127755952D02*
X76664819Y-127946428D01*
X76664819Y-126565476D02*
X76664819Y-127136904D01*
X76664819Y-126851190D02*
X75664819Y-126851190D01*
X75664819Y-126851190D02*
X75807676Y-126946428D01*
X75807676Y-126946428D02*
X75902914Y-127041666D01*
X75902914Y-127041666D02*
X75950533Y-127136904D01*
X61896666Y-147834819D02*
X61896666Y-148549104D01*
X61896666Y-148549104D02*
X61849047Y-148691961D01*
X61849047Y-148691961D02*
X61753809Y-148787200D01*
X61753809Y-148787200D02*
X61610952Y-148834819D01*
X61610952Y-148834819D02*
X61515714Y-148834819D01*
X62896666Y-148834819D02*
X62325238Y-148834819D01*
X62610952Y-148834819D02*
X62610952Y-147834819D01*
X62610952Y-147834819D02*
X62515714Y-147977676D01*
X62515714Y-147977676D02*
X62420476Y-148072914D01*
X62420476Y-148072914D02*
X62325238Y-148120533D01*
X63459819Y-93043333D02*
X64174104Y-93043333D01*
X64174104Y-93043333D02*
X64316961Y-93090952D01*
X64316961Y-93090952D02*
X64412200Y-93186190D01*
X64412200Y-93186190D02*
X64459819Y-93329047D01*
X64459819Y-93329047D02*
X64459819Y-93424285D01*
X64459819Y-92567142D02*
X63459819Y-92567142D01*
X63459819Y-92567142D02*
X63459819Y-92186190D01*
X63459819Y-92186190D02*
X63507438Y-92090952D01*
X63507438Y-92090952D02*
X63555057Y-92043333D01*
X63555057Y-92043333D02*
X63650295Y-91995714D01*
X63650295Y-91995714D02*
X63793152Y-91995714D01*
X63793152Y-91995714D02*
X63888390Y-92043333D01*
X63888390Y-92043333D02*
X63936009Y-92090952D01*
X63936009Y-92090952D02*
X63983628Y-92186190D01*
X63983628Y-92186190D02*
X63983628Y-92567142D01*
X63555057Y-91614761D02*
X63507438Y-91567142D01*
X63507438Y-91567142D02*
X63459819Y-91471904D01*
X63459819Y-91471904D02*
X63459819Y-91233809D01*
X63459819Y-91233809D02*
X63507438Y-91138571D01*
X63507438Y-91138571D02*
X63555057Y-91090952D01*
X63555057Y-91090952D02*
X63650295Y-91043333D01*
X63650295Y-91043333D02*
X63745533Y-91043333D01*
X63745533Y-91043333D02*
X63888390Y-91090952D01*
X63888390Y-91090952D02*
X64459819Y-91662380D01*
X64459819Y-91662380D02*
X64459819Y-91043333D01*
X73384580Y-85301666D02*
X73432200Y-85349285D01*
X73432200Y-85349285D02*
X73479819Y-85492142D01*
X73479819Y-85492142D02*
X73479819Y-85587380D01*
X73479819Y-85587380D02*
X73432200Y-85730237D01*
X73432200Y-85730237D02*
X73336961Y-85825475D01*
X73336961Y-85825475D02*
X73241723Y-85873094D01*
X73241723Y-85873094D02*
X73051247Y-85920713D01*
X73051247Y-85920713D02*
X72908390Y-85920713D01*
X72908390Y-85920713D02*
X72717914Y-85873094D01*
X72717914Y-85873094D02*
X72622676Y-85825475D01*
X72622676Y-85825475D02*
X72527438Y-85730237D01*
X72527438Y-85730237D02*
X72479819Y-85587380D01*
X72479819Y-85587380D02*
X72479819Y-85492142D01*
X72479819Y-85492142D02*
X72527438Y-85349285D01*
X72527438Y-85349285D02*
X72575057Y-85301666D01*
X72479819Y-84444523D02*
X72479819Y-84634999D01*
X72479819Y-84634999D02*
X72527438Y-84730237D01*
X72527438Y-84730237D02*
X72575057Y-84777856D01*
X72575057Y-84777856D02*
X72717914Y-84873094D01*
X72717914Y-84873094D02*
X72908390Y-84920713D01*
X72908390Y-84920713D02*
X73289342Y-84920713D01*
X73289342Y-84920713D02*
X73384580Y-84873094D01*
X73384580Y-84873094D02*
X73432200Y-84825475D01*
X73432200Y-84825475D02*
X73479819Y-84730237D01*
X73479819Y-84730237D02*
X73479819Y-84539761D01*
X73479819Y-84539761D02*
X73432200Y-84444523D01*
X73432200Y-84444523D02*
X73384580Y-84396904D01*
X73384580Y-84396904D02*
X73289342Y-84349285D01*
X73289342Y-84349285D02*
X73051247Y-84349285D01*
X73051247Y-84349285D02*
X72956009Y-84396904D01*
X72956009Y-84396904D02*
X72908390Y-84444523D01*
X72908390Y-84444523D02*
X72860771Y-84539761D01*
X72860771Y-84539761D02*
X72860771Y-84730237D01*
X72860771Y-84730237D02*
X72908390Y-84825475D01*
X72908390Y-84825475D02*
X72956009Y-84873094D01*
X72956009Y-84873094D02*
X73051247Y-84920713D01*
X63454819Y-130006904D02*
X64264342Y-130006904D01*
X64264342Y-130006904D02*
X64359580Y-129959285D01*
X64359580Y-129959285D02*
X64407200Y-129911666D01*
X64407200Y-129911666D02*
X64454819Y-129816428D01*
X64454819Y-129816428D02*
X64454819Y-129625952D01*
X64454819Y-129625952D02*
X64407200Y-129530714D01*
X64407200Y-129530714D02*
X64359580Y-129483095D01*
X64359580Y-129483095D02*
X64264342Y-129435476D01*
X64264342Y-129435476D02*
X63454819Y-129435476D01*
X63788152Y-128530714D02*
X64454819Y-128530714D01*
X63407200Y-128768809D02*
X64121485Y-129006904D01*
X64121485Y-129006904D02*
X64121485Y-128387857D01*
X76873333Y-120954580D02*
X76825714Y-121002200D01*
X76825714Y-121002200D02*
X76682857Y-121049819D01*
X76682857Y-121049819D02*
X76587619Y-121049819D01*
X76587619Y-121049819D02*
X76444762Y-121002200D01*
X76444762Y-121002200D02*
X76349524Y-120906961D01*
X76349524Y-120906961D02*
X76301905Y-120811723D01*
X76301905Y-120811723D02*
X76254286Y-120621247D01*
X76254286Y-120621247D02*
X76254286Y-120478390D01*
X76254286Y-120478390D02*
X76301905Y-120287914D01*
X76301905Y-120287914D02*
X76349524Y-120192676D01*
X76349524Y-120192676D02*
X76444762Y-120097438D01*
X76444762Y-120097438D02*
X76587619Y-120049819D01*
X76587619Y-120049819D02*
X76682857Y-120049819D01*
X76682857Y-120049819D02*
X76825714Y-120097438D01*
X76825714Y-120097438D02*
X76873333Y-120145057D01*
X77730476Y-120383152D02*
X77730476Y-121049819D01*
X77492381Y-120002200D02*
X77254286Y-120716485D01*
X77254286Y-120716485D02*
X77873333Y-120716485D01*
X68246666Y-119894819D02*
X68246666Y-120609104D01*
X68246666Y-120609104D02*
X68199047Y-120751961D01*
X68199047Y-120751961D02*
X68103809Y-120847200D01*
X68103809Y-120847200D02*
X67960952Y-120894819D01*
X67960952Y-120894819D02*
X67865714Y-120894819D01*
X69199047Y-119894819D02*
X68722857Y-119894819D01*
X68722857Y-119894819D02*
X68675238Y-120371009D01*
X68675238Y-120371009D02*
X68722857Y-120323390D01*
X68722857Y-120323390D02*
X68818095Y-120275771D01*
X68818095Y-120275771D02*
X69056190Y-120275771D01*
X69056190Y-120275771D02*
X69151428Y-120323390D01*
X69151428Y-120323390D02*
X69199047Y-120371009D01*
X69199047Y-120371009D02*
X69246666Y-120466247D01*
X69246666Y-120466247D02*
X69246666Y-120704342D01*
X69246666Y-120704342D02*
X69199047Y-120799580D01*
X69199047Y-120799580D02*
X69151428Y-120847200D01*
X69151428Y-120847200D02*
X69056190Y-120894819D01*
X69056190Y-120894819D02*
X68818095Y-120894819D01*
X68818095Y-120894819D02*
X68722857Y-120847200D01*
X68722857Y-120847200D02*
X68675238Y-120799580D01*
X81924819Y-127674166D02*
X81448628Y-128007499D01*
X81924819Y-128245594D02*
X80924819Y-128245594D01*
X80924819Y-128245594D02*
X80924819Y-127864642D01*
X80924819Y-127864642D02*
X80972438Y-127769404D01*
X80972438Y-127769404D02*
X81020057Y-127721785D01*
X81020057Y-127721785D02*
X81115295Y-127674166D01*
X81115295Y-127674166D02*
X81258152Y-127674166D01*
X81258152Y-127674166D02*
X81353390Y-127721785D01*
X81353390Y-127721785D02*
X81401009Y-127769404D01*
X81401009Y-127769404D02*
X81448628Y-127864642D01*
X81448628Y-127864642D02*
X81448628Y-128245594D01*
X81924819Y-126721785D02*
X81924819Y-127293213D01*
X81924819Y-127007499D02*
X80924819Y-127007499D01*
X80924819Y-127007499D02*
X81067676Y-127102737D01*
X81067676Y-127102737D02*
X81162914Y-127197975D01*
X81162914Y-127197975D02*
X81210533Y-127293213D01*
X67106666Y-141621009D02*
X66773333Y-141621009D01*
X66773333Y-142144819D02*
X66773333Y-141144819D01*
X66773333Y-141144819D02*
X67249523Y-141144819D01*
X68154285Y-142144819D02*
X67582857Y-142144819D01*
X67868571Y-142144819D02*
X67868571Y-141144819D01*
X67868571Y-141144819D02*
X67773333Y-141287676D01*
X67773333Y-141287676D02*
X67678095Y-141382914D01*
X67678095Y-141382914D02*
X67582857Y-141430533D01*
X68712142Y-140954580D02*
X68664523Y-141002200D01*
X68664523Y-141002200D02*
X68521666Y-141049819D01*
X68521666Y-141049819D02*
X68426428Y-141049819D01*
X68426428Y-141049819D02*
X68283571Y-141002200D01*
X68283571Y-141002200D02*
X68188333Y-140906961D01*
X68188333Y-140906961D02*
X68140714Y-140811723D01*
X68140714Y-140811723D02*
X68093095Y-140621247D01*
X68093095Y-140621247D02*
X68093095Y-140478390D01*
X68093095Y-140478390D02*
X68140714Y-140287914D01*
X68140714Y-140287914D02*
X68188333Y-140192676D01*
X68188333Y-140192676D02*
X68283571Y-140097438D01*
X68283571Y-140097438D02*
X68426428Y-140049819D01*
X68426428Y-140049819D02*
X68521666Y-140049819D01*
X68521666Y-140049819D02*
X68664523Y-140097438D01*
X68664523Y-140097438D02*
X68712142Y-140145057D01*
X69664523Y-141049819D02*
X69093095Y-141049819D01*
X69378809Y-141049819D02*
X69378809Y-140049819D01*
X69378809Y-140049819D02*
X69283571Y-140192676D01*
X69283571Y-140192676D02*
X69188333Y-140287914D01*
X69188333Y-140287914D02*
X69093095Y-140335533D01*
X70283571Y-140049819D02*
X70378809Y-140049819D01*
X70378809Y-140049819D02*
X70474047Y-140097438D01*
X70474047Y-140097438D02*
X70521666Y-140145057D01*
X70521666Y-140145057D02*
X70569285Y-140240295D01*
X70569285Y-140240295D02*
X70616904Y-140430771D01*
X70616904Y-140430771D02*
X70616904Y-140668866D01*
X70616904Y-140668866D02*
X70569285Y-140859342D01*
X70569285Y-140859342D02*
X70521666Y-140954580D01*
X70521666Y-140954580D02*
X70474047Y-141002200D01*
X70474047Y-141002200D02*
X70378809Y-141049819D01*
X70378809Y-141049819D02*
X70283571Y-141049819D01*
X70283571Y-141049819D02*
X70188333Y-141002200D01*
X70188333Y-141002200D02*
X70140714Y-140954580D01*
X70140714Y-140954580D02*
X70093095Y-140859342D01*
X70093095Y-140859342D02*
X70045476Y-140668866D01*
X70045476Y-140668866D02*
X70045476Y-140430771D01*
X70045476Y-140430771D02*
X70093095Y-140240295D01*
X70093095Y-140240295D02*
X70140714Y-140145057D01*
X70140714Y-140145057D02*
X70188333Y-140097438D01*
X70188333Y-140097438D02*
X70283571Y-140049819D01*
X90539819Y-131965594D02*
X89539819Y-131965594D01*
X89539819Y-131965594D02*
X89539819Y-131727499D01*
X89539819Y-131727499D02*
X89587438Y-131584642D01*
X89587438Y-131584642D02*
X89682676Y-131489404D01*
X89682676Y-131489404D02*
X89777914Y-131441785D01*
X89777914Y-131441785D02*
X89968390Y-131394166D01*
X89968390Y-131394166D02*
X90111247Y-131394166D01*
X90111247Y-131394166D02*
X90301723Y-131441785D01*
X90301723Y-131441785D02*
X90396961Y-131489404D01*
X90396961Y-131489404D02*
X90492200Y-131584642D01*
X90492200Y-131584642D02*
X90539819Y-131727499D01*
X90539819Y-131727499D02*
X90539819Y-131965594D01*
X90539819Y-130441785D02*
X90539819Y-131013213D01*
X90539819Y-130727499D02*
X89539819Y-130727499D01*
X89539819Y-130727499D02*
X89682676Y-130822737D01*
X89682676Y-130822737D02*
X89777914Y-130917975D01*
X89777914Y-130917975D02*
X89825533Y-131013213D01*
X58991667Y-81257200D02*
X59134524Y-81304819D01*
X59134524Y-81304819D02*
X59372619Y-81304819D01*
X59372619Y-81304819D02*
X59467857Y-81257200D01*
X59467857Y-81257200D02*
X59515476Y-81209580D01*
X59515476Y-81209580D02*
X59563095Y-81114342D01*
X59563095Y-81114342D02*
X59563095Y-81019104D01*
X59563095Y-81019104D02*
X59515476Y-80923866D01*
X59515476Y-80923866D02*
X59467857Y-80876247D01*
X59467857Y-80876247D02*
X59372619Y-80828628D01*
X59372619Y-80828628D02*
X59182143Y-80781009D01*
X59182143Y-80781009D02*
X59086905Y-80733390D01*
X59086905Y-80733390D02*
X59039286Y-80685771D01*
X59039286Y-80685771D02*
X58991667Y-80590533D01*
X58991667Y-80590533D02*
X58991667Y-80495295D01*
X58991667Y-80495295D02*
X59039286Y-80400057D01*
X59039286Y-80400057D02*
X59086905Y-80352438D01*
X59086905Y-80352438D02*
X59182143Y-80304819D01*
X59182143Y-80304819D02*
X59420238Y-80304819D01*
X59420238Y-80304819D02*
X59563095Y-80352438D01*
X59896429Y-80304819D02*
X60134524Y-81304819D01*
X60134524Y-81304819D02*
X60325000Y-80590533D01*
X60325000Y-80590533D02*
X60515476Y-81304819D01*
X60515476Y-81304819D02*
X60753572Y-80304819D01*
X61086905Y-80400057D02*
X61134524Y-80352438D01*
X61134524Y-80352438D02*
X61229762Y-80304819D01*
X61229762Y-80304819D02*
X61467857Y-80304819D01*
X61467857Y-80304819D02*
X61563095Y-80352438D01*
X61563095Y-80352438D02*
X61610714Y-80400057D01*
X61610714Y-80400057D02*
X61658333Y-80495295D01*
X61658333Y-80495295D02*
X61658333Y-80590533D01*
X61658333Y-80590533D02*
X61610714Y-80733390D01*
X61610714Y-80733390D02*
X61039286Y-81304819D01*
X61039286Y-81304819D02*
X61658333Y-81304819D01*
X66224819Y-93046904D02*
X67034342Y-93046904D01*
X67034342Y-93046904D02*
X67129580Y-92999285D01*
X67129580Y-92999285D02*
X67177200Y-92951666D01*
X67177200Y-92951666D02*
X67224819Y-92856428D01*
X67224819Y-92856428D02*
X67224819Y-92665952D01*
X67224819Y-92665952D02*
X67177200Y-92570714D01*
X67177200Y-92570714D02*
X67129580Y-92523095D01*
X67129580Y-92523095D02*
X67034342Y-92475476D01*
X67034342Y-92475476D02*
X66224819Y-92475476D01*
X67224819Y-91475476D02*
X67224819Y-92046904D01*
X67224819Y-91761190D02*
X66224819Y-91761190D01*
X66224819Y-91761190D02*
X66367676Y-91856428D01*
X66367676Y-91856428D02*
X66462914Y-91951666D01*
X66462914Y-91951666D02*
X66510533Y-92046904D01*
D12*
%TO.C,X2*%
X66808040Y-100137399D02*
X67751960Y-100137399D01*
X67751960Y-97292599D02*
X66808040Y-97292599D01*
X66107000Y-102082999D02*
G75*
G03*
X66107000Y-102082999I-127000J0D01*
G01*
D11*
%TO.C,C5*%
X74782000Y-91340252D02*
X74782000Y-89917748D01*
X76602000Y-91340252D02*
X76602000Y-89917748D01*
%TO.C,BT1*%
X94600915Y-138325000D02*
G75*
G03*
X94600915Y-127105000I12434999J5610000D01*
G01*
X94600914Y-138325000D02*
X91425914Y-138325000D01*
X91425914Y-138325000D02*
X91425914Y-127105000D01*
X91425914Y-127105000D02*
X94600914Y-127105000D01*
%TO.C,J4*%
X114620000Y-96210000D02*
X132460000Y-96210000D01*
X114620000Y-96210000D02*
X114620000Y-93550000D01*
X132460000Y-96210000D02*
X132460000Y-93550000D01*
X112020000Y-94880000D02*
X112020000Y-93550000D01*
X112020000Y-93550000D02*
X113350000Y-93550000D01*
X114620000Y-93550000D02*
X132460000Y-93550000D01*
%TO.C,C11*%
X64120000Y-133158748D02*
X64120000Y-134581252D01*
X62300000Y-133158748D02*
X62300000Y-134581252D01*
%TO.C,BZ1*%
X69910000Y-111820000D02*
X68580000Y-111820000D01*
X69910000Y-110490000D02*
X69910000Y-111820000D01*
X69910000Y-109220000D02*
X69910000Y-106620000D01*
X69910000Y-109220000D02*
X67250000Y-109220000D01*
X69910000Y-106620000D02*
X67250000Y-106620000D01*
X67250000Y-109220000D02*
X67250000Y-106620000D01*
%TO.C,J7*%
X80070000Y-106740000D02*
X78740000Y-106740000D01*
X80070000Y-105410000D02*
X80070000Y-106740000D01*
X80070000Y-104140000D02*
X80070000Y-93920000D01*
X80070000Y-104140000D02*
X77410000Y-104140000D01*
X80070000Y-93920000D02*
X77410000Y-93920000D01*
X77410000Y-104140000D02*
X77410000Y-93920000D01*
%TO.C,J2*%
X69115000Y-84225000D02*
X69115000Y-84935000D01*
X68430000Y-84225000D02*
X69115000Y-84225000D01*
X67745000Y-84225000D02*
X63870000Y-84225000D01*
X67745000Y-84225000D02*
X67745000Y-84326724D01*
X63870000Y-84225000D02*
X63870000Y-84540507D01*
X63870000Y-85329493D02*
X63870000Y-85540507D01*
X68990000Y-86329493D02*
X68990000Y-86645000D01*
X63870000Y-86329493D02*
X63870000Y-86645000D01*
X68990000Y-86645000D02*
X63870000Y-86645000D01*
%TO.C,J8*%
X85785000Y-94675000D02*
X84455000Y-94675000D01*
X85785000Y-93345000D02*
X85785000Y-94675000D01*
X85785000Y-92075000D02*
X85785000Y-81855000D01*
X85785000Y-92075000D02*
X83125000Y-92075000D01*
X85785000Y-81855000D02*
X83125000Y-81855000D01*
X83125000Y-92075000D02*
X83125000Y-81855000D01*
%TO.C,JP1*%
X73400000Y-128715000D02*
X73400000Y-125915000D01*
X75400000Y-128715000D02*
X73400000Y-128715000D01*
X73400000Y-125915000D02*
X75400000Y-125915000D01*
X75400000Y-125915000D02*
X75400000Y-128715000D01*
%TO.C,J3*%
X114620000Y-84060000D02*
X132460000Y-84060000D01*
X114620000Y-84060000D02*
X114620000Y-81400000D01*
X132460000Y-84060000D02*
X132460000Y-81400000D01*
X112020000Y-82730000D02*
X112020000Y-81400000D01*
X112020000Y-81400000D02*
X113350000Y-81400000D01*
X114620000Y-81400000D02*
X132460000Y-81400000D01*
%TO.C,Q1*%
X79370000Y-128050000D02*
X79370000Y-126640000D01*
X77040000Y-126640000D02*
X77710000Y-126640000D01*
X77050000Y-126640000D02*
X77050000Y-129375000D01*
X78710000Y-126640000D02*
X79370000Y-126640000D01*
%TO.C,J1*%
X63560000Y-147380000D02*
X62230000Y-147380000D01*
X63560000Y-146050000D02*
X63560000Y-147380000D01*
X63560000Y-144780000D02*
X63560000Y-142180000D01*
X63560000Y-144780000D02*
X60900000Y-144780000D01*
X63560000Y-142180000D02*
X60900000Y-142180000D01*
X60900000Y-144780000D02*
X60900000Y-142180000D01*
%TO.C,JP2*%
X63230000Y-88735000D02*
X63230000Y-94235000D01*
X61280000Y-88735000D02*
X63230000Y-88735000D01*
X60730000Y-89785000D02*
X60730000Y-90385000D01*
X61030000Y-90085000D02*
X60730000Y-89785000D01*
X60730000Y-90385000D02*
X61030000Y-90085000D01*
X63230000Y-94235000D02*
X61280000Y-94235000D01*
X61280000Y-94235000D02*
X61280000Y-88735000D01*
%TO.C,C6*%
X70060000Y-85581252D02*
X70060000Y-84158748D01*
X71880000Y-85581252D02*
X71880000Y-84158748D01*
%TO.C,U4*%
X65910000Y-135885000D02*
X65910000Y-129875000D01*
X72730000Y-133635000D02*
X72730000Y-129875000D01*
X65910000Y-129875000D02*
X67170000Y-129875000D01*
X72730000Y-129875000D02*
X71470000Y-129875000D01*
%TO.C,C4*%
X77751252Y-119655000D02*
X76328748Y-119655000D01*
X77751252Y-117835000D02*
X76328748Y-117835000D01*
%TO.C,J5*%
X69910000Y-119440000D02*
X68580000Y-119440000D01*
X69910000Y-118110000D02*
X69910000Y-119440000D01*
X69910000Y-116840000D02*
X69910000Y-114240000D01*
X69910000Y-116840000D02*
X67250000Y-116840000D01*
X69910000Y-114240000D02*
X67250000Y-114240000D01*
X67250000Y-116840000D02*
X67250000Y-114240000D01*
%TO.C,R1*%
X82380000Y-128234564D02*
X82380000Y-126780436D01*
X84200000Y-128234564D02*
X84200000Y-126780436D01*
%TO.C,F1*%
X66837936Y-142600000D02*
X68042064Y-142600000D01*
X66837936Y-144420000D02*
X68042064Y-144420000D01*
%TO.C,C10*%
X70066252Y-139655000D02*
X68643748Y-139655000D01*
X70066252Y-137835000D02*
X68643748Y-137835000D01*
%TO.C,D1*%
X89400000Y-128767500D02*
X87130000Y-128767500D01*
X87130000Y-128767500D02*
X87130000Y-132827500D01*
X89400000Y-132827500D02*
X89400000Y-128767500D01*
%TO.C,SW2*%
X58995000Y-81850000D02*
X60325000Y-81850000D01*
X58995000Y-83180000D02*
X58995000Y-81850000D01*
X58995000Y-84450000D02*
X58995000Y-87050000D01*
X58995000Y-84450000D02*
X61655000Y-84450000D01*
X58995000Y-87050000D02*
X61655000Y-87050000D01*
X61655000Y-84450000D02*
X61655000Y-87050000D01*
%TO.C,U1*%
X67585000Y-92285000D02*
X67585000Y-95885000D01*
X67585000Y-92285000D02*
X67585000Y-90085000D01*
X74355000Y-92285000D02*
X74355000Y-94485000D01*
X74355000Y-92285000D02*
X74355000Y-90085000D01*
%TD*%
M02*
