%TF.GenerationSoftware,KiCad,Pcbnew,7.0.1-3b83917a11~172~ubuntu20.04.1*%
%TF.CreationDate,2023-04-20T14:28:59+02:00*%
%TF.ProjectId,alarmclock,616c6172-6d63-46c6-9f63-6b2e6b696361,rev?*%
%TF.SameCoordinates,Original*%
%TF.FileFunction,Soldermask,Bot*%
%TF.FilePolarity,Negative*%
%FSLAX46Y46*%
G04 Gerber Fmt 4.6, Leading zero omitted, Abs format (unit mm)*
G04 Created by KiCad (PCBNEW 7.0.1-3b83917a11~172~ubuntu20.04.1) date 2023-04-20 14:28:59*
%MOMM*%
%LPD*%
G01*
G04 APERTURE LIST*
G04 Aperture macros list*
%AMRoundRect*
0 Rectangle with rounded corners*
0 $1 Rounding radius*
0 $2 $3 $4 $5 $6 $7 $8 $9 X,Y pos of 4 corners*
0 Add a 4 corners polygon primitive as box body*
4,1,4,$2,$3,$4,$5,$6,$7,$8,$9,$2,$3,0*
0 Add four circle primitives for the rounded corners*
1,1,$1+$1,$2,$3*
1,1,$1+$1,$4,$5*
1,1,$1+$1,$6,$7*
1,1,$1+$1,$8,$9*
0 Add four rect primitives between the rounded corners*
20,1,$1+$1,$2,$3,$4,$5,0*
20,1,$1+$1,$4,$5,$6,$7,0*
20,1,$1+$1,$6,$7,$8,$9,0*
20,1,$1+$1,$8,$9,$2,$3,0*%
G04 Aperture macros list end*
%ADD10R,2.100000X2.100000*%
%ADD11C,2.100000*%
%ADD12O,1.700000X1.700000*%
%ADD13R,1.700000X1.700000*%
%ADD14R,0.850000X0.850000*%
%ADD15O,0.850000X0.850000*%
%ADD16RoundRect,0.250000X-0.625000X0.312500X-0.625000X-0.312500X0.625000X-0.312500X0.625000X0.312500X0*%
%ADD17RoundRect,0.250000X-0.325000X-0.650000X0.325000X-0.650000X0.325000X0.650000X-0.325000X0.650000X0*%
%ADD18RoundRect,0.100000X0.637500X0.100000X-0.637500X0.100000X-0.637500X-0.100000X0.637500X-0.100000X0*%
G04 APERTURE END LIST*
D10*
%TO.C,BT1*%
X92755914Y-132715000D03*
D11*
X112755914Y-132715000D03*
%TD*%
D12*
%TO.C,J4*%
X117475000Y-49310000D03*
X114935000Y-49310000D03*
X112395000Y-49310000D03*
X109855000Y-49310000D03*
X107315000Y-49310000D03*
X104775000Y-49310000D03*
X102235000Y-49310000D03*
D13*
X99695000Y-49310000D03*
%TD*%
%TO.C,BZ1*%
X68580000Y-110490000D03*
D12*
X68580000Y-107950000D03*
%TD*%
%TO.C,J7*%
X77470000Y-99105000D03*
X77470000Y-101645000D03*
X77470000Y-104185000D03*
X77470000Y-106725000D03*
D13*
X77470000Y-109265000D03*
%TD*%
D14*
%TO.C,J2*%
X68430000Y-84935000D03*
D15*
X68430000Y-85935000D03*
X67430000Y-84935000D03*
X67430000Y-85935000D03*
X66430000Y-84935000D03*
X66430000Y-85935000D03*
X65430000Y-84935000D03*
X65430000Y-85935000D03*
X64430000Y-84935000D03*
X64430000Y-85935000D03*
%TD*%
D12*
%TO.C,J3*%
X117475000Y-37160000D03*
X114935000Y-37160000D03*
X112395000Y-37160000D03*
X109855000Y-37160000D03*
X107315000Y-37160000D03*
X104775000Y-37160000D03*
X102235000Y-37160000D03*
D13*
X99695000Y-37160000D03*
%TD*%
%TO.C,J1*%
X68290000Y-142555000D03*
D12*
X70830000Y-142555000D03*
%TD*%
D13*
%TO.C,J5*%
X68580000Y-118110000D03*
D12*
X68580000Y-115570000D03*
%TD*%
D13*
%TO.C,SW2*%
X63500000Y-110490000D03*
D12*
X63500000Y-107950000D03*
%TD*%
D16*
%TO.C,R10*%
X116830000Y-43565000D03*
X116830000Y-40640000D03*
%TD*%
D17*
%TO.C,C3*%
X90805000Y-40640000D03*
X87855000Y-40640000D03*
%TD*%
D18*
%TO.C,U2*%
X87620000Y-42500000D03*
X87620000Y-43150000D03*
X87620000Y-43800000D03*
X87620000Y-44450000D03*
X87620000Y-45100000D03*
X87620000Y-45750000D03*
X87620000Y-46400000D03*
X87620000Y-47050000D03*
X93345000Y-47050000D03*
X93345000Y-46400000D03*
X93345000Y-45750000D03*
X93345000Y-45100000D03*
X93345000Y-44450000D03*
X93345000Y-43800000D03*
X93345000Y-43150000D03*
X93345000Y-42500000D03*
%TD*%
D16*
%TO.C,R4*%
X102235000Y-43372500D03*
X102235000Y-40447500D03*
%TD*%
%TO.C,R18*%
X116955000Y-56265000D03*
X116955000Y-53340000D03*
%TD*%
%TO.C,R12*%
X102235000Y-54995000D03*
X102235000Y-52070000D03*
%TD*%
%TO.C,R17*%
X113665000Y-56265000D03*
X113665000Y-53340000D03*
%TD*%
D18*
%TO.C,U3*%
X86995000Y-53960000D03*
X86995000Y-54610000D03*
X86995000Y-55260000D03*
X86995000Y-55910000D03*
X86995000Y-56560000D03*
X86995000Y-57210000D03*
X86995000Y-57860000D03*
X86995000Y-58510000D03*
X92720000Y-58510000D03*
X92720000Y-57860000D03*
X92720000Y-57210000D03*
X92720000Y-56560000D03*
X92720000Y-55910000D03*
X92720000Y-55260000D03*
X92720000Y-54610000D03*
X92720000Y-53960000D03*
%TD*%
D16*
%TO.C,R9*%
X99695000Y-54995000D03*
X99695000Y-52070000D03*
%TD*%
%TO.C,R8*%
X114290000Y-43625000D03*
X114290000Y-40700000D03*
%TD*%
D12*
%TO.C,J6*%
X78105000Y-43180000D03*
X78105000Y-45720000D03*
X78105000Y-48260000D03*
X78105000Y-50800000D03*
D13*
X78105000Y-53340000D03*
%TD*%
D17*
%TO.C,C2*%
X89945000Y-52070000D03*
X86995000Y-52070000D03*
%TD*%
D16*
%TO.C,R3*%
X99695000Y-43372500D03*
X99695000Y-40447500D03*
%TD*%
%TO.C,R11*%
X119370000Y-43565000D03*
X119370000Y-40640000D03*
%TD*%
M02*
