%TF.GenerationSoftware,KiCad,Pcbnew,7.0.8-7.0.8~ubuntu20.04.1*%
%TF.CreationDate,2023-10-10T13:21:00+02:00*%
%TF.ProjectId,alarmclock,616c6172-6d63-46c6-9f63-6b2e6b696361,rev?*%
%TF.SameCoordinates,Original*%
%TF.FileFunction,Copper,L1,Top*%
%TF.FilePolarity,Positive*%
%FSLAX46Y46*%
G04 Gerber Fmt 4.6, Leading zero omitted, Abs format (unit mm)*
G04 Created by KiCad (PCBNEW 7.0.8-7.0.8~ubuntu20.04.1) date 2023-10-10 13:21:00*
%MOMM*%
%LPD*%
G01*
G04 APERTURE LIST*
G04 Aperture macros list*
%AMRoundRect*
0 Rectangle with rounded corners*
0 $1 Rounding radius*
0 $2 $3 $4 $5 $6 $7 $8 $9 X,Y pos of 4 corners*
0 Add a 4 corners polygon primitive as box body*
4,1,4,$2,$3,$4,$5,$6,$7,$8,$9,$2,$3,0*
0 Add four circle primitives for the rounded corners*
1,1,$1+$1,$2,$3*
1,1,$1+$1,$4,$5*
1,1,$1+$1,$6,$7*
1,1,$1+$1,$8,$9*
0 Add four rect primitives between the rounded corners*
20,1,$1+$1,$2,$3,$4,$5,0*
20,1,$1+$1,$4,$5,$6,$7,0*
20,1,$1+$1,$6,$7,$8,$9,0*
20,1,$1+$1,$8,$9,$2,$3,0*%
%AMFreePoly0*
4,1,6,1.000000,0.000000,0.500000,-0.750000,-0.500000,-0.750000,-0.500000,0.750000,0.500000,0.750000,1.000000,0.000000,1.000000,0.000000,$1*%
%AMFreePoly1*
4,1,6,0.500000,-0.750000,-0.650000,-0.750000,-0.150000,0.000000,-0.650000,0.750000,0.500000,0.750000,0.500000,-0.750000,0.500000,-0.750000,$1*%
%AMFreePoly2*
4,1,7,0.700000,0.000000,1.200000,-0.750000,-1.200000,-0.750000,-0.700000,0.000000,-1.200000,0.750000,1.200000,0.750000,0.700000,0.000000,0.700000,0.000000,$1*%
G04 Aperture macros list end*
%ADD10C,0.300000*%
%TA.AperFunction,NonConductor*%
%ADD11C,0.300000*%
%TD*%
%TA.AperFunction,SMDPad,CuDef*%
%ADD12R,0.990600X1.041400*%
%TD*%
%TA.AperFunction,SMDPad,CuDef*%
%ADD13RoundRect,0.250000X0.650000X-0.325000X0.650000X0.325000X-0.650000X0.325000X-0.650000X-0.325000X0*%
%TD*%
%TA.AperFunction,ComponentPad*%
%ADD14C,2.100000*%
%TD*%
%TA.AperFunction,ComponentPad*%
%ADD15R,2.100000X2.100000*%
%TD*%
%TA.AperFunction,ComponentPad*%
%ADD16R,1.700000X1.700000*%
%TD*%
%TA.AperFunction,ComponentPad*%
%ADD17O,1.700000X1.700000*%
%TD*%
%TA.AperFunction,SMDPad,CuDef*%
%ADD18RoundRect,0.250000X-0.650000X0.325000X-0.650000X-0.325000X0.650000X-0.325000X0.650000X0.325000X0*%
%TD*%
%TA.AperFunction,ComponentPad*%
%ADD19R,0.850000X0.850000*%
%TD*%
%TA.AperFunction,ComponentPad*%
%ADD20O,0.850000X0.850000*%
%TD*%
%TA.AperFunction,SMDPad,CuDef*%
%ADD21FreePoly0,90.000000*%
%TD*%
%TA.AperFunction,SMDPad,CuDef*%
%ADD22FreePoly1,90.000000*%
%TD*%
%TA.AperFunction,SMDPad,CuDef*%
%ADD23R,0.450000X1.500000*%
%TD*%
%TA.AperFunction,SMDPad,CuDef*%
%ADD24FreePoly0,270.000000*%
%TD*%
%TA.AperFunction,SMDPad,CuDef*%
%ADD25FreePoly2,270.000000*%
%TD*%
%TA.AperFunction,SMDPad,CuDef*%
%ADD26R,1.500000X2.000000*%
%TD*%
%TA.AperFunction,SMDPad,CuDef*%
%ADD27R,3.800000X2.000000*%
%TD*%
%TA.AperFunction,SMDPad,CuDef*%
%ADD28RoundRect,0.250000X0.325000X0.650000X-0.325000X0.650000X-0.325000X-0.650000X0.325000X-0.650000X0*%
%TD*%
%TA.AperFunction,SMDPad,CuDef*%
%ADD29RoundRect,0.250000X0.625000X-0.312500X0.625000X0.312500X-0.625000X0.312500X-0.625000X-0.312500X0*%
%TD*%
%TA.AperFunction,SMDPad,CuDef*%
%ADD30RoundRect,0.250000X-0.375000X-0.625000X0.375000X-0.625000X0.375000X0.625000X-0.375000X0.625000X0*%
%TD*%
%TA.AperFunction,SMDPad,CuDef*%
%ADD31RoundRect,0.250001X-0.624999X0.462499X-0.624999X-0.462499X0.624999X-0.462499X0.624999X0.462499X0*%
%TD*%
%TA.AperFunction,SMDPad,CuDef*%
%ADD32RoundRect,0.100000X0.100000X-0.637500X0.100000X0.637500X-0.100000X0.637500X-0.100000X-0.637500X0*%
%TD*%
%TA.AperFunction,ViaPad*%
%ADD33C,0.800000*%
%TD*%
%TA.AperFunction,Conductor*%
%ADD34C,0.250000*%
%TD*%
G04 APERTURE END LIST*
D10*
D11*
X143993082Y-145547257D02*
X144707368Y-145547257D01*
X143850225Y-145975828D02*
X144350225Y-144475828D01*
X144350225Y-144475828D02*
X144850225Y-145975828D01*
X145564510Y-145975828D02*
X145421653Y-145904400D01*
X145421653Y-145904400D02*
X145350224Y-145761542D01*
X145350224Y-145761542D02*
X145350224Y-144475828D01*
X146778796Y-145975828D02*
X146778796Y-145190114D01*
X146778796Y-145190114D02*
X146707367Y-145047257D01*
X146707367Y-145047257D02*
X146564510Y-144975828D01*
X146564510Y-144975828D02*
X146278796Y-144975828D01*
X146278796Y-144975828D02*
X146135938Y-145047257D01*
X146778796Y-145904400D02*
X146635938Y-145975828D01*
X146635938Y-145975828D02*
X146278796Y-145975828D01*
X146278796Y-145975828D02*
X146135938Y-145904400D01*
X146135938Y-145904400D02*
X146064510Y-145761542D01*
X146064510Y-145761542D02*
X146064510Y-145618685D01*
X146064510Y-145618685D02*
X146135938Y-145475828D01*
X146135938Y-145475828D02*
X146278796Y-145404400D01*
X146278796Y-145404400D02*
X146635938Y-145404400D01*
X146635938Y-145404400D02*
X146778796Y-145332971D01*
X147493081Y-145975828D02*
X147493081Y-144975828D01*
X147493081Y-145261542D02*
X147564510Y-145118685D01*
X147564510Y-145118685D02*
X147635939Y-145047257D01*
X147635939Y-145047257D02*
X147778796Y-144975828D01*
X147778796Y-144975828D02*
X147921653Y-144975828D01*
X148421652Y-145975828D02*
X148421652Y-144975828D01*
X148421652Y-145118685D02*
X148493081Y-145047257D01*
X148493081Y-145047257D02*
X148635938Y-144975828D01*
X148635938Y-144975828D02*
X148850224Y-144975828D01*
X148850224Y-144975828D02*
X148993081Y-145047257D01*
X148993081Y-145047257D02*
X149064510Y-145190114D01*
X149064510Y-145190114D02*
X149064510Y-145975828D01*
X149064510Y-145190114D02*
X149135938Y-145047257D01*
X149135938Y-145047257D02*
X149278795Y-144975828D01*
X149278795Y-144975828D02*
X149493081Y-144975828D01*
X149493081Y-144975828D02*
X149635938Y-145047257D01*
X149635938Y-145047257D02*
X149707367Y-145190114D01*
X149707367Y-145190114D02*
X149707367Y-145975828D01*
X151064510Y-145904400D02*
X150921652Y-145975828D01*
X150921652Y-145975828D02*
X150635938Y-145975828D01*
X150635938Y-145975828D02*
X150493081Y-145904400D01*
X150493081Y-145904400D02*
X150421652Y-145832971D01*
X150421652Y-145832971D02*
X150350224Y-145690114D01*
X150350224Y-145690114D02*
X150350224Y-145261542D01*
X150350224Y-145261542D02*
X150421652Y-145118685D01*
X150421652Y-145118685D02*
X150493081Y-145047257D01*
X150493081Y-145047257D02*
X150635938Y-144975828D01*
X150635938Y-144975828D02*
X150921652Y-144975828D01*
X150921652Y-144975828D02*
X151064510Y-145047257D01*
X151921652Y-145975828D02*
X151778795Y-145904400D01*
X151778795Y-145904400D02*
X151707366Y-145761542D01*
X151707366Y-145761542D02*
X151707366Y-144475828D01*
X152707366Y-145975828D02*
X152564509Y-145904400D01*
X152564509Y-145904400D02*
X152493080Y-145832971D01*
X152493080Y-145832971D02*
X152421652Y-145690114D01*
X152421652Y-145690114D02*
X152421652Y-145261542D01*
X152421652Y-145261542D02*
X152493080Y-145118685D01*
X152493080Y-145118685D02*
X152564509Y-145047257D01*
X152564509Y-145047257D02*
X152707366Y-144975828D01*
X152707366Y-144975828D02*
X152921652Y-144975828D01*
X152921652Y-144975828D02*
X153064509Y-145047257D01*
X153064509Y-145047257D02*
X153135938Y-145118685D01*
X153135938Y-145118685D02*
X153207366Y-145261542D01*
X153207366Y-145261542D02*
X153207366Y-145690114D01*
X153207366Y-145690114D02*
X153135938Y-145832971D01*
X153135938Y-145832971D02*
X153064509Y-145904400D01*
X153064509Y-145904400D02*
X152921652Y-145975828D01*
X152921652Y-145975828D02*
X152707366Y-145975828D01*
X154493081Y-145904400D02*
X154350223Y-145975828D01*
X154350223Y-145975828D02*
X154064509Y-145975828D01*
X154064509Y-145975828D02*
X153921652Y-145904400D01*
X153921652Y-145904400D02*
X153850223Y-145832971D01*
X153850223Y-145832971D02*
X153778795Y-145690114D01*
X153778795Y-145690114D02*
X153778795Y-145261542D01*
X153778795Y-145261542D02*
X153850223Y-145118685D01*
X153850223Y-145118685D02*
X153921652Y-145047257D01*
X153921652Y-145047257D02*
X154064509Y-144975828D01*
X154064509Y-144975828D02*
X154350223Y-144975828D01*
X154350223Y-144975828D02*
X154493081Y-145047257D01*
X155135937Y-145975828D02*
X155135937Y-144475828D01*
X155278795Y-145404400D02*
X155707366Y-145975828D01*
X155707366Y-144975828D02*
X155135937Y-145547257D01*
X144921653Y-148390828D02*
X144421653Y-147676542D01*
X144064510Y-148390828D02*
X144064510Y-146890828D01*
X144064510Y-146890828D02*
X144635939Y-146890828D01*
X144635939Y-146890828D02*
X144778796Y-146962257D01*
X144778796Y-146962257D02*
X144850225Y-147033685D01*
X144850225Y-147033685D02*
X144921653Y-147176542D01*
X144921653Y-147176542D02*
X144921653Y-147390828D01*
X144921653Y-147390828D02*
X144850225Y-147533685D01*
X144850225Y-147533685D02*
X144778796Y-147605114D01*
X144778796Y-147605114D02*
X144635939Y-147676542D01*
X144635939Y-147676542D02*
X144064510Y-147676542D01*
X146135939Y-148319400D02*
X145993082Y-148390828D01*
X145993082Y-148390828D02*
X145707368Y-148390828D01*
X145707368Y-148390828D02*
X145564510Y-148319400D01*
X145564510Y-148319400D02*
X145493082Y-148176542D01*
X145493082Y-148176542D02*
X145493082Y-147605114D01*
X145493082Y-147605114D02*
X145564510Y-147462257D01*
X145564510Y-147462257D02*
X145707368Y-147390828D01*
X145707368Y-147390828D02*
X145993082Y-147390828D01*
X145993082Y-147390828D02*
X146135939Y-147462257D01*
X146135939Y-147462257D02*
X146207368Y-147605114D01*
X146207368Y-147605114D02*
X146207368Y-147747971D01*
X146207368Y-147747971D02*
X145493082Y-147890828D01*
X146707367Y-147390828D02*
X147064510Y-148390828D01*
X147064510Y-148390828D02*
X147421653Y-147390828D01*
X147993081Y-148390828D02*
X147993081Y-147390828D01*
X147993081Y-146890828D02*
X147921653Y-146962257D01*
X147921653Y-146962257D02*
X147993081Y-147033685D01*
X147993081Y-147033685D02*
X148064510Y-146962257D01*
X148064510Y-146962257D02*
X147993081Y-146890828D01*
X147993081Y-146890828D02*
X147993081Y-147033685D01*
X148635939Y-148319400D02*
X148778796Y-148390828D01*
X148778796Y-148390828D02*
X149064510Y-148390828D01*
X149064510Y-148390828D02*
X149207367Y-148319400D01*
X149207367Y-148319400D02*
X149278796Y-148176542D01*
X149278796Y-148176542D02*
X149278796Y-148105114D01*
X149278796Y-148105114D02*
X149207367Y-147962257D01*
X149207367Y-147962257D02*
X149064510Y-147890828D01*
X149064510Y-147890828D02*
X148850225Y-147890828D01*
X148850225Y-147890828D02*
X148707367Y-147819400D01*
X148707367Y-147819400D02*
X148635939Y-147676542D01*
X148635939Y-147676542D02*
X148635939Y-147605114D01*
X148635939Y-147605114D02*
X148707367Y-147462257D01*
X148707367Y-147462257D02*
X148850225Y-147390828D01*
X148850225Y-147390828D02*
X149064510Y-147390828D01*
X149064510Y-147390828D02*
X149207367Y-147462257D01*
X149921653Y-148390828D02*
X149921653Y-147390828D01*
X149921653Y-146890828D02*
X149850225Y-146962257D01*
X149850225Y-146962257D02*
X149921653Y-147033685D01*
X149921653Y-147033685D02*
X149993082Y-146962257D01*
X149993082Y-146962257D02*
X149921653Y-146890828D01*
X149921653Y-146890828D02*
X149921653Y-147033685D01*
X150850225Y-148390828D02*
X150707368Y-148319400D01*
X150707368Y-148319400D02*
X150635939Y-148247971D01*
X150635939Y-148247971D02*
X150564511Y-148105114D01*
X150564511Y-148105114D02*
X150564511Y-147676542D01*
X150564511Y-147676542D02*
X150635939Y-147533685D01*
X150635939Y-147533685D02*
X150707368Y-147462257D01*
X150707368Y-147462257D02*
X150850225Y-147390828D01*
X150850225Y-147390828D02*
X151064511Y-147390828D01*
X151064511Y-147390828D02*
X151207368Y-147462257D01*
X151207368Y-147462257D02*
X151278797Y-147533685D01*
X151278797Y-147533685D02*
X151350225Y-147676542D01*
X151350225Y-147676542D02*
X151350225Y-148105114D01*
X151350225Y-148105114D02*
X151278797Y-148247971D01*
X151278797Y-148247971D02*
X151207368Y-148319400D01*
X151207368Y-148319400D02*
X151064511Y-148390828D01*
X151064511Y-148390828D02*
X150850225Y-148390828D01*
X151993082Y-147390828D02*
X151993082Y-148390828D01*
X151993082Y-147533685D02*
X152064511Y-147462257D01*
X152064511Y-147462257D02*
X152207368Y-147390828D01*
X152207368Y-147390828D02*
X152421654Y-147390828D01*
X152421654Y-147390828D02*
X152564511Y-147462257D01*
X152564511Y-147462257D02*
X152635940Y-147605114D01*
X152635940Y-147605114D02*
X152635940Y-148390828D01*
X154278797Y-146890828D02*
X154778797Y-148390828D01*
X154778797Y-148390828D02*
X155278797Y-146890828D01*
X156564511Y-148390828D02*
X155707368Y-148390828D01*
X156135939Y-148390828D02*
X156135939Y-146890828D01*
X156135939Y-146890828D02*
X155993082Y-147105114D01*
X155993082Y-147105114D02*
X155850225Y-147247971D01*
X155850225Y-147247971D02*
X155707368Y-147319400D01*
D12*
%TO.P,X2,4,SUPPLY*%
%TO.N,+BATT*%
X65980000Y-97790000D03*
%TO.P,X2,3,OUTPUT*%
%TO.N,OSC_IN*%
X68580000Y-97790000D03*
%TO.P,X2,2,GND*%
%TO.N,GND*%
X68580000Y-99639998D03*
%TO.P,X2,1,OUTPUT_ENABLE*%
%TO.N,+BATT*%
X65980000Y-99639998D03*
%TD*%
D13*
%TO.P,C5,1*%
%TO.N,+BATT*%
X75692000Y-92104000D03*
%TO.P,C5,2*%
%TO.N,GND*%
X75692000Y-89154000D03*
%TD*%
D14*
%TO.P,BT1,2,-*%
%TO.N,GND*%
X112755914Y-132715000D03*
D15*
%TO.P,BT1,1,+*%
%TO.N,Net-(BT1-+)*%
X92755914Y-132715000D03*
%TD*%
D16*
%TO.P,J4,1,Pin_1*%
%TO.N,Net-(J4-Pin_1)*%
X113350000Y-94880000D03*
D17*
%TO.P,J4,2,Pin_2*%
%TO.N,Net-(J4-Pin_2)*%
X115890000Y-94880000D03*
%TO.P,J4,3,Pin_3*%
%TO.N,Net-(J4-Pin_3)*%
X118430000Y-94880000D03*
%TO.P,J4,4,Pin_4*%
%TO.N,Net-(J4-Pin_4)*%
X120970000Y-94880000D03*
%TO.P,J4,5,Pin_5*%
%TO.N,Net-(J4-Pin_5)*%
X123510000Y-94880000D03*
%TO.P,J4,6,Pin_6*%
%TO.N,Net-(J4-Pin_6)*%
X126050000Y-94880000D03*
%TO.P,J4,7,Pin_7*%
%TO.N,Net-(J4-Pin_7)*%
X128590000Y-94880000D03*
%TO.P,J4,8,Pin_8*%
%TO.N,Net-(J4-Pin_8)*%
X131130000Y-94880000D03*
%TD*%
D18*
%TO.P,C11,1*%
%TO.N,+3.3V*%
X63210000Y-132395000D03*
%TO.P,C11,2*%
%TO.N,GND*%
X63210000Y-135345000D03*
%TD*%
D16*
%TO.P,BZ1,1,-*%
%TO.N,GND*%
X68580000Y-110490000D03*
D17*
%TO.P,BZ1,2,+*%
%TO.N,Alarm*%
X68580000Y-107950000D03*
%TD*%
D16*
%TO.P,J7,1,Pin_1*%
%TO.N,GND*%
X78740000Y-105410000D03*
D17*
%TO.P,J7,2,Pin_2*%
%TO.N,SRCLK*%
X78740000Y-102870000D03*
%TO.P,J7,3,Pin_3*%
%TO.N,RCLK*%
X78740000Y-100330000D03*
%TO.P,J7,4,Pin_4*%
%TO.N,SHIFT_IN*%
X78740000Y-97790000D03*
%TO.P,J7,5,Pin_5*%
%TO.N,+5V*%
X78740000Y-95250000D03*
%TD*%
D19*
%TO.P,J2,1,Pin_1*%
%TO.N,+3V3*%
X68430000Y-84935000D03*
D20*
%TO.P,J2,2,Pin_2*%
%TO.N,SWDIO*%
X68430000Y-85935000D03*
%TO.P,J2,3,Pin_3*%
%TO.N,GND*%
X67430000Y-84935000D03*
%TO.P,J2,4,Pin_4*%
%TO.N,SWCLK*%
X67430000Y-85935000D03*
%TO.P,J2,5,Pin_5*%
%TO.N,GND*%
X66430000Y-84935000D03*
%TO.P,J2,6,Pin_6*%
%TO.N,unconnected-(J2-Pin_6-Pad6)*%
X66430000Y-85935000D03*
%TO.P,J2,7,Pin_7*%
%TO.N,unconnected-(J2-Pin_7-Pad7)*%
X65430000Y-84935000D03*
%TO.P,J2,8,Pin_8*%
%TO.N,unconnected-(J2-Pin_8-Pad8)*%
X65430000Y-85935000D03*
%TO.P,J2,9,Pin_9*%
%TO.N,GND*%
X64430000Y-84935000D03*
%TO.P,J2,10,Pin_10*%
%TO.N,NRST*%
X64430000Y-85935000D03*
%TD*%
D16*
%TO.P,J8,1,Pin_1*%
%TO.N,GND*%
X84455000Y-93345000D03*
D17*
%TO.P,J8,2,Pin_2*%
X84455000Y-90805000D03*
%TO.P,J8,3,Pin_3*%
%TO.N,Rotary_B*%
X84455000Y-88265000D03*
%TO.P,J8,4,Pin_4*%
%TO.N,Switch_Encoder*%
X84455000Y-85725000D03*
%TO.P,J8,5,Pin_5*%
%TO.N,Rotary_A*%
X84455000Y-83185000D03*
%TD*%
D21*
%TO.P,JP1,1,A*%
%TO.N,+3.3V*%
X74400000Y-128040000D03*
D22*
%TO.P,JP1,2,B*%
%TO.N,+BATT*%
X74400000Y-126590000D03*
%TD*%
D16*
%TO.P,J3,1,Pin_1*%
%TO.N,Net-(J3-Pin_1)*%
X113350000Y-82730000D03*
D17*
%TO.P,J3,2,Pin_2*%
%TO.N,Net-(J3-Pin_2)*%
X115890000Y-82730000D03*
%TO.P,J3,3,Pin_3*%
%TO.N,Net-(J3-Pin_3)*%
X118430000Y-82730000D03*
%TO.P,J3,4,Pin_4*%
%TO.N,Net-(J3-Pin_4)*%
X120970000Y-82730000D03*
%TO.P,J3,5,Pin_5*%
%TO.N,Net-(J3-Pin_5)*%
X123510000Y-82730000D03*
%TO.P,J3,6,Pin_6*%
%TO.N,Net-(J3-Pin_6)*%
X126050000Y-82730000D03*
%TO.P,J3,7,Pin_7*%
%TO.N,Net-(J3-Pin_7)*%
X128590000Y-82730000D03*
%TO.P,J3,8,Pin_8*%
%TO.N,Net-(J3-Pin_8)*%
X131130000Y-82730000D03*
%TD*%
D23*
%TO.P,Q1,1,D*%
%TO.N,+3.3V*%
X77560000Y-128705000D03*
%TO.P,Q1,2,G*%
%TO.N,Net-(Q1-G)*%
X78860000Y-128705000D03*
%TO.P,Q1,3,S*%
%TO.N,+BATT*%
X78210000Y-126045000D03*
%TD*%
D16*
%TO.P,J1,1,Pin_1*%
%TO.N,GND*%
X62230000Y-146050000D03*
D17*
%TO.P,J1,2,Pin_2*%
%TO.N,Net-(J1-Pin_2)*%
X62230000Y-143510000D03*
%TD*%
D24*
%TO.P,JP2,1,A*%
%TO.N,+BATT*%
X62230000Y-89485000D03*
D25*
%TO.P,JP2,2,C*%
%TO.N,BOOT0*%
X62230000Y-91485000D03*
D21*
%TO.P,JP2,3,B*%
%TO.N,GND*%
X62230000Y-93485000D03*
%TD*%
D13*
%TO.P,C6,1*%
%TO.N,+BATT*%
X70970000Y-86345000D03*
%TO.P,C6,2*%
%TO.N,GND*%
X70970000Y-83395000D03*
%TD*%
D26*
%TO.P,U4,1,GND*%
%TO.N,GND*%
X67020000Y-134935000D03*
%TO.P,U4,2,VO*%
%TO.N,+3.3V*%
X69320000Y-134935000D03*
D27*
X69320000Y-128635000D03*
D26*
%TO.P,U4,3,VI*%
%TO.N,+5V*%
X71620000Y-134935000D03*
%TD*%
D28*
%TO.P,C4,1*%
%TO.N,+BATT*%
X78515000Y-118745000D03*
%TO.P,C4,2*%
%TO.N,GND*%
X75565000Y-118745000D03*
%TD*%
D16*
%TO.P,J5,1,Pin_1*%
%TO.N,GND*%
X68580000Y-118110000D03*
D17*
%TO.P,J5,2,Pin_2*%
%TO.N,Mute_button*%
X68580000Y-115570000D03*
%TD*%
D29*
%TO.P,R1,1*%
%TO.N,Net-(Q1-G)*%
X83290000Y-128970000D03*
%TO.P,R1,2*%
%TO.N,Vbat_enable*%
X83290000Y-126045000D03*
%TD*%
D30*
%TO.P,F1,1*%
%TO.N,Net-(J1-Pin_2)*%
X66040000Y-143510000D03*
%TO.P,F1,2*%
%TO.N,+5V*%
X68840000Y-143510000D03*
%TD*%
D28*
%TO.P,C10,1*%
%TO.N,+5V*%
X70830000Y-138745000D03*
%TO.P,C10,2*%
%TO.N,GND*%
X67880000Y-138745000D03*
%TD*%
D31*
%TO.P,D1,1,K*%
%TO.N,+BATT*%
X88265000Y-129740000D03*
%TO.P,D1,2,A*%
%TO.N,Net-(BT1-+)*%
X88265000Y-132715000D03*
%TD*%
D16*
%TO.P,SW2,1,1*%
%TO.N,GND*%
X60325000Y-83180000D03*
D17*
%TO.P,SW2,2,2*%
%TO.N,NRST*%
X60325000Y-85720000D03*
%TD*%
D32*
%TO.P,U1,1,BOOT0*%
%TO.N,BOOT0*%
X68045000Y-95147500D03*
%TO.P,U1,2,PC14*%
%TO.N,OSC_IN*%
X68695000Y-95147500D03*
%TO.P,U1,3,PC15*%
%TO.N,unconnected-(U1-PC15-Pad3)*%
X69345000Y-95147500D03*
%TO.P,U1,4,NRST*%
%TO.N,NRST*%
X69995000Y-95147500D03*
%TO.P,U1,5,VDDA*%
%TO.N,+BATT*%
X70645000Y-95147500D03*
%TO.P,U1,6,PA0*%
%TO.N,Alarm*%
X71295000Y-95147500D03*
%TO.P,U1,7,PA1*%
%TO.N,Mute_button*%
X71945000Y-95147500D03*
%TO.P,U1,8,PA2*%
%TO.N,SRCLK*%
X72595000Y-95147500D03*
%TO.P,U1,9,PA3*%
%TO.N,RCLK*%
X73245000Y-95147500D03*
%TO.P,U1,10,PA4*%
%TO.N,SHIFT_IN*%
X73895000Y-95147500D03*
%TO.P,U1,11,PA5*%
%TO.N,Rotary_B*%
X73895000Y-89422500D03*
%TO.P,U1,12,PA6*%
%TO.N,Switch_Encoder*%
X73245000Y-89422500D03*
%TO.P,U1,13,PA7*%
%TO.N,Rotary_A*%
X72595000Y-89422500D03*
%TO.P,U1,14,PB1*%
%TO.N,+3.3V*%
X71945000Y-89422500D03*
%TO.P,U1,15,VSS*%
%TO.N,GND*%
X71295000Y-89422500D03*
%TO.P,U1,16,VDD*%
%TO.N,+BATT*%
X70645000Y-89422500D03*
%TO.P,U1,17,PA9*%
%TO.N,Vbat_enable*%
X69995000Y-89422500D03*
%TO.P,U1,18,PA10*%
%TO.N,unconnected-(U1-PA10-Pad18)*%
X69345000Y-89422500D03*
%TO.P,U1,19,PA13*%
%TO.N,SWDIO*%
X68695000Y-89422500D03*
%TO.P,U1,20,PA14*%
%TO.N,SWCLK*%
X68045000Y-89422500D03*
%TD*%
D16*
%TO.P,J6,1,Pin_1*%
%TO.N,GND*%
X91760000Y-98910000D03*
D17*
%TO.P,J6,2,Pin_2*%
%TO.N,SRCLK_DIS*%
X91760000Y-96370000D03*
%TO.P,J6,3,Pin_3*%
%TO.N,RCLK_DIS*%
X91760000Y-93830000D03*
%TO.P,J6,4,Pin_4*%
%TO.N,SHIFT_IN_DIS*%
X91760000Y-91290000D03*
%TO.P,J6,5,Pin_5*%
%TO.N,+5V*%
X91760000Y-88750000D03*
%TD*%
D33*
%TO.N,GND*%
X71120000Y-81915000D03*
X80010000Y-114300000D03*
X72390000Y-91440000D03*
X72390000Y-93218000D03*
X76200000Y-127000000D03*
X77470000Y-91440000D03*
X65024000Y-135636000D03*
X66675000Y-87630000D03*
X68580000Y-92964000D03*
X71628000Y-87884000D03*
X65786000Y-94234000D03*
X76200000Y-127000000D03*
X80010000Y-86995000D03*
X80010000Y-84455000D03*
X76200000Y-127000000D03*
X75565000Y-120650000D03*
%TO.N,+5V*%
X98745000Y-104140000D03*
X99380000Y-97640000D03*
X99380000Y-92560000D03*
X99380000Y-86210000D03*
%TO.N,+BATT*%
X78105000Y-122555000D03*
X86360000Y-123190000D03*
%TO.N,NRST*%
X69850000Y-92710000D03*
%TO.N,+3.3V*%
X66675000Y-130810000D03*
X67945000Y-132080000D03*
X70485000Y-126365000D03*
X69215000Y-130810000D03*
X66675000Y-125095000D03*
X69215000Y-125095000D03*
X70485000Y-132080000D03*
X67945000Y-125095000D03*
X69215000Y-126365000D03*
X66675000Y-132080000D03*
X67945000Y-126365000D03*
X67945000Y-130810000D03*
X70485000Y-125095000D03*
X69215000Y-132080000D03*
X70485000Y-130810000D03*
X66675000Y-126365000D03*
%TO.N,Vbat_enable*%
X83820000Y-119380000D03*
X69850000Y-87630000D03*
%TO.N,Net-(U2-QA)*%
X112080000Y-89945500D03*
X103190000Y-88750000D03*
%TO.N,Net-(U2-QB)*%
X108337000Y-87995500D03*
X115890000Y-89945500D03*
%TO.N,Net-(U3-QA)*%
X101920000Y-100180000D03*
X113350000Y-101450000D03*
%TO.N,Net-(U3-QB)*%
X115890000Y-101450000D03*
X108270000Y-98910000D03*
%TO.N,RCLK_DIS*%
X98110000Y-101450000D03*
X94300000Y-91290000D03*
%TD*%
D34*
%TO.N,+BATT*%
X65980000Y-99639998D02*
X65980000Y-97790000D01*
X65980000Y-97790000D02*
X65980000Y-97948598D01*
X65980000Y-97948598D02*
X66825700Y-98794298D01*
X70645000Y-95147500D02*
X70645000Y-97200620D01*
X70645000Y-97200620D02*
X69051322Y-98794298D01*
X69051322Y-98794298D02*
X66825700Y-98794298D01*
X66825700Y-98794298D02*
X65980000Y-99639998D01*
%TO.N,OSC_IN*%
X68695000Y-95147500D02*
X68695000Y-97675000D01*
X68695000Y-97675000D02*
X68580000Y-97790000D01*
%TO.N,Alarm*%
X71295000Y-105235000D02*
X68580000Y-107950000D01*
X71295000Y-95147500D02*
X71295000Y-105235000D01*
%TO.N,GND*%
X71295000Y-89422500D02*
X71295000Y-88217000D01*
X63210000Y-135140000D02*
X63415000Y-134935000D01*
X71120000Y-83245000D02*
X70970000Y-83395000D01*
X71374000Y-88138000D02*
X71295000Y-88217000D01*
X65024000Y-135382000D02*
X65024000Y-135636000D01*
X67880000Y-138745000D02*
X68290000Y-139155000D01*
X71120000Y-81915000D02*
X71120000Y-83245000D01*
X63210000Y-135345000D02*
X63247000Y-135382000D01*
X71295000Y-88217000D02*
X71628000Y-87884000D01*
X75565000Y-118745000D02*
X75565000Y-120650000D01*
%TO.N,+5V*%
X59690000Y-124460000D02*
X62230000Y-121920000D01*
X70830000Y-141520000D02*
X68840000Y-143510000D01*
X99380000Y-103505000D02*
X98745000Y-104140000D01*
X70830000Y-138745000D02*
X68446000Y-136361000D01*
X73660000Y-115570000D02*
X80830000Y-108400000D01*
X99380000Y-97640000D02*
X99380000Y-86210000D01*
X71120000Y-121920000D02*
X73660000Y-119380000D01*
X70830000Y-138745000D02*
X71620000Y-137955000D01*
X68446000Y-136361000D02*
X60161000Y-136361000D01*
X80830000Y-108400000D02*
X80830000Y-97340000D01*
X71620000Y-137955000D02*
X71620000Y-137160000D01*
X73660000Y-119380000D02*
X73660000Y-115570000D01*
X99380000Y-97640000D02*
X99380000Y-103505000D01*
X59690000Y-135890000D02*
X59690000Y-124460000D01*
X60161000Y-136361000D02*
X59690000Y-135890000D01*
X62230000Y-121920000D02*
X71120000Y-121920000D01*
X70830000Y-138745000D02*
X70830000Y-141520000D01*
X80830000Y-97340000D02*
X78740000Y-95250000D01*
X71620000Y-134485000D02*
X71620000Y-134935000D01*
X71620000Y-137160000D02*
X71620000Y-134935000D01*
%TO.N,+BATT*%
X81280000Y-93980000D02*
X79756000Y-92456000D01*
X76044000Y-92456000D02*
X75692000Y-92104000D01*
X70090000Y-90715000D02*
X70645000Y-90160000D01*
X74945000Y-126045000D02*
X78210000Y-126045000D01*
X66585000Y-90715000D02*
X70090000Y-90715000D01*
X70645000Y-92710000D02*
X70645000Y-95147500D01*
X81280000Y-110490000D02*
X81280000Y-93980000D01*
X78210000Y-126045000D02*
X78210000Y-121920000D01*
X79756000Y-92456000D02*
X76044000Y-92456000D01*
X78830000Y-121300000D02*
X78830000Y-112940000D01*
X74400000Y-126590000D02*
X74945000Y-126045000D01*
X70645000Y-86260000D02*
X70645000Y-89422500D01*
X71070000Y-92285000D02*
X70645000Y-92710000D01*
X78210000Y-121920000D02*
X78830000Y-121300000D01*
X65355000Y-89485000D02*
X66585000Y-90715000D01*
X70970000Y-85935000D02*
X70645000Y-86260000D01*
X62230000Y-89485000D02*
X65355000Y-89485000D01*
X70645000Y-90160000D02*
X70645000Y-89422500D01*
X88265000Y-125095000D02*
X86360000Y-123190000D01*
X75730000Y-92285000D02*
X71070000Y-92285000D01*
X88265000Y-129740000D02*
X88265000Y-125095000D01*
X70560000Y-89337500D02*
X70645000Y-89422500D01*
X78830000Y-112940000D02*
X81280000Y-110490000D01*
X70645000Y-89422500D02*
X70645000Y-92710000D01*
%TO.N,NRST*%
X69995000Y-92855000D02*
X69850000Y-92710000D01*
X69995000Y-95147500D02*
X69995000Y-92855000D01*
%TO.N,+3.3V*%
X69320000Y-128635000D02*
X77490000Y-128635000D01*
X80010000Y-123765000D02*
X81900000Y-121875000D01*
X77490000Y-128635000D02*
X77560000Y-128705000D01*
X71945000Y-90111041D02*
X71945000Y-89422500D01*
X72318959Y-90485000D02*
X71945000Y-90111041D01*
X77560000Y-128180000D02*
X80010000Y-125730000D01*
X63210000Y-132395000D02*
X66780000Y-132395000D01*
X78421396Y-90485000D02*
X72318959Y-90485000D01*
X81915000Y-93978604D02*
X78421396Y-90485000D01*
X77560000Y-128705000D02*
X77560000Y-128180000D01*
X81915000Y-119380000D02*
X81915000Y-93978604D01*
X80010000Y-125730000D02*
X80010000Y-123765000D01*
X81900000Y-121875000D02*
X81900000Y-119415000D01*
%TO.N,Net-(BT1-+)*%
X88265000Y-132715000D02*
X92755914Y-132715000D01*
%TO.N,SWDIO*%
X68695000Y-86200000D02*
X68430000Y-85935000D01*
X68695000Y-89422500D02*
X68695000Y-86200000D01*
%TO.N,SWCLK*%
X67430000Y-88807500D02*
X67430000Y-85935000D01*
X68045000Y-89422500D02*
X67430000Y-88807500D01*
%TO.N,BOOT0*%
X62230000Y-91485000D02*
X64815000Y-91485000D01*
X64815000Y-91485000D02*
X67945000Y-94615000D01*
%TO.N,Net-(Q1-G)*%
X83025000Y-128705000D02*
X78860000Y-128705000D01*
X83290000Y-128970000D02*
X83025000Y-128705000D01*
%TO.N,Vbat_enable*%
X83290000Y-126045000D02*
X83290000Y-119910000D01*
X69850000Y-87630000D02*
X69995000Y-87775000D01*
X83290000Y-119910000D02*
X83820000Y-119380000D01*
X69995000Y-87775000D02*
X69995000Y-89422500D01*
%TO.N,Net-(J1-Pin_2)*%
X66040000Y-143510000D02*
X62230000Y-143510000D01*
%TO.N,Net-(U2-QA)*%
X112080000Y-89945500D02*
X104385500Y-89945500D01*
X104385500Y-89945500D02*
X103190000Y-88750000D01*
%TO.N,Net-(U2-QB)*%
X113940000Y-87995500D02*
X115890000Y-89945500D01*
X108337000Y-87995500D02*
X113940000Y-87995500D01*
%TO.N,Net-(U3-QA)*%
X103190000Y-101450000D02*
X101920000Y-100180000D01*
X113350000Y-101450000D02*
X103190000Y-101450000D01*
%TO.N,Net-(U3-QB)*%
X115890000Y-101450000D02*
X113350000Y-98910000D01*
X113350000Y-98910000D02*
X108270000Y-98910000D01*
%TO.N,Mute_button*%
X71961250Y-109648750D02*
X71961250Y-113458750D01*
X71961250Y-113458750D02*
X69850000Y-115570000D01*
X69850000Y-115570000D02*
X68580000Y-115570000D01*
X71961250Y-109648750D02*
X71945000Y-109632500D01*
X71945000Y-109632500D02*
X71945000Y-95147500D01*
%TO.N,SHIFT_IN*%
X76537500Y-97790000D02*
X73895000Y-95147500D01*
X78740000Y-97790000D02*
X76537500Y-97790000D01*
%TO.N,SRCLK*%
X78740000Y-102870000D02*
X72595000Y-96725000D01*
X72595000Y-96725000D02*
X72595000Y-95147500D01*
%TO.N,RCLK*%
X73245000Y-95885000D02*
X77690000Y-100330000D01*
X73245000Y-95147500D02*
X73245000Y-95885000D01*
X77690000Y-100330000D02*
X78740000Y-100330000D01*
%TO.N,Rotary_A*%
X72595000Y-87425000D02*
X76835000Y-83185000D01*
X76835000Y-83185000D02*
X84455000Y-83185000D01*
X72595000Y-89422500D02*
X72595000Y-87425000D01*
%TO.N,Rotary_B*%
X73895000Y-89422500D02*
X73772500Y-89422500D01*
X84455000Y-88265000D02*
X74295000Y-88265000D01*
X73772500Y-89422500D02*
X73770000Y-89425000D01*
X74295000Y-88265000D02*
X73895000Y-88665000D01*
X73895000Y-88665000D02*
X73895000Y-89422500D01*
X73770000Y-89425000D02*
X73770000Y-89535000D01*
%TO.N,Switch_Encoder*%
X73120000Y-89297500D02*
X73120000Y-88900000D01*
X73245000Y-88045000D02*
X73245000Y-89422500D01*
X84455000Y-85725000D02*
X75565000Y-85725000D01*
X75565000Y-85725000D02*
X73245000Y-88045000D01*
%TO.N,RCLK_DIS*%
X94300000Y-91290000D02*
X94300000Y-97640000D01*
X94300000Y-97640000D02*
X98110000Y-101450000D01*
%TD*%
%TA.AperFunction,Conductor*%
%TO.N,+3.3V*%
G36*
X71698039Y-123209685D02*
G01*
X71743794Y-123262489D01*
X71755000Y-123314000D01*
X71755000Y-133226000D01*
X71735315Y-133293039D01*
X71682511Y-133338794D01*
X71631000Y-133350000D01*
X69850000Y-133350000D01*
X69850000Y-135766000D01*
X69830315Y-135833039D01*
X69777511Y-135878794D01*
X69726000Y-135890000D01*
X68918961Y-135890000D01*
X68851922Y-135870315D01*
X68834077Y-135856392D01*
X68821321Y-135844414D01*
X68821319Y-135844412D01*
X68803431Y-135834578D01*
X68787170Y-135823897D01*
X68771039Y-135811384D01*
X68727693Y-135792627D01*
X68722445Y-135790056D01*
X68695251Y-135775106D01*
X68681060Y-135767305D01*
X68681057Y-135767304D01*
X68681055Y-135767303D01*
X68673162Y-135765277D01*
X68613124Y-135729539D01*
X68581939Y-135667015D01*
X68580000Y-135645173D01*
X68580000Y-133350000D01*
X65529000Y-133350000D01*
X65461961Y-133330315D01*
X65416206Y-133277511D01*
X65405000Y-133226000D01*
X65405000Y-123314000D01*
X65424685Y-123246961D01*
X65477489Y-123201206D01*
X65529000Y-123190000D01*
X71631000Y-123190000D01*
X71698039Y-123209685D01*
G37*
%TD.AperFunction*%
%TD*%
%TA.AperFunction,Conductor*%
%TO.N,GND*%
G36*
X65189942Y-122573185D02*
G01*
X65235697Y-122625989D01*
X65245641Y-122695147D01*
X65216616Y-122758703D01*
X65189943Y-122781815D01*
X65141218Y-122813128D01*
X65141211Y-122813134D01*
X65088418Y-122858879D01*
X65088415Y-122858882D01*
X64992705Y-122969335D01*
X64992701Y-122969341D01*
X64931987Y-123102283D01*
X64912302Y-123169321D01*
X64912300Y-123169326D01*
X64899717Y-123256850D01*
X64891502Y-123313990D01*
X64891500Y-123314001D01*
X64891500Y-131637500D01*
X64871815Y-131704539D01*
X64819011Y-131750294D01*
X64767500Y-131761500D01*
X64630104Y-131761500D01*
X64563065Y-131741815D01*
X64524566Y-131702597D01*
X64459032Y-131596351D01*
X64459029Y-131596347D01*
X64333653Y-131470971D01*
X64333652Y-131470970D01*
X64182738Y-131377885D01*
X64182735Y-131377884D01*
X64014427Y-131322113D01*
X63910545Y-131311500D01*
X62509462Y-131311500D01*
X62509446Y-131311501D01*
X62405572Y-131322113D01*
X62237264Y-131377884D01*
X62237259Y-131377886D01*
X62086346Y-131470971D01*
X61960971Y-131596346D01*
X61867886Y-131747259D01*
X61867884Y-131747264D01*
X61812113Y-131915572D01*
X61801500Y-132019447D01*
X61801500Y-132770537D01*
X61801501Y-132770553D01*
X61812113Y-132874427D01*
X61863167Y-133028500D01*
X61867885Y-133042738D01*
X61960970Y-133193652D01*
X62086348Y-133319030D01*
X62237262Y-133412115D01*
X62405574Y-133467887D01*
X62509455Y-133478500D01*
X63910544Y-133478499D01*
X64014426Y-133467887D01*
X64182738Y-133412115D01*
X64333652Y-133319030D01*
X64459030Y-133193652D01*
X64496676Y-133132619D01*
X64524566Y-133087403D01*
X64576514Y-133040678D01*
X64630104Y-133028500D01*
X64767500Y-133028500D01*
X64834539Y-133048185D01*
X64880294Y-133100989D01*
X64891500Y-133152500D01*
X64891500Y-133226000D01*
X64891501Y-133226009D01*
X64903235Y-133335151D01*
X64903237Y-133335163D01*
X64914443Y-133386673D01*
X64949106Y-133490820D01*
X64949109Y-133490826D01*
X65028128Y-133613781D01*
X65028134Y-133613788D01*
X65073879Y-133666581D01*
X65073882Y-133666584D01*
X65184335Y-133762294D01*
X65184337Y-133762295D01*
X65184339Y-133762297D01*
X65317287Y-133823014D01*
X65360059Y-133835573D01*
X65384321Y-133842698D01*
X65384326Y-133842699D01*
X65384330Y-133842700D01*
X65529000Y-133863500D01*
X65646000Y-133863500D01*
X65713039Y-133883185D01*
X65758794Y-133935989D01*
X65770000Y-133987500D01*
X65770000Y-134685000D01*
X67146000Y-134685000D01*
X67213039Y-134704685D01*
X67258794Y-134757489D01*
X67270000Y-134809000D01*
X67270000Y-135061000D01*
X67250315Y-135128039D01*
X67197511Y-135173794D01*
X67146000Y-135185000D01*
X65770000Y-135185000D01*
X65770000Y-135603500D01*
X65750315Y-135670539D01*
X65697511Y-135716294D01*
X65646000Y-135727500D01*
X64734000Y-135727500D01*
X64666961Y-135707815D01*
X64621206Y-135655011D01*
X64610000Y-135603500D01*
X64610000Y-135595000D01*
X61810001Y-135595000D01*
X61810001Y-135603500D01*
X61790316Y-135670539D01*
X61737512Y-135716294D01*
X61686001Y-135727500D01*
X60474767Y-135727500D01*
X60407728Y-135707815D01*
X60387084Y-135691180D01*
X60359817Y-135663912D01*
X60326333Y-135602588D01*
X60323500Y-135576232D01*
X60323500Y-135095000D01*
X61810000Y-135095000D01*
X62960000Y-135095000D01*
X62960000Y-134270000D01*
X63460000Y-134270000D01*
X63460000Y-135095000D01*
X64609999Y-135095000D01*
X64609999Y-134970028D01*
X64609998Y-134970013D01*
X64599505Y-134867302D01*
X64544358Y-134700880D01*
X64544356Y-134700875D01*
X64452315Y-134551654D01*
X64328345Y-134427684D01*
X64179124Y-134335643D01*
X64179119Y-134335641D01*
X64012697Y-134280494D01*
X64012690Y-134280493D01*
X63909986Y-134270000D01*
X63460000Y-134270000D01*
X62960000Y-134270000D01*
X62510028Y-134270000D01*
X62510012Y-134270001D01*
X62407302Y-134280494D01*
X62240880Y-134335641D01*
X62240875Y-134335643D01*
X62091654Y-134427684D01*
X61967684Y-134551654D01*
X61875643Y-134700875D01*
X61875641Y-134700880D01*
X61820494Y-134867302D01*
X61820493Y-134867309D01*
X61810000Y-134970013D01*
X61810000Y-135095000D01*
X60323500Y-135095000D01*
X60323500Y-124773766D01*
X60343185Y-124706727D01*
X60359819Y-124686085D01*
X62456085Y-122589819D01*
X62517408Y-122556334D01*
X62543766Y-122553500D01*
X65122903Y-122553500D01*
X65189942Y-122573185D01*
G37*
%TD.AperFunction*%
%TA.AperFunction,Conductor*%
G36*
X80565834Y-109662584D02*
G01*
X80621767Y-109704456D01*
X80646184Y-109769920D01*
X80646500Y-109778766D01*
X80646500Y-110176232D01*
X80626815Y-110243271D01*
X80610181Y-110263913D01*
X78441179Y-112432914D01*
X78428820Y-112442818D01*
X78428993Y-112443027D01*
X78422983Y-112447999D01*
X78375016Y-112499078D01*
X78353872Y-112520222D01*
X78353857Y-112520239D01*
X78349531Y-112525814D01*
X78345747Y-112530244D01*
X78313419Y-112564671D01*
X78313412Y-112564681D01*
X78303579Y-112582567D01*
X78292903Y-112598820D01*
X78280386Y-112614957D01*
X78280385Y-112614959D01*
X78261625Y-112658310D01*
X78259055Y-112663556D01*
X78236303Y-112704941D01*
X78236303Y-112704942D01*
X78231225Y-112724720D01*
X78224925Y-112743122D01*
X78216818Y-112761857D01*
X78209431Y-112808495D01*
X78208246Y-112814216D01*
X78196500Y-112859965D01*
X78196500Y-112880384D01*
X78194973Y-112899783D01*
X78191780Y-112919941D01*
X78191780Y-112919942D01*
X78196225Y-112966966D01*
X78196500Y-112972804D01*
X78196500Y-117218695D01*
X78176815Y-117285734D01*
X78124011Y-117331489D01*
X78085103Y-117342053D01*
X78035572Y-117347113D01*
X77867264Y-117402884D01*
X77867259Y-117402886D01*
X77716346Y-117495971D01*
X77590971Y-117621346D01*
X77497886Y-117772259D01*
X77497884Y-117772264D01*
X77442113Y-117940572D01*
X77431500Y-118044447D01*
X77431500Y-119445537D01*
X77431501Y-119445553D01*
X77442113Y-119549427D01*
X77497884Y-119717735D01*
X77497886Y-119717740D01*
X77533142Y-119774898D01*
X77590970Y-119868652D01*
X77716348Y-119994030D01*
X77867262Y-120087115D01*
X78035574Y-120142887D01*
X78035572Y-120142887D01*
X78085102Y-120147947D01*
X78149794Y-120174343D01*
X78189946Y-120231524D01*
X78196500Y-120271305D01*
X78196500Y-120986232D01*
X78176815Y-121053271D01*
X78160181Y-121073913D01*
X77821179Y-121412914D01*
X77808820Y-121422818D01*
X77808993Y-121423027D01*
X77802983Y-121427999D01*
X77755016Y-121479078D01*
X77733872Y-121500222D01*
X77733857Y-121500239D01*
X77729531Y-121505814D01*
X77725747Y-121510244D01*
X77693419Y-121544671D01*
X77693412Y-121544681D01*
X77683579Y-121562567D01*
X77672903Y-121578820D01*
X77660386Y-121594957D01*
X77660385Y-121594959D01*
X77641625Y-121638310D01*
X77639055Y-121643556D01*
X77616303Y-121684941D01*
X77616303Y-121684942D01*
X77611225Y-121704720D01*
X77604925Y-121723122D01*
X77596818Y-121741857D01*
X77594223Y-121758242D01*
X77564293Y-121821376D01*
X77544636Y-121839159D01*
X77493754Y-121876127D01*
X77493746Y-121876134D01*
X77365959Y-122018057D01*
X77270473Y-122183443D01*
X77270470Y-122183450D01*
X77211459Y-122365068D01*
X77211458Y-122365072D01*
X77191496Y-122555000D01*
X77211458Y-122744928D01*
X77211459Y-122744931D01*
X77270470Y-122926549D01*
X77270473Y-122926556D01*
X77365960Y-123091944D01*
X77396718Y-123126104D01*
X77493745Y-123233865D01*
X77503174Y-123240715D01*
X77525384Y-123256851D01*
X77568050Y-123312179D01*
X77576500Y-123357170D01*
X77576500Y-124950899D01*
X77556815Y-125017938D01*
X77551768Y-125025209D01*
X77534111Y-125048795D01*
X77483011Y-125185795D01*
X77483011Y-125185797D01*
X77476500Y-125246345D01*
X77476500Y-125287500D01*
X77456815Y-125354539D01*
X77404011Y-125400294D01*
X77352500Y-125411500D01*
X75028629Y-125411500D01*
X75012886Y-125409761D01*
X75012861Y-125410033D01*
X75005093Y-125409298D01*
X74935060Y-125411500D01*
X74905142Y-125411500D01*
X74898136Y-125412384D01*
X74892318Y-125412842D01*
X74845111Y-125414326D01*
X74845108Y-125414327D01*
X74825505Y-125420022D01*
X74806459Y-125423966D01*
X74786203Y-125426526D01*
X74786201Y-125426526D01*
X74742292Y-125443910D01*
X74736768Y-125445801D01*
X74691404Y-125458982D01*
X74691403Y-125458983D01*
X74673824Y-125469378D01*
X74656364Y-125477932D01*
X74637384Y-125485447D01*
X74637381Y-125485449D01*
X74599182Y-125513201D01*
X74594300Y-125516409D01*
X74553633Y-125540459D01*
X74547475Y-125545237D01*
X74546579Y-125544082D01*
X74492820Y-125573437D01*
X74466462Y-125576271D01*
X73650000Y-125576271D01*
X73576888Y-125581499D01*
X73436586Y-125622697D01*
X73313580Y-125701748D01*
X73217824Y-125812257D01*
X73217823Y-125812258D01*
X73157080Y-125945265D01*
X73136271Y-126090001D01*
X73136271Y-127240004D01*
X73142799Y-127321641D01*
X73142799Y-127321645D01*
X73151462Y-127349412D01*
X73155826Y-127403986D01*
X73136271Y-127539998D01*
X73136271Y-127877500D01*
X73116586Y-127944539D01*
X73063782Y-127990294D01*
X73012271Y-128001500D01*
X72392500Y-128001500D01*
X72325461Y-127981815D01*
X72279706Y-127929011D01*
X72268500Y-127877500D01*
X72268500Y-123314010D01*
X72268500Y-123314000D01*
X72256764Y-123204843D01*
X72245558Y-123153332D01*
X72236496Y-123126104D01*
X72210893Y-123049179D01*
X72210890Y-123049173D01*
X72131871Y-122926218D01*
X72131865Y-122926211D01*
X72086120Y-122873418D01*
X72086117Y-122873415D01*
X71975664Y-122777705D01*
X71975658Y-122777701D01*
X71842716Y-122716987D01*
X71775679Y-122697302D01*
X71775673Y-122697300D01*
X71688868Y-122684820D01*
X71631000Y-122676500D01*
X71538590Y-122676500D01*
X71471551Y-122656815D01*
X71425796Y-122604011D01*
X71415852Y-122534853D01*
X71444877Y-122471297D01*
X71475472Y-122445766D01*
X71511362Y-122424542D01*
X71525802Y-122410100D01*
X71540592Y-122397470D01*
X71557107Y-122385472D01*
X71587222Y-122349067D01*
X71591126Y-122344776D01*
X74048815Y-119887087D01*
X74061180Y-119877183D01*
X74061006Y-119876973D01*
X74067012Y-119872003D01*
X74067018Y-119872000D01*
X74114999Y-119820904D01*
X74136134Y-119799770D01*
X74140463Y-119794187D01*
X74144242Y-119789763D01*
X74176586Y-119755321D01*
X74186423Y-119737424D01*
X74197097Y-119721174D01*
X74209613Y-119705041D01*
X74228372Y-119661689D01*
X74230933Y-119656462D01*
X74253695Y-119615060D01*
X74258774Y-119595274D01*
X74265072Y-119576882D01*
X74273181Y-119558145D01*
X74273181Y-119558142D01*
X74274690Y-119554657D01*
X74319383Y-119500951D01*
X74386016Y-119479933D01*
X74453435Y-119498276D01*
X74500234Y-119550156D01*
X74506196Y-119564904D01*
X74555641Y-119714119D01*
X74555643Y-119714124D01*
X74647684Y-119863345D01*
X74771654Y-119987315D01*
X74920875Y-120079356D01*
X74920880Y-120079358D01*
X75087302Y-120134505D01*
X75087309Y-120134506D01*
X75190019Y-120144999D01*
X75314999Y-120144999D01*
X75315000Y-120144998D01*
X75315000Y-118995000D01*
X75815000Y-118995000D01*
X75815000Y-120144999D01*
X75939972Y-120144999D01*
X75939986Y-120144998D01*
X76042697Y-120134505D01*
X76209119Y-120079358D01*
X76209124Y-120079356D01*
X76358345Y-119987315D01*
X76482315Y-119863345D01*
X76574356Y-119714124D01*
X76574358Y-119714119D01*
X76629505Y-119547697D01*
X76629506Y-119547690D01*
X76639999Y-119444986D01*
X76640000Y-119444973D01*
X76640000Y-118995000D01*
X75815000Y-118995000D01*
X75315000Y-118995000D01*
X75315000Y-117345000D01*
X75815000Y-117345000D01*
X75815000Y-118495000D01*
X76639999Y-118495000D01*
X76639999Y-118045028D01*
X76639998Y-118045013D01*
X76629505Y-117942302D01*
X76574358Y-117775880D01*
X76574356Y-117775875D01*
X76482315Y-117626654D01*
X76358345Y-117502684D01*
X76209124Y-117410643D01*
X76209119Y-117410641D01*
X76042697Y-117355494D01*
X76042690Y-117355493D01*
X75939986Y-117345000D01*
X75815000Y-117345000D01*
X75315000Y-117345000D01*
X75190027Y-117345000D01*
X75190012Y-117345001D01*
X75087302Y-117355494D01*
X74920880Y-117410641D01*
X74920875Y-117410643D01*
X74771654Y-117502684D01*
X74647684Y-117626654D01*
X74555643Y-117775875D01*
X74555641Y-117775880D01*
X74535206Y-117837551D01*
X74495433Y-117894996D01*
X74430918Y-117921819D01*
X74362142Y-117909504D01*
X74310942Y-117861961D01*
X74293500Y-117798547D01*
X74293500Y-115883766D01*
X74313185Y-115816727D01*
X74329819Y-115796085D01*
X80434819Y-109691085D01*
X80496142Y-109657600D01*
X80565834Y-109662584D01*
G37*
%TD.AperFunction*%
%TA.AperFunction,Conductor*%
G36*
X77419539Y-126698185D02*
G01*
X77465294Y-126750989D01*
X77476500Y-126802500D01*
X77476500Y-126843654D01*
X77483011Y-126904202D01*
X77483011Y-126904204D01*
X77534111Y-127041204D01*
X77584788Y-127108900D01*
X77609205Y-127174365D01*
X77594353Y-127242637D01*
X77573205Y-127270889D01*
X77433912Y-127410182D01*
X77372592Y-127443666D01*
X77346233Y-127446500D01*
X77286345Y-127446500D01*
X77225797Y-127453011D01*
X77225795Y-127453011D01*
X77088795Y-127504111D01*
X76971739Y-127591739D01*
X76884111Y-127708795D01*
X76833011Y-127845795D01*
X76833011Y-127845797D01*
X76828177Y-127890756D01*
X76801439Y-127955307D01*
X76744046Y-127995155D01*
X76704888Y-128001500D01*
X75787729Y-128001500D01*
X75720690Y-127981815D01*
X75674935Y-127929011D01*
X75663729Y-127877500D01*
X75663729Y-127540000D01*
X75663729Y-127539998D01*
X75659657Y-127475443D01*
X75646963Y-127429365D01*
X75643773Y-127378792D01*
X75663729Y-127240000D01*
X75663729Y-126802500D01*
X75683414Y-126735461D01*
X75736218Y-126689706D01*
X75787729Y-126678500D01*
X77352500Y-126678500D01*
X77419539Y-126698185D01*
G37*
%TD.AperFunction*%
%TA.AperFunction,Conductor*%
G36*
X81200834Y-111567584D02*
G01*
X81256767Y-111609456D01*
X81281184Y-111674920D01*
X81281500Y-111683766D01*
X81281500Y-119260884D01*
X81277604Y-119291723D01*
X81266500Y-119334967D01*
X81266500Y-121561232D01*
X81246815Y-121628271D01*
X81230181Y-121648913D01*
X79621179Y-123257914D01*
X79608820Y-123267818D01*
X79608993Y-123268027D01*
X79602983Y-123272999D01*
X79555015Y-123324079D01*
X79533872Y-123345222D01*
X79533857Y-123345239D01*
X79529531Y-123350814D01*
X79525747Y-123355244D01*
X79493419Y-123389671D01*
X79493412Y-123389681D01*
X79483579Y-123407567D01*
X79472903Y-123423820D01*
X79460386Y-123439957D01*
X79460385Y-123439959D01*
X79441625Y-123483310D01*
X79439055Y-123488556D01*
X79416303Y-123529941D01*
X79416303Y-123529942D01*
X79411225Y-123549720D01*
X79404925Y-123568122D01*
X79396818Y-123586857D01*
X79389431Y-123633495D01*
X79388246Y-123639216D01*
X79376500Y-123684965D01*
X79376500Y-123705384D01*
X79374973Y-123724783D01*
X79371780Y-123744941D01*
X79371780Y-123744942D01*
X79376225Y-123791966D01*
X79376500Y-123797804D01*
X79376500Y-125416233D01*
X79356815Y-125483272D01*
X79340181Y-125503914D01*
X79155181Y-125688914D01*
X79093858Y-125722399D01*
X79024166Y-125717415D01*
X78968233Y-125675543D01*
X78943816Y-125610079D01*
X78943500Y-125601233D01*
X78943500Y-125246362D01*
X78943499Y-125246345D01*
X78940157Y-125215270D01*
X78936989Y-125185799D01*
X78934315Y-125178631D01*
X78899403Y-125085028D01*
X78885889Y-125048796D01*
X78868232Y-125025209D01*
X78843816Y-124959744D01*
X78843500Y-124950899D01*
X78843500Y-123126104D01*
X78860113Y-123064104D01*
X78868730Y-123049179D01*
X78939527Y-122926556D01*
X78998542Y-122744928D01*
X79018504Y-122555000D01*
X78998542Y-122365072D01*
X78939527Y-122183444D01*
X78939525Y-122183441D01*
X78939203Y-122182449D01*
X78937208Y-122112607D01*
X78969451Y-122056451D01*
X79218815Y-121807087D01*
X79231180Y-121797183D01*
X79231006Y-121796973D01*
X79237012Y-121792003D01*
X79237018Y-121792000D01*
X79284999Y-121740904D01*
X79306134Y-121719770D01*
X79310463Y-121714187D01*
X79314242Y-121709763D01*
X79346586Y-121675321D01*
X79356423Y-121657424D01*
X79367097Y-121641174D01*
X79379613Y-121625041D01*
X79398372Y-121581689D01*
X79400933Y-121576462D01*
X79423695Y-121535060D01*
X79428774Y-121515274D01*
X79435072Y-121496882D01*
X79443181Y-121478145D01*
X79450568Y-121431501D01*
X79451748Y-121425794D01*
X79463500Y-121380030D01*
X79463500Y-121359609D01*
X79465027Y-121340209D01*
X79466014Y-121333982D01*
X79468219Y-121320057D01*
X79465047Y-121286500D01*
X79463775Y-121273040D01*
X79463500Y-121267203D01*
X79463500Y-119864146D01*
X79481962Y-119799049D01*
X79532110Y-119717746D01*
X79532109Y-119717746D01*
X79532115Y-119717738D01*
X79587887Y-119549426D01*
X79598500Y-119445545D01*
X79598499Y-118044456D01*
X79587887Y-117940574D01*
X79533314Y-117775880D01*
X79532116Y-117772264D01*
X79532116Y-117772263D01*
X79481961Y-117690948D01*
X79463500Y-117625852D01*
X79463500Y-113253766D01*
X79483185Y-113186727D01*
X79499819Y-113166085D01*
X81069819Y-111596085D01*
X81131142Y-111562600D01*
X81200834Y-111567584D01*
G37*
%TD.AperFunction*%
%TA.AperFunction,Conductor*%
G36*
X74474495Y-92938185D02*
G01*
X74495137Y-92954819D01*
X74568348Y-93028030D01*
X74719262Y-93121115D01*
X74887574Y-93176887D01*
X74991455Y-93187500D01*
X76392544Y-93187499D01*
X76496426Y-93176887D01*
X76664738Y-93121115D01*
X76664740Y-93121114D01*
X76686066Y-93107961D01*
X76751161Y-93089500D01*
X79442234Y-93089500D01*
X79509273Y-93109185D01*
X79529915Y-93125819D01*
X80610181Y-94206085D01*
X80643666Y-94267408D01*
X80646500Y-94293766D01*
X80646500Y-95961233D01*
X80626815Y-96028272D01*
X80574011Y-96074027D01*
X80504853Y-96083971D01*
X80441297Y-96054946D01*
X80434819Y-96048914D01*
X80089062Y-95703157D01*
X80055577Y-95641834D01*
X80056537Y-95585038D01*
X80084564Y-95474368D01*
X80093453Y-95367094D01*
X80103156Y-95250005D01*
X80103156Y-95249994D01*
X80084565Y-95025640D01*
X80084563Y-95025628D01*
X80029296Y-94807385D01*
X79967834Y-94667265D01*
X79938860Y-94601209D01*
X79906832Y-94552187D01*
X79853211Y-94470113D01*
X79815722Y-94412732D01*
X79815719Y-94412729D01*
X79815715Y-94412723D01*
X79663243Y-94247097D01*
X79663238Y-94247092D01*
X79485577Y-94108812D01*
X79485572Y-94108808D01*
X79287580Y-94001661D01*
X79287577Y-94001659D01*
X79287574Y-94001658D01*
X79287571Y-94001657D01*
X79287569Y-94001656D01*
X79074637Y-93928556D01*
X78852569Y-93891500D01*
X78627431Y-93891500D01*
X78405362Y-93928556D01*
X78192430Y-94001656D01*
X78192419Y-94001661D01*
X77994427Y-94108808D01*
X77994422Y-94108812D01*
X77816761Y-94247092D01*
X77816756Y-94247097D01*
X77664284Y-94412723D01*
X77664276Y-94412734D01*
X77541140Y-94601207D01*
X77450703Y-94807385D01*
X77395436Y-95025628D01*
X77395434Y-95025640D01*
X77376844Y-95249994D01*
X77376844Y-95250005D01*
X77395434Y-95474359D01*
X77395436Y-95474371D01*
X77450703Y-95692614D01*
X77541140Y-95898792D01*
X77664276Y-96087265D01*
X77664284Y-96087276D01*
X77816756Y-96252902D01*
X77816761Y-96252907D01*
X77875981Y-96299000D01*
X77994424Y-96391189D01*
X77994429Y-96391191D01*
X77994431Y-96391193D01*
X78030930Y-96410946D01*
X78080520Y-96460165D01*
X78095628Y-96528382D01*
X78071457Y-96593937D01*
X78030930Y-96629054D01*
X77994431Y-96648806D01*
X77994422Y-96648812D01*
X77816761Y-96787092D01*
X77816756Y-96787097D01*
X77664284Y-96952723D01*
X77664276Y-96952734D01*
X77567852Y-97100322D01*
X77514706Y-97145679D01*
X77464044Y-97156500D01*
X76851267Y-97156500D01*
X76784228Y-97136815D01*
X76763586Y-97120181D01*
X74639818Y-94996413D01*
X74606333Y-94935090D01*
X74603499Y-94908732D01*
X74603499Y-94470113D01*
X74587839Y-94351157D01*
X74587838Y-94351156D01*
X74587838Y-94351150D01*
X74526524Y-94203124D01*
X74428987Y-94076013D01*
X74301876Y-93978476D01*
X74301872Y-93978474D01*
X74153853Y-93917163D01*
X74153848Y-93917161D01*
X74034885Y-93901500D01*
X73755113Y-93901500D01*
X73636155Y-93917160D01*
X73636151Y-93917161D01*
X73617448Y-93924908D01*
X73547978Y-93932374D01*
X73522551Y-93924907D01*
X73503856Y-93917164D01*
X73503848Y-93917161D01*
X73384885Y-93901500D01*
X73105113Y-93901500D01*
X72986155Y-93917160D01*
X72986151Y-93917161D01*
X72967448Y-93924908D01*
X72897978Y-93932374D01*
X72872551Y-93924907D01*
X72853856Y-93917164D01*
X72853848Y-93917161D01*
X72734885Y-93901500D01*
X72455113Y-93901500D01*
X72336155Y-93917160D01*
X72336151Y-93917161D01*
X72317448Y-93924908D01*
X72247978Y-93932374D01*
X72222551Y-93924907D01*
X72203856Y-93917164D01*
X72203848Y-93917161D01*
X72084885Y-93901500D01*
X71805113Y-93901500D01*
X71686155Y-93917160D01*
X71686151Y-93917161D01*
X71667448Y-93924908D01*
X71597978Y-93932374D01*
X71572551Y-93924907D01*
X71553856Y-93917164D01*
X71553852Y-93917162D01*
X71553850Y-93917162D01*
X71538979Y-93915204D01*
X71434892Y-93901500D01*
X71434885Y-93901500D01*
X71402500Y-93901500D01*
X71335461Y-93881815D01*
X71289706Y-93829011D01*
X71278500Y-93777500D01*
X71278500Y-93042500D01*
X71298185Y-92975461D01*
X71350989Y-92929706D01*
X71402500Y-92918500D01*
X74407456Y-92918500D01*
X74474495Y-92938185D01*
G37*
%TD.AperFunction*%
%TA.AperFunction,Conductor*%
G36*
X65108273Y-90138185D02*
G01*
X65128915Y-90154819D01*
X66077910Y-91103814D01*
X66087816Y-91116178D01*
X66088026Y-91116005D01*
X66093001Y-91122019D01*
X66144095Y-91170000D01*
X66165224Y-91191129D01*
X66165228Y-91191132D01*
X66165231Y-91191135D01*
X66170805Y-91195458D01*
X66175247Y-91199252D01*
X66209679Y-91231586D01*
X66209683Y-91231589D01*
X66227563Y-91241418D01*
X66243827Y-91252101D01*
X66259960Y-91264614D01*
X66303301Y-91283369D01*
X66308550Y-91285941D01*
X66315923Y-91289994D01*
X66349940Y-91308695D01*
X66369718Y-91313773D01*
X66388119Y-91320073D01*
X66406855Y-91328181D01*
X66451362Y-91335229D01*
X66453503Y-91335569D01*
X66459212Y-91336751D01*
X66504970Y-91348500D01*
X66525384Y-91348500D01*
X66544783Y-91350027D01*
X66564943Y-91353220D01*
X66611966Y-91348775D01*
X66617804Y-91348500D01*
X69887500Y-91348500D01*
X69954539Y-91368185D01*
X70000294Y-91420989D01*
X70011500Y-91472500D01*
X70011500Y-91677500D01*
X69991815Y-91744539D01*
X69939011Y-91790294D01*
X69887500Y-91801500D01*
X69754513Y-91801500D01*
X69567714Y-91841205D01*
X69393246Y-91918883D01*
X69238745Y-92031135D01*
X69110959Y-92173057D01*
X69015473Y-92338443D01*
X69015470Y-92338450D01*
X68967508Y-92486064D01*
X68956458Y-92520072D01*
X68936496Y-92710000D01*
X68956458Y-92899928D01*
X68956459Y-92899931D01*
X69015470Y-93081549D01*
X69015473Y-93081556D01*
X69110960Y-93246944D01*
X69124297Y-93261756D01*
X69238741Y-93388861D01*
X69238746Y-93388865D01*
X69238747Y-93388866D01*
X69310386Y-93440914D01*
X69353051Y-93496242D01*
X69361500Y-93541231D01*
X69361500Y-93777500D01*
X69341815Y-93844539D01*
X69289011Y-93890294D01*
X69237503Y-93901500D01*
X69205114Y-93901500D01*
X69086155Y-93917160D01*
X69086151Y-93917161D01*
X69067448Y-93924908D01*
X68997978Y-93932374D01*
X68972551Y-93924907D01*
X68953856Y-93917164D01*
X68953848Y-93917161D01*
X68834885Y-93901500D01*
X68555113Y-93901500D01*
X68436155Y-93917160D01*
X68436151Y-93917161D01*
X68417448Y-93924908D01*
X68347978Y-93932374D01*
X68322551Y-93924907D01*
X68303856Y-93917164D01*
X68303852Y-93917162D01*
X68303850Y-93917162D01*
X68288979Y-93915204D01*
X68184892Y-93901500D01*
X68184885Y-93901500D01*
X68178767Y-93901500D01*
X68111728Y-93881815D01*
X68091086Y-93865181D01*
X65322088Y-91096183D01*
X65312187Y-91083823D01*
X65311977Y-91083998D01*
X65307002Y-91077986D01*
X65307000Y-91077982D01*
X65280658Y-91053245D01*
X65255922Y-91030016D01*
X65234768Y-91008863D01*
X65232792Y-91007331D01*
X65229183Y-91004531D01*
X65224750Y-91000744D01*
X65190321Y-90968414D01*
X65190319Y-90968412D01*
X65172431Y-90958578D01*
X65156170Y-90947897D01*
X65140039Y-90935384D01*
X65096693Y-90916627D01*
X65091445Y-90914056D01*
X65064251Y-90899106D01*
X65050060Y-90891305D01*
X65046660Y-90890432D01*
X65030287Y-90886228D01*
X65011881Y-90879926D01*
X64993144Y-90871818D01*
X64993146Y-90871818D01*
X64946496Y-90864430D01*
X64940781Y-90863246D01*
X64920612Y-90858068D01*
X64895032Y-90851500D01*
X64895030Y-90851500D01*
X64874616Y-90851500D01*
X64855217Y-90849973D01*
X64835058Y-90846780D01*
X64835057Y-90846780D01*
X64788034Y-90851225D01*
X64782196Y-90851500D01*
X63617729Y-90851500D01*
X63550690Y-90831815D01*
X63504935Y-90779011D01*
X63493729Y-90727500D01*
X63493729Y-90284995D01*
X63491121Y-90252383D01*
X63505400Y-90183988D01*
X63554390Y-90134170D01*
X63614727Y-90118500D01*
X65041234Y-90118500D01*
X65108273Y-90138185D01*
G37*
%TD.AperFunction*%
%TA.AperFunction,Conductor*%
G36*
X84705000Y-92909498D02*
G01*
X84597315Y-92860320D01*
X84490763Y-92845000D01*
X84419237Y-92845000D01*
X84312685Y-92860320D01*
X84205000Y-92909498D01*
X84205000Y-91240501D01*
X84312685Y-91289680D01*
X84419237Y-91305000D01*
X84490763Y-91305000D01*
X84597315Y-91289680D01*
X84705000Y-91240501D01*
X84705000Y-92909498D01*
G37*
%TD.AperFunction*%
%TA.AperFunction,Conductor*%
G36*
X78174669Y-91138185D02*
G01*
X78195311Y-91154819D01*
X78651311Y-91610819D01*
X78684796Y-91672142D01*
X78679812Y-91741834D01*
X78637940Y-91797767D01*
X78572476Y-91822184D01*
X78563630Y-91822500D01*
X77222084Y-91822500D01*
X77155045Y-91802815D01*
X77109290Y-91750011D01*
X77098726Y-91711101D01*
X77089887Y-91624574D01*
X77034115Y-91456262D01*
X76942416Y-91307596D01*
X76923977Y-91240204D01*
X76944899Y-91173541D01*
X76998541Y-91128771D01*
X77047956Y-91118500D01*
X78107630Y-91118500D01*
X78174669Y-91138185D01*
G37*
%TD.AperFunction*%
%TA.AperFunction,Conductor*%
G36*
X71587414Y-90659699D02*
G01*
X71622245Y-90684191D01*
X71811872Y-90873818D01*
X71821781Y-90886185D01*
X71821991Y-90886012D01*
X71826964Y-90892024D01*
X71878038Y-90939984D01*
X71899183Y-90961130D01*
X71904772Y-90965466D01*
X71909204Y-90969252D01*
X71941118Y-90999220D01*
X71943639Y-91001587D01*
X71961521Y-91011417D01*
X71977788Y-91022102D01*
X71993919Y-91034615D01*
X72015797Y-91044081D01*
X72037266Y-91053371D01*
X72042492Y-91055931D01*
X72083899Y-91078695D01*
X72103675Y-91083772D01*
X72122083Y-91090075D01*
X72140809Y-91098179D01*
X72140811Y-91098180D01*
X72140812Y-91098180D01*
X72140814Y-91098181D01*
X72181743Y-91104663D01*
X72187462Y-91105569D01*
X72193171Y-91106751D01*
X72238929Y-91118500D01*
X72259343Y-91118500D01*
X72278742Y-91120027D01*
X72298902Y-91123220D01*
X72345925Y-91118775D01*
X72351763Y-91118500D01*
X74336044Y-91118500D01*
X74403083Y-91138185D01*
X74448838Y-91190989D01*
X74458782Y-91260147D01*
X74441583Y-91307597D01*
X74349886Y-91456259D01*
X74349884Y-91456264D01*
X74313355Y-91566504D01*
X74273583Y-91623949D01*
X74209067Y-91650772D01*
X74195649Y-91651500D01*
X71402500Y-91651500D01*
X71335461Y-91631815D01*
X71289706Y-91579011D01*
X71278500Y-91527500D01*
X71278500Y-90783999D01*
X71298185Y-90716960D01*
X71350989Y-90671205D01*
X71402500Y-90659999D01*
X71434323Y-90659999D01*
X71518379Y-90648933D01*
X71587414Y-90659699D01*
G37*
%TD.AperFunction*%
%TA.AperFunction,Conductor*%
G36*
X71928366Y-87443240D02*
G01*
X71959559Y-87505760D01*
X71961500Y-87527617D01*
X71961500Y-88052500D01*
X71941815Y-88119539D01*
X71889011Y-88165294D01*
X71837503Y-88176500D01*
X71805114Y-88176500D01*
X71686152Y-88192160D01*
X71686151Y-88192161D01*
X71656341Y-88204508D01*
X71586872Y-88211974D01*
X71561441Y-88204507D01*
X71551632Y-88200444D01*
X71434330Y-88185000D01*
X71402500Y-88185000D01*
X71335461Y-88165315D01*
X71289706Y-88112511D01*
X71278500Y-88061000D01*
X71278500Y-87552499D01*
X71298185Y-87485460D01*
X71350989Y-87439705D01*
X71402500Y-87428499D01*
X71670537Y-87428499D01*
X71670544Y-87428499D01*
X71774426Y-87417887D01*
X71798496Y-87409910D01*
X71868323Y-87407509D01*
X71928366Y-87443240D01*
G37*
%TD.AperFunction*%
%TA.AperFunction,Conductor*%
G36*
X83246083Y-86378185D02*
G01*
X83282852Y-86414678D01*
X83379276Y-86562265D01*
X83379284Y-86562276D01*
X83531756Y-86727902D01*
X83531761Y-86727907D01*
X83575669Y-86762082D01*
X83709424Y-86866189D01*
X83709429Y-86866191D01*
X83709431Y-86866193D01*
X83745930Y-86885946D01*
X83795520Y-86935165D01*
X83810628Y-87003382D01*
X83786457Y-87068937D01*
X83745930Y-87104054D01*
X83709431Y-87123806D01*
X83709422Y-87123812D01*
X83531761Y-87262092D01*
X83531756Y-87262097D01*
X83379284Y-87427723D01*
X83379276Y-87427734D01*
X83282852Y-87575322D01*
X83229706Y-87620679D01*
X83179044Y-87631500D01*
X74853766Y-87631500D01*
X74786727Y-87611815D01*
X74740972Y-87559011D01*
X74731028Y-87489853D01*
X74760053Y-87426297D01*
X74766085Y-87419819D01*
X75791085Y-86394819D01*
X75852408Y-86361334D01*
X75878766Y-86358500D01*
X83179044Y-86358500D01*
X83246083Y-86378185D01*
G37*
%TD.AperFunction*%
%TA.AperFunction,Conductor*%
G36*
X83246083Y-83838185D02*
G01*
X83282852Y-83874678D01*
X83379276Y-84022265D01*
X83379284Y-84022276D01*
X83531756Y-84187902D01*
X83531760Y-84187906D01*
X83709424Y-84326189D01*
X83709429Y-84326191D01*
X83709431Y-84326193D01*
X83745930Y-84345946D01*
X83795520Y-84395165D01*
X83810628Y-84463382D01*
X83786457Y-84528937D01*
X83745930Y-84564054D01*
X83709431Y-84583806D01*
X83709422Y-84583812D01*
X83531761Y-84722092D01*
X83531756Y-84722097D01*
X83379284Y-84887723D01*
X83379276Y-84887734D01*
X83282852Y-85035322D01*
X83229706Y-85080679D01*
X83179044Y-85091500D01*
X76123766Y-85091500D01*
X76056727Y-85071815D01*
X76010972Y-85019011D01*
X76001028Y-84949853D01*
X76030053Y-84886297D01*
X76036085Y-84879819D01*
X77061085Y-83854819D01*
X77122408Y-83821334D01*
X77148766Y-83818500D01*
X83179044Y-83818500D01*
X83246083Y-83838185D01*
G37*
%TD.AperFunction*%
%TA.AperFunction,Conductor*%
G36*
X157892539Y-79880185D02*
G01*
X157938294Y-79932989D01*
X157949500Y-79984500D01*
X157949500Y-149585500D01*
X157929815Y-149652539D01*
X157877011Y-149698294D01*
X157825500Y-149709500D01*
X57744500Y-149709500D01*
X57677461Y-149689815D01*
X57631706Y-149637011D01*
X57620500Y-149585500D01*
X57620500Y-143510005D01*
X60866844Y-143510005D01*
X60885434Y-143734359D01*
X60885436Y-143734371D01*
X60940703Y-143952614D01*
X61031140Y-144158792D01*
X61154276Y-144347265D01*
X61154278Y-144347268D01*
X61305707Y-144511762D01*
X61336629Y-144574415D01*
X61328769Y-144643841D01*
X61284622Y-144697997D01*
X61257811Y-144711926D01*
X61137912Y-144756646D01*
X61137906Y-144756649D01*
X61022812Y-144842809D01*
X61022809Y-144842812D01*
X60936649Y-144957906D01*
X60936645Y-144957913D01*
X60886403Y-145092620D01*
X60886401Y-145092627D01*
X60880000Y-145152155D01*
X60880000Y-145800000D01*
X61796314Y-145800000D01*
X61770507Y-145840156D01*
X61730000Y-145978111D01*
X61730000Y-146121889D01*
X61770507Y-146259844D01*
X61796314Y-146300000D01*
X60880000Y-146300000D01*
X60880000Y-146947844D01*
X60886401Y-147007372D01*
X60886403Y-147007379D01*
X60936645Y-147142086D01*
X60936649Y-147142093D01*
X61022809Y-147257187D01*
X61022812Y-147257190D01*
X61137906Y-147343350D01*
X61137913Y-147343354D01*
X61272620Y-147393596D01*
X61272627Y-147393598D01*
X61332155Y-147399999D01*
X61332172Y-147400000D01*
X61980000Y-147400000D01*
X61980000Y-146485501D01*
X62087685Y-146534680D01*
X62194237Y-146550000D01*
X62265763Y-146550000D01*
X62372315Y-146534680D01*
X62480000Y-146485501D01*
X62480000Y-147400000D01*
X63127828Y-147400000D01*
X63127844Y-147399999D01*
X63187372Y-147393598D01*
X63187379Y-147393596D01*
X63322086Y-147343354D01*
X63322093Y-147343350D01*
X63437187Y-147257190D01*
X63437190Y-147257187D01*
X63523350Y-147142093D01*
X63523354Y-147142086D01*
X63573596Y-147007379D01*
X63573598Y-147007372D01*
X63579999Y-146947844D01*
X63580000Y-146947827D01*
X63580000Y-146300000D01*
X62663686Y-146300000D01*
X62689493Y-146259844D01*
X62730000Y-146121889D01*
X62730000Y-145978111D01*
X62689493Y-145840156D01*
X62663686Y-145800000D01*
X63580000Y-145800000D01*
X63580000Y-145152172D01*
X63579999Y-145152155D01*
X63573598Y-145092627D01*
X63573596Y-145092620D01*
X63523354Y-144957913D01*
X63523350Y-144957906D01*
X63437190Y-144842812D01*
X63437187Y-144842809D01*
X63322093Y-144756649D01*
X63322088Y-144756646D01*
X63202188Y-144711926D01*
X63146255Y-144670054D01*
X63121838Y-144604590D01*
X63136690Y-144536317D01*
X63154286Y-144511769D01*
X63305722Y-144347268D01*
X63391491Y-144215989D01*
X63402148Y-144199678D01*
X63455294Y-144154321D01*
X63505956Y-144143500D01*
X64790228Y-144143500D01*
X64857267Y-144163185D01*
X64903022Y-144215989D01*
X64913586Y-144254899D01*
X64917113Y-144289427D01*
X64936280Y-144347269D01*
X64972885Y-144457738D01*
X65065970Y-144608652D01*
X65191348Y-144734030D01*
X65342262Y-144827115D01*
X65510574Y-144882887D01*
X65614455Y-144893500D01*
X66465544Y-144893499D01*
X66569426Y-144882887D01*
X66737738Y-144827115D01*
X66888652Y-144734030D01*
X67014030Y-144608652D01*
X67107115Y-144457738D01*
X67162887Y-144289426D01*
X67173500Y-144185545D01*
X67173499Y-142834456D01*
X67162887Y-142730574D01*
X67107115Y-142562262D01*
X67014030Y-142411348D01*
X66888652Y-142285970D01*
X66737738Y-142192885D01*
X66724674Y-142188556D01*
X66569427Y-142137113D01*
X66465546Y-142126500D01*
X65614462Y-142126500D01*
X65614446Y-142126501D01*
X65510572Y-142137113D01*
X65342264Y-142192884D01*
X65342259Y-142192886D01*
X65191346Y-142285971D01*
X65065971Y-142411346D01*
X64972886Y-142562259D01*
X64972884Y-142562264D01*
X64917113Y-142730572D01*
X64913585Y-142765104D01*
X64887188Y-142829795D01*
X64830007Y-142869946D01*
X64790227Y-142876500D01*
X63505956Y-142876500D01*
X63438917Y-142856815D01*
X63402148Y-142820322D01*
X63305723Y-142672734D01*
X63305715Y-142672723D01*
X63153243Y-142507097D01*
X63153238Y-142507092D01*
X62975577Y-142368812D01*
X62975572Y-142368808D01*
X62777580Y-142261661D01*
X62777577Y-142261659D01*
X62777574Y-142261658D01*
X62777571Y-142261657D01*
X62777569Y-142261656D01*
X62564637Y-142188556D01*
X62342569Y-142151500D01*
X62117431Y-142151500D01*
X61895362Y-142188556D01*
X61682430Y-142261656D01*
X61682419Y-142261661D01*
X61484427Y-142368808D01*
X61484422Y-142368812D01*
X61306761Y-142507092D01*
X61306756Y-142507097D01*
X61154284Y-142672723D01*
X61154276Y-142672734D01*
X61031140Y-142861207D01*
X60940703Y-143067385D01*
X60885436Y-143285628D01*
X60885434Y-143285640D01*
X60866844Y-143509994D01*
X60866844Y-143510005D01*
X57620500Y-143510005D01*
X57620500Y-138995000D01*
X66805001Y-138995000D01*
X66805001Y-139444986D01*
X66815494Y-139547697D01*
X66870641Y-139714119D01*
X66870643Y-139714124D01*
X66962684Y-139863345D01*
X67086654Y-139987315D01*
X67235875Y-140079356D01*
X67235880Y-140079358D01*
X67402302Y-140134505D01*
X67402309Y-140134506D01*
X67505019Y-140144999D01*
X67629999Y-140144999D01*
X67630000Y-140144998D01*
X67630000Y-138995000D01*
X68130000Y-138995000D01*
X68130000Y-140144999D01*
X68254972Y-140144999D01*
X68254986Y-140144998D01*
X68357697Y-140134505D01*
X68524119Y-140079358D01*
X68524124Y-140079356D01*
X68673345Y-139987315D01*
X68797315Y-139863345D01*
X68889356Y-139714124D01*
X68889358Y-139714119D01*
X68944505Y-139547697D01*
X68944506Y-139547690D01*
X68954999Y-139444986D01*
X68955000Y-139444973D01*
X68955000Y-138995000D01*
X68130000Y-138995000D01*
X67630000Y-138995000D01*
X66805001Y-138995000D01*
X57620500Y-138995000D01*
X57620500Y-138495000D01*
X66805000Y-138495000D01*
X67630000Y-138495000D01*
X67630000Y-137345000D01*
X67505027Y-137345000D01*
X67505012Y-137345001D01*
X67402302Y-137355494D01*
X67235880Y-137410641D01*
X67235875Y-137410643D01*
X67086654Y-137502684D01*
X66962684Y-137626654D01*
X66870643Y-137775875D01*
X66870641Y-137775880D01*
X66815494Y-137942302D01*
X66815493Y-137942309D01*
X66805000Y-138045013D01*
X66805000Y-138495000D01*
X57620500Y-138495000D01*
X57620500Y-124439942D01*
X59051780Y-124439942D01*
X59056225Y-124486966D01*
X59056500Y-124492804D01*
X59056500Y-135806366D01*
X59054761Y-135822113D01*
X59055032Y-135822139D01*
X59054298Y-135829905D01*
X59056500Y-135899957D01*
X59056500Y-135929859D01*
X59057384Y-135936856D01*
X59057842Y-135942679D01*
X59059326Y-135989889D01*
X59059327Y-135989891D01*
X59065022Y-136009495D01*
X59068967Y-136028542D01*
X59071526Y-136048797D01*
X59071527Y-136048800D01*
X59071528Y-136048803D01*
X59088914Y-136092716D01*
X59090806Y-136098244D01*
X59103981Y-136143592D01*
X59114372Y-136161162D01*
X59122932Y-136178635D01*
X59130447Y-136197617D01*
X59158209Y-136235827D01*
X59161416Y-136240710D01*
X59185458Y-136281362D01*
X59185462Y-136281366D01*
X59199889Y-136295793D01*
X59212526Y-136310588D01*
X59224528Y-136327107D01*
X59260931Y-136357222D01*
X59265231Y-136361135D01*
X59471596Y-136567500D01*
X59653910Y-136749814D01*
X59663816Y-136762178D01*
X59664026Y-136762005D01*
X59669001Y-136768019D01*
X59720095Y-136816000D01*
X59741224Y-136837129D01*
X59741228Y-136837132D01*
X59741231Y-136837135D01*
X59746805Y-136841458D01*
X59751247Y-136845252D01*
X59785679Y-136877586D01*
X59785683Y-136877589D01*
X59803563Y-136887418D01*
X59819827Y-136898101D01*
X59835960Y-136910614D01*
X59879301Y-136929369D01*
X59884550Y-136931941D01*
X59904627Y-136942978D01*
X59925940Y-136954695D01*
X59945718Y-136959773D01*
X59964119Y-136966073D01*
X59982855Y-136974181D01*
X60027362Y-136981229D01*
X60029503Y-136981569D01*
X60035212Y-136982751D01*
X60080970Y-136994500D01*
X60101384Y-136994500D01*
X60120783Y-136996027D01*
X60140943Y-136999220D01*
X60187966Y-136994775D01*
X60193804Y-136994500D01*
X68132234Y-136994500D01*
X68199273Y-137014185D01*
X68219915Y-137030819D01*
X68322415Y-137133319D01*
X68355900Y-137194642D01*
X68350916Y-137264334D01*
X68309044Y-137320267D01*
X68243580Y-137344684D01*
X68234734Y-137345000D01*
X68130000Y-137345000D01*
X68130000Y-138495000D01*
X68954999Y-138495000D01*
X68954999Y-138065265D01*
X68974684Y-137998226D01*
X69027488Y-137952471D01*
X69096646Y-137942527D01*
X69160202Y-137971552D01*
X69166680Y-137977584D01*
X69710181Y-138521085D01*
X69743666Y-138582408D01*
X69746500Y-138608766D01*
X69746500Y-139445537D01*
X69746501Y-139445553D01*
X69757113Y-139549427D01*
X69812884Y-139717735D01*
X69812886Y-139717740D01*
X69905971Y-139868653D01*
X70031347Y-139994029D01*
X70031351Y-139994032D01*
X70137597Y-140059566D01*
X70184322Y-140111514D01*
X70196500Y-140165104D01*
X70196500Y-141206232D01*
X70176815Y-141273271D01*
X70160181Y-141293913D01*
X69363508Y-142090585D01*
X69302185Y-142124070D01*
X69268736Y-142125969D01*
X69268701Y-142126661D01*
X69265551Y-142126500D01*
X69265545Y-142126500D01*
X69265538Y-142126500D01*
X68414462Y-142126500D01*
X68414446Y-142126501D01*
X68310572Y-142137113D01*
X68142264Y-142192884D01*
X68142259Y-142192886D01*
X67991346Y-142285971D01*
X67865971Y-142411346D01*
X67772886Y-142562259D01*
X67772884Y-142562264D01*
X67717113Y-142730572D01*
X67706500Y-142834447D01*
X67706500Y-144185537D01*
X67706501Y-144185553D01*
X67717113Y-144289427D01*
X67736280Y-144347269D01*
X67772885Y-144457738D01*
X67865970Y-144608652D01*
X67991348Y-144734030D01*
X68142262Y-144827115D01*
X68310574Y-144882887D01*
X68414455Y-144893500D01*
X69265544Y-144893499D01*
X69369426Y-144882887D01*
X69537738Y-144827115D01*
X69688652Y-144734030D01*
X69814030Y-144608652D01*
X69907115Y-144457738D01*
X69962887Y-144289426D01*
X69973500Y-144185545D01*
X69973500Y-143812037D01*
X143189587Y-143812037D01*
X143189587Y-149054619D01*
X157228302Y-149054619D01*
X157228302Y-143812037D01*
X143189587Y-143812037D01*
X69973500Y-143812037D01*
X69973499Y-143323765D01*
X69993183Y-143256727D01*
X70009813Y-143236090D01*
X71218817Y-142027086D01*
X71231178Y-142017185D01*
X71231004Y-142016975D01*
X71237013Y-142012002D01*
X71237018Y-142012000D01*
X71284984Y-141960920D01*
X71306135Y-141939770D01*
X71310461Y-141934192D01*
X71314250Y-141929755D01*
X71346586Y-141895321D01*
X71356419Y-141877432D01*
X71367102Y-141861169D01*
X71379614Y-141845041D01*
X71398371Y-141801691D01*
X71400941Y-141796447D01*
X71423693Y-141755064D01*
X71423693Y-141755063D01*
X71423695Y-141755060D01*
X71428774Y-141735273D01*
X71435070Y-141716885D01*
X71443181Y-141698145D01*
X71450569Y-141651497D01*
X71451751Y-141645786D01*
X71463500Y-141600030D01*
X71463500Y-141579615D01*
X71465027Y-141560214D01*
X71468220Y-141540057D01*
X71463775Y-141493033D01*
X71463500Y-141487195D01*
X71463500Y-140165104D01*
X71483185Y-140098065D01*
X71522403Y-140059566D01*
X71587542Y-140019386D01*
X71628652Y-139994030D01*
X71754030Y-139868652D01*
X71847115Y-139717738D01*
X71902887Y-139549426D01*
X71913500Y-139445545D01*
X71913499Y-138608764D01*
X71933183Y-138541726D01*
X71949813Y-138521089D01*
X72008815Y-138462087D01*
X72021180Y-138452183D01*
X72021006Y-138451973D01*
X72027012Y-138447003D01*
X72027018Y-138447000D01*
X72074999Y-138395904D01*
X72096135Y-138374769D01*
X72100458Y-138369195D01*
X72104257Y-138364747D01*
X72108530Y-138360196D01*
X72136586Y-138330321D01*
X72146420Y-138312429D01*
X72157103Y-138296167D01*
X72169614Y-138280041D01*
X72188371Y-138236691D01*
X72190941Y-138231447D01*
X72213693Y-138190064D01*
X72213693Y-138190063D01*
X72213695Y-138190060D01*
X72218774Y-138170273D01*
X72225070Y-138151885D01*
X72233181Y-138133145D01*
X72240569Y-138086497D01*
X72241751Y-138080786D01*
X72253500Y-138035030D01*
X72253500Y-138014615D01*
X72255027Y-137995214D01*
X72258220Y-137975057D01*
X72253775Y-137928033D01*
X72253500Y-137922195D01*
X72253500Y-136567500D01*
X72273185Y-136500461D01*
X72325989Y-136454706D01*
X72377500Y-136443500D01*
X72418638Y-136443500D01*
X72418654Y-136443499D01*
X72445692Y-136440591D01*
X72479201Y-136436989D01*
X72616204Y-136385889D01*
X72733261Y-136298261D01*
X72820889Y-136181204D01*
X72871989Y-136044201D01*
X72877828Y-135989891D01*
X72878499Y-135983654D01*
X72878500Y-135983637D01*
X72878500Y-133886362D01*
X72878499Y-133886345D01*
X72873806Y-133842699D01*
X72871989Y-133825799D01*
X72870950Y-133823014D01*
X72848303Y-133762294D01*
X72820889Y-133688796D01*
X72733261Y-133571739D01*
X72616204Y-133484111D01*
X72479203Y-133433011D01*
X72418654Y-133426500D01*
X72418638Y-133426500D01*
X72382776Y-133426500D01*
X72315737Y-133406815D01*
X72269982Y-133354011D01*
X72260038Y-133284853D01*
X72268205Y-133228051D01*
X86881500Y-133228051D01*
X86892113Y-133331928D01*
X86947883Y-133500235D01*
X86947884Y-133500238D01*
X87040967Y-133651147D01*
X87040970Y-133651151D01*
X87166348Y-133776529D01*
X87166352Y-133776532D01*
X87317261Y-133869615D01*
X87317264Y-133869616D01*
X87485571Y-133925386D01*
X87485572Y-133925386D01*
X87485575Y-133925387D01*
X87589456Y-133936000D01*
X87589461Y-133936000D01*
X88940539Y-133936000D01*
X88940544Y-133936000D01*
X89044425Y-133925387D01*
X89212738Y-133869615D01*
X89363651Y-133776530D01*
X89489030Y-133651151D01*
X89582115Y-133500238D01*
X89604230Y-133433496D01*
X89644002Y-133376052D01*
X89708517Y-133349228D01*
X89721936Y-133348500D01*
X91073414Y-133348500D01*
X91140453Y-133368185D01*
X91186208Y-133420989D01*
X91197414Y-133472500D01*
X91197414Y-133813654D01*
X91203925Y-133874202D01*
X91203925Y-133874204D01*
X91246184Y-133987500D01*
X91255025Y-134011204D01*
X91342653Y-134128261D01*
X91459710Y-134215889D01*
X91596713Y-134266989D01*
X91622786Y-134269792D01*
X91657259Y-134273499D01*
X91657276Y-134273500D01*
X93854552Y-134273500D01*
X93854568Y-134273499D01*
X93881606Y-134270591D01*
X93915115Y-134266989D01*
X94052118Y-134215889D01*
X94169175Y-134128261D01*
X94256803Y-134011204D01*
X94307903Y-133874201D01*
X94313406Y-133823014D01*
X94314413Y-133813654D01*
X94314414Y-133813637D01*
X94314414Y-132715000D01*
X111201121Y-132715000D01*
X111220262Y-132958219D01*
X111277217Y-133195457D01*
X111370582Y-133420861D01*
X111494418Y-133622942D01*
X112153366Y-132963993D01*
X112163102Y-132993956D01*
X112251100Y-133132619D01*
X112370817Y-133245040D01*
X112505424Y-133319041D01*
X111847970Y-133976494D01*
X112050052Y-134100331D01*
X112275456Y-134193696D01*
X112512694Y-134250651D01*
X112512693Y-134250651D01*
X112755914Y-134269792D01*
X112999133Y-134250651D01*
X113236371Y-134193696D01*
X113461775Y-134100331D01*
X113663856Y-133976494D01*
X113003448Y-133316086D01*
X113071543Y-133289126D01*
X113204406Y-133192595D01*
X113309089Y-133066055D01*
X113357545Y-132963079D01*
X114017408Y-133622942D01*
X114141245Y-133420861D01*
X114234610Y-133195457D01*
X114291565Y-132958219D01*
X114310706Y-132715000D01*
X114291565Y-132471780D01*
X114234610Y-132234542D01*
X114141245Y-132009138D01*
X114017408Y-131807056D01*
X113358460Y-132466004D01*
X113348726Y-132436044D01*
X113260728Y-132297381D01*
X113141011Y-132184960D01*
X113006403Y-132110958D01*
X113663856Y-131453504D01*
X113461775Y-131329668D01*
X113236371Y-131236303D01*
X112999133Y-131179348D01*
X112999134Y-131179348D01*
X112755914Y-131160207D01*
X112512694Y-131179348D01*
X112275456Y-131236303D01*
X112050060Y-131329665D01*
X112050055Y-131329668D01*
X111847970Y-131453504D01*
X112508379Y-132113913D01*
X112440285Y-132140874D01*
X112307422Y-132237405D01*
X112202739Y-132363945D01*
X112154282Y-132466920D01*
X111494418Y-131807056D01*
X111370582Y-132009141D01*
X111370579Y-132009146D01*
X111277217Y-132234542D01*
X111220262Y-132471780D01*
X111201121Y-132715000D01*
X94314414Y-132715000D01*
X94314414Y-131616362D01*
X94314413Y-131616345D01*
X94311071Y-131585270D01*
X94307903Y-131555799D01*
X94256803Y-131418796D01*
X94169175Y-131301739D01*
X94052118Y-131214111D01*
X93915117Y-131163011D01*
X93854568Y-131156500D01*
X93854552Y-131156500D01*
X91657276Y-131156500D01*
X91657259Y-131156500D01*
X91596711Y-131163011D01*
X91596709Y-131163011D01*
X91459709Y-131214111D01*
X91342653Y-131301739D01*
X91255025Y-131418795D01*
X91203925Y-131555795D01*
X91203925Y-131555797D01*
X91197414Y-131616345D01*
X91197414Y-131957500D01*
X91177729Y-132024539D01*
X91124925Y-132070294D01*
X91073414Y-132081500D01*
X89721936Y-132081500D01*
X89654897Y-132061815D01*
X89609142Y-132009011D01*
X89604230Y-131996503D01*
X89582116Y-131929766D01*
X89582115Y-131929762D01*
X89582111Y-131929756D01*
X89582110Y-131929753D01*
X89489032Y-131778852D01*
X89489029Y-131778848D01*
X89363651Y-131653470D01*
X89363647Y-131653467D01*
X89212738Y-131560384D01*
X89212735Y-131560383D01*
X89044428Y-131504613D01*
X88940551Y-131494000D01*
X88940544Y-131494000D01*
X87589456Y-131494000D01*
X87589448Y-131494000D01*
X87485571Y-131504613D01*
X87317264Y-131560383D01*
X87317261Y-131560384D01*
X87166352Y-131653467D01*
X87166348Y-131653470D01*
X87040970Y-131778848D01*
X87040967Y-131778852D01*
X86947884Y-131929761D01*
X86947883Y-131929764D01*
X86892113Y-132098071D01*
X86881500Y-132201948D01*
X86881500Y-133228051D01*
X72268205Y-133228051D01*
X72268500Y-133226000D01*
X72268500Y-129392500D01*
X72288185Y-129325461D01*
X72340989Y-129279706D01*
X72392500Y-129268500D01*
X76702500Y-129268500D01*
X76769539Y-129288185D01*
X76815294Y-129340989D01*
X76826500Y-129392500D01*
X76826500Y-129503654D01*
X76833011Y-129564202D01*
X76833011Y-129564204D01*
X76884111Y-129701204D01*
X76971739Y-129818261D01*
X77088796Y-129905889D01*
X77225799Y-129956989D01*
X77253050Y-129959918D01*
X77286345Y-129963499D01*
X77286362Y-129963500D01*
X77833638Y-129963500D01*
X77833654Y-129963499D01*
X77860692Y-129960591D01*
X77894201Y-129956989D01*
X78031204Y-129905889D01*
X78031204Y-129905888D01*
X78031206Y-129905888D01*
X78031207Y-129905887D01*
X78135689Y-129827672D01*
X78201153Y-129803254D01*
X78269426Y-129818105D01*
X78284311Y-129827672D01*
X78388792Y-129905887D01*
X78388793Y-129905888D01*
X78388796Y-129905889D01*
X78525799Y-129956989D01*
X78553050Y-129959918D01*
X78586345Y-129963499D01*
X78586362Y-129963500D01*
X79133638Y-129963500D01*
X79133654Y-129963499D01*
X79160692Y-129960591D01*
X79194201Y-129956989D01*
X79331204Y-129905889D01*
X79448261Y-129818261D01*
X79535889Y-129701204D01*
X79586989Y-129564201D01*
X79590591Y-129530692D01*
X79593499Y-129503654D01*
X79593500Y-129503637D01*
X79593500Y-129462500D01*
X79613185Y-129395461D01*
X79665989Y-129349706D01*
X79717500Y-129338500D01*
X81795778Y-129338500D01*
X81862817Y-129358185D01*
X81908572Y-129410989D01*
X81917031Y-129436546D01*
X81917111Y-129436923D01*
X81959287Y-129564201D01*
X81972885Y-129605238D01*
X82065970Y-129756152D01*
X82191348Y-129881530D01*
X82342262Y-129974615D01*
X82510574Y-130030387D01*
X82614455Y-130041000D01*
X83965544Y-130040999D01*
X84069426Y-130030387D01*
X84237738Y-129974615D01*
X84388652Y-129881530D01*
X84514030Y-129756152D01*
X84607115Y-129605238D01*
X84662887Y-129436926D01*
X84673500Y-129333045D01*
X84673499Y-128606956D01*
X84662887Y-128503074D01*
X84607115Y-128334762D01*
X84514030Y-128183848D01*
X84388652Y-128058470D01*
X84264375Y-127981815D01*
X84237740Y-127965386D01*
X84237735Y-127965384D01*
X84069427Y-127909613D01*
X83965545Y-127899000D01*
X82614462Y-127899000D01*
X82614446Y-127899001D01*
X82510572Y-127909613D01*
X82342264Y-127965384D01*
X82342253Y-127965389D01*
X82200154Y-128053038D01*
X82135057Y-128071500D01*
X79717500Y-128071500D01*
X79650461Y-128051815D01*
X79604706Y-127999011D01*
X79593500Y-127947500D01*
X79593500Y-127906362D01*
X79593499Y-127906345D01*
X79590157Y-127875270D01*
X79586989Y-127845799D01*
X79535889Y-127708796D01*
X79448261Y-127591739D01*
X79434055Y-127581105D01*
X79331722Y-127504497D01*
X79289851Y-127448564D01*
X79284867Y-127378872D01*
X79318350Y-127317552D01*
X80398815Y-126237087D01*
X80411180Y-126227183D01*
X80411006Y-126226973D01*
X80417012Y-126222003D01*
X80417018Y-126222000D01*
X80464999Y-126170904D01*
X80486134Y-126149770D01*
X80490463Y-126144187D01*
X80494242Y-126139763D01*
X80526586Y-126105321D01*
X80536423Y-126087424D01*
X80547097Y-126071174D01*
X80559613Y-126055041D01*
X80578372Y-126011689D01*
X80580933Y-126006462D01*
X80603695Y-125965060D01*
X80608774Y-125945274D01*
X80615072Y-125926882D01*
X80623181Y-125908145D01*
X80630569Y-125861497D01*
X80631751Y-125855786D01*
X80643500Y-125810030D01*
X80643500Y-125789615D01*
X80645027Y-125770214D01*
X80648220Y-125750057D01*
X80643775Y-125703033D01*
X80643500Y-125697195D01*
X80643500Y-124078765D01*
X80663185Y-124011726D01*
X80679814Y-123991089D01*
X82288815Y-122382087D01*
X82301180Y-122372183D01*
X82301006Y-122371973D01*
X82307012Y-122367003D01*
X82307018Y-122367000D01*
X82354999Y-122315904D01*
X82376135Y-122294769D01*
X82380458Y-122289195D01*
X82384257Y-122284747D01*
X82388754Y-122279957D01*
X82416586Y-122250321D01*
X82423837Y-122237131D01*
X82473382Y-122187866D01*
X82541697Y-122173208D01*
X82607092Y-122197810D01*
X82648804Y-122253862D01*
X82656500Y-122296866D01*
X82656500Y-124857727D01*
X82636815Y-124924766D01*
X82584011Y-124970521D01*
X82545104Y-124981085D01*
X82510572Y-124984613D01*
X82342264Y-125040384D01*
X82342259Y-125040386D01*
X82191346Y-125133471D01*
X82065971Y-125258846D01*
X81972886Y-125409759D01*
X81972884Y-125409764D01*
X81917113Y-125578072D01*
X81906500Y-125681947D01*
X81906500Y-126408037D01*
X81906501Y-126408053D01*
X81917113Y-126511926D01*
X81972885Y-126680238D01*
X82065970Y-126831152D01*
X82191348Y-126956530D01*
X82342262Y-127049615D01*
X82510574Y-127105387D01*
X82614455Y-127116000D01*
X83965544Y-127115999D01*
X84069426Y-127105387D01*
X84237738Y-127049615D01*
X84388652Y-126956530D01*
X84514030Y-126831152D01*
X84607115Y-126680238D01*
X84662887Y-126511926D01*
X84673500Y-126408045D01*
X84673499Y-125681956D01*
X84662887Y-125578074D01*
X84607115Y-125409762D01*
X84514030Y-125258848D01*
X84388652Y-125133470D01*
X84261666Y-125055144D01*
X84237740Y-125040386D01*
X84237735Y-125040384D01*
X84069427Y-124984613D01*
X84034896Y-124981085D01*
X83970205Y-124954688D01*
X83930054Y-124897507D01*
X83923500Y-124857727D01*
X83923500Y-123190000D01*
X85446496Y-123190000D01*
X85466458Y-123379928D01*
X85466459Y-123379931D01*
X85525470Y-123561549D01*
X85525473Y-123561556D01*
X85620960Y-123726944D01*
X85748747Y-123868866D01*
X85903248Y-123981118D01*
X86077712Y-124058794D01*
X86264513Y-124098500D01*
X86321234Y-124098500D01*
X86388273Y-124118185D01*
X86408915Y-124134819D01*
X87595181Y-125321085D01*
X87628666Y-125382408D01*
X87631500Y-125408766D01*
X87631500Y-128402727D01*
X87611815Y-128469766D01*
X87559011Y-128515521D01*
X87520104Y-128526085D01*
X87485571Y-128529613D01*
X87317264Y-128585383D01*
X87317261Y-128585384D01*
X87166352Y-128678467D01*
X87166348Y-128678470D01*
X87040970Y-128803848D01*
X87040967Y-128803852D01*
X86947884Y-128954761D01*
X86947883Y-128954764D01*
X86892113Y-129123071D01*
X86881500Y-129226948D01*
X86881500Y-130253051D01*
X86892113Y-130356928D01*
X86947883Y-130525235D01*
X86947884Y-130525238D01*
X87040967Y-130676147D01*
X87040970Y-130676151D01*
X87166348Y-130801529D01*
X87166352Y-130801532D01*
X87317261Y-130894615D01*
X87317264Y-130894616D01*
X87485571Y-130950386D01*
X87485572Y-130950386D01*
X87485575Y-130950387D01*
X87589456Y-130961000D01*
X87589461Y-130961000D01*
X88940539Y-130961000D01*
X88940544Y-130961000D01*
X89044425Y-130950387D01*
X89212738Y-130894615D01*
X89363651Y-130801530D01*
X89489030Y-130676151D01*
X89582115Y-130525238D01*
X89637887Y-130356925D01*
X89648500Y-130253044D01*
X89648500Y-129226956D01*
X89637887Y-129123075D01*
X89582115Y-128954762D01*
X89582115Y-128954761D01*
X89489032Y-128803852D01*
X89489029Y-128803848D01*
X89363651Y-128678470D01*
X89363647Y-128678467D01*
X89212738Y-128585384D01*
X89212735Y-128585383D01*
X89044428Y-128529613D01*
X89009896Y-128526085D01*
X88945204Y-128499688D01*
X88905054Y-128442506D01*
X88898500Y-128402727D01*
X88898500Y-125178631D01*
X88900239Y-125162879D01*
X88899968Y-125162854D01*
X88900700Y-125155098D01*
X88900702Y-125155091D01*
X88898500Y-125085028D01*
X88898500Y-125055144D01*
X88897614Y-125048141D01*
X88897157Y-125042322D01*
X88897096Y-125040384D01*
X88895674Y-124995111D01*
X88889976Y-124975499D01*
X88886033Y-124956466D01*
X88883474Y-124936203D01*
X88866085Y-124892286D01*
X88864196Y-124886766D01*
X88851018Y-124841407D01*
X88840626Y-124823835D01*
X88832066Y-124806362D01*
X88824552Y-124787383D01*
X88796794Y-124749179D01*
X88793587Y-124744296D01*
X88780640Y-124722404D01*
X88769542Y-124703638D01*
X88755108Y-124689204D01*
X88742471Y-124674409D01*
X88730472Y-124657893D01*
X88730470Y-124657890D01*
X88694073Y-124627781D01*
X88689751Y-124623847D01*
X87306620Y-123240715D01*
X87273135Y-123179392D01*
X87270982Y-123166012D01*
X87253542Y-123000072D01*
X87194527Y-122818444D01*
X87099040Y-122653056D01*
X86971253Y-122511134D01*
X86816752Y-122398882D01*
X86642288Y-122321206D01*
X86642286Y-122321205D01*
X86455487Y-122281500D01*
X86264513Y-122281500D01*
X86077714Y-122321205D01*
X86077712Y-122321206D01*
X85906429Y-122397466D01*
X85903246Y-122398883D01*
X85748745Y-122511135D01*
X85620959Y-122653057D01*
X85525473Y-122818443D01*
X85525470Y-122818450D01*
X85476443Y-122969341D01*
X85466458Y-123000072D01*
X85446496Y-123190000D01*
X83923500Y-123190000D01*
X83923500Y-120387209D01*
X83943185Y-120320170D01*
X83995989Y-120274415D01*
X84021720Y-120265919D01*
X84102288Y-120248794D01*
X84276752Y-120171118D01*
X84431253Y-120058866D01*
X84559040Y-119916944D01*
X84654527Y-119751556D01*
X84713542Y-119569928D01*
X84733504Y-119380000D01*
X84713542Y-119190072D01*
X84654527Y-119008444D01*
X84559040Y-118843056D01*
X84431253Y-118701134D01*
X84276752Y-118588882D01*
X84102288Y-118511206D01*
X84102286Y-118511205D01*
X83915487Y-118471500D01*
X83724513Y-118471500D01*
X83537714Y-118511205D01*
X83363246Y-118588883D01*
X83208745Y-118701135D01*
X83080959Y-118843057D01*
X82985473Y-119008443D01*
X82985470Y-119008450D01*
X82926459Y-119190068D01*
X82926458Y-119190072D01*
X82917369Y-119276548D01*
X82909324Y-119353092D01*
X82882739Y-119417707D01*
X82876395Y-119425013D01*
X82853188Y-119449726D01*
X82835016Y-119469078D01*
X82824442Y-119479652D01*
X82813871Y-119490223D01*
X82813857Y-119490239D01*
X82809531Y-119495814D01*
X82805747Y-119500244D01*
X82773418Y-119534673D01*
X82772820Y-119535497D01*
X82772186Y-119535985D01*
X82768076Y-119540363D01*
X82767369Y-119539699D01*
X82717491Y-119578164D01*
X82647878Y-119584145D01*
X82586082Y-119551540D01*
X82551723Y-119490702D01*
X82548500Y-119462614D01*
X82548500Y-96370005D01*
X90396844Y-96370005D01*
X90415434Y-96594359D01*
X90415436Y-96594371D01*
X90470703Y-96812614D01*
X90561140Y-97018792D01*
X90653461Y-97160099D01*
X90684278Y-97207268D01*
X90835707Y-97371762D01*
X90866629Y-97434415D01*
X90858769Y-97503841D01*
X90814622Y-97557997D01*
X90787811Y-97571926D01*
X90667912Y-97616646D01*
X90667906Y-97616649D01*
X90552812Y-97702809D01*
X90552809Y-97702812D01*
X90466649Y-97817906D01*
X90466645Y-97817913D01*
X90416403Y-97952620D01*
X90416401Y-97952627D01*
X90410000Y-98012155D01*
X90410000Y-98660000D01*
X91326314Y-98660000D01*
X91300507Y-98700156D01*
X91260000Y-98838111D01*
X91260000Y-98981889D01*
X91300507Y-99119844D01*
X91326314Y-99160000D01*
X90410000Y-99160000D01*
X90410000Y-99807844D01*
X90416401Y-99867372D01*
X90416403Y-99867379D01*
X90466645Y-100002086D01*
X90466649Y-100002093D01*
X90552809Y-100117187D01*
X90552812Y-100117190D01*
X90667906Y-100203350D01*
X90667913Y-100203354D01*
X90802620Y-100253596D01*
X90802627Y-100253598D01*
X90862155Y-100259999D01*
X90862172Y-100260000D01*
X91510000Y-100260000D01*
X91510000Y-99345501D01*
X91617685Y-99394680D01*
X91724237Y-99410000D01*
X91795763Y-99410000D01*
X91902315Y-99394680D01*
X92010000Y-99345501D01*
X92010000Y-100260000D01*
X92657828Y-100260000D01*
X92657844Y-100259999D01*
X92717372Y-100253598D01*
X92717379Y-100253596D01*
X92852086Y-100203354D01*
X92852093Y-100203350D01*
X92967187Y-100117190D01*
X92967190Y-100117187D01*
X93053350Y-100002093D01*
X93053354Y-100002086D01*
X93103596Y-99867379D01*
X93103598Y-99867372D01*
X93109999Y-99807844D01*
X93110000Y-99807827D01*
X93110000Y-99160000D01*
X92193686Y-99160000D01*
X92219493Y-99119844D01*
X92260000Y-98981889D01*
X92260000Y-98838111D01*
X92219493Y-98700156D01*
X92193686Y-98660000D01*
X93110000Y-98660000D01*
X93110000Y-98012172D01*
X93109999Y-98012155D01*
X93103598Y-97952627D01*
X93103596Y-97952620D01*
X93053354Y-97817913D01*
X93053350Y-97817906D01*
X92967190Y-97702812D01*
X92967187Y-97702809D01*
X92852093Y-97616649D01*
X92852088Y-97616646D01*
X92732188Y-97571926D01*
X92676255Y-97530054D01*
X92651838Y-97464590D01*
X92666690Y-97396317D01*
X92684286Y-97371769D01*
X92835722Y-97207268D01*
X92958860Y-97018791D01*
X93049296Y-96812616D01*
X93104564Y-96594368D01*
X93110032Y-96528382D01*
X93123156Y-96370005D01*
X93123156Y-96369994D01*
X93104565Y-96145640D01*
X93104563Y-96145628D01*
X93057868Y-95961233D01*
X93049296Y-95927384D01*
X92958860Y-95721209D01*
X92956290Y-95717276D01*
X92897291Y-95626970D01*
X92835722Y-95532732D01*
X92835719Y-95532729D01*
X92835715Y-95532723D01*
X92683243Y-95367097D01*
X92683238Y-95367092D01*
X92532799Y-95250000D01*
X92505576Y-95228811D01*
X92469070Y-95209055D01*
X92419479Y-95159836D01*
X92404371Y-95091619D01*
X92428541Y-95026064D01*
X92469070Y-94990945D01*
X92469084Y-94990936D01*
X92505576Y-94971189D01*
X92683240Y-94832906D01*
X92835722Y-94667268D01*
X92958860Y-94478791D01*
X93049296Y-94272616D01*
X93104564Y-94054368D01*
X93105217Y-94046485D01*
X93123156Y-93830005D01*
X93123156Y-93829994D01*
X93104565Y-93605640D01*
X93104563Y-93605628D01*
X93088323Y-93541497D01*
X93049296Y-93387384D01*
X92958860Y-93181209D01*
X92958254Y-93180282D01*
X92835723Y-92992734D01*
X92835715Y-92992723D01*
X92683243Y-92827097D01*
X92683238Y-92827092D01*
X92505577Y-92688812D01*
X92505578Y-92688812D01*
X92505576Y-92688811D01*
X92469070Y-92669055D01*
X92419479Y-92619836D01*
X92404371Y-92551619D01*
X92428541Y-92486064D01*
X92469070Y-92450945D01*
X92476073Y-92447155D01*
X92505576Y-92431189D01*
X92683240Y-92292906D01*
X92825672Y-92138185D01*
X92835715Y-92127276D01*
X92835716Y-92127274D01*
X92835722Y-92127268D01*
X92958860Y-91938791D01*
X93049296Y-91732616D01*
X93104564Y-91514368D01*
X93104565Y-91514359D01*
X93123156Y-91290005D01*
X93123156Y-91290000D01*
X93386496Y-91290000D01*
X93406458Y-91479928D01*
X93406459Y-91479931D01*
X93465470Y-91661549D01*
X93465473Y-91661556D01*
X93558211Y-91822184D01*
X93560960Y-91826944D01*
X93634649Y-91908784D01*
X93664880Y-91971775D01*
X93666500Y-91991756D01*
X93666500Y-97556366D01*
X93664761Y-97572113D01*
X93665032Y-97572139D01*
X93664298Y-97579905D01*
X93666500Y-97649957D01*
X93666500Y-97679859D01*
X93667384Y-97686856D01*
X93667842Y-97692679D01*
X93669326Y-97739889D01*
X93669327Y-97739891D01*
X93675022Y-97759495D01*
X93678967Y-97778542D01*
X93681526Y-97798797D01*
X93681527Y-97798800D01*
X93681528Y-97798803D01*
X93698914Y-97842716D01*
X93700806Y-97848244D01*
X93713981Y-97893592D01*
X93724372Y-97911162D01*
X93732932Y-97928635D01*
X93740447Y-97947617D01*
X93768209Y-97985827D01*
X93771416Y-97990710D01*
X93795458Y-98031362D01*
X93795462Y-98031366D01*
X93809889Y-98045793D01*
X93822526Y-98060588D01*
X93834528Y-98077107D01*
X93870931Y-98107222D01*
X93875231Y-98111135D01*
X95534994Y-99770898D01*
X97163378Y-101399282D01*
X97196863Y-101460605D01*
X97199018Y-101474001D01*
X97206992Y-101549868D01*
X97216458Y-101639928D01*
X97216459Y-101639931D01*
X97275470Y-101821549D01*
X97275473Y-101821556D01*
X97370960Y-101986944D01*
X97498747Y-102128866D01*
X97653248Y-102241118D01*
X97827712Y-102318794D01*
X98014513Y-102358500D01*
X98205487Y-102358500D01*
X98392288Y-102318794D01*
X98566752Y-102241118D01*
X98566755Y-102241115D01*
X98572064Y-102238752D01*
X98641314Y-102229467D01*
X98704591Y-102259095D01*
X98741804Y-102318230D01*
X98746500Y-102352031D01*
X98746500Y-103110471D01*
X98726815Y-103177510D01*
X98674011Y-103223265D01*
X98648282Y-103231761D01*
X98462713Y-103271205D01*
X98288246Y-103348883D01*
X98133745Y-103461135D01*
X98005959Y-103603057D01*
X97910473Y-103768443D01*
X97910470Y-103768450D01*
X97859677Y-103924777D01*
X97851458Y-103950072D01*
X97831496Y-104140000D01*
X97851458Y-104329928D01*
X97851459Y-104329931D01*
X97910470Y-104511549D01*
X97910473Y-104511556D01*
X98005960Y-104676944D01*
X98133747Y-104818866D01*
X98288248Y-104931118D01*
X98462712Y-105008794D01*
X98649513Y-105048500D01*
X98840487Y-105048500D01*
X99027288Y-105008794D01*
X99201752Y-104931118D01*
X99356253Y-104818866D01*
X99484040Y-104676944D01*
X99579527Y-104511556D01*
X99638542Y-104329928D01*
X99655981Y-104163997D01*
X99682564Y-104099387D01*
X99691611Y-104089291D01*
X99768815Y-104012087D01*
X99781180Y-104002183D01*
X99781006Y-104001973D01*
X99787012Y-103997003D01*
X99787018Y-103997000D01*
X99834999Y-103945904D01*
X99856135Y-103924769D01*
X99860458Y-103919195D01*
X99864257Y-103914747D01*
X99896585Y-103880322D01*
X99906420Y-103862432D01*
X99917098Y-103846174D01*
X99929614Y-103830040D01*
X99948374Y-103786686D01*
X99950935Y-103781458D01*
X99973695Y-103740060D01*
X99978774Y-103720274D01*
X99985072Y-103701882D01*
X99993181Y-103683145D01*
X100000569Y-103636497D01*
X100001751Y-103630786D01*
X100013500Y-103585030D01*
X100013500Y-103564615D01*
X100015027Y-103545214D01*
X100018220Y-103525057D01*
X100013775Y-103478033D01*
X100013500Y-103472195D01*
X100013500Y-100180000D01*
X101006496Y-100180000D01*
X101026458Y-100369928D01*
X101026459Y-100369931D01*
X101085470Y-100551549D01*
X101085473Y-100551556D01*
X101180960Y-100716944D01*
X101308747Y-100858866D01*
X101463248Y-100971118D01*
X101637712Y-101048794D01*
X101824513Y-101088500D01*
X101881234Y-101088500D01*
X101948273Y-101108185D01*
X101968915Y-101124819D01*
X102682910Y-101838814D01*
X102692816Y-101851178D01*
X102693026Y-101851005D01*
X102698001Y-101857019D01*
X102749094Y-101904999D01*
X102770225Y-101926129D01*
X102770230Y-101926134D01*
X102775802Y-101930456D01*
X102780242Y-101934249D01*
X102814678Y-101966586D01*
X102832567Y-101976420D01*
X102848833Y-101987104D01*
X102864959Y-101999613D01*
X102908298Y-102018367D01*
X102913545Y-102020937D01*
X102954940Y-102043695D01*
X102974718Y-102048773D01*
X102993119Y-102055073D01*
X103011855Y-102063181D01*
X103056362Y-102070229D01*
X103058503Y-102070569D01*
X103064212Y-102071751D01*
X103109970Y-102083500D01*
X103130384Y-102083500D01*
X103149783Y-102085027D01*
X103169943Y-102088220D01*
X103216966Y-102083775D01*
X103222804Y-102083500D01*
X112642691Y-102083500D01*
X112709730Y-102103185D01*
X112734840Y-102124527D01*
X112738747Y-102128866D01*
X112893248Y-102241118D01*
X113067712Y-102318794D01*
X113254513Y-102358500D01*
X113445487Y-102358500D01*
X113632288Y-102318794D01*
X113806752Y-102241118D01*
X113961253Y-102128866D01*
X114089040Y-101986944D01*
X114184527Y-101821556D01*
X114243542Y-101639928D01*
X114263504Y-101450000D01*
X114243542Y-101260072D01*
X114184527Y-101078444D01*
X114089040Y-100913056D01*
X113961253Y-100771134D01*
X113806752Y-100658882D01*
X113632288Y-100581206D01*
X113632286Y-100581205D01*
X113445487Y-100541500D01*
X113254513Y-100541500D01*
X113067714Y-100581205D01*
X113067712Y-100581206D01*
X112903549Y-100654296D01*
X112893246Y-100658883D01*
X112738745Y-100771135D01*
X112734840Y-100775473D01*
X112675354Y-100812121D01*
X112642691Y-100816500D01*
X103503767Y-100816500D01*
X103436728Y-100796815D01*
X103416086Y-100780181D01*
X102866620Y-100230715D01*
X102833135Y-100169392D01*
X102830982Y-100156012D01*
X102813542Y-99990072D01*
X102754527Y-99808444D01*
X102659040Y-99643056D01*
X102531253Y-99501134D01*
X102376752Y-99388882D01*
X102202288Y-99311206D01*
X102202286Y-99311205D01*
X102015487Y-99271500D01*
X101824513Y-99271500D01*
X101637714Y-99311205D01*
X101463246Y-99388883D01*
X101308745Y-99501135D01*
X101180959Y-99643057D01*
X101085473Y-99808443D01*
X101085470Y-99808450D01*
X101058974Y-99889998D01*
X101026458Y-99990072D01*
X101006496Y-100180000D01*
X100013500Y-100180000D01*
X100013500Y-98910000D01*
X107356496Y-98910000D01*
X107376458Y-99099928D01*
X107376459Y-99099931D01*
X107435470Y-99281549D01*
X107435473Y-99281556D01*
X107530960Y-99446944D01*
X107658747Y-99588866D01*
X107813248Y-99701118D01*
X107987712Y-99778794D01*
X108174513Y-99818500D01*
X108365487Y-99818500D01*
X108552288Y-99778794D01*
X108726752Y-99701118D01*
X108881253Y-99588866D01*
X108885160Y-99584527D01*
X108944646Y-99547879D01*
X108977309Y-99543500D01*
X113036234Y-99543500D01*
X113103273Y-99563185D01*
X113123915Y-99579819D01*
X114943378Y-101399282D01*
X114976863Y-101460605D01*
X114979018Y-101474001D01*
X114986992Y-101549868D01*
X114996458Y-101639928D01*
X114996459Y-101639931D01*
X115055470Y-101821549D01*
X115055473Y-101821556D01*
X115150960Y-101986944D01*
X115278747Y-102128866D01*
X115433248Y-102241118D01*
X115607712Y-102318794D01*
X115794513Y-102358500D01*
X115985487Y-102358500D01*
X116172288Y-102318794D01*
X116346752Y-102241118D01*
X116501253Y-102128866D01*
X116629040Y-101986944D01*
X116724527Y-101821556D01*
X116783542Y-101639928D01*
X116803504Y-101450000D01*
X116783542Y-101260072D01*
X116724527Y-101078444D01*
X116629040Y-100913056D01*
X116501253Y-100771134D01*
X116346752Y-100658882D01*
X116172288Y-100581206D01*
X116172286Y-100581205D01*
X115985487Y-100541500D01*
X115928767Y-100541500D01*
X115861728Y-100521815D01*
X115841086Y-100505181D01*
X113857088Y-98521183D01*
X113847187Y-98508823D01*
X113846977Y-98508998D01*
X113842002Y-98502986D01*
X113842000Y-98502982D01*
X113815658Y-98478245D01*
X113790922Y-98455016D01*
X113769768Y-98433863D01*
X113767792Y-98432331D01*
X113764183Y-98429531D01*
X113759750Y-98425744D01*
X113759298Y-98425320D01*
X113725321Y-98393414D01*
X113725319Y-98393412D01*
X113707431Y-98383578D01*
X113691170Y-98372897D01*
X113675039Y-98360384D01*
X113631693Y-98341627D01*
X113626445Y-98339056D01*
X113589649Y-98318828D01*
X113585060Y-98316305D01*
X113581660Y-98315432D01*
X113565287Y-98311228D01*
X113546881Y-98304926D01*
X113528144Y-98296818D01*
X113528146Y-98296818D01*
X113481496Y-98289430D01*
X113475781Y-98288246D01*
X113455612Y-98283068D01*
X113430032Y-98276500D01*
X113430030Y-98276500D01*
X113409616Y-98276500D01*
X113390217Y-98274973D01*
X113370058Y-98271780D01*
X113370057Y-98271780D01*
X113323034Y-98276225D01*
X113317196Y-98276500D01*
X108977309Y-98276500D01*
X108910270Y-98256815D01*
X108885160Y-98235473D01*
X108881254Y-98231135D01*
X108806666Y-98176943D01*
X108726752Y-98118882D01*
X108552288Y-98041206D01*
X108552286Y-98041205D01*
X108365487Y-98001500D01*
X108174513Y-98001500D01*
X107987714Y-98041205D01*
X107953377Y-98056493D01*
X107830624Y-98111146D01*
X107813246Y-98118883D01*
X107658745Y-98231135D01*
X107530959Y-98373057D01*
X107435473Y-98538443D01*
X107435470Y-98538450D01*
X107378106Y-98714999D01*
X107376458Y-98720072D01*
X107356496Y-98910000D01*
X100013500Y-98910000D01*
X100013500Y-98341756D01*
X100033185Y-98274717D01*
X100045346Y-98258788D01*
X100119040Y-98176944D01*
X100214527Y-98011556D01*
X100273542Y-97829928D01*
X100293504Y-97640000D01*
X100273542Y-97450072D01*
X100214527Y-97268444D01*
X100149896Y-97156500D01*
X100119041Y-97103057D01*
X100119036Y-97103050D01*
X100045350Y-97021213D01*
X100015120Y-96958221D01*
X100013500Y-96938241D01*
X100013500Y-95778654D01*
X111991500Y-95778654D01*
X111998011Y-95839202D01*
X111998011Y-95839204D01*
X112043527Y-95961233D01*
X112049111Y-95976204D01*
X112136739Y-96093261D01*
X112253796Y-96180889D01*
X112390799Y-96231989D01*
X112418050Y-96234918D01*
X112451345Y-96238499D01*
X112451362Y-96238500D01*
X114248638Y-96238500D01*
X114248654Y-96238499D01*
X114275692Y-96235591D01*
X114309201Y-96231989D01*
X114446204Y-96180889D01*
X114563261Y-96093261D01*
X114650889Y-95976204D01*
X114696138Y-95854887D01*
X114738009Y-95798956D01*
X114803474Y-95774539D01*
X114871746Y-95789391D01*
X114903545Y-95814236D01*
X114966760Y-95882906D01*
X115144424Y-96021189D01*
X115144425Y-96021189D01*
X115144427Y-96021191D01*
X115242060Y-96074027D01*
X115342426Y-96128342D01*
X115555365Y-96201444D01*
X115777431Y-96238500D01*
X116002569Y-96238500D01*
X116224635Y-96201444D01*
X116437574Y-96128342D01*
X116635576Y-96021189D01*
X116813240Y-95882906D01*
X116965722Y-95717268D01*
X117056193Y-95578790D01*
X117109338Y-95533437D01*
X117178569Y-95524013D01*
X117241905Y-95553515D01*
X117263804Y-95578787D01*
X117354278Y-95717268D01*
X117354283Y-95717273D01*
X117354284Y-95717276D01*
X117480968Y-95854889D01*
X117506760Y-95882906D01*
X117684424Y-96021189D01*
X117684425Y-96021189D01*
X117684427Y-96021191D01*
X117782060Y-96074027D01*
X117882426Y-96128342D01*
X118095365Y-96201444D01*
X118317431Y-96238500D01*
X118542569Y-96238500D01*
X118764635Y-96201444D01*
X118977574Y-96128342D01*
X119175576Y-96021189D01*
X119353240Y-95882906D01*
X119505722Y-95717268D01*
X119596193Y-95578790D01*
X119649338Y-95533437D01*
X119718569Y-95524013D01*
X119781905Y-95553515D01*
X119803804Y-95578787D01*
X119894278Y-95717268D01*
X119894283Y-95717273D01*
X119894284Y-95717276D01*
X120020968Y-95854889D01*
X120046760Y-95882906D01*
X120224424Y-96021189D01*
X120224425Y-96021189D01*
X120224427Y-96021191D01*
X120322060Y-96074027D01*
X120422426Y-96128342D01*
X120635365Y-96201444D01*
X120857431Y-96238500D01*
X121082569Y-96238500D01*
X121304635Y-96201444D01*
X121517574Y-96128342D01*
X121715576Y-96021189D01*
X121893240Y-95882906D01*
X122045722Y-95717268D01*
X122136193Y-95578790D01*
X122189338Y-95533437D01*
X122258569Y-95524013D01*
X122321905Y-95553515D01*
X122343804Y-95578787D01*
X122434278Y-95717268D01*
X122434283Y-95717273D01*
X122434284Y-95717276D01*
X122560968Y-95854889D01*
X122586760Y-95882906D01*
X122764424Y-96021189D01*
X122764425Y-96021189D01*
X122764427Y-96021191D01*
X122862060Y-96074027D01*
X122962426Y-96128342D01*
X123175365Y-96201444D01*
X123397431Y-96238500D01*
X123622569Y-96238500D01*
X123844635Y-96201444D01*
X124057574Y-96128342D01*
X124255576Y-96021189D01*
X124433240Y-95882906D01*
X124585722Y-95717268D01*
X124676193Y-95578790D01*
X124729338Y-95533437D01*
X124798569Y-95524013D01*
X124861905Y-95553515D01*
X124883804Y-95578787D01*
X124974278Y-95717268D01*
X124974283Y-95717273D01*
X124974284Y-95717276D01*
X125100968Y-95854889D01*
X125126760Y-95882906D01*
X125304424Y-96021189D01*
X125304425Y-96021189D01*
X125304427Y-96021191D01*
X125402060Y-96074027D01*
X125502426Y-96128342D01*
X125715365Y-96201444D01*
X125937431Y-96238500D01*
X126162569Y-96238500D01*
X126384635Y-96201444D01*
X126597574Y-96128342D01*
X126795576Y-96021189D01*
X126973240Y-95882906D01*
X127125722Y-95717268D01*
X127216193Y-95578790D01*
X127269338Y-95533437D01*
X127338569Y-95524013D01*
X127401905Y-95553515D01*
X127423804Y-95578787D01*
X127514278Y-95717268D01*
X127514283Y-95717273D01*
X127514284Y-95717276D01*
X127640968Y-95854889D01*
X127666760Y-95882906D01*
X127844424Y-96021189D01*
X127844425Y-96021189D01*
X127844427Y-96021191D01*
X127942060Y-96074027D01*
X128042426Y-96128342D01*
X128255365Y-96201444D01*
X128477431Y-96238500D01*
X128702569Y-96238500D01*
X128924635Y-96201444D01*
X129137574Y-96128342D01*
X129335576Y-96021189D01*
X129513240Y-95882906D01*
X129665722Y-95717268D01*
X129756193Y-95578790D01*
X129809338Y-95533437D01*
X129878569Y-95524013D01*
X129941905Y-95553515D01*
X129963804Y-95578787D01*
X130054278Y-95717268D01*
X130054283Y-95717273D01*
X130054284Y-95717276D01*
X130180968Y-95854889D01*
X130206760Y-95882906D01*
X130384424Y-96021189D01*
X130384425Y-96021189D01*
X130384427Y-96021191D01*
X130482060Y-96074027D01*
X130582426Y-96128342D01*
X130795365Y-96201444D01*
X131017431Y-96238500D01*
X131242569Y-96238500D01*
X131464635Y-96201444D01*
X131677574Y-96128342D01*
X131875576Y-96021189D01*
X132053240Y-95882906D01*
X132205722Y-95717268D01*
X132328860Y-95528791D01*
X132419296Y-95322616D01*
X132474564Y-95104368D01*
X132474926Y-95100000D01*
X132493156Y-94880005D01*
X132493156Y-94879994D01*
X132474565Y-94655640D01*
X132474563Y-94655628D01*
X132429782Y-94478792D01*
X132419296Y-94437384D01*
X132328860Y-94231209D01*
X132312706Y-94206484D01*
X132248894Y-94108812D01*
X132205722Y-94042732D01*
X132205719Y-94042729D01*
X132205715Y-94042723D01*
X132053243Y-93877097D01*
X132053238Y-93877092D01*
X131916111Y-93770361D01*
X131875576Y-93738811D01*
X131875575Y-93738810D01*
X131875572Y-93738808D01*
X131677580Y-93631661D01*
X131677577Y-93631659D01*
X131677574Y-93631658D01*
X131677571Y-93631657D01*
X131677569Y-93631656D01*
X131464637Y-93558556D01*
X131242569Y-93521500D01*
X131017431Y-93521500D01*
X130795362Y-93558556D01*
X130582430Y-93631656D01*
X130582419Y-93631661D01*
X130384427Y-93738808D01*
X130384422Y-93738812D01*
X130206761Y-93877092D01*
X130206756Y-93877097D01*
X130054284Y-94042723D01*
X130054276Y-94042734D01*
X129963808Y-94181206D01*
X129910662Y-94226562D01*
X129841431Y-94235986D01*
X129778095Y-94206484D01*
X129756192Y-94181206D01*
X129698286Y-94092576D01*
X129665722Y-94042732D01*
X129665719Y-94042729D01*
X129665715Y-94042723D01*
X129513243Y-93877097D01*
X129513238Y-93877092D01*
X129376111Y-93770361D01*
X129335576Y-93738811D01*
X129335575Y-93738810D01*
X129335572Y-93738808D01*
X129137580Y-93631661D01*
X129137577Y-93631659D01*
X129137574Y-93631658D01*
X129137571Y-93631657D01*
X129137569Y-93631656D01*
X128924637Y-93558556D01*
X128702569Y-93521500D01*
X128477431Y-93521500D01*
X128255362Y-93558556D01*
X128042430Y-93631656D01*
X128042419Y-93631661D01*
X127844427Y-93738808D01*
X127844422Y-93738812D01*
X127666761Y-93877092D01*
X127666756Y-93877097D01*
X127514284Y-94042723D01*
X127514276Y-94042734D01*
X127423808Y-94181206D01*
X127370662Y-94226562D01*
X127301431Y-94235986D01*
X127238095Y-94206484D01*
X127216192Y-94181206D01*
X127158286Y-94092576D01*
X127125722Y-94042732D01*
X127125719Y-94042729D01*
X127125715Y-94042723D01*
X126973243Y-93877097D01*
X126973238Y-93877092D01*
X126836111Y-93770361D01*
X126795576Y-93738811D01*
X126795575Y-93738810D01*
X126795572Y-93738808D01*
X126597580Y-93631661D01*
X126597577Y-93631659D01*
X126597574Y-93631658D01*
X126597571Y-93631657D01*
X126597569Y-93631656D01*
X126384637Y-93558556D01*
X126162569Y-93521500D01*
X125937431Y-93521500D01*
X125715362Y-93558556D01*
X125502430Y-93631656D01*
X125502419Y-93631661D01*
X125304427Y-93738808D01*
X125304422Y-93738812D01*
X125126761Y-93877092D01*
X125126756Y-93877097D01*
X124974284Y-94042723D01*
X124974276Y-94042734D01*
X124883808Y-94181206D01*
X124830662Y-94226562D01*
X124761431Y-94235986D01*
X124698095Y-94206484D01*
X124676192Y-94181206D01*
X124618286Y-94092576D01*
X124585722Y-94042732D01*
X124585719Y-94042729D01*
X124585715Y-94042723D01*
X124433243Y-93877097D01*
X124433238Y-93877092D01*
X124296111Y-93770361D01*
X124255576Y-93738811D01*
X124255575Y-93738810D01*
X124255572Y-93738808D01*
X124057580Y-93631661D01*
X124057577Y-93631659D01*
X124057574Y-93631658D01*
X124057571Y-93631657D01*
X124057569Y-93631656D01*
X123844637Y-93558556D01*
X123622569Y-93521500D01*
X123397431Y-93521500D01*
X123175362Y-93558556D01*
X122962430Y-93631656D01*
X122962419Y-93631661D01*
X122764427Y-93738808D01*
X122764422Y-93738812D01*
X122586761Y-93877092D01*
X122586756Y-93877097D01*
X122434284Y-94042723D01*
X122434276Y-94042734D01*
X122343808Y-94181206D01*
X122290662Y-94226562D01*
X122221431Y-94235986D01*
X122158095Y-94206484D01*
X122136192Y-94181206D01*
X122078286Y-94092576D01*
X122045722Y-94042732D01*
X122045719Y-94042729D01*
X122045715Y-94042723D01*
X121893243Y-93877097D01*
X121893238Y-93877092D01*
X121756111Y-93770361D01*
X121715576Y-93738811D01*
X121715575Y-93738810D01*
X121715572Y-93738808D01*
X121517580Y-93631661D01*
X121517577Y-93631659D01*
X121517574Y-93631658D01*
X121517571Y-93631657D01*
X121517569Y-93631656D01*
X121304637Y-93558556D01*
X121082569Y-93521500D01*
X120857431Y-93521500D01*
X120635362Y-93558556D01*
X120422430Y-93631656D01*
X120422419Y-93631661D01*
X120224427Y-93738808D01*
X120224422Y-93738812D01*
X120046761Y-93877092D01*
X120046756Y-93877097D01*
X119894284Y-94042723D01*
X119894276Y-94042734D01*
X119803808Y-94181206D01*
X119750662Y-94226562D01*
X119681431Y-94235986D01*
X119618095Y-94206484D01*
X119596192Y-94181206D01*
X119538286Y-94092576D01*
X119505722Y-94042732D01*
X119505719Y-94042729D01*
X119505715Y-94042723D01*
X119353243Y-93877097D01*
X119353238Y-93877092D01*
X119216111Y-93770361D01*
X119175576Y-93738811D01*
X119175575Y-93738810D01*
X119175572Y-93738808D01*
X118977580Y-93631661D01*
X118977577Y-93631659D01*
X118977574Y-93631658D01*
X118977571Y-93631657D01*
X118977569Y-93631656D01*
X118764637Y-93558556D01*
X118542569Y-93521500D01*
X118317431Y-93521500D01*
X118095362Y-93558556D01*
X117882430Y-93631656D01*
X117882419Y-93631661D01*
X117684427Y-93738808D01*
X117684422Y-93738812D01*
X117506761Y-93877092D01*
X117506756Y-93877097D01*
X117354284Y-94042723D01*
X117354276Y-94042734D01*
X117263808Y-94181206D01*
X117210662Y-94226562D01*
X117141431Y-94235986D01*
X117078095Y-94206484D01*
X117056192Y-94181206D01*
X116998286Y-94092576D01*
X116965722Y-94042732D01*
X116965719Y-94042729D01*
X116965715Y-94042723D01*
X116813243Y-93877097D01*
X116813238Y-93877092D01*
X116676111Y-93770361D01*
X116635576Y-93738811D01*
X116635575Y-93738810D01*
X116635572Y-93738808D01*
X116437580Y-93631661D01*
X116437577Y-93631659D01*
X116437574Y-93631658D01*
X116437571Y-93631657D01*
X116437569Y-93631656D01*
X116224637Y-93558556D01*
X116002569Y-93521500D01*
X115777431Y-93521500D01*
X115555362Y-93558556D01*
X115342430Y-93631656D01*
X115342419Y-93631661D01*
X115144427Y-93738808D01*
X115144422Y-93738812D01*
X114966761Y-93877092D01*
X114903548Y-93945760D01*
X114843661Y-93981750D01*
X114773823Y-93979649D01*
X114716207Y-93940124D01*
X114696138Y-93905110D01*
X114650889Y-93783796D01*
X114617214Y-93738812D01*
X114563261Y-93666739D01*
X114446204Y-93579111D01*
X114410790Y-93565902D01*
X114309203Y-93528011D01*
X114248654Y-93521500D01*
X114248638Y-93521500D01*
X112451362Y-93521500D01*
X112451345Y-93521500D01*
X112390797Y-93528011D01*
X112390795Y-93528011D01*
X112253795Y-93579111D01*
X112136739Y-93666739D01*
X112049111Y-93783795D01*
X111998011Y-93920795D01*
X111998011Y-93920797D01*
X111991500Y-93981345D01*
X111991500Y-95778654D01*
X100013500Y-95778654D01*
X100013500Y-93261756D01*
X100033185Y-93194717D01*
X100045346Y-93178788D01*
X100119040Y-93096944D01*
X100214527Y-92931556D01*
X100273542Y-92749928D01*
X100293504Y-92560000D01*
X100273542Y-92370072D01*
X100214527Y-92188444D01*
X100135548Y-92051649D01*
X100119041Y-92023057D01*
X100119036Y-92023050D01*
X100045350Y-91941213D01*
X100015120Y-91878221D01*
X100013500Y-91858241D01*
X100013500Y-88750000D01*
X102276496Y-88750000D01*
X102296458Y-88939928D01*
X102296459Y-88939931D01*
X102355470Y-89121549D01*
X102355473Y-89121556D01*
X102450960Y-89286944D01*
X102578747Y-89428866D01*
X102733248Y-89541118D01*
X102907712Y-89618794D01*
X103094513Y-89658500D01*
X103151234Y-89658500D01*
X103218273Y-89678185D01*
X103238915Y-89694819D01*
X103878410Y-90334314D01*
X103888316Y-90346678D01*
X103888526Y-90346505D01*
X103893501Y-90352519D01*
X103944594Y-90400499D01*
X103965301Y-90421205D01*
X103965730Y-90421634D01*
X103971302Y-90425956D01*
X103975742Y-90429749D01*
X104010178Y-90462086D01*
X104028067Y-90471920D01*
X104044333Y-90482604D01*
X104060459Y-90495113D01*
X104103798Y-90513867D01*
X104109045Y-90516437D01*
X104150440Y-90539195D01*
X104170218Y-90544273D01*
X104188619Y-90550573D01*
X104207355Y-90558681D01*
X104251862Y-90565729D01*
X104254003Y-90566069D01*
X104259712Y-90567251D01*
X104305470Y-90579000D01*
X104325884Y-90579000D01*
X104345283Y-90580527D01*
X104365443Y-90583720D01*
X104412466Y-90579275D01*
X104418304Y-90579000D01*
X111372691Y-90579000D01*
X111439730Y-90598685D01*
X111464840Y-90620027D01*
X111468747Y-90624366D01*
X111623248Y-90736618D01*
X111797712Y-90814294D01*
X111984513Y-90854000D01*
X112175487Y-90854000D01*
X112362288Y-90814294D01*
X112536752Y-90736618D01*
X112691253Y-90624366D01*
X112819040Y-90482444D01*
X112914527Y-90317056D01*
X112973542Y-90135428D01*
X112993504Y-89945500D01*
X112973542Y-89755572D01*
X112914527Y-89573944D01*
X112819040Y-89408556D01*
X112691253Y-89266634D01*
X112536752Y-89154382D01*
X112362288Y-89076706D01*
X112362286Y-89076705D01*
X112175487Y-89037000D01*
X111984513Y-89037000D01*
X111797714Y-89076705D01*
X111711439Y-89115117D01*
X111696993Y-89121549D01*
X111623246Y-89154383D01*
X111468745Y-89266635D01*
X111464840Y-89270973D01*
X111405354Y-89307621D01*
X111372691Y-89312000D01*
X104699267Y-89312000D01*
X104632228Y-89292315D01*
X104611586Y-89275681D01*
X104136620Y-88800715D01*
X104103135Y-88739392D01*
X104100982Y-88726012D01*
X104083542Y-88560072D01*
X104024527Y-88378444D01*
X103929040Y-88213056D01*
X103801253Y-88071134D01*
X103697152Y-87995500D01*
X107423496Y-87995500D01*
X107443458Y-88185428D01*
X107443459Y-88185431D01*
X107502470Y-88367049D01*
X107502473Y-88367056D01*
X107597960Y-88532444D01*
X107725747Y-88674366D01*
X107880248Y-88786618D01*
X108054712Y-88864294D01*
X108241513Y-88904000D01*
X108432487Y-88904000D01*
X108619288Y-88864294D01*
X108793752Y-88786618D01*
X108948253Y-88674366D01*
X108952160Y-88670027D01*
X109011646Y-88633379D01*
X109044309Y-88629000D01*
X113626234Y-88629000D01*
X113693273Y-88648685D01*
X113713915Y-88665319D01*
X114943378Y-89894782D01*
X114976863Y-89956105D01*
X114979018Y-89969501D01*
X114983156Y-90008865D01*
X114996458Y-90135428D01*
X114996459Y-90135431D01*
X115055470Y-90317049D01*
X115055473Y-90317056D01*
X115150960Y-90482444D01*
X115278747Y-90624366D01*
X115433248Y-90736618D01*
X115607712Y-90814294D01*
X115794513Y-90854000D01*
X115985487Y-90854000D01*
X116172288Y-90814294D01*
X116346752Y-90736618D01*
X116501253Y-90624366D01*
X116629040Y-90482444D01*
X116724527Y-90317056D01*
X116783542Y-90135428D01*
X116803504Y-89945500D01*
X116783542Y-89755572D01*
X116724527Y-89573944D01*
X116629040Y-89408556D01*
X116501253Y-89266634D01*
X116346752Y-89154382D01*
X116172288Y-89076706D01*
X116172286Y-89076705D01*
X115985487Y-89037000D01*
X115928767Y-89037000D01*
X115861728Y-89017315D01*
X115841086Y-89000681D01*
X114447088Y-87606683D01*
X114437187Y-87594323D01*
X114436977Y-87594498D01*
X114432002Y-87588486D01*
X114432000Y-87588482D01*
X114405658Y-87563745D01*
X114380922Y-87540516D01*
X114359768Y-87519363D01*
X114357792Y-87517831D01*
X114354183Y-87515031D01*
X114349750Y-87511244D01*
X114315321Y-87478914D01*
X114315319Y-87478912D01*
X114297431Y-87469078D01*
X114281170Y-87458397D01*
X114265039Y-87445884D01*
X114221693Y-87427127D01*
X114216445Y-87424556D01*
X114185435Y-87407509D01*
X114175060Y-87401805D01*
X114171660Y-87400932D01*
X114155287Y-87396728D01*
X114136881Y-87390426D01*
X114118144Y-87382318D01*
X114118146Y-87382318D01*
X114071496Y-87374930D01*
X114065781Y-87373746D01*
X114045612Y-87368568D01*
X114020032Y-87362000D01*
X114020030Y-87362000D01*
X113999616Y-87362000D01*
X113980217Y-87360473D01*
X113960058Y-87357280D01*
X113960057Y-87357280D01*
X113913034Y-87361725D01*
X113907196Y-87362000D01*
X109044309Y-87362000D01*
X108977270Y-87342315D01*
X108952160Y-87320973D01*
X108948254Y-87316635D01*
X108873190Y-87262097D01*
X108793752Y-87204382D01*
X108619288Y-87126706D01*
X108619286Y-87126705D01*
X108432487Y-87087000D01*
X108241513Y-87087000D01*
X108054714Y-87126705D01*
X107880246Y-87204383D01*
X107725745Y-87316635D01*
X107597959Y-87458557D01*
X107502473Y-87623943D01*
X107502470Y-87623950D01*
X107443459Y-87805568D01*
X107443458Y-87805572D01*
X107423496Y-87995500D01*
X103697152Y-87995500D01*
X103646752Y-87958882D01*
X103472288Y-87881206D01*
X103472286Y-87881205D01*
X103285487Y-87841500D01*
X103094513Y-87841500D01*
X102907714Y-87881205D01*
X102733246Y-87958883D01*
X102578745Y-88071135D01*
X102450959Y-88213057D01*
X102355473Y-88378443D01*
X102355470Y-88378450D01*
X102305435Y-88532444D01*
X102296458Y-88560072D01*
X102276496Y-88750000D01*
X100013500Y-88750000D01*
X100013500Y-86911756D01*
X100033185Y-86844717D01*
X100045346Y-86828788D01*
X100119040Y-86746944D01*
X100214527Y-86581556D01*
X100273542Y-86399928D01*
X100293504Y-86210000D01*
X100273542Y-86020072D01*
X100214527Y-85838444D01*
X100119040Y-85673056D01*
X99991253Y-85531134D01*
X99836752Y-85418882D01*
X99662288Y-85341206D01*
X99662286Y-85341205D01*
X99475487Y-85301500D01*
X99284513Y-85301500D01*
X99097714Y-85341205D01*
X98923246Y-85418883D01*
X98768745Y-85531135D01*
X98640959Y-85673057D01*
X98545473Y-85838443D01*
X98545470Y-85838450D01*
X98502904Y-85969456D01*
X98486458Y-86020072D01*
X98466496Y-86210000D01*
X98486458Y-86399928D01*
X98486459Y-86399931D01*
X98545470Y-86581549D01*
X98545473Y-86581556D01*
X98640959Y-86746943D01*
X98649070Y-86755951D01*
X98714649Y-86828784D01*
X98744880Y-86891775D01*
X98746500Y-86911756D01*
X98746500Y-91858241D01*
X98726815Y-91925280D01*
X98714650Y-91941213D01*
X98640963Y-92023050D01*
X98640958Y-92023057D01*
X98545473Y-92188443D01*
X98545470Y-92188450D01*
X98486459Y-92370068D01*
X98486458Y-92370072D01*
X98466496Y-92560000D01*
X98486458Y-92749928D01*
X98486459Y-92749931D01*
X98545470Y-92931549D01*
X98545473Y-92931556D01*
X98639837Y-93095000D01*
X98640960Y-93096944D01*
X98714649Y-93178784D01*
X98744880Y-93241775D01*
X98746500Y-93261756D01*
X98746500Y-96938241D01*
X98726815Y-97005280D01*
X98714650Y-97021213D01*
X98640963Y-97103050D01*
X98640958Y-97103057D01*
X98545473Y-97268443D01*
X98545470Y-97268450D01*
X98491545Y-97434415D01*
X98486458Y-97450072D01*
X98466496Y-97640000D01*
X98486458Y-97829928D01*
X98486459Y-97829931D01*
X98545470Y-98011549D01*
X98545473Y-98011556D01*
X98598751Y-98103837D01*
X98640960Y-98176944D01*
X98714649Y-98258784D01*
X98744880Y-98321775D01*
X98746500Y-98341756D01*
X98746500Y-100547968D01*
X98726815Y-100615007D01*
X98674011Y-100660762D01*
X98604853Y-100670706D01*
X98572065Y-100661248D01*
X98566753Y-100658883D01*
X98566752Y-100658882D01*
X98392288Y-100581206D01*
X98392286Y-100581205D01*
X98205487Y-100541500D01*
X98148766Y-100541500D01*
X98081727Y-100521815D01*
X98061085Y-100505181D01*
X94969819Y-97413914D01*
X94936334Y-97352591D01*
X94933500Y-97326233D01*
X94933500Y-91991756D01*
X94953185Y-91924717D01*
X94965346Y-91908788D01*
X95039040Y-91826944D01*
X95134527Y-91661556D01*
X95193542Y-91479928D01*
X95213504Y-91290000D01*
X95193542Y-91100072D01*
X95134527Y-90918444D01*
X95039040Y-90753056D01*
X94911253Y-90611134D01*
X94756752Y-90498882D01*
X94582288Y-90421206D01*
X94582286Y-90421205D01*
X94395487Y-90381500D01*
X94204513Y-90381500D01*
X94017714Y-90421205D01*
X94007043Y-90425956D01*
X93851714Y-90495113D01*
X93843246Y-90498883D01*
X93688745Y-90611135D01*
X93560959Y-90753057D01*
X93465473Y-90918443D01*
X93465470Y-90918450D01*
X93407072Y-91098181D01*
X93406458Y-91100072D01*
X93386496Y-91290000D01*
X93123156Y-91290000D01*
X93123156Y-91289994D01*
X93104565Y-91065640D01*
X93104563Y-91065628D01*
X93079945Y-90968414D01*
X93049296Y-90847384D01*
X92958860Y-90641209D01*
X92835722Y-90452732D01*
X92835719Y-90452729D01*
X92835715Y-90452723D01*
X92683243Y-90287097D01*
X92683238Y-90287092D01*
X92505577Y-90148812D01*
X92505578Y-90148812D01*
X92505576Y-90148811D01*
X92469070Y-90129055D01*
X92419479Y-90079836D01*
X92404371Y-90011619D01*
X92428541Y-89946064D01*
X92469070Y-89910945D01*
X92469084Y-89910936D01*
X92505576Y-89891189D01*
X92683240Y-89752906D01*
X92835722Y-89587268D01*
X92958860Y-89398791D01*
X93049296Y-89192616D01*
X93104564Y-88974368D01*
X93104565Y-88974359D01*
X93123156Y-88750005D01*
X93123156Y-88749994D01*
X93104565Y-88525640D01*
X93104563Y-88525628D01*
X93067291Y-88378444D01*
X93049296Y-88307384D01*
X92958860Y-88101209D01*
X92835722Y-87912732D01*
X92835719Y-87912729D01*
X92835715Y-87912723D01*
X92683243Y-87747097D01*
X92683238Y-87747092D01*
X92525026Y-87623950D01*
X92505576Y-87608811D01*
X92505575Y-87608810D01*
X92505572Y-87608808D01*
X92307580Y-87501661D01*
X92307577Y-87501659D01*
X92307574Y-87501658D01*
X92307571Y-87501657D01*
X92307569Y-87501656D01*
X92094637Y-87428556D01*
X91872569Y-87391500D01*
X91647431Y-87391500D01*
X91425362Y-87428556D01*
X91212430Y-87501656D01*
X91212419Y-87501661D01*
X91014427Y-87608808D01*
X91014422Y-87608812D01*
X90836761Y-87747092D01*
X90836756Y-87747097D01*
X90684284Y-87912723D01*
X90684276Y-87912734D01*
X90561140Y-88101207D01*
X90470703Y-88307385D01*
X90415436Y-88525628D01*
X90415434Y-88525640D01*
X90396844Y-88749994D01*
X90396844Y-88750005D01*
X90415434Y-88974359D01*
X90415436Y-88974371D01*
X90470703Y-89192614D01*
X90561140Y-89398792D01*
X90684276Y-89587265D01*
X90684284Y-89587276D01*
X90836756Y-89752902D01*
X90836761Y-89752907D01*
X90870299Y-89779011D01*
X91014424Y-89891189D01*
X91014429Y-89891191D01*
X91014431Y-89891193D01*
X91050930Y-89910946D01*
X91100520Y-89960165D01*
X91115628Y-90028382D01*
X91091457Y-90093937D01*
X91050930Y-90129054D01*
X91014431Y-90148806D01*
X91014422Y-90148812D01*
X90836761Y-90287092D01*
X90836756Y-90287097D01*
X90684284Y-90452723D01*
X90684276Y-90452734D01*
X90561140Y-90641207D01*
X90470703Y-90847385D01*
X90415436Y-91065628D01*
X90415434Y-91065640D01*
X90396844Y-91289994D01*
X90396844Y-91290005D01*
X90415434Y-91514359D01*
X90415436Y-91514371D01*
X90470703Y-91732614D01*
X90561140Y-91938792D01*
X90684276Y-92127265D01*
X90684284Y-92127276D01*
X90799943Y-92252913D01*
X90836760Y-92292906D01*
X91014424Y-92431189D01*
X91014429Y-92431191D01*
X91014431Y-92431193D01*
X91050930Y-92450946D01*
X91100520Y-92500165D01*
X91115628Y-92568382D01*
X91091457Y-92633937D01*
X91050930Y-92669054D01*
X91014431Y-92688806D01*
X91014422Y-92688812D01*
X90836761Y-92827092D01*
X90836756Y-92827097D01*
X90684284Y-92992723D01*
X90684276Y-92992734D01*
X90561140Y-93181207D01*
X90470703Y-93387385D01*
X90415436Y-93605628D01*
X90415434Y-93605640D01*
X90396844Y-93829994D01*
X90396844Y-93830005D01*
X90415434Y-94054359D01*
X90415436Y-94054371D01*
X90470703Y-94272614D01*
X90561140Y-94478792D01*
X90684276Y-94667265D01*
X90684284Y-94667276D01*
X90813265Y-94807384D01*
X90836760Y-94832906D01*
X91014424Y-94971189D01*
X91014429Y-94971191D01*
X91014431Y-94971193D01*
X91050930Y-94990946D01*
X91100520Y-95040165D01*
X91115628Y-95108382D01*
X91091457Y-95173937D01*
X91050930Y-95209054D01*
X91014431Y-95228806D01*
X91014422Y-95228812D01*
X90836761Y-95367092D01*
X90836756Y-95367097D01*
X90684284Y-95532723D01*
X90684276Y-95532734D01*
X90561140Y-95721207D01*
X90470703Y-95927385D01*
X90415436Y-96145628D01*
X90415434Y-96145640D01*
X90396844Y-96369994D01*
X90396844Y-96370005D01*
X82548500Y-96370005D01*
X82548500Y-94062235D01*
X82550238Y-94046485D01*
X82549968Y-94046460D01*
X82550701Y-94038698D01*
X82550702Y-94038695D01*
X82548500Y-93968645D01*
X82548500Y-93938748D01*
X82547614Y-93931740D01*
X82547156Y-93925918D01*
X82545673Y-93878714D01*
X82545672Y-93878712D01*
X82545202Y-93877094D01*
X82539977Y-93859112D01*
X82536032Y-93840061D01*
X82533474Y-93819807D01*
X82516084Y-93775888D01*
X82514193Y-93770361D01*
X82501018Y-93725012D01*
X82501018Y-93725011D01*
X82490624Y-93707436D01*
X82482064Y-93689960D01*
X82474554Y-93670992D01*
X82474554Y-93670991D01*
X82474553Y-93670989D01*
X82474552Y-93670987D01*
X82446789Y-93632775D01*
X82443587Y-93627901D01*
X82426509Y-93599022D01*
X82419544Y-93587244D01*
X82419539Y-93587238D01*
X82405106Y-93572805D01*
X82392469Y-93558010D01*
X82380471Y-93541496D01*
X82344084Y-93511394D01*
X82339762Y-93507461D01*
X78928484Y-90096183D01*
X78918583Y-90083823D01*
X78918373Y-90083998D01*
X78913398Y-90077986D01*
X78913396Y-90077982D01*
X78883121Y-90049552D01*
X78862318Y-90030016D01*
X78841164Y-90008863D01*
X78839188Y-90007331D01*
X78835579Y-90004531D01*
X78831146Y-90000744D01*
X78796717Y-89968414D01*
X78796715Y-89968412D01*
X78778827Y-89958578D01*
X78762566Y-89947897D01*
X78746435Y-89935384D01*
X78703089Y-89916627D01*
X78697841Y-89914056D01*
X78670647Y-89899106D01*
X78656456Y-89891305D01*
X78653056Y-89890432D01*
X78636683Y-89886228D01*
X78618277Y-89879926D01*
X78599540Y-89871818D01*
X78599542Y-89871818D01*
X78552892Y-89864430D01*
X78547177Y-89863246D01*
X78527008Y-89858068D01*
X78501428Y-89851500D01*
X78501426Y-89851500D01*
X78481012Y-89851500D01*
X78461613Y-89849973D01*
X78441454Y-89846780D01*
X78441453Y-89846780D01*
X78394430Y-89851225D01*
X78388592Y-89851500D01*
X77180390Y-89851500D01*
X77113351Y-89831815D01*
X77067596Y-89779011D01*
X77057652Y-89709853D01*
X77062684Y-89688496D01*
X77081505Y-89631697D01*
X77081506Y-89631690D01*
X77091999Y-89528986D01*
X77092000Y-89528973D01*
X77092000Y-89404000D01*
X75566000Y-89404000D01*
X75498961Y-89384315D01*
X75453206Y-89331511D01*
X75442000Y-89280000D01*
X75442000Y-89028000D01*
X75461685Y-88960961D01*
X75514489Y-88915206D01*
X75566000Y-88904000D01*
X77117621Y-88904000D01*
X77122503Y-88901334D01*
X77148861Y-88898500D01*
X83179044Y-88898500D01*
X83246083Y-88918185D01*
X83282852Y-88954678D01*
X83379276Y-89102265D01*
X83379284Y-89102276D01*
X83531756Y-89267902D01*
X83531761Y-89267907D01*
X83547298Y-89280000D01*
X83709424Y-89406189D01*
X83751324Y-89428864D01*
X83752695Y-89429606D01*
X83802286Y-89478825D01*
X83817394Y-89547042D01*
X83793224Y-89612597D01*
X83764802Y-89640236D01*
X83583922Y-89766890D01*
X83583920Y-89766891D01*
X83416891Y-89933920D01*
X83416886Y-89933926D01*
X83281400Y-90127420D01*
X83281399Y-90127422D01*
X83181570Y-90341507D01*
X83181567Y-90341513D01*
X83124364Y-90554999D01*
X83124364Y-90555000D01*
X84021314Y-90555000D01*
X83995507Y-90595156D01*
X83955000Y-90733111D01*
X83955000Y-90876889D01*
X83995507Y-91014844D01*
X84021314Y-91055000D01*
X83124364Y-91055000D01*
X83181567Y-91268486D01*
X83181570Y-91268492D01*
X83281399Y-91482578D01*
X83416894Y-91676082D01*
X83539334Y-91798522D01*
X83572819Y-91859845D01*
X83567835Y-91929537D01*
X83525963Y-91985470D01*
X83494987Y-92002385D01*
X83362911Y-92051646D01*
X83362906Y-92051649D01*
X83247812Y-92137809D01*
X83247809Y-92137812D01*
X83161649Y-92252906D01*
X83161645Y-92252913D01*
X83111403Y-92387620D01*
X83111401Y-92387627D01*
X83105000Y-92447155D01*
X83105000Y-93095000D01*
X84021314Y-93095000D01*
X83995507Y-93135156D01*
X83955000Y-93273111D01*
X83955000Y-93416889D01*
X83995507Y-93554844D01*
X84021314Y-93595000D01*
X83105000Y-93595000D01*
X83105000Y-94242844D01*
X83111401Y-94302372D01*
X83111403Y-94302379D01*
X83161645Y-94437086D01*
X83161649Y-94437093D01*
X83247809Y-94552187D01*
X83247812Y-94552190D01*
X83362906Y-94638350D01*
X83362913Y-94638354D01*
X83497620Y-94688596D01*
X83497627Y-94688598D01*
X83557155Y-94694999D01*
X83557172Y-94695000D01*
X84205000Y-94695000D01*
X84205000Y-93780501D01*
X84312685Y-93829680D01*
X84419237Y-93845000D01*
X84490763Y-93845000D01*
X84597315Y-93829680D01*
X84705000Y-93780501D01*
X84705000Y-94695000D01*
X85352828Y-94695000D01*
X85352844Y-94694999D01*
X85412372Y-94688598D01*
X85412379Y-94688596D01*
X85547086Y-94638354D01*
X85547093Y-94638350D01*
X85662187Y-94552190D01*
X85662190Y-94552187D01*
X85748350Y-94437093D01*
X85748354Y-94437086D01*
X85798596Y-94302379D01*
X85798598Y-94302372D01*
X85804999Y-94242844D01*
X85805000Y-94242827D01*
X85805000Y-93595000D01*
X84888686Y-93595000D01*
X84914493Y-93554844D01*
X84955000Y-93416889D01*
X84955000Y-93273111D01*
X84914493Y-93135156D01*
X84888686Y-93095000D01*
X85805000Y-93095000D01*
X85805000Y-92447172D01*
X85804999Y-92447155D01*
X85798598Y-92387627D01*
X85798596Y-92387620D01*
X85748354Y-92252913D01*
X85748350Y-92252906D01*
X85662190Y-92137812D01*
X85662187Y-92137809D01*
X85547093Y-92051649D01*
X85547086Y-92051645D01*
X85415013Y-92002385D01*
X85359079Y-91960514D01*
X85334662Y-91895049D01*
X85349514Y-91826776D01*
X85370665Y-91798521D01*
X85493108Y-91676078D01*
X85628600Y-91482578D01*
X85728429Y-91268492D01*
X85728432Y-91268486D01*
X85785636Y-91055000D01*
X84888686Y-91055000D01*
X84914493Y-91014844D01*
X84955000Y-90876889D01*
X84955000Y-90733111D01*
X84914493Y-90595156D01*
X84888686Y-90555000D01*
X85785636Y-90555000D01*
X85785635Y-90554999D01*
X85728432Y-90341513D01*
X85728429Y-90341507D01*
X85628600Y-90127422D01*
X85628599Y-90127420D01*
X85493113Y-89933926D01*
X85493108Y-89933920D01*
X85326082Y-89766894D01*
X85145197Y-89640236D01*
X85101572Y-89585659D01*
X85094380Y-89516160D01*
X85125902Y-89453806D01*
X85157300Y-89429608D01*
X85200576Y-89406189D01*
X85378240Y-89267906D01*
X85512966Y-89121556D01*
X85530715Y-89102276D01*
X85530716Y-89102274D01*
X85530722Y-89102268D01*
X85653860Y-88913791D01*
X85744296Y-88707616D01*
X85799564Y-88489368D01*
X85799565Y-88489359D01*
X85818156Y-88265005D01*
X85818156Y-88264994D01*
X85799565Y-88040640D01*
X85799563Y-88040628D01*
X85759192Y-87881206D01*
X85744296Y-87822384D01*
X85653860Y-87616209D01*
X85650989Y-87611815D01*
X85571308Y-87489853D01*
X85530722Y-87427732D01*
X85530719Y-87427729D01*
X85530715Y-87427723D01*
X85378243Y-87262097D01*
X85378238Y-87262092D01*
X85200577Y-87123812D01*
X85200578Y-87123812D01*
X85200576Y-87123811D01*
X85164070Y-87104055D01*
X85114479Y-87054836D01*
X85099371Y-86986619D01*
X85123541Y-86921064D01*
X85164070Y-86885945D01*
X85164109Y-86885924D01*
X85200576Y-86866189D01*
X85378240Y-86727906D01*
X85512966Y-86581556D01*
X85530715Y-86562276D01*
X85530716Y-86562274D01*
X85530722Y-86562268D01*
X85653860Y-86373791D01*
X85744296Y-86167616D01*
X85799564Y-85949368D01*
X85799978Y-85944371D01*
X85818156Y-85725005D01*
X85818156Y-85724994D01*
X85799565Y-85500640D01*
X85799563Y-85500628D01*
X85796876Y-85490018D01*
X85744296Y-85282384D01*
X85653860Y-85076209D01*
X85650989Y-85071815D01*
X85557691Y-84929011D01*
X85530722Y-84887732D01*
X85530719Y-84887729D01*
X85530715Y-84887723D01*
X85378243Y-84722097D01*
X85378238Y-84722092D01*
X85259797Y-84629905D01*
X85200576Y-84583811D01*
X85164070Y-84564055D01*
X85114479Y-84514836D01*
X85099371Y-84446619D01*
X85123541Y-84381064D01*
X85164070Y-84345945D01*
X85164084Y-84345936D01*
X85200576Y-84326189D01*
X85378240Y-84187906D01*
X85503648Y-84051678D01*
X85530715Y-84022276D01*
X85530716Y-84022274D01*
X85530722Y-84022268D01*
X85653860Y-83833791D01*
X85743841Y-83628654D01*
X111991500Y-83628654D01*
X111998011Y-83689202D01*
X111998011Y-83689204D01*
X112047295Y-83821334D01*
X112049111Y-83826204D01*
X112136739Y-83943261D01*
X112253796Y-84030889D01*
X112390799Y-84081989D01*
X112418050Y-84084918D01*
X112451345Y-84088499D01*
X112451362Y-84088500D01*
X114248638Y-84088500D01*
X114248654Y-84088499D01*
X114275692Y-84085591D01*
X114309201Y-84081989D01*
X114446204Y-84030889D01*
X114563261Y-83943261D01*
X114650889Y-83826204D01*
X114696138Y-83704887D01*
X114738009Y-83648956D01*
X114803474Y-83624539D01*
X114871746Y-83639391D01*
X114903545Y-83664236D01*
X114966760Y-83732906D01*
X115144424Y-83871189D01*
X115144425Y-83871189D01*
X115144427Y-83871191D01*
X115271135Y-83939761D01*
X115342426Y-83978342D01*
X115555365Y-84051444D01*
X115777431Y-84088500D01*
X116002569Y-84088500D01*
X116224635Y-84051444D01*
X116437574Y-83978342D01*
X116635576Y-83871189D01*
X116813240Y-83732906D01*
X116965722Y-83567268D01*
X117056193Y-83428790D01*
X117109338Y-83383437D01*
X117178569Y-83374013D01*
X117241905Y-83403515D01*
X117263804Y-83428787D01*
X117354278Y-83567268D01*
X117354283Y-83567273D01*
X117354284Y-83567276D01*
X117480968Y-83704889D01*
X117506760Y-83732906D01*
X117684424Y-83871189D01*
X117684425Y-83871189D01*
X117684427Y-83871191D01*
X117811135Y-83939761D01*
X117882426Y-83978342D01*
X118095365Y-84051444D01*
X118317431Y-84088500D01*
X118542569Y-84088500D01*
X118764635Y-84051444D01*
X118977574Y-83978342D01*
X119175576Y-83871189D01*
X119353240Y-83732906D01*
X119505722Y-83567268D01*
X119596193Y-83428790D01*
X119649338Y-83383437D01*
X119718569Y-83374013D01*
X119781905Y-83403515D01*
X119803804Y-83428787D01*
X119894278Y-83567268D01*
X119894283Y-83567273D01*
X119894284Y-83567276D01*
X120020968Y-83704889D01*
X120046760Y-83732906D01*
X120224424Y-83871189D01*
X120224425Y-83871189D01*
X120224427Y-83871191D01*
X120351135Y-83939761D01*
X120422426Y-83978342D01*
X120635365Y-84051444D01*
X120857431Y-84088500D01*
X121082569Y-84088500D01*
X121304635Y-84051444D01*
X121517574Y-83978342D01*
X121715576Y-83871189D01*
X121893240Y-83732906D01*
X122045722Y-83567268D01*
X122136193Y-83428790D01*
X122189338Y-83383437D01*
X122258569Y-83374013D01*
X122321905Y-83403515D01*
X122343804Y-83428787D01*
X122434278Y-83567268D01*
X122434283Y-83567273D01*
X122434284Y-83567276D01*
X122560968Y-83704889D01*
X122586760Y-83732906D01*
X122764424Y-83871189D01*
X122764425Y-83871189D01*
X122764427Y-83871191D01*
X122891135Y-83939761D01*
X122962426Y-83978342D01*
X123175365Y-84051444D01*
X123397431Y-84088500D01*
X123622569Y-84088500D01*
X123844635Y-84051444D01*
X124057574Y-83978342D01*
X124255576Y-83871189D01*
X124433240Y-83732906D01*
X124585722Y-83567268D01*
X124676193Y-83428790D01*
X124729338Y-83383437D01*
X124798569Y-83374013D01*
X124861905Y-83403515D01*
X124883804Y-83428787D01*
X124974278Y-83567268D01*
X124974283Y-83567273D01*
X124974284Y-83567276D01*
X125100968Y-83704889D01*
X125126760Y-83732906D01*
X125304424Y-83871189D01*
X125304425Y-83871189D01*
X125304427Y-83871191D01*
X125431135Y-83939761D01*
X125502426Y-83978342D01*
X125715365Y-84051444D01*
X125937431Y-84088500D01*
X126162569Y-84088500D01*
X126384635Y-84051444D01*
X126597574Y-83978342D01*
X126795576Y-83871189D01*
X126973240Y-83732906D01*
X127125722Y-83567268D01*
X127216193Y-83428790D01*
X127269338Y-83383437D01*
X127338569Y-83374013D01*
X127401905Y-83403515D01*
X127423804Y-83428787D01*
X127514278Y-83567268D01*
X127514283Y-83567273D01*
X127514284Y-83567276D01*
X127640968Y-83704889D01*
X127666760Y-83732906D01*
X127844424Y-83871189D01*
X127844425Y-83871189D01*
X127844427Y-83871191D01*
X127971135Y-83939761D01*
X128042426Y-83978342D01*
X128255365Y-84051444D01*
X128477431Y-84088500D01*
X128702569Y-84088500D01*
X128924635Y-84051444D01*
X129137574Y-83978342D01*
X129335576Y-83871189D01*
X129513240Y-83732906D01*
X129665722Y-83567268D01*
X129756193Y-83428790D01*
X129809338Y-83383437D01*
X129878569Y-83374013D01*
X129941905Y-83403515D01*
X129963804Y-83428787D01*
X130054278Y-83567268D01*
X130054283Y-83567273D01*
X130054284Y-83567276D01*
X130180968Y-83704889D01*
X130206760Y-83732906D01*
X130384424Y-83871189D01*
X130384425Y-83871189D01*
X130384427Y-83871191D01*
X130511135Y-83939761D01*
X130582426Y-83978342D01*
X130795365Y-84051444D01*
X131017431Y-84088500D01*
X131242569Y-84088500D01*
X131464635Y-84051444D01*
X131677574Y-83978342D01*
X131875576Y-83871189D01*
X132053240Y-83732906D01*
X132205722Y-83567268D01*
X132328860Y-83378791D01*
X132419296Y-83172616D01*
X132474564Y-82954368D01*
X132477635Y-82917309D01*
X132493156Y-82730005D01*
X132493156Y-82729994D01*
X132474565Y-82505640D01*
X132474563Y-82505628D01*
X132467487Y-82477684D01*
X132419296Y-82287384D01*
X132328860Y-82081209D01*
X132312706Y-82056484D01*
X132205723Y-81892734D01*
X132205715Y-81892723D01*
X132053243Y-81727097D01*
X132053238Y-81727092D01*
X131875577Y-81588812D01*
X131875572Y-81588808D01*
X131677580Y-81481661D01*
X131677577Y-81481659D01*
X131677574Y-81481658D01*
X131677571Y-81481657D01*
X131677569Y-81481656D01*
X131464637Y-81408556D01*
X131242569Y-81371500D01*
X131017431Y-81371500D01*
X130795362Y-81408556D01*
X130582430Y-81481656D01*
X130582419Y-81481661D01*
X130384427Y-81588808D01*
X130384422Y-81588812D01*
X130206761Y-81727092D01*
X130206756Y-81727097D01*
X130054284Y-81892723D01*
X130054276Y-81892734D01*
X129963808Y-82031206D01*
X129910662Y-82076562D01*
X129841431Y-82085986D01*
X129778095Y-82056484D01*
X129756192Y-82031206D01*
X129665723Y-81892734D01*
X129665715Y-81892723D01*
X129513243Y-81727097D01*
X129513238Y-81727092D01*
X129335577Y-81588812D01*
X129335572Y-81588808D01*
X129137580Y-81481661D01*
X129137577Y-81481659D01*
X129137574Y-81481658D01*
X129137571Y-81481657D01*
X129137569Y-81481656D01*
X128924637Y-81408556D01*
X128702569Y-81371500D01*
X128477431Y-81371500D01*
X128255362Y-81408556D01*
X128042430Y-81481656D01*
X128042419Y-81481661D01*
X127844427Y-81588808D01*
X127844422Y-81588812D01*
X127666761Y-81727092D01*
X127666756Y-81727097D01*
X127514284Y-81892723D01*
X127514276Y-81892734D01*
X127423808Y-82031206D01*
X127370662Y-82076562D01*
X127301431Y-82085986D01*
X127238095Y-82056484D01*
X127216192Y-82031206D01*
X127125723Y-81892734D01*
X127125715Y-81892723D01*
X126973243Y-81727097D01*
X126973238Y-81727092D01*
X126795577Y-81588812D01*
X126795572Y-81588808D01*
X126597580Y-81481661D01*
X126597577Y-81481659D01*
X126597574Y-81481658D01*
X126597571Y-81481657D01*
X126597569Y-81481656D01*
X126384637Y-81408556D01*
X126162569Y-81371500D01*
X125937431Y-81371500D01*
X125715362Y-81408556D01*
X125502430Y-81481656D01*
X125502419Y-81481661D01*
X125304427Y-81588808D01*
X125304422Y-81588812D01*
X125126761Y-81727092D01*
X125126756Y-81727097D01*
X124974284Y-81892723D01*
X124974276Y-81892734D01*
X124883808Y-82031206D01*
X124830662Y-82076562D01*
X124761431Y-82085986D01*
X124698095Y-82056484D01*
X124676192Y-82031206D01*
X124585723Y-81892734D01*
X124585715Y-81892723D01*
X124433243Y-81727097D01*
X124433238Y-81727092D01*
X124255577Y-81588812D01*
X124255572Y-81588808D01*
X124057580Y-81481661D01*
X124057577Y-81481659D01*
X124057574Y-81481658D01*
X124057571Y-81481657D01*
X124057569Y-81481656D01*
X123844637Y-81408556D01*
X123622569Y-81371500D01*
X123397431Y-81371500D01*
X123175362Y-81408556D01*
X122962430Y-81481656D01*
X122962419Y-81481661D01*
X122764427Y-81588808D01*
X122764422Y-81588812D01*
X122586761Y-81727092D01*
X122586756Y-81727097D01*
X122434284Y-81892723D01*
X122434276Y-81892734D01*
X122343808Y-82031206D01*
X122290662Y-82076562D01*
X122221431Y-82085986D01*
X122158095Y-82056484D01*
X122136192Y-82031206D01*
X122045723Y-81892734D01*
X122045715Y-81892723D01*
X121893243Y-81727097D01*
X121893238Y-81727092D01*
X121715577Y-81588812D01*
X121715572Y-81588808D01*
X121517580Y-81481661D01*
X121517577Y-81481659D01*
X121517574Y-81481658D01*
X121517571Y-81481657D01*
X121517569Y-81481656D01*
X121304637Y-81408556D01*
X121082569Y-81371500D01*
X120857431Y-81371500D01*
X120635362Y-81408556D01*
X120422430Y-81481656D01*
X120422419Y-81481661D01*
X120224427Y-81588808D01*
X120224422Y-81588812D01*
X120046761Y-81727092D01*
X120046756Y-81727097D01*
X119894284Y-81892723D01*
X119894276Y-81892734D01*
X119803808Y-82031206D01*
X119750662Y-82076562D01*
X119681431Y-82085986D01*
X119618095Y-82056484D01*
X119596192Y-82031206D01*
X119505723Y-81892734D01*
X119505715Y-81892723D01*
X119353243Y-81727097D01*
X119353238Y-81727092D01*
X119175577Y-81588812D01*
X119175572Y-81588808D01*
X118977580Y-81481661D01*
X118977577Y-81481659D01*
X118977574Y-81481658D01*
X118977571Y-81481657D01*
X118977569Y-81481656D01*
X118764637Y-81408556D01*
X118542569Y-81371500D01*
X118317431Y-81371500D01*
X118095362Y-81408556D01*
X117882430Y-81481656D01*
X117882419Y-81481661D01*
X117684427Y-81588808D01*
X117684422Y-81588812D01*
X117506761Y-81727092D01*
X117506756Y-81727097D01*
X117354284Y-81892723D01*
X117354276Y-81892734D01*
X117263808Y-82031206D01*
X117210662Y-82076562D01*
X117141431Y-82085986D01*
X117078095Y-82056484D01*
X117056192Y-82031206D01*
X116965723Y-81892734D01*
X116965715Y-81892723D01*
X116813243Y-81727097D01*
X116813238Y-81727092D01*
X116635577Y-81588812D01*
X116635572Y-81588808D01*
X116437580Y-81481661D01*
X116437577Y-81481659D01*
X116437574Y-81481658D01*
X116437571Y-81481657D01*
X116437569Y-81481656D01*
X116224637Y-81408556D01*
X116002569Y-81371500D01*
X115777431Y-81371500D01*
X115555362Y-81408556D01*
X115342430Y-81481656D01*
X115342419Y-81481661D01*
X115144427Y-81588808D01*
X115144422Y-81588812D01*
X114966761Y-81727092D01*
X114903548Y-81795760D01*
X114843661Y-81831750D01*
X114773823Y-81829649D01*
X114716207Y-81790124D01*
X114696138Y-81755110D01*
X114650889Y-81633796D01*
X114617214Y-81588812D01*
X114563261Y-81516739D01*
X114446204Y-81429111D01*
X114309203Y-81378011D01*
X114248654Y-81371500D01*
X114248638Y-81371500D01*
X112451362Y-81371500D01*
X112451345Y-81371500D01*
X112390797Y-81378011D01*
X112390795Y-81378011D01*
X112253795Y-81429111D01*
X112136739Y-81516739D01*
X112049111Y-81633795D01*
X111998011Y-81770795D01*
X111998011Y-81770797D01*
X111991500Y-81831345D01*
X111991500Y-83628654D01*
X85743841Y-83628654D01*
X85744296Y-83627616D01*
X85799564Y-83409368D01*
X85802494Y-83374013D01*
X85818156Y-83185005D01*
X85818156Y-83184994D01*
X85799565Y-82960640D01*
X85799563Y-82960628D01*
X85744296Y-82742385D01*
X85738863Y-82730000D01*
X85653860Y-82536209D01*
X85633888Y-82505640D01*
X85530723Y-82347734D01*
X85530715Y-82347723D01*
X85378243Y-82182097D01*
X85378238Y-82182092D01*
X85200577Y-82043812D01*
X85200572Y-82043808D01*
X85002580Y-81936661D01*
X85002577Y-81936659D01*
X85002574Y-81936658D01*
X85002571Y-81936657D01*
X85002569Y-81936656D01*
X84789637Y-81863556D01*
X84567569Y-81826500D01*
X84342431Y-81826500D01*
X84120362Y-81863556D01*
X83907430Y-81936656D01*
X83907419Y-81936661D01*
X83709427Y-82043808D01*
X83709422Y-82043812D01*
X83531761Y-82182092D01*
X83531756Y-82182097D01*
X83379284Y-82347723D01*
X83379276Y-82347734D01*
X83282852Y-82495322D01*
X83229706Y-82540679D01*
X83179044Y-82551500D01*
X76918632Y-82551500D01*
X76902880Y-82549760D01*
X76902855Y-82550032D01*
X76895093Y-82549298D01*
X76895092Y-82549298D01*
X76825029Y-82551500D01*
X76795144Y-82551500D01*
X76795141Y-82551500D01*
X76795129Y-82551501D01*
X76788137Y-82552384D01*
X76782320Y-82552841D01*
X76735111Y-82554325D01*
X76735109Y-82554326D01*
X76715496Y-82560023D01*
X76696459Y-82563965D01*
X76676208Y-82566524D01*
X76676202Y-82566526D01*
X76632299Y-82583907D01*
X76626775Y-82585798D01*
X76581406Y-82598981D01*
X76581401Y-82598983D01*
X76563827Y-82609376D01*
X76546362Y-82617932D01*
X76527387Y-82625445D01*
X76527385Y-82625446D01*
X76489176Y-82653206D01*
X76484294Y-82656412D01*
X76443635Y-82680458D01*
X76429200Y-82694894D01*
X76414412Y-82707525D01*
X76397894Y-82719526D01*
X76397888Y-82719532D01*
X76367780Y-82755925D01*
X76363849Y-82760246D01*
X72590180Y-86533913D01*
X72528857Y-86567398D01*
X72459165Y-86562414D01*
X72403232Y-86520542D01*
X72378815Y-86455078D01*
X72378499Y-86446249D01*
X72378499Y-85969456D01*
X72367887Y-85865574D01*
X72312115Y-85697262D01*
X72219030Y-85546348D01*
X72093652Y-85420970D01*
X71942738Y-85327885D01*
X71863112Y-85301500D01*
X71774427Y-85272113D01*
X71670545Y-85261500D01*
X70269462Y-85261500D01*
X70269446Y-85261501D01*
X70165572Y-85272113D01*
X69997264Y-85327884D01*
X69997259Y-85327886D01*
X69846346Y-85420971D01*
X69720971Y-85546346D01*
X69627886Y-85697259D01*
X69627885Y-85697262D01*
X69593006Y-85802520D01*
X69553233Y-85859964D01*
X69488717Y-85886787D01*
X69419941Y-85874472D01*
X69368741Y-85826928D01*
X69351980Y-85776479D01*
X69348130Y-85739845D01*
X69318622Y-85649028D01*
X69316627Y-85579187D01*
X69320372Y-85567376D01*
X69356987Y-85469207D01*
X69356987Y-85469205D01*
X69356989Y-85469201D01*
X69362174Y-85420971D01*
X69363499Y-85408654D01*
X69363500Y-85408637D01*
X69363500Y-84461362D01*
X69363499Y-84461345D01*
X69360157Y-84430270D01*
X69356989Y-84400799D01*
X69356152Y-84398556D01*
X69323986Y-84312315D01*
X69305889Y-84263796D01*
X69218261Y-84146739D01*
X69101204Y-84059111D01*
X69080646Y-84051443D01*
X68964203Y-84008011D01*
X68903654Y-84001500D01*
X68903638Y-84001500D01*
X67956362Y-84001500D01*
X67956345Y-84001500D01*
X67895798Y-84008010D01*
X67792418Y-84046570D01*
X67723303Y-84051678D01*
X67680000Y-84042473D01*
X67680000Y-84057116D01*
X67660315Y-84124155D01*
X67643681Y-84144797D01*
X67641741Y-84146736D01*
X67554111Y-84263795D01*
X67503011Y-84400795D01*
X67503011Y-84400797D01*
X67496500Y-84461345D01*
X67496500Y-84693329D01*
X67454624Y-84685000D01*
X67405376Y-84685000D01*
X67332455Y-84699505D01*
X67249760Y-84754760D01*
X67194505Y-84837455D01*
X67175102Y-84935000D01*
X67194152Y-85030774D01*
X67139944Y-85042297D01*
X67139942Y-85042298D01*
X66980435Y-85113315D01*
X66911185Y-85122599D01*
X66879565Y-85113315D01*
X66720057Y-85042298D01*
X66720055Y-85042297D01*
X66665847Y-85030775D01*
X66684898Y-84935000D01*
X66665495Y-84837455D01*
X66610240Y-84754760D01*
X66527545Y-84699505D01*
X66454624Y-84685000D01*
X66680000Y-84685000D01*
X67180000Y-84685000D01*
X67180000Y-84042473D01*
X67142585Y-84050426D01*
X67142584Y-84050426D01*
X66980435Y-84122620D01*
X66911185Y-84131904D01*
X66879565Y-84122620D01*
X66717414Y-84050426D01*
X66680000Y-84042473D01*
X66680000Y-84685000D01*
X66454624Y-84685000D01*
X66405376Y-84685000D01*
X66334866Y-84699025D01*
X66295807Y-84578811D01*
X66287494Y-84553225D01*
X66287491Y-84553219D01*
X66275241Y-84532002D01*
X66199492Y-84400799D01*
X66196613Y-84395813D01*
X66180000Y-84333813D01*
X66180000Y-84042473D01*
X66142585Y-84050426D01*
X66142584Y-84050426D01*
X65990883Y-84117968D01*
X65921633Y-84127252D01*
X65890016Y-84117969D01*
X65720056Y-84042298D01*
X65720054Y-84042297D01*
X65720055Y-84042297D01*
X65558742Y-84008010D01*
X65528115Y-84001500D01*
X65331885Y-84001500D01*
X65301258Y-84008010D01*
X65139944Y-84042297D01*
X65139942Y-84042298D01*
X64969985Y-84117968D01*
X64900735Y-84127252D01*
X64869115Y-84117968D01*
X64717414Y-84050426D01*
X64680000Y-84042473D01*
X64680000Y-84333813D01*
X64663387Y-84395813D01*
X64572508Y-84553219D01*
X64572505Y-84553225D01*
X64525132Y-84699025D01*
X64454624Y-84685000D01*
X64405376Y-84685000D01*
X64332455Y-84699505D01*
X64249760Y-84754760D01*
X64194505Y-84837455D01*
X64175102Y-84935000D01*
X64194152Y-85030774D01*
X64139944Y-85042297D01*
X64139938Y-85042299D01*
X63960679Y-85122111D01*
X63906717Y-85161318D01*
X63840910Y-85184798D01*
X63833831Y-85185000D01*
X63538628Y-85185000D01*
X63580316Y-85313306D01*
X63580317Y-85313307D01*
X63609873Y-85364500D01*
X63626346Y-85432401D01*
X63609873Y-85488499D01*
X63572511Y-85553211D01*
X63572508Y-85553218D01*
X63511871Y-85739840D01*
X63511870Y-85739842D01*
X63491358Y-85935000D01*
X63511870Y-86130157D01*
X63511871Y-86130159D01*
X63572505Y-86316774D01*
X63572508Y-86316780D01*
X63670623Y-86486720D01*
X63801926Y-86632547D01*
X63933171Y-86727902D01*
X63960679Y-86747888D01*
X64139938Y-86827700D01*
X64139944Y-86827702D01*
X64331885Y-86868500D01*
X64331886Y-86868500D01*
X64528113Y-86868500D01*
X64528115Y-86868500D01*
X64720056Y-86827702D01*
X64720058Y-86827700D01*
X64720061Y-86827700D01*
X64796502Y-86793666D01*
X64879565Y-86756683D01*
X64948814Y-86747399D01*
X64980433Y-86756683D01*
X65039227Y-86782859D01*
X65139938Y-86827700D01*
X65139944Y-86827702D01*
X65331885Y-86868500D01*
X65331886Y-86868500D01*
X65528113Y-86868500D01*
X65528115Y-86868500D01*
X65720056Y-86827702D01*
X65720058Y-86827700D01*
X65720061Y-86827700D01*
X65796502Y-86793666D01*
X65879565Y-86756683D01*
X65948814Y-86747399D01*
X65980433Y-86756683D01*
X66039227Y-86782859D01*
X66139938Y-86827700D01*
X66139944Y-86827702D01*
X66331885Y-86868500D01*
X66331886Y-86868500D01*
X66528113Y-86868500D01*
X66528115Y-86868500D01*
X66646719Y-86843290D01*
X66716386Y-86848606D01*
X66772120Y-86890743D01*
X66796225Y-86956323D01*
X66796500Y-86964580D01*
X66796500Y-88723866D01*
X66794761Y-88739613D01*
X66795032Y-88739639D01*
X66794298Y-88747405D01*
X66794298Y-88747408D01*
X66794298Y-88747409D01*
X66795531Y-88786618D01*
X66796500Y-88817457D01*
X66796500Y-88847359D01*
X66797384Y-88854356D01*
X66797842Y-88860179D01*
X66799326Y-88907389D01*
X66799327Y-88907391D01*
X66805022Y-88926995D01*
X66808967Y-88946042D01*
X66811526Y-88966297D01*
X66811527Y-88966300D01*
X66811528Y-88966303D01*
X66828914Y-89010216D01*
X66830806Y-89015744D01*
X66843981Y-89061092D01*
X66854372Y-89078662D01*
X66862932Y-89096135D01*
X66870447Y-89115117D01*
X66898209Y-89153327D01*
X66901416Y-89158210D01*
X66925458Y-89198862D01*
X66925462Y-89198866D01*
X66939889Y-89213293D01*
X66952526Y-89228088D01*
X66964528Y-89244607D01*
X67000931Y-89274722D01*
X67005231Y-89278635D01*
X67155460Y-89428864D01*
X67300181Y-89573585D01*
X67333666Y-89634908D01*
X67336500Y-89661266D01*
X67336500Y-89831815D01*
X67336501Y-89957500D01*
X67316817Y-90024539D01*
X67264013Y-90070294D01*
X67212501Y-90081500D01*
X66898766Y-90081500D01*
X66831727Y-90061815D01*
X66811085Y-90045181D01*
X66339854Y-89573950D01*
X65862088Y-89096183D01*
X65852187Y-89083823D01*
X65851977Y-89083998D01*
X65847002Y-89077986D01*
X65847000Y-89077982D01*
X65820657Y-89053245D01*
X65795921Y-89030015D01*
X65774768Y-89008863D01*
X65772792Y-89007331D01*
X65769183Y-89004531D01*
X65764750Y-89000744D01*
X65730321Y-88968414D01*
X65730319Y-88968412D01*
X65712431Y-88958578D01*
X65696170Y-88947897D01*
X65680039Y-88935384D01*
X65636693Y-88916627D01*
X65631445Y-88914056D01*
X65604251Y-88899106D01*
X65590060Y-88891305D01*
X65586660Y-88890432D01*
X65570287Y-88886228D01*
X65551881Y-88879926D01*
X65533144Y-88871818D01*
X65533146Y-88871818D01*
X65486496Y-88864430D01*
X65480781Y-88863246D01*
X65457460Y-88857259D01*
X65435032Y-88851500D01*
X65435030Y-88851500D01*
X65414616Y-88851500D01*
X65395217Y-88849973D01*
X65375058Y-88846780D01*
X65375057Y-88846780D01*
X65328034Y-88851225D01*
X65322196Y-88851500D01*
X63563488Y-88851500D01*
X63496449Y-88831815D01*
X63450694Y-88779011D01*
X63447305Y-88771591D01*
X63433429Y-88750000D01*
X63405960Y-88707257D01*
X63368251Y-88648580D01*
X63350708Y-88633379D01*
X63257743Y-88552824D01*
X63257741Y-88552823D01*
X63124734Y-88492080D01*
X63012323Y-88475918D01*
X62980000Y-88471271D01*
X61480000Y-88471271D01*
X61406888Y-88476499D01*
X61266586Y-88517697D01*
X61143580Y-88596748D01*
X61047824Y-88707257D01*
X61047823Y-88707258D01*
X60987080Y-88840265D01*
X60966271Y-88985001D01*
X60966271Y-89985000D01*
X60970342Y-90049552D01*
X60970344Y-90049563D01*
X60983035Y-90095633D01*
X60986226Y-90146211D01*
X60966271Y-90285001D01*
X60966271Y-92685004D01*
X60972799Y-92766641D01*
X60972800Y-92766647D01*
X61016347Y-92906231D01*
X61016349Y-92906236D01*
X61097456Y-93027897D01*
X61097459Y-93027899D01*
X61209555Y-93121780D01*
X61209558Y-93121782D01*
X61343569Y-93180282D01*
X61416100Y-93189469D01*
X61488629Y-93198656D01*
X61488630Y-93198655D01*
X61488632Y-93198656D01*
X61632996Y-93175418D01*
X61764966Y-93112448D01*
X62161218Y-92848279D01*
X62227915Y-92827472D01*
X62295276Y-92846027D01*
X62298782Y-92848280D01*
X62695033Y-93112448D01*
X62695032Y-93112447D01*
X62695034Y-93112448D01*
X62766589Y-93152304D01*
X62766596Y-93152306D01*
X62906888Y-93193500D01*
X62906889Y-93193500D01*
X63053112Y-93193500D01*
X63077254Y-93186410D01*
X63193411Y-93152304D01*
X63316421Y-93073250D01*
X63412176Y-92962743D01*
X63472919Y-92829734D01*
X63493729Y-92685000D01*
X63493729Y-92242500D01*
X63513414Y-92175461D01*
X63566218Y-92129706D01*
X63617729Y-92118500D01*
X64501234Y-92118500D01*
X64568273Y-92138185D01*
X64588915Y-92154819D01*
X67300181Y-94866085D01*
X67333666Y-94927408D01*
X67336500Y-94953766D01*
X67336500Y-95824886D01*
X67352160Y-95943842D01*
X67352163Y-95943853D01*
X67411570Y-96087276D01*
X67413476Y-96091876D01*
X67511013Y-96218987D01*
X67638124Y-96316524D01*
X67786150Y-96377838D01*
X67905115Y-96393500D01*
X67937499Y-96393499D01*
X68004537Y-96413182D01*
X68050293Y-96465984D01*
X68061500Y-96517499D01*
X68061500Y-96649138D01*
X68041815Y-96716177D01*
X67989011Y-96761932D01*
X67980835Y-96765319D01*
X67838495Y-96818411D01*
X67721439Y-96906039D01*
X67633811Y-97023095D01*
X67582711Y-97160095D01*
X67582711Y-97160097D01*
X67576200Y-97220645D01*
X67576200Y-98036798D01*
X67556515Y-98103837D01*
X67503711Y-98149592D01*
X67452200Y-98160798D01*
X67139467Y-98160798D01*
X67072428Y-98141113D01*
X67051786Y-98124479D01*
X67020119Y-98092812D01*
X66986634Y-98031489D01*
X66983800Y-98005131D01*
X66983800Y-97220662D01*
X66983799Y-97220645D01*
X66977809Y-97164940D01*
X66977289Y-97160099D01*
X66970243Y-97141209D01*
X66954822Y-97099864D01*
X66926189Y-97023096D01*
X66838561Y-96906039D01*
X66721504Y-96818411D01*
X66705962Y-96812614D01*
X66584503Y-96767311D01*
X66523954Y-96760800D01*
X66523938Y-96760800D01*
X65436062Y-96760800D01*
X65436045Y-96760800D01*
X65375497Y-96767311D01*
X65375495Y-96767311D01*
X65238495Y-96818411D01*
X65121439Y-96906039D01*
X65033811Y-97023095D01*
X64982711Y-97160095D01*
X64982711Y-97160097D01*
X64976200Y-97220645D01*
X64976200Y-98359354D01*
X64982711Y-98419902D01*
X64982711Y-98419904D01*
X65033812Y-98556906D01*
X65096531Y-98640689D01*
X65120948Y-98706153D01*
X65106096Y-98774426D01*
X65096531Y-98789309D01*
X65033812Y-98873091D01*
X65033811Y-98873091D01*
X64982711Y-99010093D01*
X64982711Y-99010095D01*
X64976200Y-99070643D01*
X64976200Y-100209352D01*
X64982711Y-100269900D01*
X64982711Y-100269902D01*
X65020020Y-100369928D01*
X65033811Y-100406902D01*
X65121439Y-100523959D01*
X65238496Y-100611587D01*
X65352997Y-100654294D01*
X65370163Y-100660697D01*
X65375499Y-100662687D01*
X65402750Y-100665616D01*
X65436045Y-100669197D01*
X65436062Y-100669198D01*
X66523938Y-100669198D01*
X66523954Y-100669197D01*
X66550992Y-100666289D01*
X66584501Y-100662687D01*
X66589837Y-100660697D01*
X66607003Y-100654294D01*
X66721504Y-100611587D01*
X66838561Y-100523959D01*
X66926189Y-100406902D01*
X66977289Y-100269899D01*
X66981502Y-100230715D01*
X66983799Y-100209352D01*
X66983800Y-100209335D01*
X66983800Y-99889998D01*
X67584700Y-99889998D01*
X67584700Y-100208542D01*
X67591101Y-100268070D01*
X67591103Y-100268077D01*
X67641345Y-100402784D01*
X67641349Y-100402791D01*
X67727509Y-100517885D01*
X67727512Y-100517888D01*
X67842606Y-100604048D01*
X67842613Y-100604052D01*
X67977320Y-100654294D01*
X67977327Y-100654296D01*
X68036855Y-100660697D01*
X68036872Y-100660698D01*
X68330000Y-100660698D01*
X68330000Y-99889998D01*
X68830000Y-99889998D01*
X68830000Y-100660698D01*
X69123128Y-100660698D01*
X69123144Y-100660697D01*
X69182672Y-100654296D01*
X69182679Y-100654294D01*
X69317386Y-100604052D01*
X69317393Y-100604048D01*
X69432487Y-100517888D01*
X69432490Y-100517885D01*
X69518650Y-100402791D01*
X69518654Y-100402784D01*
X69568896Y-100268077D01*
X69568898Y-100268070D01*
X69575299Y-100208542D01*
X69575300Y-100208525D01*
X69575300Y-99889998D01*
X68830000Y-99889998D01*
X68330000Y-99889998D01*
X67584700Y-99889998D01*
X66983800Y-99889998D01*
X66983800Y-99583464D01*
X67003485Y-99516425D01*
X67020119Y-99495783D01*
X67051785Y-99464117D01*
X67113108Y-99430632D01*
X67139466Y-99427798D01*
X68967688Y-99427798D01*
X68983435Y-99429536D01*
X68983461Y-99429266D01*
X68991227Y-99429999D01*
X68991231Y-99430000D01*
X69061280Y-99427798D01*
X69091178Y-99427798D01*
X69091179Y-99427798D01*
X69092544Y-99427625D01*
X69098184Y-99426912D01*
X69104007Y-99426454D01*
X69130030Y-99425636D01*
X69151212Y-99424971D01*
X69161003Y-99422125D01*
X69170803Y-99419278D01*
X69189860Y-99415330D01*
X69210119Y-99412772D01*
X69238236Y-99401638D01*
X69245645Y-99398706D01*
X69291293Y-99389998D01*
X69575300Y-99389998D01*
X69575300Y-99217585D01*
X69594985Y-99150546D01*
X69611619Y-99129904D01*
X70081523Y-98660000D01*
X70449820Y-98291703D01*
X70511142Y-98258219D01*
X70580834Y-98263203D01*
X70636767Y-98305075D01*
X70661184Y-98370539D01*
X70661500Y-98379385D01*
X70661500Y-104921232D01*
X70641815Y-104988271D01*
X70625181Y-105008913D01*
X69036990Y-106597103D01*
X68975667Y-106630588D01*
X68918872Y-106629628D01*
X68914642Y-106628557D01*
X68692569Y-106591500D01*
X68467431Y-106591500D01*
X68245362Y-106628556D01*
X68032430Y-106701656D01*
X68032419Y-106701661D01*
X67834427Y-106808808D01*
X67834422Y-106808812D01*
X67656761Y-106947092D01*
X67656756Y-106947097D01*
X67504284Y-107112723D01*
X67504276Y-107112734D01*
X67381140Y-107301207D01*
X67290703Y-107507385D01*
X67235436Y-107725628D01*
X67235434Y-107725640D01*
X67216844Y-107949994D01*
X67216844Y-107950005D01*
X67235434Y-108174359D01*
X67235436Y-108174371D01*
X67290703Y-108392614D01*
X67381140Y-108598792D01*
X67504276Y-108787265D01*
X67504278Y-108787268D01*
X67655707Y-108951762D01*
X67686629Y-109014415D01*
X67678769Y-109083841D01*
X67634622Y-109137997D01*
X67607811Y-109151926D01*
X67487912Y-109196646D01*
X67487906Y-109196649D01*
X67372812Y-109282809D01*
X67372809Y-109282812D01*
X67286649Y-109397906D01*
X67286645Y-109397913D01*
X67236403Y-109532620D01*
X67236401Y-109532627D01*
X67230000Y-109592155D01*
X67230000Y-110240000D01*
X68146314Y-110240000D01*
X68120507Y-110280156D01*
X68080000Y-110418111D01*
X68080000Y-110561889D01*
X68120507Y-110699844D01*
X68146314Y-110740000D01*
X67230000Y-110740000D01*
X67230000Y-111387844D01*
X67236401Y-111447372D01*
X67236403Y-111447379D01*
X67286645Y-111582086D01*
X67286649Y-111582093D01*
X67372809Y-111697187D01*
X67372812Y-111697190D01*
X67487906Y-111783350D01*
X67487913Y-111783354D01*
X67622620Y-111833596D01*
X67622627Y-111833598D01*
X67682155Y-111839999D01*
X67682172Y-111840000D01*
X68330000Y-111840000D01*
X68330000Y-110925501D01*
X68437685Y-110974680D01*
X68544237Y-110990000D01*
X68615763Y-110990000D01*
X68722315Y-110974680D01*
X68830000Y-110925501D01*
X68830000Y-111840000D01*
X69477828Y-111840000D01*
X69477844Y-111839999D01*
X69537372Y-111833598D01*
X69537379Y-111833596D01*
X69672086Y-111783354D01*
X69672093Y-111783350D01*
X69787187Y-111697190D01*
X69787190Y-111697187D01*
X69873350Y-111582093D01*
X69873354Y-111582086D01*
X69923596Y-111447379D01*
X69923598Y-111447372D01*
X69929999Y-111387844D01*
X69930000Y-111387827D01*
X69930000Y-110740000D01*
X69013686Y-110740000D01*
X69039493Y-110699844D01*
X69080000Y-110561889D01*
X69080000Y-110418111D01*
X69039493Y-110280156D01*
X69013686Y-110240000D01*
X69930000Y-110240000D01*
X69930000Y-109592172D01*
X69929999Y-109592155D01*
X69923598Y-109532627D01*
X69923596Y-109532620D01*
X69873354Y-109397913D01*
X69873350Y-109397906D01*
X69787190Y-109282812D01*
X69787187Y-109282809D01*
X69672093Y-109196649D01*
X69672088Y-109196646D01*
X69552188Y-109151926D01*
X69496255Y-109110054D01*
X69471838Y-109044590D01*
X69486690Y-108976317D01*
X69504286Y-108951769D01*
X69655722Y-108787268D01*
X69778860Y-108598791D01*
X69869296Y-108392616D01*
X69924564Y-108174368D01*
X69927611Y-108137595D01*
X69943156Y-107950005D01*
X69943156Y-107949994D01*
X69924565Y-107725640D01*
X69924563Y-107725628D01*
X69896538Y-107614960D01*
X69899163Y-107545140D01*
X69929061Y-107496841D01*
X71099820Y-106326082D01*
X71161142Y-106292599D01*
X71230834Y-106297583D01*
X71286767Y-106339455D01*
X71311184Y-106404919D01*
X71311500Y-106413765D01*
X71311500Y-109548866D01*
X71309761Y-109564613D01*
X71310032Y-109564639D01*
X71309298Y-109572405D01*
X71311500Y-109642457D01*
X71311500Y-109672359D01*
X71312384Y-109679356D01*
X71312842Y-109685179D01*
X71314326Y-109732388D01*
X71320022Y-109751993D01*
X71323967Y-109771041D01*
X71327260Y-109797107D01*
X71327750Y-109804887D01*
X71327750Y-113144982D01*
X71308065Y-113212021D01*
X71291431Y-113232663D01*
X69812119Y-114711974D01*
X69750796Y-114745459D01*
X69681104Y-114740475D01*
X69633209Y-114708276D01*
X69503243Y-114567097D01*
X69503238Y-114567092D01*
X69325577Y-114428812D01*
X69325572Y-114428808D01*
X69127580Y-114321661D01*
X69127577Y-114321659D01*
X69127574Y-114321658D01*
X69127571Y-114321657D01*
X69127569Y-114321656D01*
X68914637Y-114248556D01*
X68692569Y-114211500D01*
X68467431Y-114211500D01*
X68245362Y-114248556D01*
X68032430Y-114321656D01*
X68032419Y-114321661D01*
X67834427Y-114428808D01*
X67834422Y-114428812D01*
X67656761Y-114567092D01*
X67656756Y-114567097D01*
X67504284Y-114732723D01*
X67504276Y-114732734D01*
X67381140Y-114921207D01*
X67290703Y-115127385D01*
X67235436Y-115345628D01*
X67235434Y-115345640D01*
X67216844Y-115569994D01*
X67216844Y-115570005D01*
X67235434Y-115794359D01*
X67235436Y-115794371D01*
X67290703Y-116012614D01*
X67381140Y-116218792D01*
X67504276Y-116407265D01*
X67504278Y-116407268D01*
X67655707Y-116571762D01*
X67686629Y-116634415D01*
X67678769Y-116703841D01*
X67634622Y-116757997D01*
X67607811Y-116771926D01*
X67487912Y-116816646D01*
X67487906Y-116816649D01*
X67372812Y-116902809D01*
X67372809Y-116902812D01*
X67286649Y-117017906D01*
X67286645Y-117017913D01*
X67236403Y-117152620D01*
X67236401Y-117152627D01*
X67230000Y-117212155D01*
X67230000Y-117860000D01*
X68146314Y-117860000D01*
X68120507Y-117900156D01*
X68080000Y-118038111D01*
X68080000Y-118181889D01*
X68120507Y-118319844D01*
X68146314Y-118360000D01*
X67230000Y-118360000D01*
X67230000Y-119007844D01*
X67236401Y-119067372D01*
X67236403Y-119067379D01*
X67286645Y-119202086D01*
X67286649Y-119202093D01*
X67372809Y-119317187D01*
X67372812Y-119317190D01*
X67487906Y-119403350D01*
X67487913Y-119403354D01*
X67622620Y-119453596D01*
X67622627Y-119453598D01*
X67682155Y-119459999D01*
X67682172Y-119460000D01*
X68330000Y-119460000D01*
X68330000Y-118545501D01*
X68437685Y-118594680D01*
X68544237Y-118610000D01*
X68615763Y-118610000D01*
X68722315Y-118594680D01*
X68830000Y-118545501D01*
X68830000Y-119460000D01*
X69477828Y-119460000D01*
X69477844Y-119459999D01*
X69537372Y-119453598D01*
X69537379Y-119453596D01*
X69672086Y-119403354D01*
X69672093Y-119403350D01*
X69787187Y-119317190D01*
X69787190Y-119317187D01*
X69873350Y-119202093D01*
X69873354Y-119202086D01*
X69923596Y-119067379D01*
X69923598Y-119067372D01*
X69929999Y-119007844D01*
X69930000Y-119007827D01*
X69930000Y-118360000D01*
X69013686Y-118360000D01*
X69039493Y-118319844D01*
X69080000Y-118181889D01*
X69080000Y-118038111D01*
X69039493Y-117900156D01*
X69013686Y-117860000D01*
X69930000Y-117860000D01*
X69930000Y-117212172D01*
X69929999Y-117212155D01*
X69923598Y-117152627D01*
X69923596Y-117152620D01*
X69873354Y-117017913D01*
X69873350Y-117017906D01*
X69787190Y-116902812D01*
X69787187Y-116902809D01*
X69672093Y-116816649D01*
X69672088Y-116816646D01*
X69552188Y-116771926D01*
X69496255Y-116730054D01*
X69471838Y-116664590D01*
X69486690Y-116596317D01*
X69504286Y-116571769D01*
X69655722Y-116407268D01*
X69752024Y-116259866D01*
X69805167Y-116214512D01*
X69851950Y-116203751D01*
X69857233Y-116203585D01*
X69859968Y-116203500D01*
X69889857Y-116203500D01*
X69891222Y-116203327D01*
X69896862Y-116202614D01*
X69902685Y-116202156D01*
X69928708Y-116201338D01*
X69949890Y-116200673D01*
X69959681Y-116197827D01*
X69969481Y-116194980D01*
X69988538Y-116191032D01*
X70008797Y-116188474D01*
X70052721Y-116171082D01*
X70058221Y-116169199D01*
X70103593Y-116156018D01*
X70121165Y-116145625D01*
X70138632Y-116137068D01*
X70157617Y-116129552D01*
X70195826Y-116101790D01*
X70200704Y-116098585D01*
X70241362Y-116074542D01*
X70255802Y-116060100D01*
X70270592Y-116047470D01*
X70287107Y-116035472D01*
X70317222Y-115999067D01*
X70321126Y-115994776D01*
X72350065Y-113965837D01*
X72362430Y-113955933D01*
X72362256Y-113955723D01*
X72368262Y-113950753D01*
X72368268Y-113950750D01*
X72416249Y-113899654D01*
X72437384Y-113878520D01*
X72441713Y-113872937D01*
X72445492Y-113868513D01*
X72477836Y-113834071D01*
X72487673Y-113816174D01*
X72498347Y-113799924D01*
X72510863Y-113783791D01*
X72529622Y-113740439D01*
X72532183Y-113735212D01*
X72554945Y-113693810D01*
X72560024Y-113674024D01*
X72566322Y-113655632D01*
X72574431Y-113636895D01*
X72581818Y-113590251D01*
X72582998Y-113584544D01*
X72594750Y-113538780D01*
X72594750Y-113518359D01*
X72596277Y-113498959D01*
X72599469Y-113478807D01*
X72595025Y-113431790D01*
X72594750Y-113425953D01*
X72594750Y-109732381D01*
X72596489Y-109716629D01*
X72596218Y-109716604D01*
X72596950Y-109708848D01*
X72596952Y-109708841D01*
X72594750Y-109638778D01*
X72594750Y-109608894D01*
X72593864Y-109601891D01*
X72593407Y-109596072D01*
X72591924Y-109548861D01*
X72586227Y-109529254D01*
X72582282Y-109510199D01*
X72578989Y-109484135D01*
X72578500Y-109476357D01*
X72578500Y-97903766D01*
X72598185Y-97836727D01*
X72650989Y-97790972D01*
X72720147Y-97781028D01*
X72783703Y-97810053D01*
X72790181Y-97816085D01*
X77390936Y-102416840D01*
X77424421Y-102478163D01*
X77423461Y-102534960D01*
X77395435Y-102645633D01*
X77376844Y-102869994D01*
X77376844Y-102870005D01*
X77395434Y-103094359D01*
X77395436Y-103094371D01*
X77450703Y-103312614D01*
X77541140Y-103518792D01*
X77616155Y-103633610D01*
X77664278Y-103707268D01*
X77815707Y-103871762D01*
X77846629Y-103934415D01*
X77838769Y-104003841D01*
X77794622Y-104057997D01*
X77767811Y-104071926D01*
X77647912Y-104116646D01*
X77647906Y-104116649D01*
X77532812Y-104202809D01*
X77532809Y-104202812D01*
X77446649Y-104317906D01*
X77446645Y-104317913D01*
X77396403Y-104452620D01*
X77396401Y-104452627D01*
X77390000Y-104512155D01*
X77390000Y-105160000D01*
X78306314Y-105160000D01*
X78280507Y-105200156D01*
X78240000Y-105338111D01*
X78240000Y-105481889D01*
X78280507Y-105619844D01*
X78306314Y-105660000D01*
X77390000Y-105660000D01*
X77390000Y-106307844D01*
X77396401Y-106367372D01*
X77396403Y-106367379D01*
X77446645Y-106502086D01*
X77446649Y-106502093D01*
X77532809Y-106617187D01*
X77532812Y-106617190D01*
X77647906Y-106703350D01*
X77647913Y-106703354D01*
X77782620Y-106753596D01*
X77782627Y-106753598D01*
X77842155Y-106759999D01*
X77842172Y-106760000D01*
X78490000Y-106760000D01*
X78490000Y-105845501D01*
X78597685Y-105894680D01*
X78704237Y-105910000D01*
X78775763Y-105910000D01*
X78882315Y-105894680D01*
X78990000Y-105845501D01*
X78990000Y-106760000D01*
X79637828Y-106760000D01*
X79637844Y-106759999D01*
X79697372Y-106753598D01*
X79697379Y-106753596D01*
X79832086Y-106703354D01*
X79832093Y-106703350D01*
X79947186Y-106617190D01*
X79973233Y-106582398D01*
X80029167Y-106540527D01*
X80098859Y-106535543D01*
X80160182Y-106569028D01*
X80193666Y-106630352D01*
X80196500Y-106656709D01*
X80196500Y-108086232D01*
X80176815Y-108153271D01*
X80160181Y-108173913D01*
X73271179Y-115062914D01*
X73258820Y-115072818D01*
X73258993Y-115073027D01*
X73252983Y-115077999D01*
X73205016Y-115129078D01*
X73183872Y-115150222D01*
X73183857Y-115150239D01*
X73179531Y-115155814D01*
X73175747Y-115160244D01*
X73143419Y-115194671D01*
X73143412Y-115194681D01*
X73133579Y-115212567D01*
X73122903Y-115228820D01*
X73110386Y-115244957D01*
X73110385Y-115244959D01*
X73091625Y-115288310D01*
X73089055Y-115293556D01*
X73066303Y-115334941D01*
X73066303Y-115334942D01*
X73061225Y-115354720D01*
X73054925Y-115373122D01*
X73046818Y-115391857D01*
X73039431Y-115438495D01*
X73038246Y-115444216D01*
X73026500Y-115489965D01*
X73026500Y-115510384D01*
X73024973Y-115529783D01*
X73021780Y-115549941D01*
X73021780Y-115549942D01*
X73026225Y-115596966D01*
X73026500Y-115602804D01*
X73026500Y-119066233D01*
X73006815Y-119133272D01*
X72990181Y-119153914D01*
X70893914Y-121250181D01*
X70832591Y-121283666D01*
X70806233Y-121286500D01*
X62313629Y-121286500D01*
X62297886Y-121284761D01*
X62297861Y-121285033D01*
X62290093Y-121284298D01*
X62220060Y-121286500D01*
X62190142Y-121286500D01*
X62183136Y-121287384D01*
X62177318Y-121287842D01*
X62130111Y-121289326D01*
X62130108Y-121289327D01*
X62110505Y-121295022D01*
X62091459Y-121298966D01*
X62071203Y-121301526D01*
X62071201Y-121301526D01*
X62027292Y-121318910D01*
X62021768Y-121320801D01*
X61976404Y-121333982D01*
X61976403Y-121333983D01*
X61958824Y-121344378D01*
X61941364Y-121352932D01*
X61922384Y-121360447D01*
X61922381Y-121360449D01*
X61884182Y-121388201D01*
X61879300Y-121391409D01*
X61838638Y-121415456D01*
X61824196Y-121429898D01*
X61809408Y-121442527D01*
X61792897Y-121454523D01*
X61792892Y-121454528D01*
X61762790Y-121490914D01*
X61758858Y-121495236D01*
X59301179Y-123952914D01*
X59288820Y-123962818D01*
X59288993Y-123963027D01*
X59282983Y-123967999D01*
X59235016Y-124019078D01*
X59213872Y-124040222D01*
X59213857Y-124040239D01*
X59209531Y-124045814D01*
X59205747Y-124050244D01*
X59173419Y-124084671D01*
X59173412Y-124084681D01*
X59163579Y-124102567D01*
X59152903Y-124118820D01*
X59140386Y-124134957D01*
X59140385Y-124134959D01*
X59121625Y-124178310D01*
X59119055Y-124183556D01*
X59096303Y-124224941D01*
X59096303Y-124224942D01*
X59091225Y-124244720D01*
X59084925Y-124263122D01*
X59076818Y-124281857D01*
X59069431Y-124328495D01*
X59068246Y-124334216D01*
X59056500Y-124379965D01*
X59056500Y-124400384D01*
X59054973Y-124419783D01*
X59051780Y-124439941D01*
X59051780Y-124439942D01*
X57620500Y-124439942D01*
X57620500Y-85720005D01*
X58961844Y-85720005D01*
X58980434Y-85944359D01*
X58980436Y-85944371D01*
X59035703Y-86162614D01*
X59126140Y-86368792D01*
X59249276Y-86557265D01*
X59249284Y-86557276D01*
X59401756Y-86722902D01*
X59401761Y-86722907D01*
X59434572Y-86748445D01*
X59579424Y-86861189D01*
X59579425Y-86861189D01*
X59579427Y-86861191D01*
X59625130Y-86885924D01*
X59777426Y-86968342D01*
X59990365Y-87041444D01*
X60212431Y-87078500D01*
X60437569Y-87078500D01*
X60659635Y-87041444D01*
X60872574Y-86968342D01*
X61070576Y-86861189D01*
X61248240Y-86722906D01*
X61400722Y-86557268D01*
X61523860Y-86368791D01*
X61614296Y-86162616D01*
X61669564Y-85944368D01*
X61669565Y-85944359D01*
X61688156Y-85720005D01*
X61688156Y-85719994D01*
X61669565Y-85495640D01*
X61669563Y-85495628D01*
X61647534Y-85408637D01*
X61614296Y-85277384D01*
X61523860Y-85071209D01*
X61489757Y-85019011D01*
X61434870Y-84935000D01*
X61400722Y-84882732D01*
X61249291Y-84718236D01*
X61232888Y-84685000D01*
X63538628Y-84685000D01*
X64180000Y-84685000D01*
X64180000Y-84042473D01*
X64142585Y-84050426D01*
X64142580Y-84050428D01*
X63964953Y-84129513D01*
X63807643Y-84243806D01*
X63677535Y-84388305D01*
X63580317Y-84556692D01*
X63580316Y-84556693D01*
X63538628Y-84684999D01*
X63538628Y-84685000D01*
X61232888Y-84685000D01*
X61218370Y-84655584D01*
X61226230Y-84586158D01*
X61270376Y-84532002D01*
X61297189Y-84518073D01*
X61417086Y-84473354D01*
X61417093Y-84473350D01*
X61532187Y-84387190D01*
X61532190Y-84387187D01*
X61618350Y-84272093D01*
X61618354Y-84272086D01*
X61668596Y-84137379D01*
X61668598Y-84137372D01*
X61674999Y-84077844D01*
X61675000Y-84077827D01*
X61675000Y-83645000D01*
X69570001Y-83645000D01*
X69570001Y-83769986D01*
X69580494Y-83872697D01*
X69635641Y-84039119D01*
X69635643Y-84039124D01*
X69727684Y-84188345D01*
X69851654Y-84312315D01*
X70000875Y-84404356D01*
X70000880Y-84404358D01*
X70167302Y-84459505D01*
X70167309Y-84459506D01*
X70270019Y-84469999D01*
X70719999Y-84469999D01*
X70720000Y-84469998D01*
X70720000Y-83645000D01*
X71220000Y-83645000D01*
X71220000Y-84469999D01*
X71669972Y-84469999D01*
X71669986Y-84469998D01*
X71772697Y-84459505D01*
X71939119Y-84404358D01*
X71939124Y-84404356D01*
X72088345Y-84312315D01*
X72212315Y-84188345D01*
X72304356Y-84039124D01*
X72304358Y-84039119D01*
X72359505Y-83872697D01*
X72359506Y-83872690D01*
X72369999Y-83769986D01*
X72370000Y-83769973D01*
X72370000Y-83645000D01*
X71220000Y-83645000D01*
X70720000Y-83645000D01*
X69570001Y-83645000D01*
X61675000Y-83645000D01*
X61675000Y-83430000D01*
X60758686Y-83430000D01*
X60784493Y-83389844D01*
X60825000Y-83251889D01*
X60825000Y-83145000D01*
X69570000Y-83145000D01*
X70720000Y-83145000D01*
X70720000Y-82320000D01*
X71220000Y-82320000D01*
X71220000Y-83145000D01*
X72369999Y-83145000D01*
X72369999Y-83020028D01*
X72369998Y-83020013D01*
X72359505Y-82917302D01*
X72304358Y-82750880D01*
X72304356Y-82750875D01*
X72212315Y-82601654D01*
X72088345Y-82477684D01*
X71939124Y-82385643D01*
X71939119Y-82385641D01*
X71772697Y-82330494D01*
X71772690Y-82330493D01*
X71669986Y-82320000D01*
X71220000Y-82320000D01*
X70720000Y-82320000D01*
X70270028Y-82320000D01*
X70270012Y-82320001D01*
X70167302Y-82330494D01*
X70000880Y-82385641D01*
X70000875Y-82385643D01*
X69851654Y-82477684D01*
X69727684Y-82601654D01*
X69635643Y-82750875D01*
X69635641Y-82750880D01*
X69580494Y-82917302D01*
X69580493Y-82917309D01*
X69570000Y-83020013D01*
X69570000Y-83145000D01*
X60825000Y-83145000D01*
X60825000Y-83108111D01*
X60784493Y-82970156D01*
X60758686Y-82930000D01*
X61675000Y-82930000D01*
X61675000Y-82282172D01*
X61674999Y-82282155D01*
X61668598Y-82222627D01*
X61668596Y-82222620D01*
X61618354Y-82087913D01*
X61618350Y-82087906D01*
X61532190Y-81972812D01*
X61532187Y-81972809D01*
X61417093Y-81886649D01*
X61417086Y-81886645D01*
X61282379Y-81836403D01*
X61282372Y-81836401D01*
X61222844Y-81830000D01*
X60575000Y-81830000D01*
X60575000Y-82744498D01*
X60467315Y-82695320D01*
X60360763Y-82680000D01*
X60289237Y-82680000D01*
X60182685Y-82695320D01*
X60075000Y-82744498D01*
X60075000Y-81830000D01*
X59427155Y-81830000D01*
X59367627Y-81836401D01*
X59367620Y-81836403D01*
X59232913Y-81886645D01*
X59232906Y-81886649D01*
X59117812Y-81972809D01*
X59117809Y-81972812D01*
X59031649Y-82087906D01*
X59031645Y-82087913D01*
X58981403Y-82222620D01*
X58981401Y-82222627D01*
X58975000Y-82282155D01*
X58975000Y-82930000D01*
X59891314Y-82930000D01*
X59865507Y-82970156D01*
X59825000Y-83108111D01*
X59825000Y-83251889D01*
X59865507Y-83389844D01*
X59891314Y-83430000D01*
X58975000Y-83430000D01*
X58975000Y-84077844D01*
X58981401Y-84137372D01*
X58981403Y-84137379D01*
X59031645Y-84272086D01*
X59031649Y-84272093D01*
X59117809Y-84387187D01*
X59117812Y-84387190D01*
X59232906Y-84473350D01*
X59232913Y-84473354D01*
X59352810Y-84518073D01*
X59408744Y-84559944D01*
X59433161Y-84625409D01*
X59418309Y-84693682D01*
X59400706Y-84718238D01*
X59249284Y-84882723D01*
X59249276Y-84882734D01*
X59126140Y-85071207D01*
X59035703Y-85277385D01*
X58980436Y-85495628D01*
X58980434Y-85495640D01*
X58961844Y-85719994D01*
X58961844Y-85720005D01*
X57620500Y-85720005D01*
X57620500Y-79984500D01*
X57640185Y-79917461D01*
X57692989Y-79871706D01*
X57744500Y-79860500D01*
X157825500Y-79860500D01*
X157892539Y-79880185D01*
G37*
%TD.AperFunction*%
%TD*%
M02*
