M48
; DRILL file {KiCad 7.0.8-7.0.8~ubuntu20.04.1} date di 10 okt 2023 13:21:05 CEST
; FORMAT={-:-/ absolute / inch / decimal}
; #@! TF.CreationDate,2023-10-10T13:21:05+02:00
; #@! TF.GenerationSoftware,Kicad,Pcbnew,7.0.8-7.0.8~ubuntu20.04.1
; #@! TF.FileFunction,Plated,1,2,PTH
FMAT,2
INCH
; #@! TA.AperFunction,Plated,PTH,ViaDrill
T1C0.0157
; #@! TA.AperFunction,Plated,PTH,ComponentDrill
T2C0.0197
; #@! TA.AperFunction,Plated,PTH,ComponentDrill
T3C0.0394
; #@! TA.AperFunction,Plated,PTH,ComponentDrill
T4C0.0512
%
G90
G05
T1
X2.56Y-5.34
X2.59Y-3.71
X2.625Y-3.45
X2.625Y-4.925
X2.625Y-4.975
X2.625Y-5.15
X2.625Y-5.2
X2.675Y-4.925
X2.675Y-4.975
X2.675Y-5.15
X2.675Y-5.2
X2.7Y-3.66
X2.725Y-4.925
X2.725Y-4.975
X2.725Y-5.15
X2.725Y-5.2
X2.75Y-3.45
X2.75Y-3.65
X2.775Y-4.925
X2.775Y-4.975
X2.775Y-5.15
X2.775Y-5.2
X2.8Y-3.225
X2.82Y-3.46
X2.85Y-3.6
X2.85Y-3.67
X2.975Y-4.75
X3.0Y-5.0
X3.0Y-5.0
X3.0Y-5.0
X3.05Y-3.6
X3.075Y-4.825
X3.15Y-3.325
X3.15Y-3.425
X3.15Y-4.5
X3.3Y-4.7
X3.4Y-4.85
X3.7126Y-3.5941
X3.8626Y-3.9941
X3.8876Y-4.1
X3.9126Y-3.3941
X3.9126Y-3.6441
X3.9126Y-3.8441
X4.0126Y-3.9441
X4.0626Y-3.4941
X4.2626Y-3.8941
X4.2652Y-3.4644
X4.4126Y-3.5412
X4.4626Y-3.9941
X4.5626Y-3.5412
X4.5626Y-3.9941
T2
X2.5366Y-3.3439
X2.5366Y-3.3833
X2.576Y-3.3439
X2.576Y-3.3833
X2.6154Y-3.3439
X2.6154Y-3.3833
X2.6547Y-3.3439
X2.6547Y-3.3833
X2.6941Y-3.3439
X2.6941Y-3.3833
T3
X2.375Y-3.2748
X2.375Y-3.3748
X2.45Y-5.65
X2.45Y-5.75
X2.7Y-4.25
X2.7Y-4.35
X2.7Y-4.55
X2.7Y-4.65
X3.1Y-3.75
X3.1Y-3.85
X3.1Y-3.95
X3.1Y-4.05
X3.1Y-4.15
X3.325Y-3.275
X3.325Y-3.375
X3.325Y-3.475
X3.325Y-3.575
X3.325Y-3.675
X3.6126Y-3.4941
X3.6126Y-3.5941
X3.6126Y-3.6941
X3.6126Y-3.7941
X3.6126Y-3.8941
X4.4626Y-3.2571
X4.4626Y-3.7354
X4.5626Y-3.2571
X4.5626Y-3.7354
X4.6626Y-3.2571
X4.6626Y-3.7354
X4.7626Y-3.2571
X4.7626Y-3.7354
X4.8626Y-3.2571
X4.8626Y-3.7354
X4.9626Y-3.2571
X4.9626Y-3.7354
X5.0626Y-3.2571
X5.0626Y-3.7354
X5.1626Y-3.2571
X5.1626Y-3.7354
T4
X3.6518Y-5.225
X4.4392Y-5.225
T0
M30
